<svg width="428" height="102" viewBox="0 0 428 102" fill="none" xmlns="http://www.w3.org/2000/svg">
<rect x="0.5" y="0.5" width="427" height="101" rx="50.5" fill="#F0EDE5" stroke="black"/>
<path d="M36.432 32.6H47.612C60.768 32.6 68.984 39.724 68.984 50.8C68.984 61.876 60.768 69 47.612 69H36.432V32.6ZM41.372 68.48H47.612C58.324 68.48 63.524 61.772 63.524 50.8C63.524 39.828 58.324 33.12 47.612 33.12H41.372V68.48ZM78.4265 43V51.424C79.5705 46.276 82.6905 42.48 88.7745 42.48V43C81.2345 43 78.4265 49.188 78.4265 56.468V69H73.7465V43H78.4265ZM94.011 32.444C95.779 32.444 96.975 33.744 96.975 35.304C96.975 36.864 95.779 38.164 94.011 38.164C92.295 38.164 91.099 36.864 91.099 35.304C91.099 33.744 92.295 32.444 94.011 32.444ZM96.403 69H91.723V43H96.403V69ZM117.205 42.48C122.717 42.48 126.357 46.12 126.357 52.1V69H121.677V51.008C121.677 46.432 119.181 43.936 115.489 43.936C110.497 43.936 107.169 49.136 107.169 56V69H102.489V43H107.169V51.632C108.313 46.12 111.745 42.48 117.205 42.48ZM154.66 43L143.792 52.204L156.948 69H151.436L140.256 55.428H136.876V69H132.196V32.6H136.876V54.908H139.788L153.828 43H154.66ZM161.398 32.444C163.166 32.444 164.362 33.744 164.362 35.304C164.362 36.864 163.166 38.164 161.398 38.164C159.682 38.164 158.486 36.864 158.486 35.304C158.486 33.744 159.682 32.444 161.398 32.444ZM163.79 69H159.11V43H163.79V69ZM184.591 42.48C190.103 42.48 193.743 46.12 193.743 52.1V69H189.063V51.008C189.063 46.432 186.567 43.936 182.875 43.936C177.883 43.936 174.555 49.136 174.555 56V69H169.875V43H174.555V51.632C175.699 46.12 179.131 42.48 184.591 42.48ZM201.818 61.772H212.634C218.094 61.772 221.526 64.684 221.526 69.208C221.526 74.772 216.274 77.84 208.214 77.84C203.17 77.84 198.906 76.54 196.046 73.524L196.41 73.056C199.27 76.176 203.586 77.32 208.11 77.32C215.442 77.32 219.394 74.98 219.394 71.132C219.394 68.012 217.106 66.556 212.634 66.556H201.298V55.792C199.218 54.44 198.022 52.516 198.022 50.072C198.022 45.392 202.442 42.48 209.514 42.48C217.262 42.48 220.902 40.192 220.902 36.864C220.902 33.484 217.418 31.976 212.218 32.808V32.288C217.73 31.456 221.422 33.172 221.422 36.864C221.422 39.932 218.718 42.116 213.206 42.792C217.938 43.676 220.798 46.276 220.798 50.072C220.798 54.856 216.482 57.768 209.566 57.768C206.394 57.768 203.794 57.196 201.818 56.104V61.772ZM209.462 43C205.094 43 202.338 45.652 202.338 50.02C202.338 54.492 205.094 57.248 209.462 57.248C213.726 57.248 216.43 54.492 216.43 50.02C216.43 45.652 213.726 43 209.462 43ZM253.874 69.52C243.682 69.52 235.05 62.24 235.05 50.852C235.05 40.192 242.85 32.08 253.666 32.08C262.818 32.08 269.214 38.216 269.474 48.46H269.006C268.642 38.58 262.35 32.964 255.122 32.964C246.178 32.964 240.51 40.244 240.51 50.54C240.51 61.096 246.334 68.532 255.174 68.532C262.246 68.532 268.382 63.904 269.318 53.92H269.838C268.85 64.684 261.986 69.52 253.874 69.52ZM286.342 42.48C293.258 42.48 299.706 47.836 299.706 55.896C299.706 64.06 293.258 69.52 286.342 69.52C279.426 69.52 272.978 64.06 272.978 55.896C272.978 47.836 279.426 42.48 286.342 42.48ZM286.342 69C291.386 69 294.766 64.268 294.766 55.896C294.766 47.628 291.386 43 286.342 43C281.298 43 277.918 47.628 277.918 55.896C277.918 64.268 281.298 69 286.342 69ZM316.245 32.08C320.457 32.08 323.577 34.056 324.721 37.28L324.253 37.488C323.317 34.732 320.665 33.068 317.545 33.068C313.021 33.068 309.901 36.344 309.901 41.596V43H320.145V43.52H309.901V69H305.221V44.248V43.52H299.553V43H305.273C305.741 35.668 310.421 32.08 316.245 32.08ZM337.624 32.08C341.836 32.08 344.956 34.056 346.1 37.28L345.632 37.488C344.696 34.732 342.044 33.068 338.924 33.068C334.4 33.068 331.28 36.344 331.28 41.596V43H341.524V43.52H331.28V69H326.6V44.248V43.52H320.932V43H326.652C327.12 35.668 331.8 32.08 337.624 32.08ZM364.199 56.104H344.595V56.208C344.595 64.476 348.027 68.532 354.163 68.532C359.519 68.532 362.847 65.256 363.471 59.796H363.939C363.263 66.036 359.155 69.52 352.811 69.52C344.751 69.52 339.655 64.164 339.655 56.104C339.655 47.888 344.959 42.48 352.499 42.48C359.727 42.48 364.407 47.524 364.199 56.104ZM352.447 43C347.923 43 344.751 47.732 344.595 55.584H359.675C359.623 47.576 357.023 43 352.447 43ZM392.027 56.104H372.423V56.208C372.423 64.476 375.855 68.532 381.991 68.532C387.347 68.532 390.675 65.256 391.299 59.796H391.767C391.091 66.036 386.983 69.52 380.639 69.52C372.579 69.52 367.483 64.164 367.483 56.104C367.483 47.888 372.787 42.48 380.327 42.48C387.555 42.48 392.235 47.524 392.027 56.104ZM380.275 43C375.751 43 372.579 47.732 372.423 55.584H387.503C387.451 47.576 384.851 43 380.275 43Z" fill="black"/>
<path d="M36.432 32.6V31.6H35.432V32.6H36.432ZM36.432 69H35.432V70H36.432V69ZM41.372 68.48H40.372V69.48H41.372V68.48ZM41.372 33.12V32.12H40.372V33.12H41.372ZM36.432 33.6H47.612V31.6H36.432V33.6ZM47.612 33.6C54.0168 33.6 59.108 35.3335 62.5813 38.3062C66.0379 41.2647 67.984 45.5269 67.984 50.8H69.984C69.984 44.9971 67.8221 40.1593 63.8817 36.7868C59.958 33.4285 54.3632 31.6 47.612 31.6V33.6ZM67.984 50.8C67.984 56.0731 66.0379 60.3353 62.5813 63.2938C59.108 66.2665 54.0168 68 47.612 68V70C54.3632 70 59.958 68.1715 63.8817 64.8132C67.8221 61.4407 69.984 56.6029 69.984 50.8H67.984ZM47.612 68H36.432V70H47.612V68ZM37.432 69V32.6H35.432V69H37.432ZM41.372 69.48H47.612V67.48H41.372V69.48ZM47.612 69.48C53.1859 69.48 57.4694 67.7263 60.3411 64.409C63.1918 61.1159 64.524 56.4277 64.524 50.8H62.524C62.524 56.1443 61.2562 60.2961 58.8289 63.1C56.4226 65.8797 52.7501 67.48 47.612 67.48V69.48ZM64.524 50.8C64.524 45.1723 63.1918 40.4841 60.3411 37.191C57.4694 33.8737 53.1859 32.12 47.612 32.12V34.12C52.7501 34.12 56.4226 35.7203 58.8289 38.5C61.2562 41.3039 62.524 45.4557 62.524 50.8H64.524ZM47.612 32.12H41.372V34.12H47.612V32.12ZM40.372 33.12V68.48H42.372V33.12H40.372ZM78.4265 43H79.4265V42H78.4265V43ZM78.4265 51.424H77.4265L79.4027 51.6409L78.4265 51.424ZM88.7745 42.48H89.7745V41.48H88.7745V42.48ZM88.7745 43V44H89.7745V43H88.7745ZM78.4265 69V70H79.4265V69H78.4265ZM73.7465 69H72.7465V70H73.7465V69ZM73.7465 43V42H72.7465V43H73.7465ZM77.4265 43V51.424H79.4265V43H77.4265ZM79.4027 51.6409C79.9463 49.1946 80.9398 47.1625 82.4352 45.748C83.9119 44.351 85.9576 43.48 88.7745 43.48V41.48C85.5074 41.48 82.951 42.507 81.0608 44.295C79.1892 46.0655 78.0506 48.5054 77.4503 51.2071L79.4027 51.6409ZM87.7745 42.48V43H89.7745V42.48H87.7745ZM88.7745 42C84.6824 42 81.7784 43.7039 79.9419 46.4478C78.1444 49.1335 77.4265 52.7245 77.4265 56.468H79.4265C79.4265 52.9315 80.1126 49.7885 81.604 47.5602C83.0565 45.3901 85.3266 44 88.7745 44V42ZM77.4265 56.468V69H79.4265V56.468H77.4265ZM78.4265 68H73.7465V70H78.4265V68ZM74.7465 69V43H72.7465V69H74.7465ZM73.7465 44H78.4265V42H73.7465V44ZM96.403 69V70H97.403V69H96.403ZM91.723 69H90.723V70H91.723V69ZM91.723 43V42H90.723V43H91.723ZM96.403 43H97.403V42H96.403V43ZM94.011 33.444C95.2267 33.444 95.975 34.2963 95.975 35.304H97.975C97.975 33.1917 96.3313 31.444 94.011 31.444V33.444ZM95.975 35.304C95.975 36.3117 95.2267 37.164 94.011 37.164V39.164C96.3313 39.164 97.975 37.4163 97.975 35.304H95.975ZM94.011 37.164C92.8591 37.164 92.099 36.3236 92.099 35.304H90.099C90.099 37.4044 91.7309 39.164 94.011 39.164V37.164ZM92.099 35.304C92.099 34.2844 92.8591 33.444 94.011 33.444V31.444C91.7309 31.444 90.099 33.2036 90.099 35.304H92.099ZM96.403 68H91.723V70H96.403V68ZM92.723 69V43H90.723V69H92.723ZM91.723 44H96.403V42H91.723V44ZM95.403 43V69H97.403V43H95.403ZM126.357 69V70H127.357V69H126.357ZM121.677 69H120.677V70H121.677V69ZM107.169 69V70H108.169V69H107.169ZM102.489 69H101.489V70H102.489V69ZM102.489 43V42H101.489V43H102.489ZM107.169 43H108.169V42H107.169V43ZM107.169 51.632H106.169L108.148 51.8352L107.169 51.632ZM117.205 43.48C119.735 43.48 121.747 44.3102 123.128 45.7418C124.512 47.1765 125.357 49.3136 125.357 52.1H127.357C127.357 48.9064 126.381 46.2335 124.567 44.3532C122.75 42.4698 120.187 41.48 117.205 41.48V43.48ZM125.357 52.1V69H127.357V52.1H125.357ZM126.357 68H121.677V70H126.357V68ZM122.677 69V51.008H120.677V69H122.677ZM122.677 51.008C122.677 48.5437 122.003 46.5112 120.708 45.0839C119.403 43.6462 117.569 42.936 115.489 42.936V44.936C117.1 44.936 118.361 45.4738 119.227 46.4281C120.102 47.3928 120.677 48.8963 120.677 51.008H122.677ZM115.489 42.936C112.6 42.936 110.233 44.4556 108.628 46.8347C107.035 49.1955 106.169 52.4195 106.169 56H108.169C108.169 52.7165 108.966 49.9085 110.286 47.9533C111.592 46.0164 113.386 44.936 115.489 44.936V42.936ZM106.169 56V69H108.169V56H106.169ZM107.169 68H102.489V70H107.169V68ZM103.489 69V43H101.489V69H103.489ZM102.489 44H107.169V42H102.489V44ZM106.169 43V51.632H108.169V43H106.169ZM108.148 51.8352C108.69 49.2247 109.757 47.139 111.257 45.7141C112.743 44.3028 114.714 43.48 117.205 43.48V41.48C114.235 41.48 111.761 42.4772 109.879 44.2639C108.013 46.037 106.792 48.5273 106.19 51.4288L108.148 51.8352ZM154.66 43L155.306 43.7631L157.388 42H154.66V43ZM143.792 52.204L143.145 51.4409L142.411 52.0629L143.004 52.8206L143.792 52.204ZM156.948 69V70H159.001L157.735 68.3834L156.948 69ZM151.436 69L150.664 69.6358L150.964 70H151.436V69ZM140.256 55.428L141.028 54.7922L140.728 54.428H140.256V55.428ZM136.876 55.428V54.428H135.876V55.428H136.876ZM136.876 69V70H137.876V69H136.876ZM132.196 69H131.196V70H132.196V69ZM132.196 32.6V31.6H131.196V32.6H132.196ZM136.876 32.6H137.876V31.6H136.876V32.6ZM136.876 54.908H135.876V55.908H136.876V54.908ZM139.788 54.908V55.908H140.155L140.435 55.6706L139.788 54.908ZM153.828 43V42H153.461L153.181 42.2374L153.828 43ZM154.013 42.2369L143.145 51.4409L144.438 52.9671L155.306 43.7631L154.013 42.2369ZM143.004 52.8206L156.16 69.6166L157.735 68.3834L144.579 51.5874L143.004 52.8206ZM156.948 68H151.436V70H156.948V68ZM152.208 68.3642L141.028 54.7922L139.484 56.0638L150.664 69.6358L152.208 68.3642ZM140.256 54.428H136.876V56.428H140.256V54.428ZM135.876 55.428V69H137.876V55.428H135.876ZM136.876 68H132.196V70H136.876V68ZM133.196 69V32.6H131.196V69H133.196ZM132.196 33.6H136.876V31.6H132.196V33.6ZM135.876 32.6V54.908H137.876V32.6H135.876ZM136.876 55.908H139.788V53.908H136.876V55.908ZM140.435 55.6706L154.475 43.7626L153.181 42.2374L139.141 54.1454L140.435 55.6706ZM153.828 44H154.66V42H153.828V44ZM163.79 69V70H164.79V69H163.79ZM159.11 69H158.11V70H159.11V69ZM159.11 43V42H158.11V43H159.11ZM163.79 43H164.79V42H163.79V43ZM161.398 33.444C162.613 33.444 163.362 34.2963 163.362 35.304H165.362C165.362 33.1917 163.718 31.444 161.398 31.444V33.444ZM163.362 35.304C163.362 36.3117 162.613 37.164 161.398 37.164V39.164C163.718 39.164 165.362 37.4163 165.362 35.304H163.362ZM161.398 37.164C160.246 37.164 159.486 36.3236 159.486 35.304H157.486C157.486 37.4044 159.118 39.164 161.398 39.164V37.164ZM159.486 35.304C159.486 34.2844 160.246 33.444 161.398 33.444V31.444C159.118 31.444 157.486 33.2036 157.486 35.304H159.486ZM163.79 68H159.11V70H163.79V68ZM160.11 69V43H158.11V69H160.11ZM159.11 44H163.79V42H159.11V44ZM162.79 43V69H164.79V43H162.79ZM193.743 69V70H194.743V69H193.743ZM189.063 69H188.063V70H189.063V69ZM174.555 69V70H175.555V69H174.555ZM169.875 69H168.875V70H169.875V69ZM169.875 43V42H168.875V43H169.875ZM174.555 43H175.555V42H174.555V43ZM174.555 51.632H173.555L175.535 51.8352L174.555 51.632ZM184.591 43.48C187.121 43.48 189.134 44.3102 190.515 45.7418C191.899 47.1765 192.743 49.3136 192.743 52.1H194.743C194.743 48.9064 193.768 46.2335 191.954 44.3532C190.137 42.4698 187.573 41.48 184.591 41.48V43.48ZM192.743 52.1V69H194.743V52.1H192.743ZM193.743 68H189.063V70H193.743V68ZM190.063 69V51.008H188.063V69H190.063ZM190.063 51.008C190.063 48.5437 189.39 46.5112 188.094 45.0839C186.789 43.6462 184.956 42.936 182.875 42.936V44.936C184.487 44.936 185.747 45.4738 186.613 46.4281C187.489 47.3928 188.063 48.8963 188.063 51.008H190.063ZM182.875 42.936C179.986 42.936 177.62 44.4556 176.014 46.8347C174.422 49.1955 173.555 52.4195 173.555 56H175.555C175.555 52.7165 176.353 49.9085 177.672 47.9533C178.979 46.0164 180.772 44.936 182.875 44.936V42.936ZM173.555 56V69H175.555V56H173.555ZM174.555 68H169.875V70H174.555V68ZM170.875 69V43H168.875V69H170.875ZM169.875 44H174.555V42H169.875V44ZM173.555 43V51.632H175.555V43H173.555ZM175.535 51.8352C176.076 49.2247 177.143 47.139 178.644 45.7141C180.129 44.3028 182.101 43.48 184.591 43.48V41.48C181.622 41.48 179.147 42.4772 177.266 44.2639C175.399 46.037 174.178 48.5273 173.576 51.4288L175.535 51.8352ZM201.818 61.772H200.818V62.772H201.818V61.772ZM196.046 73.524L195.257 72.9101L194.729 73.5885L195.321 74.2121L196.046 73.524ZM196.41 73.056L197.148 72.3803L196.348 71.5077L195.621 72.4421L196.41 73.056ZM201.298 66.556H200.298V67.556H201.298V66.556ZM201.298 55.792H202.298V55.2493L201.843 54.9536L201.298 55.792ZM212.218 32.808H211.218V33.9807L212.376 33.7954L212.218 32.808ZM212.218 32.288L212.069 31.2992L211.218 31.4276V32.288H212.218ZM213.206 42.792L213.085 41.7994L213.023 43.775L213.206 42.792ZM201.818 56.104L202.302 55.2288L200.818 54.4088V56.104H201.818ZM201.818 62.772H212.634V60.772H201.818V62.772ZM212.634 62.772C215.195 62.772 217.169 63.4545 218.485 64.5593C219.782 65.6487 220.526 67.2187 220.526 69.208H222.526C222.526 66.6733 221.555 64.5253 219.771 63.0277C218.006 61.5455 215.534 60.772 212.634 60.772V62.772ZM220.526 69.208C220.526 71.617 219.416 73.4688 217.36 74.7645C215.257 76.0897 212.139 76.84 208.214 76.84V78.84C212.35 78.84 215.888 78.0563 218.426 76.4565C221.011 74.8272 222.526 72.363 222.526 69.208H220.526ZM208.214 76.84C203.324 76.84 199.374 75.5793 196.772 72.8359L195.321 74.2121C198.439 77.5007 203.017 78.84 208.214 78.84V76.84ZM196.836 74.1379L197.2 73.6699L195.621 72.4421L195.257 72.9101L196.836 74.1379ZM195.673 73.7317C198.801 77.1439 203.448 78.32 208.11 78.32V76.32C203.725 76.32 199.74 75.2081 197.148 72.3803L195.673 73.7317ZM208.11 78.32C211.858 78.32 214.874 77.726 216.99 76.5416C219.159 75.328 220.394 73.4741 220.394 71.132H218.394C218.394 72.6379 217.654 73.878 216.013 74.7964C214.32 75.744 211.695 76.32 208.11 76.32V78.32ZM220.394 71.132C220.394 69.2879 219.695 67.8077 218.246 66.8419C216.872 65.9261 214.946 65.556 212.634 65.556V67.556C214.795 67.556 216.248 67.9139 217.137 68.5061C217.95 69.0483 218.394 69.8561 218.394 71.132H220.394ZM212.634 65.556H201.298V67.556H212.634V65.556ZM202.298 66.556V55.792H200.298V66.556H202.298ZM201.843 54.9536C200.005 53.7587 199.022 52.1302 199.022 50.072H197.022C197.022 52.9018 198.432 55.1213 200.753 56.6304L201.843 54.9536ZM199.022 50.072C199.022 48.0971 199.933 46.5001 201.667 45.3556C203.439 44.1861 206.098 43.48 209.514 43.48V41.48C205.859 41.48 202.772 42.2299 200.565 43.6864C198.321 45.1679 197.022 47.3669 197.022 50.072H199.022ZM209.514 43.48C213.462 43.48 216.495 42.9012 218.579 41.805C220.712 40.6835 221.902 38.977 221.902 36.864H219.902C219.902 38.079 219.273 39.1804 217.648 40.0349C215.976 40.9148 213.315 41.48 209.514 41.48V43.48ZM221.902 36.864C221.902 34.7465 220.769 33.1897 218.926 32.3471C217.155 31.5372 214.761 31.3885 212.06 31.8206L212.376 33.7954C214.876 33.3955 216.824 33.5848 218.095 34.1659C219.294 34.7143 219.902 35.6015 219.902 36.864H221.902ZM213.218 32.808V32.288H211.218V32.808H213.218ZM212.368 33.2768C215.017 32.8769 217.089 33.1147 218.449 33.7782C219.741 34.4086 220.422 35.4259 220.422 36.864H222.422C222.422 34.6101 221.258 32.9233 219.326 31.9808C217.462 31.0713 214.932 30.8671 212.069 31.2992L212.368 33.2768ZM220.422 36.864C220.422 38.0558 219.918 39.081 218.785 39.9223C217.613 40.7928 215.751 41.4724 213.085 41.7994L213.328 43.7846C216.174 43.4356 218.42 42.6852 219.978 41.5277C221.575 40.341 222.422 38.7402 222.422 36.864H220.422ZM213.023 43.775C215.261 44.1931 216.962 45.0007 218.09 46.0667C219.198 47.114 219.798 48.4507 219.798 50.072H221.798C221.798 47.8972 220.969 46.036 219.464 44.6133C217.979 43.2093 215.884 42.2749 213.39 41.809L213.023 43.775ZM219.798 50.072C219.798 52.1174 218.896 53.739 217.212 54.8879C215.49 56.0632 212.902 56.768 209.566 56.768V58.768C213.147 58.768 216.175 58.0168 218.34 56.5401C220.543 55.037 221.798 52.8106 221.798 50.072H219.798ZM209.566 56.768C206.505 56.768 204.086 56.2146 202.302 55.2288L201.335 56.9792C203.503 58.1774 206.284 58.768 209.566 58.768V56.768ZM200.818 56.104V61.772H202.818V56.104H200.818ZM209.462 42C207.076 42 205.023 42.728 203.563 44.1574C202.1 45.5895 201.338 47.6216 201.338 50.02H203.338C203.338 48.0504 203.955 46.5725 204.962 45.5866C205.972 44.598 207.481 44 209.462 44V42ZM201.338 50.02C201.338 52.4631 202.095 54.5426 203.552 56.0144C205.009 57.4871 207.065 58.248 209.462 58.248V56.248C207.492 56.248 205.986 55.6309 204.973 54.6076C203.96 53.5834 203.338 52.0489 203.338 50.02H201.338ZM209.462 58.248C211.815 58.248 213.834 57.4825 215.264 56.0068C216.69 54.5344 217.43 52.4577 217.43 50.02H215.43C215.43 52.0543 214.819 53.5916 213.827 54.6152C212.839 55.6355 211.374 56.248 209.462 56.248V58.248ZM217.43 50.02C217.43 47.6272 216.686 45.5979 215.253 44.1649C213.82 42.7322 211.804 42 209.462 42V44C211.385 44 212.853 44.5938 213.838 45.5791C214.823 46.5641 215.43 48.0448 215.43 50.02H217.43ZM269.474 48.46V49.46H270.5L270.474 48.4346L269.474 48.46ZM269.006 48.46L268.007 48.4968L268.043 49.46H269.006V48.46ZM269.318 53.92V52.92H268.408L268.323 53.8267L269.318 53.92ZM269.838 53.92L270.834 54.0114L270.934 52.92H269.838V53.92ZM253.874 68.52C244.181 68.52 236.05 61.6352 236.05 50.852H234.05C234.05 62.8448 243.184 70.52 253.874 70.52V68.52ZM236.05 50.852C236.05 40.7277 243.419 33.08 253.666 33.08V31.08C242.282 31.08 234.05 39.6563 234.05 50.852H236.05ZM253.666 33.08C258.012 33.08 261.63 34.5319 264.193 37.1307C266.758 39.732 268.35 43.568 268.475 48.4854L270.474 48.4346C270.339 43.108 268.603 38.754 265.617 35.7263C262.629 32.6961 258.472 31.08 253.666 31.08V33.08ZM269.474 47.46H269.006V49.46H269.474V47.46ZM270.006 48.4232C269.625 38.0832 262.963 31.964 255.122 31.964V33.964C261.738 33.964 267.66 39.0768 268.007 48.4968L270.006 48.4232ZM255.122 31.964C250.354 31.964 246.415 33.916 243.688 37.2588C240.976 40.5828 239.51 45.2167 239.51 50.54H241.51C241.51 45.5673 242.879 41.4132 245.237 38.5232C247.58 35.652 250.947 33.964 255.122 33.964V31.964ZM239.51 50.54C239.51 55.994 241.015 60.7288 243.749 64.1219C246.497 67.5329 250.448 69.532 255.174 69.532V67.532C251.061 67.532 247.68 65.8131 245.306 62.8671C242.918 59.9032 241.51 55.642 241.51 50.54H239.51ZM255.174 69.532C258.932 69.532 262.492 68.2989 265.236 65.6955C267.98 63.092 269.828 59.1957 270.314 54.0133L268.323 53.8267C267.873 58.6283 266.185 62.038 263.859 64.2445C261.533 66.4511 258.489 67.532 255.174 67.532V69.532ZM269.318 54.92H269.838V52.92H269.318V54.92ZM268.843 53.8286C268.367 59.0082 266.492 62.6558 263.861 65.0114C261.224 67.3721 257.733 68.52 253.874 68.52V70.52C258.128 70.52 262.125 69.2499 265.195 66.5016C268.271 63.7482 270.322 59.5958 270.834 54.0114L268.843 53.8286ZM286.342 43.48C292.757 43.48 298.706 48.4384 298.706 55.896H300.706C300.706 47.2336 293.759 41.48 286.342 41.48V43.48ZM298.706 55.896C298.706 63.4728 292.741 68.52 286.342 68.52V70.52C293.775 70.52 300.706 64.6472 300.706 55.896H298.706ZM286.342 68.52C279.943 68.52 273.978 63.4728 273.978 55.896H271.978C271.978 64.6472 278.909 70.52 286.342 70.52V68.52ZM273.978 55.896C273.978 48.4384 279.927 43.48 286.342 43.48V41.48C278.925 41.48 271.978 47.2336 271.978 55.896H273.978ZM286.342 70C289.225 70 291.633 68.6266 293.279 66.1394C294.9 63.6902 295.766 60.1982 295.766 55.896H293.766C293.766 59.9658 292.942 63.0258 291.612 65.0356C290.307 67.0074 288.503 68 286.342 68V70ZM295.766 55.896C295.766 51.6439 294.9 48.2008 293.275 45.7888C291.624 43.3387 289.216 42 286.342 42V44C288.512 44 290.315 44.9753 291.616 46.9062C292.942 48.8752 293.766 51.8801 293.766 55.896H295.766ZM286.342 42C283.468 42 281.059 43.3387 279.409 45.7888C277.784 48.2008 276.918 51.6439 276.918 55.896H278.918C278.918 51.8801 279.742 48.8752 281.068 46.9062C282.368 44.9753 284.172 44 286.342 44V42ZM276.918 55.896C276.918 60.1982 277.784 63.6902 279.405 66.1394C281.051 68.6266 283.459 70 286.342 70V68C284.181 68 282.377 67.0074 281.072 65.0356C279.742 63.0258 278.918 59.9658 278.918 55.896H276.918ZM324.721 37.28L325.127 38.1938L325.973 37.8179L325.664 36.9456L324.721 37.28ZM324.253 37.488L323.306 37.8096L323.659 38.8466L324.659 38.4018L324.253 37.488ZM309.901 43H308.901V44H309.901V43ZM320.145 43H321.145V42H320.145V43ZM320.145 43.52V44.52H321.145V43.52H320.145ZM309.901 43.52V42.52H308.901V43.52H309.901ZM309.901 69V70H310.901V69H309.901ZM305.221 69H304.221V70H305.221V69ZM305.221 43.52H306.221V42.52H305.221V43.52ZM299.553 43.52H298.553V44.52H299.553V43.52ZM299.553 43V42H298.553V43H299.553ZM305.273 43V44H306.211L306.271 43.0637L305.273 43ZM316.245 33.08C320.137 33.08 322.808 34.8788 323.779 37.6144L325.664 36.9456C324.346 33.2332 320.777 31.08 316.245 31.08V33.08ZM324.315 36.3662L323.847 36.5742L324.659 38.4018L325.127 38.1938L324.315 36.3662ZM325.2 37.1664C324.103 33.9367 321.017 32.068 317.545 32.068V34.068C320.314 34.068 322.531 35.5273 323.306 37.8096L325.2 37.1664ZM317.545 32.068C315.03 32.068 312.841 32.9855 311.288 34.6887C309.742 36.3841 308.901 38.7736 308.901 41.596H310.901C310.901 39.1664 311.621 37.2919 312.766 36.0363C313.903 34.7885 315.536 34.068 317.545 34.068V32.068ZM308.901 41.596V43H310.901V41.596H308.901ZM309.901 44H320.145V42H309.901V44ZM319.145 43V43.52H321.145V43H319.145ZM320.145 42.52H309.901V44.52H320.145V42.52ZM308.901 43.52V69H310.901V43.52H308.901ZM309.901 68H305.221V70H309.901V68ZM306.221 69V44.248H304.221V69H306.221ZM306.221 44.248V43.52H304.221V44.248H306.221ZM305.221 42.52H299.553V44.52H305.221V42.52ZM300.553 43.52V43H298.553V43.52H300.553ZM299.553 44H305.273V42H299.553V44ZM306.271 43.0637C306.492 39.6046 307.695 37.1325 309.431 35.5239C311.171 33.9111 313.539 33.08 316.245 33.08V31.08C313.128 31.08 310.244 32.0429 308.071 34.0571C305.893 36.0755 304.522 39.0634 304.275 42.9363L306.271 43.0637ZM346.1 37.28L346.506 38.1938L347.352 37.8179L347.043 36.9456L346.1 37.28ZM345.632 37.488L344.685 37.8096L345.037 38.8466L346.038 38.4018L345.632 37.488ZM331.28 43H330.28V44H331.28V43ZM341.524 43H342.524V42H341.524V43ZM341.524 43.52V44.52H342.524V43.52H341.524ZM331.28 43.52V42.52H330.28V43.52H331.28ZM331.28 69V70H332.28V69H331.28ZM326.6 69H325.6V70H326.6V69ZM326.6 43.52H327.6V42.52H326.6V43.52ZM320.932 43.52H319.932V44.52H320.932V43.52ZM320.932 43V42H319.932V43H320.932ZM326.652 43V44H327.59L327.65 43.0637L326.652 43ZM337.624 33.08C341.516 33.08 344.187 34.8788 345.158 37.6144L347.043 36.9456C345.725 33.2332 342.156 31.08 337.624 31.08V33.08ZM345.694 36.3662L345.226 36.5742L346.038 38.4018L346.506 38.1938L345.694 36.3662ZM346.579 37.1664C345.482 33.9367 342.396 32.068 338.924 32.068V34.068C341.692 34.068 343.91 35.5273 344.685 37.8096L346.579 37.1664ZM338.924 32.068C336.409 32.068 334.22 32.9855 332.667 34.6887C331.121 36.3841 330.28 38.7736 330.28 41.596H332.28C332.28 39.1664 333 37.2919 334.145 36.0363C335.282 34.7885 336.915 34.068 338.924 34.068V32.068ZM330.28 41.596V43H332.28V41.596H330.28ZM331.28 44H341.524V42H331.28V44ZM340.524 43V43.52H342.524V43H340.524ZM341.524 42.52H331.28V44.52H341.524V42.52ZM330.28 43.52V69H332.28V43.52H330.28ZM331.28 68H326.6V70H331.28V68ZM327.6 69V44.248H325.6V69H327.6ZM327.6 44.248V43.52H325.6V44.248H327.6ZM326.6 42.52H320.932V44.52H326.6V42.52ZM321.932 43.52V43H319.932V43.52H321.932ZM320.932 44H326.652V42H320.932V44ZM327.65 43.0637C327.871 39.6046 329.074 37.1325 330.809 35.5239C332.549 33.9111 334.918 33.08 337.624 33.08V31.08C334.507 31.08 331.623 32.0429 329.45 34.0571C327.272 36.0755 325.901 39.0634 325.654 42.9363L327.65 43.0637ZM364.199 56.104V57.104H365.175L365.199 56.1282L364.199 56.104ZM344.595 56.104V55.104H343.595V56.104H344.595ZM363.471 59.796V58.796H362.579L362.477 59.6825L363.471 59.796ZM363.939 59.796L364.933 59.9037L365.053 58.796H363.939V59.796ZM344.595 55.584L343.595 55.5641L343.575 56.584H344.595V55.584ZM359.675 55.584V56.584H360.681L360.675 55.5775L359.675 55.584ZM364.199 55.104H344.595V57.104H364.199V55.104ZM343.595 56.104V56.208H345.595V56.104H343.595ZM343.595 56.208C343.595 60.4572 344.473 63.7973 346.295 66.0922C348.148 68.4272 350.858 69.532 354.163 69.532V67.532C351.332 67.532 349.258 66.6088 347.861 64.8488C346.433 63.0487 345.595 60.2268 345.595 56.208H343.595ZM354.163 69.532C357.053 69.532 359.485 68.643 361.28 66.9363C363.069 65.2365 364.133 62.8138 364.465 59.9095L362.477 59.6825C362.185 62.2382 361.273 64.1835 359.902 65.4867C358.539 66.783 356.629 67.532 354.163 67.532V69.532ZM363.471 60.796H363.939V58.796H363.471V60.796ZM362.945 59.6883C362.629 62.6075 361.524 64.7872 359.845 66.2424C358.162 67.7014 355.801 68.52 352.811 68.52V70.52C356.165 70.52 359.029 69.5966 361.155 67.7536C363.286 65.9068 364.573 63.2245 364.933 59.9037L362.945 59.6883ZM352.811 68.52C349.009 68.52 345.993 67.2621 343.927 65.1374C341.858 63.0094 340.655 59.9216 340.655 56.104H338.655C338.655 60.3464 340 63.9666 342.494 66.5316C344.991 69.0999 348.553 70.52 352.811 70.52V68.52ZM340.655 56.104C340.655 52.2138 341.907 49.0675 343.973 46.9011C346.036 44.7378 348.977 43.48 352.499 43.48V41.48C348.481 41.48 345 42.9262 342.526 45.5209C340.055 48.1125 338.655 51.7782 338.655 56.104H340.655ZM352.499 43.48C355.869 43.48 358.556 44.6482 360.386 46.734C362.227 48.8319 363.299 51.9704 363.199 56.0798L365.199 56.1282C365.307 51.6576 364.143 47.9841 361.889 45.415C359.624 42.8338 356.357 41.48 352.499 41.48V43.48ZM352.447 42C349.781 42 347.565 43.4138 346.039 45.8105C344.531 48.1796 343.675 51.5245 343.595 55.5641L345.595 55.6039C345.671 51.7915 346.479 48.8444 347.727 46.8845C348.957 44.9522 350.588 44 352.447 44V42ZM344.595 56.584H359.675V54.584H344.595V56.584ZM360.675 55.5775C360.648 51.4914 359.975 48.1488 358.625 45.792C357.244 43.3806 355.142 42 352.447 42V44C354.328 44 355.814 44.9074 356.89 46.786C357.997 48.7192 358.65 51.6686 358.675 55.5905L360.675 55.5775ZM392.027 56.104V57.104H393.003L393.027 56.1282L392.027 56.104ZM372.423 56.104V55.104H371.423V56.104H372.423ZM391.299 59.796V58.796H390.407L390.306 59.6825L391.299 59.796ZM391.767 59.796L392.761 59.9037L392.881 58.796H391.767V59.796ZM372.423 55.584L371.423 55.5641L371.403 56.584H372.423V55.584ZM387.503 55.584V56.584H388.51L388.503 55.5775L387.503 55.584ZM392.027 55.104H372.423V57.104H392.027V55.104ZM371.423 56.104V56.208H373.423V56.104H371.423ZM371.423 56.208C371.423 60.4572 372.301 63.7973 374.123 66.0922C375.976 68.4272 378.686 69.532 381.991 69.532V67.532C379.16 67.532 377.086 66.6088 375.689 64.8488C374.261 63.0487 373.423 60.2268 373.423 56.208H371.423ZM381.991 69.532C384.881 69.532 387.313 68.643 389.109 66.9363C390.897 65.2365 391.961 62.8138 392.293 59.9095L390.306 59.6825C390.013 62.2382 389.102 64.1835 387.731 65.4867C386.367 66.783 384.457 67.532 381.991 67.532V69.532ZM391.299 60.796H391.767V58.796H391.299V60.796ZM390.773 59.6883C390.457 62.6075 389.352 64.7872 387.674 66.2424C385.991 67.7014 383.629 68.52 380.639 68.52V70.52C383.993 70.52 386.858 69.5966 388.984 67.7536C391.114 65.9068 392.402 63.2245 392.761 59.9037L390.773 59.6883ZM380.639 68.52C376.837 68.52 373.821 67.2621 371.756 65.1374C369.686 63.0094 368.483 59.9216 368.483 56.104H366.483C366.483 60.3464 367.828 63.9666 370.322 66.5316C372.819 69.0999 376.381 70.52 380.639 70.52V68.52ZM368.483 56.104C368.483 52.2138 369.735 49.0675 371.801 46.9011C373.864 44.7378 376.805 43.48 380.327 43.48V41.48C376.309 41.48 372.828 42.9262 370.354 45.5209C367.883 48.1125 366.483 51.7782 366.483 56.104H368.483ZM380.327 43.48C383.698 43.48 386.384 44.6482 388.214 46.734C390.055 48.8319 391.127 51.9704 391.027 56.0798L393.027 56.1282C393.135 51.6576 391.972 47.9841 389.717 45.415C387.452 42.8338 384.185 41.48 380.327 41.48V43.48ZM380.275 42C377.61 42 375.393 43.4138 373.868 45.8105C372.359 48.1796 371.504 51.5245 371.423 55.5641L373.423 55.6039C373.499 51.7915 374.307 48.8444 375.555 46.8845C376.785 44.9522 378.417 44 380.275 44V42ZM372.423 56.584H387.503V54.584H372.423V56.584ZM388.503 55.5775C388.477 51.4914 387.803 48.1488 386.453 45.792C385.072 43.3806 382.97 42 380.275 42V44C382.156 44 383.642 44.9074 384.718 46.786C385.825 48.7192 386.478 51.6686 386.503 55.5905L388.503 55.5775Z" fill="black"/>
</svg>
