<svg width="74" height="100" viewBox="0 0 74 100" fill="none" xmlns="http://www.w3.org/2000/svg">
<g clip-path="url(#clip0_23_5)">
<path d="M23.75 77.34C23.75 77.34 19.93 79.56 26.47 80.34C34.4 81.24 38.47 81.11 47.18 79.46C48.9333 80.5118 50.7734 81.4118 52.68 82.15C33.11 90.54 8.38004 81.66 23.75 77.37V77.34ZM21.36 66.34C21.36 66.34 17.07 69.51 23.62 70.19C32.09 71.06 38.77 71.13 50.34 68.9C51.5219 70.0117 52.9213 70.8663 54.45 71.41C30.78 78.33 4.45004 71.96 21.36 66.34Z" fill="#009563"/>
<path d="M41.53 47.82C46.35 53.37 40.26 58.37 40.26 58.37C40.26 58.37 52.51 52 46.88 44.13C41.63 36.74 37.6 33.07 59.41 20.42C59.41 20.42 25.18 28.97 41.53 47.82Z" fill="#009563"/>
<path d="M67.42 85.43C67.42 85.43 70.25 87.76 64.3 89.57C53 93 17.27 94 7.35005 89.7C3.78005 88.15 10.47 86 12.58 85.54C13.6993 85.2687 14.8485 85.141 16 85.16C12 82.36 -9.63995 90.65 5.00005 93.02C44.93 99.49 77.77 90.1 67.42 85.43ZM25.59 55C25.59 55 7.42005 59.32 19.15 60.89C24.15 61.55 33.99 61.4 43.15 60.63C50.68 60 58.23 58.63 58.23 58.63C56.6426 59.3172 55.1142 60.1332 53.66 61.07C35.24 66 -0.409953 63.73 9.85005 58.76C14.7243 56.2761 20.1194 54.9873 25.59 55ZM58.19 73.23C76.96 63.48 68.28 54.11 62.19 55.37C61.4589 55.505 60.7399 55.6989 60.04 55.95C60.4374 55.386 60.9947 54.954 61.64 54.71C73.64 50.5 82.83 67.13 57.78 73.71C57.9346 73.5728 58.0604 73.4062 58.15 73.22" fill="#009563"/>
<path d="M46.8801 0C46.8801 0 57.2701 10.39 37.0001 26.38C20.7601 39.2 33.3001 46.51 37.0001 54.86C27.5201 46.31 20.5701 38.78 25.2401 31.78C32.1001 21.5 51.0701 16.51 46.8801 0Z" fill="#009563"/>
<path d="M27.43 99.69C45.43 100.84 73.1 99.05 73.75 90.52C73.75 90.52 72.49 93.76 58.87 96.32C43.5 99.21 24.54 98.88 13.3 97C13.3 97 15.6 98.91 27.43 99.67" fill="#009563"/>
</g>
<defs>
<clipPath id="clip0_23_5">
<rect width="73.75" height="100" fill="white"/>
</clipPath>
</defs>
</svg>
