<svg width="338" height="102" viewBox="0 0 338 102" fill="none" xmlns="http://www.w3.org/2000/svg">
<rect x="0.5" y="0.5" width="337" height="101" rx="50.5" fill="#F0EDE5" stroke="black"/>
<path d="M58.644 70.1278C48.452 70.1278 39.82 62.8478 39.82 51.4598C39.82 40.7998 47.62 32.6878 58.436 32.6878C67.588 32.6878 73.984 38.8238 74.244 49.0678H73.776C73.412 39.1878 67.12 33.5718 59.892 33.5718C50.948 33.5718 45.28 40.8518 45.28 51.1478C45.28 61.7038 51.104 69.1398 59.944 69.1398C67.016 69.1398 73.152 64.5118 74.088 54.5278H74.608C73.62 65.2918 66.756 70.1278 58.644 70.1278ZM91.3715 70.1278C83.2595 70.1278 77.8515 65.7078 77.8515 59.1038H78.3715C78.3715 65.3438 83.5195 69.5558 91.2155 69.5558C96.7275 69.5558 100.524 66.8518 100.524 62.3798C100.524 51.3558 78.3195 56.7638 78.3195 43.0878C78.3195 36.8998 83.1035 32.6878 90.2275 32.6878C97.2475 32.6878 102.032 36.6918 102.032 42.6718H101.512C101.512 37.0038 97.0395 33.2598 90.4875 33.2598C84.9755 33.2598 81.4915 36.0678 81.4915 40.2798C81.4915 51.1478 103.696 46.0518 103.696 59.6758C103.696 65.9678 98.5995 70.1278 91.3715 70.1278ZM120.215 70.1278C112.103 70.1278 106.695 65.7078 106.695 59.1038H107.215C107.215 65.3438 112.363 69.5558 120.059 69.5558C125.571 69.5558 129.367 66.8518 129.367 62.3798C129.367 51.3558 107.163 56.7638 107.163 43.0878C107.163 36.8998 111.947 32.6878 119.071 32.6878C126.091 32.6878 130.875 36.6918 130.875 42.6718H130.355C130.355 37.0038 125.883 33.2598 119.331 33.2598C113.819 33.2598 110.335 36.0678 110.335 40.2798C110.335 51.1478 132.539 46.0518 132.539 59.6758C132.539 65.9678 127.443 70.1278 120.215 70.1278ZM163.312 32.4798L149.48 69.6078H145.008L158.84 32.4798H163.312ZM189.633 70.1278C181.521 70.1278 176.113 65.7078 176.113 59.1038H176.633C176.633 65.3438 181.781 69.5558 189.477 69.5558C194.989 69.5558 198.785 66.8518 198.785 62.3798C198.785 51.3558 176.581 56.7638 176.581 43.0878C176.581 36.8998 181.365 32.6878 188.489 32.6878C195.509 32.6878 200.293 36.6918 200.293 42.6718H199.773C199.773 37.0038 195.301 33.2598 188.749 33.2598C183.237 33.2598 179.753 36.0678 179.753 40.2798C179.753 51.1478 201.957 46.0518 201.957 59.6758C201.957 65.9678 196.861 70.1278 189.633 70.1278ZM223.937 70.1278C213.745 70.1278 205.113 62.8478 205.113 51.4598C205.113 40.7998 212.913 32.6878 223.729 32.6878C232.881 32.6878 239.277 38.8238 239.537 49.0678H239.069C238.705 39.1878 232.413 33.5718 225.185 33.5718C216.241 33.5718 210.573 40.8518 210.573 51.1478C210.573 61.7038 216.397 69.1398 225.237 69.1398C232.309 69.1398 238.445 64.5118 239.381 54.5278H239.901C238.913 65.2918 232.049 70.1278 223.937 70.1278ZM256.664 70.1278C248.552 70.1278 243.144 65.7078 243.144 59.1038H243.664C243.664 65.3438 248.812 69.5558 256.508 69.5558C262.02 69.5558 265.816 66.8518 265.816 62.3798C265.816 51.3558 243.612 56.7638 243.612 43.0878C243.612 36.8998 248.396 32.6878 255.52 32.6878C262.54 32.6878 267.324 36.6918 267.324 42.6718H266.804C266.804 37.0038 262.332 33.2598 255.78 33.2598C250.268 33.2598 246.784 36.0678 246.784 40.2798C246.784 51.1478 268.988 46.0518 268.988 59.6758C268.988 65.9678 263.892 70.1278 256.664 70.1278ZM285.508 70.1278C277.396 70.1278 271.988 65.7078 271.988 59.1038H272.508C272.508 65.3438 277.656 69.5558 285.352 69.5558C290.864 69.5558 294.66 66.8518 294.66 62.3798C294.66 51.3558 272.456 56.7638 272.456 43.0878C272.456 36.8998 277.24 32.6878 284.364 32.6878C291.384 32.6878 296.168 36.6918 296.168 42.6718H295.648C295.648 37.0038 291.176 33.2598 284.624 33.2598C279.112 33.2598 275.628 36.0678 275.628 40.2798C275.628 51.1478 297.832 46.0518 297.832 59.6758C297.832 65.9678 292.736 70.1278 285.508 70.1278Z" fill="black"/>
<path d="M74.244 49.0678V50.0678H75.2697L75.2437 49.0425L74.244 49.0678ZM73.776 49.0678L72.7767 49.1047L72.8122 50.0678H73.776V49.0678ZM74.088 54.5278V53.5278H73.1774L73.0924 54.4345L74.088 54.5278ZM74.608 54.5278L75.6038 54.6193L75.704 53.5278H74.608V54.5278ZM58.644 69.1278C48.9503 69.1278 40.82 62.2431 40.82 51.4598H38.82C38.82 63.4526 47.9537 71.1278 58.644 71.1278V69.1278ZM40.82 51.4598C40.82 41.3355 48.1888 33.6878 58.436 33.6878V31.6878C47.0512 31.6878 38.82 40.2642 38.82 51.4598H40.82ZM58.436 33.6878C62.782 33.6878 66.3998 35.1398 68.9625 37.7385C71.5277 40.3398 73.1195 44.1758 73.2443 49.0932L75.2437 49.0425C75.1085 43.7159 73.3723 39.3619 70.3865 36.3342C67.3982 33.3039 63.242 31.6878 58.436 31.6878V33.6878ZM74.244 48.0678H73.776V50.0678H74.244V48.0678ZM74.7753 49.031C74.3944 38.6911 67.7324 32.5718 59.892 32.5718V34.5718C66.5076 34.5718 72.4296 39.6846 72.7767 49.1047L74.7753 49.031ZM59.892 32.5718C55.1236 32.5718 51.1846 34.5238 48.4572 37.8667C45.7452 41.1906 44.28 45.8245 44.28 51.1478H46.28C46.28 46.1752 47.6488 42.0211 50.0068 39.131C52.3494 36.2599 55.7164 34.5718 59.892 34.5718V32.5718ZM44.28 51.1478C44.28 56.6018 45.7844 61.3367 48.5183 64.7298C51.2666 68.1407 55.2174 70.1398 59.944 70.1398V68.1398C55.8306 68.1398 52.4494 66.421 50.0757 63.4749C47.6876 60.511 46.28 56.2499 46.28 51.1478H44.28ZM59.944 70.1398C63.7019 70.1398 67.2611 68.9068 70.0053 66.3033C72.7495 63.6998 74.5978 59.8036 75.0836 54.6212L73.0924 54.4345C72.6422 59.2361 70.9545 62.6459 68.6287 64.8524C66.3029 67.0589 63.2581 68.1398 59.944 68.1398V70.1398ZM74.088 55.5278H74.608V53.5278H74.088V55.5278ZM73.6122 54.4364C73.1368 59.6161 71.2619 63.2636 68.6305 65.6193C65.9935 67.98 62.5023 69.1278 58.644 69.1278V71.1278C62.8977 71.1278 66.8945 69.8577 69.9645 67.1094C73.0401 64.3561 75.0912 60.2036 75.6038 54.6193L73.6122 54.4364ZM77.8515 59.1038V58.1038H76.8515V59.1038H77.8515ZM78.3715 59.1038H79.3715V58.1038H78.3715V59.1038ZM102.032 42.6718V43.6718H103.032V42.6718H102.032ZM101.512 42.6718H100.512V43.6718H101.512V42.6718ZM91.3715 69.1278C87.4895 69.1278 84.3499 68.0703 82.2017 66.3175C80.0711 64.5791 78.8515 62.1089 78.8515 59.1038H76.8515C76.8515 62.7028 78.3359 65.7446 80.9373 67.8672C83.5211 69.9754 87.1415 71.1278 91.3715 71.1278V69.1278ZM77.8515 60.1038H78.3715V58.1038H77.8515V60.1038ZM77.3715 59.1038C77.3715 62.523 78.7926 65.4212 81.2757 67.445C83.7417 69.4549 87.1925 70.5558 91.2155 70.5558V68.5558C87.5425 68.5558 84.5713 67.5508 82.5393 65.8947C80.5244 64.2525 79.3715 61.9247 79.3715 59.1038H77.3715ZM91.2155 70.5558C94.122 70.5558 96.6804 69.8443 98.5385 68.4433C100.425 67.0212 101.524 64.9327 101.524 62.3798H99.5235C99.5235 64.299 98.7242 65.7985 97.3345 66.8464C95.9166 67.9154 93.821 68.5558 91.2155 68.5558V70.5558ZM101.524 62.3798C101.524 60.8225 101.128 59.5092 100.408 58.4017C99.6948 57.3049 98.6981 56.4624 97.571 55.7819C95.3586 54.4459 92.4312 53.6216 89.7199 52.7739C86.9272 51.9008 84.3175 50.9931 82.3955 49.5266C80.544 48.1137 79.3195 46.1733 79.3195 43.0878H77.3195C77.3195 46.8404 78.8705 49.3525 81.1822 51.1165C83.4235 52.8268 86.3648 53.8204 89.1231 54.6828C91.9628 55.5706 94.5864 56.316 96.5372 57.494C97.4918 58.0703 98.2298 58.7208 98.731 59.4918C99.2253 60.252 99.5235 61.1812 99.5235 62.3798H101.524ZM79.3195 43.0878C79.3195 40.2684 80.4012 37.9476 82.2607 36.3198C84.1313 34.6822 86.8591 33.6878 90.2275 33.6878V31.6878C86.4719 31.6878 83.2457 32.7994 80.9433 34.8149C78.6298 36.8401 77.3195 39.7193 77.3195 43.0878H79.3195ZM90.2275 33.6878C93.5531 33.6878 96.26 34.6356 98.1173 36.2018C99.9601 37.7557 101.032 39.9694 101.032 42.6718H103.032C103.032 39.3943 101.711 36.616 99.4067 34.6729C97.117 32.7421 93.9219 31.6878 90.2275 31.6878V33.6878ZM102.032 41.6718H101.512V43.6718H102.032V41.6718ZM102.512 42.6718C102.512 39.5546 101.272 36.9191 99.1037 35.078C96.9498 33.2493 93.9483 32.2598 90.4875 32.2598V34.2598C93.5787 34.2598 96.0892 35.1423 97.8093 36.6027C99.5147 38.0506 100.512 40.1211 100.512 42.6718H102.512ZM90.4875 32.2598C87.572 32.2598 85.0851 33.0019 83.3038 34.4047C81.5003 35.825 80.4915 37.8709 80.4915 40.2798H82.4915C82.4915 38.4768 83.2247 37.0127 84.5412 35.976C85.8799 34.9218 87.891 34.2598 90.4875 34.2598V32.2598ZM80.4915 40.2798C80.4915 41.8208 80.8887 43.1225 81.6089 44.2225C82.3216 45.3111 83.3171 46.1516 84.442 46.8344C86.6512 48.1752 89.5758 49.0232 92.287 49.8962C95.0783 50.795 97.6906 51.7309 99.6148 53.2173C101.471 54.6513 102.696 56.604 102.696 59.6758H104.696C104.696 55.9357 103.144 53.4164 100.837 51.6345C98.5984 49.905 95.6597 48.8811 92.9 47.9925C90.0602 47.078 87.4338 46.3107 85.4797 45.1247C84.523 44.544 83.7838 43.8931 83.2822 43.127C82.7881 42.3724 82.4915 41.4559 82.4915 40.2798H80.4915ZM102.696 59.6758C102.696 62.5299 101.55 64.8611 99.6013 66.4952C97.6383 68.1418 94.7996 69.1278 91.3715 69.1278V71.1278C95.1714 71.1278 98.4947 70.0339 100.887 68.0275C103.294 66.0086 104.696 63.1138 104.696 59.6758H102.696ZM106.695 59.1038V58.1038H105.695V59.1038H106.695ZM107.215 59.1038H108.215V58.1038H107.215V59.1038ZM130.875 42.6718V43.6718H131.875V42.6718H130.875ZM130.355 42.6718H129.355V43.6718H130.355V42.6718ZM120.215 69.1278C116.333 69.1278 113.194 68.0703 111.045 66.3175C108.915 64.5791 107.695 62.1089 107.695 59.1038H105.695C105.695 62.7028 107.18 65.7446 109.781 67.8672C112.365 69.9754 115.985 71.1278 120.215 71.1278V69.1278ZM106.695 60.1038H107.215V58.1038H106.695V60.1038ZM106.215 59.1038C106.215 62.523 107.636 65.4212 110.119 67.445C112.585 69.4549 116.036 70.5558 120.059 70.5558V68.5558C116.386 68.5558 113.415 67.5508 111.383 65.8947C109.368 64.2525 108.215 61.9247 108.215 59.1038H106.215ZM120.059 70.5558C122.966 70.5558 125.524 69.8443 127.382 68.4433C129.269 67.0212 130.367 64.9327 130.367 62.3798H128.367C128.367 64.299 127.568 65.7985 126.178 66.8464C124.76 67.9154 122.665 68.5558 120.059 68.5558V70.5558ZM130.367 62.3798C130.367 60.8225 129.972 59.5092 129.252 58.4017C128.539 57.3049 127.542 56.4624 126.415 55.7819C124.202 54.4459 121.275 53.6216 118.564 52.7739C115.771 51.9008 113.161 50.9931 111.239 49.5266C109.388 48.1137 108.163 46.1733 108.163 43.0878H106.163C106.163 46.8404 107.714 49.3525 110.026 51.1165C112.267 52.8268 115.209 53.8204 117.967 54.6828C120.807 55.5706 123.43 56.316 125.381 57.494C126.336 58.0703 127.074 58.7208 127.575 59.4918C128.069 60.252 128.367 61.1812 128.367 62.3798H130.367ZM108.163 43.0878C108.163 40.2684 109.245 37.9476 111.104 36.3198C112.975 34.6822 115.703 33.6878 119.071 33.6878V31.6878C115.316 31.6878 112.089 32.7994 109.787 34.8149C107.474 36.8401 106.163 39.7193 106.163 43.0878H108.163ZM119.071 33.6878C122.397 33.6878 125.104 34.6356 126.961 36.2018C128.804 37.7557 129.875 39.9694 129.875 42.6718H131.875C131.875 39.3943 130.555 36.616 128.25 34.6729C125.961 32.7421 122.766 31.6878 119.071 31.6878V33.6878ZM130.875 41.6718H130.355V43.6718H130.875V41.6718ZM131.355 42.6718C131.355 39.5546 130.116 36.9191 127.947 35.078C125.794 33.2493 122.792 32.2598 119.331 32.2598V34.2598C122.422 34.2598 124.933 35.1423 126.653 36.6027C128.358 38.0506 129.355 40.1211 129.355 42.6718H131.355ZM119.331 32.2598C116.416 32.2598 113.929 33.0019 112.148 34.4047C110.344 35.825 109.335 37.8709 109.335 40.2798H111.335C111.335 38.4768 112.068 37.0127 113.385 35.976C114.724 34.9218 116.735 34.2598 119.331 34.2598V32.2598ZM109.335 40.2798C109.335 41.8208 109.732 43.1225 110.453 44.2225C111.165 45.3111 112.161 46.1516 113.286 46.8344C115.495 48.1752 118.42 49.0232 121.131 49.8962C123.922 50.795 126.534 51.7309 128.459 53.2173C130.315 54.6513 131.539 56.604 131.539 59.6758H133.539C133.539 55.9357 131.988 53.4164 129.681 51.6345C127.442 49.905 124.503 48.8811 121.744 47.9925C118.904 47.078 116.278 46.3107 114.323 45.1247C113.367 44.544 112.628 43.8931 112.126 43.127C111.632 42.3724 111.335 41.4559 111.335 40.2798H109.335ZM131.539 59.6758C131.539 62.5299 130.393 64.8611 128.445 66.4952C126.482 68.1418 123.643 69.1278 120.215 69.1278V71.1278C124.015 71.1278 127.338 70.0339 129.73 68.0275C132.137 66.0086 133.539 63.1138 133.539 59.6758H131.539ZM163.312 32.4798L164.249 32.829L164.752 31.4798H163.312V32.4798ZM149.48 69.6078V70.6078H150.175L150.417 69.957L149.48 69.6078ZM145.008 69.6078L144.071 69.2587L143.569 70.6078H145.008V69.6078ZM158.84 32.4798V31.4798H158.146L157.903 32.1307L158.84 32.4798ZM162.375 32.1307L148.543 69.2587L150.417 69.957L164.249 32.829L162.375 32.1307ZM149.48 68.6078H145.008V70.6078H149.48V68.6078ZM145.945 69.957L159.777 32.829L157.903 32.1307L144.071 69.2587L145.945 69.957ZM158.84 33.4798H163.312V31.4798H158.84V33.4798ZM176.113 59.1038V58.1038H175.113V59.1038H176.113ZM176.633 59.1038H177.633V58.1038H176.633V59.1038ZM200.293 42.6718V43.6718H201.293V42.6718H200.293ZM199.773 42.6718H198.773V43.6718H199.773V42.6718ZM189.633 69.1278C185.751 69.1278 182.612 68.0703 180.463 66.3175C178.333 64.5791 177.113 62.1089 177.113 59.1038H175.113C175.113 62.7028 176.598 65.7446 179.199 67.8672C181.783 69.9754 185.403 71.1278 189.633 71.1278V69.1278ZM176.113 60.1038H176.633V58.1038H176.113V60.1038ZM175.633 59.1038C175.633 62.523 177.054 65.4212 179.537 67.445C182.003 69.4549 185.454 70.5558 189.477 70.5558V68.5558C185.804 68.5558 182.833 67.5508 180.801 65.8947C178.786 64.2525 177.633 61.9247 177.633 59.1038H175.633ZM189.477 70.5558C192.384 70.5558 194.942 69.8443 196.8 68.4433C198.686 67.0212 199.785 64.9327 199.785 62.3798H197.785C197.785 64.299 196.986 65.7985 195.596 66.8464C194.178 67.9154 192.083 68.5558 189.477 68.5558V70.5558ZM199.785 62.3798C199.785 60.8225 199.39 59.5092 198.67 58.4017C197.957 57.3049 196.96 56.4624 195.833 55.7819C193.62 54.4459 190.693 53.6216 187.982 52.7739C185.189 51.9008 182.579 50.9931 180.657 49.5266C178.806 48.1137 177.581 46.1733 177.581 43.0878H175.581C175.581 46.8404 177.132 49.3525 179.444 51.1165C181.685 52.8268 184.627 53.8204 187.385 54.6828C190.225 55.5706 192.848 56.316 194.799 57.494C195.753 58.0703 196.492 58.7208 196.993 59.4918C197.487 60.252 197.785 61.1812 197.785 62.3798H199.785ZM177.581 43.0878C177.581 40.2684 178.663 37.9476 180.522 36.3198C182.393 34.6822 185.121 33.6878 188.489 33.6878V31.6878C184.734 31.6878 181.507 32.7994 179.205 34.8149C176.892 36.8401 175.581 39.7193 175.581 43.0878H177.581ZM188.489 33.6878C191.815 33.6878 194.522 34.6356 196.379 36.2018C198.222 37.7557 199.293 39.9694 199.293 42.6718H201.293C201.293 39.3943 199.973 36.616 197.668 34.6729C195.379 32.7421 192.184 31.6878 188.489 31.6878V33.6878ZM200.293 41.6718H199.773V43.6718H200.293V41.6718ZM200.773 42.6718C200.773 39.5546 199.534 36.9191 197.365 35.078C195.211 33.2493 192.21 32.2598 188.749 32.2598V34.2598C191.84 34.2598 194.351 35.1423 196.071 36.6027C197.776 38.0506 198.773 40.1211 198.773 42.6718H200.773ZM188.749 32.2598C185.834 32.2598 183.347 33.0019 181.566 34.4047C179.762 35.825 178.753 37.8709 178.753 40.2798H180.753C180.753 38.4768 181.486 37.0127 182.803 35.976C184.142 34.9218 186.153 34.2598 188.749 34.2598V32.2598ZM178.753 40.2798C178.753 41.8208 179.15 43.1225 179.871 44.2225C180.583 45.3111 181.579 46.1516 182.704 46.8344C184.913 48.1752 187.837 49.0232 190.549 49.8962C193.34 50.795 195.952 51.7309 197.877 53.2173C199.733 54.6513 200.957 56.604 200.957 59.6758H202.957C202.957 55.9357 201.406 53.4164 199.099 51.6345C196.86 49.905 193.921 48.8811 191.162 47.9925C188.322 47.078 185.696 46.3107 183.741 45.1247C182.785 44.544 182.046 43.8931 181.544 43.127C181.05 42.3724 180.753 41.4559 180.753 40.2798H178.753ZM200.957 59.6758C200.957 62.5299 199.811 64.8611 197.863 66.4952C195.9 68.1418 193.061 69.1278 189.633 69.1278V71.1278C193.433 71.1278 196.756 70.0339 199.148 68.0275C201.555 66.0086 202.957 63.1138 202.957 59.6758H200.957ZM239.537 49.0678V50.0678H240.563L240.537 49.0425L239.537 49.0678ZM239.069 49.0678L238.07 49.1047L238.105 50.0678H239.069V49.0678ZM239.381 54.5278V53.5278H238.47L238.385 54.4345L239.381 54.5278ZM239.901 54.5278L240.897 54.6193L240.997 53.5278H239.901V54.5278ZM223.937 69.1278C214.243 69.1278 206.113 62.2431 206.113 51.4598H204.113C204.113 63.4526 213.247 71.1278 223.937 71.1278V69.1278ZM206.113 51.4598C206.113 41.3355 213.482 33.6878 223.729 33.6878V31.6878C212.344 31.6878 204.113 40.2642 204.113 51.4598H206.113ZM223.729 33.6878C228.075 33.6878 231.693 35.1398 234.255 37.7385C236.821 40.3398 238.412 44.1758 238.537 49.0932L240.537 49.0425C240.401 43.7159 238.665 39.3619 235.679 36.3342C232.691 33.3039 228.535 31.6878 223.729 31.6878V33.6878ZM239.537 48.0678H239.069V50.0678H239.537V48.0678ZM240.068 49.031C239.687 38.6911 233.025 32.5718 225.185 32.5718V34.5718C231.801 34.5718 237.723 39.6846 238.07 49.1047L240.068 49.031ZM225.185 32.5718C220.417 32.5718 216.478 34.5238 213.75 37.8667C211.038 41.1906 209.573 45.8245 209.573 51.1478H211.573C211.573 46.1752 212.942 42.0211 215.3 39.131C217.642 36.2599 221.009 34.5718 225.185 34.5718V32.5718ZM209.573 51.1478C209.573 56.6018 211.077 61.3367 213.811 64.7298C216.56 68.1407 220.51 70.1398 225.237 70.1398V68.1398C221.124 68.1398 217.742 66.421 215.369 63.4749C212.981 60.511 211.573 56.2499 211.573 51.1478H209.573ZM225.237 70.1398C228.995 70.1398 232.554 68.9068 235.298 66.3033C238.042 63.6998 239.891 59.8036 240.377 54.6212L238.385 54.4345C237.935 59.2361 236.247 62.6459 233.922 64.8524C231.596 67.0589 228.551 68.1398 225.237 68.1398V70.1398ZM239.381 55.5278H239.901V53.5278H239.381V55.5278ZM238.905 54.4364C238.43 59.6161 236.555 63.2636 233.923 65.6193C231.286 67.98 227.795 69.1278 223.937 69.1278V71.1278C228.191 71.1278 232.187 69.8577 235.257 67.1094C238.333 64.3561 240.384 60.2036 240.897 54.6193L238.905 54.4364ZM243.144 59.1038V58.1038H242.144V59.1038H243.144ZM243.664 59.1038H244.664V58.1038H243.664V59.1038ZM267.324 42.6718V43.6718H268.324V42.6718H267.324ZM266.804 42.6718H265.804V43.6718H266.804V42.6718ZM256.664 69.1278C252.782 69.1278 249.643 68.0703 247.495 66.3175C245.364 64.5791 244.144 62.1089 244.144 59.1038H242.144C242.144 62.7028 243.629 65.7446 246.23 67.8672C248.814 69.9754 252.434 71.1278 256.664 71.1278V69.1278ZM243.144 60.1038H243.664V58.1038H243.144V60.1038ZM242.664 59.1038C242.664 62.523 244.086 65.4212 246.569 67.445C249.035 69.4549 252.485 70.5558 256.508 70.5558V68.5558C252.835 68.5558 249.864 67.5508 247.832 65.8947C245.817 64.2525 244.664 61.9247 244.664 59.1038H242.664ZM256.508 70.5558C259.415 70.5558 261.973 69.8443 263.831 68.4433C265.718 67.0212 266.816 64.9327 266.816 62.3798H264.816C264.816 64.299 264.017 65.7985 262.627 66.8464C261.21 67.9154 259.114 68.5558 256.508 68.5558V70.5558ZM266.816 62.3798C266.816 60.8225 266.421 59.5092 265.701 58.4017C264.988 57.3049 263.991 56.4624 262.864 55.7819C260.652 54.4459 257.724 53.6216 255.013 52.7739C252.22 51.9008 249.61 50.9931 247.688 49.5266C245.837 48.1137 244.612 46.1733 244.612 43.0878H242.612C242.612 46.8404 244.164 49.3525 246.475 51.1165C248.717 52.8268 251.658 53.8204 254.416 54.6828C257.256 55.5706 259.879 56.316 261.83 57.494C262.785 58.0703 263.523 58.7208 264.024 59.4918C264.518 60.252 264.816 61.1812 264.816 62.3798H266.816ZM244.612 43.0878C244.612 40.2684 245.694 37.9476 247.554 36.3198C249.424 34.6822 252.152 33.6878 255.52 33.6878V31.6878C251.765 31.6878 248.539 32.7994 246.236 34.8149C243.923 36.8401 242.612 39.7193 242.612 43.0878H244.612ZM255.52 33.6878C258.846 33.6878 261.553 34.6356 263.41 36.2018C265.253 37.7557 266.324 39.9694 266.324 42.6718H268.324C268.324 39.3943 267.004 36.616 264.7 34.6729C262.41 32.7421 259.215 31.6878 255.52 31.6878V33.6878ZM267.324 41.6718H266.804V43.6718H267.324V41.6718ZM267.804 42.6718C267.804 39.5546 266.565 36.9191 264.397 35.078C262.243 33.2493 259.241 32.2598 255.78 32.2598V34.2598C258.872 34.2598 261.382 35.1423 263.102 36.6027C264.808 38.0506 265.804 40.1211 265.804 42.6718H267.804ZM255.78 32.2598C252.865 32.2598 250.378 33.0019 248.597 34.4047C246.793 35.825 245.784 37.8709 245.784 40.2798H247.784C247.784 38.4768 248.518 37.0127 249.834 35.976C251.173 34.9218 253.184 34.2598 255.78 34.2598V32.2598ZM245.784 40.2798C245.784 41.8208 246.182 43.1225 246.902 44.2225C247.615 45.3111 248.61 46.1516 249.735 46.8344C251.944 48.1752 254.869 49.0232 257.58 49.8962C260.371 50.795 262.984 51.7309 264.908 53.2173C266.764 54.6513 267.988 56.604 267.988 59.6758H269.988C269.988 55.9357 268.437 53.4164 266.13 51.6345C263.891 49.905 260.953 48.8811 258.193 47.9925C255.353 47.078 252.727 46.3107 250.773 45.1247C249.816 44.544 249.077 43.8931 248.575 43.127C248.081 42.3724 247.784 41.4559 247.784 40.2798H245.784ZM267.988 59.6758C267.988 62.5299 266.842 64.8611 264.894 66.4952C262.931 68.1418 260.093 69.1278 256.664 69.1278V71.1278C260.464 71.1278 263.788 70.0339 266.18 68.0275C268.586 66.0086 269.988 63.1138 269.988 59.6758H267.988ZM271.988 59.1038V58.1038H270.988V59.1038H271.988ZM272.508 59.1038H273.508V58.1038H272.508V59.1038ZM296.168 42.6718V43.6718H297.168V42.6718H296.168ZM295.648 42.6718H294.648V43.6718H295.648V42.6718ZM285.508 69.1278C281.626 69.1278 278.487 68.0703 276.338 66.3175C274.208 64.5791 272.988 62.1089 272.988 59.1038H270.988C270.988 62.7028 272.473 65.7446 275.074 67.8672C277.658 69.9754 281.278 71.1278 285.508 71.1278V69.1278ZM271.988 60.1038H272.508V58.1038H271.988V60.1038ZM271.508 59.1038C271.508 62.523 272.929 65.4212 275.412 67.445C277.878 69.4549 281.329 70.5558 285.352 70.5558V68.5558C281.679 68.5558 278.708 67.5508 276.676 65.8947C274.661 64.2525 273.508 61.9247 273.508 59.1038H271.508ZM285.352 70.5558C288.259 70.5558 290.817 69.8443 292.675 68.4433C294.561 67.0212 295.66 64.9327 295.66 62.3798H293.66C293.66 64.299 292.861 65.7985 291.471 66.8464C290.053 67.9154 287.958 68.5558 285.352 68.5558V70.5558ZM295.66 62.3798C295.66 60.8225 295.265 59.5092 294.545 58.4017C293.832 57.3049 292.835 56.4624 291.708 55.7819C289.495 54.4459 286.568 53.6216 283.857 52.7739C281.064 51.9008 278.454 50.9931 276.532 49.5266C274.681 48.1137 273.456 46.1733 273.456 43.0878H271.456C271.456 46.8404 273.007 49.3525 275.319 51.1165C277.56 52.8268 280.502 53.8204 283.26 54.6828C286.1 55.5706 288.723 56.316 290.674 57.494C291.628 58.0703 292.367 58.7208 292.868 59.4918C293.362 60.252 293.66 61.1812 293.66 62.3798H295.66ZM273.456 43.0878C273.456 40.2684 274.538 37.9476 276.397 36.3198C278.268 34.6822 280.996 33.6878 284.364 33.6878V31.6878C280.609 31.6878 277.382 32.7994 275.08 34.8149C272.767 36.8401 271.456 39.7193 271.456 43.0878H273.456ZM284.364 33.6878C287.69 33.6878 290.397 34.6356 292.254 36.2018C294.097 37.7557 295.168 39.9694 295.168 42.6718H297.168C297.168 39.3943 295.848 36.616 293.543 34.6729C291.254 32.7421 288.059 31.6878 284.364 31.6878V33.6878ZM296.168 41.6718H295.648V43.6718H296.168V41.6718ZM296.648 42.6718C296.648 39.5546 295.409 36.9191 293.24 35.078C291.086 33.2493 288.085 32.2598 284.624 32.2598V34.2598C287.715 34.2598 290.226 35.1423 291.946 36.6027C293.651 38.0506 294.648 40.1211 294.648 42.6718H296.648ZM284.624 32.2598C281.709 32.2598 279.222 33.0019 277.441 34.4047C275.637 35.825 274.628 37.8709 274.628 40.2798H276.628C276.628 38.4768 277.361 37.0127 278.678 35.976C280.017 34.9218 282.028 34.2598 284.624 34.2598V32.2598ZM274.628 40.2798C274.628 41.8208 275.025 43.1225 275.746 44.2225C276.458 45.3111 277.454 46.1516 278.579 46.8344C280.788 48.1752 283.712 49.0232 286.424 49.8962C289.215 50.795 291.827 51.7309 293.752 53.2173C295.608 54.6513 296.832 56.604 296.832 59.6758H298.832C298.832 55.9357 297.281 53.4164 294.974 51.6345C292.735 49.905 289.796 48.8811 287.037 47.9925C284.197 47.078 281.571 46.3107 279.616 45.1247C278.66 44.544 277.921 43.8931 277.419 43.127C276.925 42.3724 276.628 41.4559 276.628 40.2798H274.628ZM296.832 59.6758C296.832 62.5299 295.686 64.8611 293.738 66.4952C291.775 68.1418 288.936 69.1278 285.508 69.1278V71.1278C289.308 71.1278 292.631 70.0339 295.023 68.0275C297.43 66.0086 298.832 63.1138 298.832 59.6758H296.832Z" fill="black"/>
</svg>
