<svg width="338" height="102" viewBox="0 0 338 102" fill="none" xmlns="http://www.w3.org/2000/svg">
<rect x="0.5" y="0.5" width="337" height="101" rx="50.5" fill="#5266AB" stroke="#F7D9D3"/>
<path d="M73.432 58.756C73.016 60.2467 72.4267 61.668 71.664 63.02C70.9013 64.3373 69.9827 65.4987 68.908 66.504C67.8333 67.5093 66.62 68.3067 65.268 68.896C63.916 69.4853 62.408 69.78 60.744 69.78C58.4213 69.78 56.3587 69.2947 54.556 68.324C52.788 67.3187 51.2973 66.0013 50.084 64.372C48.8707 62.708 47.952 60.8013 47.328 58.652C46.704 56.468 46.392 54.1973 46.392 51.84C46.392 49.344 46.7213 46.9 47.38 44.508C48.0387 42.116 48.9747 39.984 50.188 38.112C51.4013 36.2053 52.892 34.68 54.66 33.536C56.428 32.392 58.404 31.82 60.588 31.82C61.3507 31.82 62.044 31.872 62.668 31.976C63.292 32.0453 63.916 32.184 64.54 32.392C65.0253 32.5653 65.476 32.7213 65.892 32.86C66.308 32.964 66.7413 33.016 67.192 33.016C67.8507 33.016 68.4227 32.912 68.908 32.704C69.428 32.4613 69.9653 32.1667 70.52 31.82L72.964 43.364L71.196 43.78C70.3293 42.0813 69.4973 40.608 68.7 39.36C67.9373 38.112 67.1227 37.0893 66.256 36.292C65.424 35.4947 64.54 34.9053 63.604 34.524C62.668 34.108 61.6107 33.9 60.432 33.9C57.8667 33.9 55.804 35.0787 54.244 37.436C52.684 39.7933 51.904 43.5373 51.904 48.668C51.904 51.9267 52.216 54.6827 52.84 56.936C53.464 59.1893 54.2787 61.0267 55.284 62.448C56.2893 63.8347 57.416 64.84 58.664 65.464C59.912 66.088 61.16 66.4 62.408 66.4C63.6213 66.4 64.7133 66.192 65.684 65.776C66.6893 65.3253 67.5733 64.736 68.336 64.008C69.0987 63.28 69.7573 62.4307 70.312 61.46C70.9013 60.4547 71.404 59.3973 71.82 58.288L73.432 58.756ZM77.9731 57.82L79.6371 57.456C80.1571 58.6 80.7637 59.7787 81.4571 60.992C82.1851 62.1707 83.0171 63.2627 83.9531 64.268C84.9237 65.2733 85.9984 66.1053 87.1771 66.764C88.3904 67.388 89.7597 67.7 91.2851 67.7C92.0477 67.7 92.8451 67.5613 93.6771 67.284C94.5091 67.0067 95.2544 66.5907 95.9131 66.036C96.6064 65.4813 97.1611 64.8227 97.5771 64.06C98.0277 63.2627 98.2531 62.344 98.2531 61.304C98.2531 59.536 97.7851 58.1147 96.8491 57.04C95.9477 55.9307 94.8037 54.9947 93.4171 54.232C92.0304 53.4693 90.5397 52.776 88.9451 52.152C87.3504 51.528 85.8597 50.7827 84.4731 49.916C83.0864 49.0493 81.9251 47.9747 80.9891 46.692C80.0877 45.4093 79.6371 43.728 79.6371 41.648C79.6371 40.2613 79.8624 38.9613 80.3131 37.748C80.7984 36.5347 81.4744 35.4947 82.3411 34.628C83.2077 33.7613 84.2304 33.0853 85.4091 32.6C86.5877 32.08 87.8877 31.82 89.3091 31.82C90.0024 31.82 90.6264 31.9067 91.1811 32.08C91.7704 32.2533 92.3077 32.4267 92.7931 32.6C93.2784 32.7733 93.7117 32.9467 94.0931 33.12C94.5091 33.2933 94.8557 33.38 95.1331 33.38C95.7224 33.38 96.2771 33.2587 96.7971 33.016C97.3517 32.7733 97.8891 32.5133 98.4091 32.236L100.489 42.792L98.6691 43.052C98.2184 41.9773 97.6984 40.9027 97.1091 39.828C96.5544 38.7187 95.8784 37.7307 95.0811 36.864C94.2837 35.9627 93.3651 35.252 92.3251 34.732C91.2851 34.1773 90.0717 33.9 88.6851 33.9C87.1597 33.9 85.8771 34.3853 84.8371 35.356C83.7971 36.292 83.2771 37.644 83.2771 39.412C83.2771 41.2147 83.7451 42.636 84.6811 43.676C85.6171 44.6813 86.7784 45.548 88.1651 46.276C89.5864 46.9693 91.1117 47.6107 92.7411 48.2C94.3704 48.7547 95.8784 49.4827 97.2651 50.384C98.6864 51.2507 99.8651 52.3773 100.801 53.764C101.737 55.1507 102.205 56.988 102.205 59.276C102.205 60.5587 101.962 61.8413 101.477 63.124C100.992 64.372 100.264 65.4987 99.2931 66.504C98.3571 67.4747 97.1784 68.272 95.7571 68.896C94.3704 69.4853 92.7411 69.78 90.8691 69.78C90.0717 69.78 89.3784 69.676 88.7891 69.468C88.1997 69.2947 87.6451 69.104 87.1251 68.896C86.6051 68.6533 86.0677 68.4453 85.5131 68.272C84.9584 68.064 84.3517 67.96 83.6931 67.96C82.8957 67.96 82.2024 68.0987 81.6131 68.376C81.0237 68.6187 80.4691 68.8787 79.9491 69.156L77.9731 57.82ZM106.868 57.82L108.532 57.456C109.052 58.6 109.658 59.7787 110.352 60.992C111.08 62.1707 111.912 63.2627 112.848 64.268C113.818 65.2733 114.893 66.1053 116.072 66.764C117.285 67.388 118.654 67.7 120.18 67.7C120.942 67.7 121.74 67.5613 122.572 67.284C123.404 67.0067 124.149 66.5907 124.808 66.036C125.501 65.4813 126.056 64.8227 126.472 64.06C126.922 63.2627 127.148 62.344 127.148 61.304C127.148 59.536 126.68 58.1147 125.744 57.04C124.842 55.9307 123.698 54.9947 122.312 54.232C120.925 53.4693 119.434 52.776 117.84 52.152C116.245 51.528 114.754 50.7827 113.368 49.916C111.981 49.0493 110.82 47.9747 109.884 46.692C108.982 45.4093 108.532 43.728 108.532 41.648C108.532 40.2613 108.757 38.9613 109.208 37.748C109.693 36.5347 110.369 35.4947 111.236 34.628C112.102 33.7613 113.125 33.0853 114.304 32.6C115.482 32.08 116.782 31.82 118.204 31.82C118.897 31.82 119.521 31.9067 120.076 32.08C120.665 32.2533 121.202 32.4267 121.688 32.6C122.173 32.7733 122.606 32.9467 122.988 33.12C123.404 33.2933 123.75 33.38 124.028 33.38C124.617 33.38 125.172 33.2587 125.692 33.016C126.246 32.7733 126.784 32.5133 127.304 32.236L129.384 42.792L127.564 43.052C127.113 41.9773 126.593 40.9027 126.004 39.828C125.449 38.7187 124.773 37.7307 123.976 36.864C123.178 35.9627 122.26 35.252 121.22 34.732C120.18 34.1773 118.966 33.9 117.58 33.9C116.054 33.9 114.772 34.3853 113.732 35.356C112.692 36.292 112.172 37.644 112.172 39.412C112.172 41.2147 112.64 42.636 113.576 43.676C114.512 44.6813 115.673 45.548 117.06 46.276C118.481 46.9693 120.006 47.6107 121.636 48.2C123.265 48.7547 124.773 49.4827 126.16 50.384C127.581 51.2507 128.76 52.3773 129.696 53.764C130.632 55.1507 131.1 56.988 131.1 59.276C131.1 60.5587 130.857 61.8413 130.372 63.124C129.886 64.372 129.158 65.4987 128.188 66.504C127.252 67.4747 126.073 68.272 124.652 68.896C123.265 69.4853 121.636 69.78 119.764 69.78C118.966 69.78 118.273 69.676 117.684 69.468C117.094 69.2947 116.54 69.104 116.02 68.896C115.5 68.6533 114.962 68.4453 114.408 68.272C113.853 68.064 113.246 67.96 112.588 67.96C111.79 67.96 111.097 68.0987 110.508 68.376C109.918 68.6187 109.364 68.8787 108.844 69.156L106.868 57.82ZM159.214 31.82H162.022L148.398 69.78H145.59L159.214 31.82ZM176.235 57.82L177.899 57.456C178.419 58.6 179.025 59.7787 179.719 60.992C180.447 62.1707 181.279 63.2627 182.215 64.268C183.185 65.2733 184.26 66.1053 185.439 66.764C186.652 67.388 188.021 67.7 189.547 67.7C190.309 67.7 191.107 67.5613 191.939 67.284C192.771 67.0067 193.516 66.5907 194.175 66.036C194.868 65.4813 195.423 64.8227 195.839 64.06C196.289 63.2627 196.515 62.344 196.515 61.304C196.515 59.536 196.047 58.1147 195.111 57.04C194.209 55.9307 193.065 54.9947 191.679 54.232C190.292 53.4693 188.801 52.776 187.207 52.152C185.612 51.528 184.121 50.7827 182.735 49.916C181.348 49.0493 180.187 47.9747 179.251 46.692C178.349 45.4093 177.899 43.728 177.899 41.648C177.899 40.2613 178.124 38.9613 178.575 37.748C179.06 36.5347 179.736 35.4947 180.603 34.628C181.469 33.7613 182.492 33.0853 183.671 32.6C184.849 32.08 186.149 31.82 187.571 31.82C188.264 31.82 188.888 31.9067 189.443 32.08C190.032 32.2533 190.569 32.4267 191.055 32.6C191.54 32.7733 191.973 32.9467 192.355 33.12C192.771 33.2933 193.117 33.38 193.395 33.38C193.984 33.38 194.539 33.2587 195.059 33.016C195.613 32.7733 196.151 32.5133 196.671 32.236L198.751 42.792L196.931 43.052C196.48 41.9773 195.96 40.9027 195.371 39.828C194.816 38.7187 194.14 37.7307 193.343 36.864C192.545 35.9627 191.627 35.252 190.587 34.732C189.547 34.1773 188.333 33.9 186.947 33.9C185.421 33.9 184.139 34.3853 183.099 35.356C182.059 36.292 181.539 37.644 181.539 39.412C181.539 41.2147 182.007 42.636 182.943 43.676C183.879 44.6813 185.04 45.548 186.427 46.276C187.848 46.9693 189.373 47.6107 191.003 48.2C192.632 48.7547 194.14 49.4827 195.527 50.384C196.948 51.2507 198.127 52.3773 199.063 53.764C199.999 55.1507 200.467 56.988 200.467 59.276C200.467 60.5587 200.224 61.8413 199.739 63.124C199.253 64.372 198.525 65.4987 197.555 66.504C196.619 67.4747 195.44 68.272 194.019 68.896C192.632 69.4853 191.003 69.78 189.131 69.78C188.333 69.78 187.64 69.676 187.051 69.468C186.461 69.2947 185.907 69.104 185.387 68.896C184.867 68.6533 184.329 68.4453 183.775 68.272C183.22 68.064 182.613 67.96 181.955 67.96C181.157 67.96 180.464 68.0987 179.875 68.376C179.285 68.6187 178.731 68.8787 178.211 69.156L176.235 57.82ZM232.377 58.756C231.961 60.2467 231.372 61.668 230.609 63.02C229.847 64.3373 228.928 65.4987 227.853 66.504C226.779 67.5093 225.565 68.3067 224.213 68.896C222.861 69.4853 221.353 69.78 219.689 69.78C217.367 69.78 215.304 69.2947 213.501 68.324C211.733 67.3187 210.243 66.0013 209.029 64.372C207.816 62.708 206.897 60.8013 206.273 58.652C205.649 56.468 205.337 54.1973 205.337 51.84C205.337 49.344 205.667 46.9 206.325 44.508C206.984 42.116 207.92 39.984 209.133 38.112C210.347 36.2053 211.837 34.68 213.605 33.536C215.373 32.392 217.349 31.82 219.533 31.82C220.296 31.82 220.989 31.872 221.613 31.976C222.237 32.0453 222.861 32.184 223.485 32.392C223.971 32.5653 224.421 32.7213 224.837 32.86C225.253 32.964 225.687 33.016 226.137 33.016C226.796 33.016 227.368 32.912 227.853 32.704C228.373 32.4613 228.911 32.1667 229.465 31.82L231.909 43.364L230.141 43.78C229.275 42.0813 228.443 40.608 227.645 39.36C226.883 38.112 226.068 37.0893 225.201 36.292C224.369 35.4947 223.485 34.9053 222.549 34.524C221.613 34.108 220.556 33.9 219.377 33.9C216.812 33.9 214.749 35.0787 213.189 37.436C211.629 39.7933 210.849 43.5373 210.849 48.668C210.849 51.9267 211.161 54.6827 211.785 56.936C212.409 59.1893 213.224 61.0267 214.229 62.448C215.235 63.8347 216.361 64.84 217.609 65.464C218.857 66.088 220.105 66.4 221.353 66.4C222.567 66.4 223.659 66.192 224.629 65.776C225.635 65.3253 226.519 64.736 227.281 64.008C228.044 63.28 228.703 62.4307 229.257 61.46C229.847 60.4547 230.349 59.3973 230.765 58.288L232.377 58.756ZM236.918 57.82L238.582 57.456C239.102 58.6 239.709 59.7787 240.402 60.992C241.13 62.1707 241.962 63.2627 242.898 64.268C243.869 65.2733 244.944 66.1053 246.122 66.764C247.336 67.388 248.705 67.7 250.23 67.7C250.993 67.7 251.79 67.5613 252.622 67.284C253.454 67.0067 254.2 66.5907 254.858 66.036C255.552 65.4813 256.106 64.8227 256.522 64.06C256.973 63.2627 257.198 62.344 257.198 61.304C257.198 59.536 256.73 58.1147 255.794 57.04C254.893 55.9307 253.749 54.9947 252.362 54.232C250.976 53.4693 249.485 52.776 247.89 52.152C246.296 51.528 244.805 50.7827 243.418 49.916C242.032 49.0493 240.87 47.9747 239.934 46.692C239.033 45.4093 238.582 43.728 238.582 41.648C238.582 40.2613 238.808 38.9613 239.258 37.748C239.744 36.5347 240.42 35.4947 241.286 34.628C242.153 33.7613 243.176 33.0853 244.354 32.6C245.533 32.08 246.833 31.82 248.254 31.82C248.948 31.82 249.572 31.9067 250.126 32.08C250.716 32.2533 251.253 32.4267 251.738 32.6C252.224 32.7733 252.657 32.9467 253.038 33.12C253.454 33.2933 253.801 33.38 254.078 33.38C254.668 33.38 255.222 33.2587 255.742 33.016C256.297 32.7733 256.834 32.5133 257.354 32.236L259.434 42.792L257.614 43.052C257.164 41.9773 256.644 40.9027 256.054 39.828C255.5 38.7187 254.824 37.7307 254.026 36.864C253.229 35.9627 252.31 35.252 251.27 34.732C250.23 34.1773 249.017 33.9 247.63 33.9C246.105 33.9 244.822 34.3853 243.782 35.356C242.742 36.292 242.222 37.644 242.222 39.412C242.222 41.2147 242.69 42.636 243.626 43.676C244.562 44.6813 245.724 45.548 247.11 46.276C248.532 46.9693 250.057 47.6107 251.686 48.2C253.316 48.7547 254.824 49.4827 256.21 50.384C257.632 51.2507 258.81 52.3773 259.746 53.764C260.682 55.1507 261.15 56.988 261.15 59.276C261.15 60.5587 260.908 61.8413 260.422 63.124C259.937 64.372 259.209 65.4987 258.238 66.504C257.302 67.4747 256.124 68.272 254.702 68.896C253.316 69.4853 251.686 69.78 249.814 69.78C249.017 69.78 248.324 69.676 247.734 69.468C247.145 69.2947 246.59 69.104 246.07 68.896C245.55 68.6533 245.013 68.4453 244.458 68.272C243.904 68.064 243.297 67.96 242.638 67.96C241.841 67.96 241.148 68.0987 240.558 68.376C239.969 68.6187 239.414 68.8787 238.894 69.156L236.918 57.82ZM265.813 57.82L267.477 57.456C267.997 58.6 268.604 59.7787 269.297 60.992C270.025 62.1707 270.857 63.2627 271.793 64.268C272.764 65.2733 273.838 66.1053 275.017 66.764C276.23 67.388 277.6 67.7 279.125 67.7C279.888 67.7 280.685 67.5613 281.517 67.284C282.349 67.0067 283.094 66.5907 283.753 66.036C284.446 65.4813 285.001 64.8227 285.417 64.06C285.868 63.2627 286.093 62.344 286.093 61.304C286.093 59.536 285.625 58.1147 284.689 57.04C283.788 55.9307 282.644 54.9947 281.257 54.232C279.87 53.4693 278.38 52.776 276.785 52.152C275.19 51.528 273.7 50.7827 272.313 49.916C270.926 49.0493 269.765 47.9747 268.829 46.692C267.928 45.4093 267.477 43.728 267.477 41.648C267.477 40.2613 267.702 38.9613 268.153 37.748C268.638 36.5347 269.314 35.4947 270.181 34.628C271.048 33.7613 272.07 33.0853 273.249 32.6C274.428 32.08 275.728 31.82 277.149 31.82C277.842 31.82 278.466 31.9067 279.021 32.08C279.61 32.2533 280.148 32.4267 280.633 32.6C281.118 32.7733 281.552 32.9467 281.933 33.12C282.349 33.2933 282.696 33.38 282.973 33.38C283.562 33.38 284.117 33.2587 284.637 33.016C285.192 32.7733 285.729 32.5133 286.249 32.236L288.329 42.792L286.509 43.052C286.058 41.9773 285.538 40.9027 284.949 39.828C284.394 38.7187 283.718 37.7307 282.921 36.864C282.124 35.9627 281.205 35.252 280.165 34.732C279.125 34.1773 277.912 33.9 276.525 33.9C275 33.9 273.717 34.3853 272.677 35.356C271.637 36.292 271.117 37.644 271.117 39.412C271.117 41.2147 271.585 42.636 272.521 43.676C273.457 44.6813 274.618 45.548 276.005 46.276C277.426 46.9693 278.952 47.6107 280.581 48.2C282.21 48.7547 283.718 49.4827 285.105 50.384C286.526 51.2507 287.705 52.3773 288.641 53.764C289.577 55.1507 290.045 56.988 290.045 59.276C290.045 60.5587 289.802 61.8413 289.317 63.124C288.832 64.372 288.104 65.4987 287.133 66.504C286.197 67.4747 285.018 68.272 283.597 68.896C282.21 69.4853 280.581 69.78 278.709 69.78C277.912 69.78 277.218 69.676 276.629 69.468C276.04 69.2947 275.485 69.104 274.965 68.896C274.445 68.6533 273.908 68.4453 273.353 68.272C272.798 68.064 272.192 67.96 271.533 67.96C270.736 67.96 270.042 68.0987 269.453 68.376C268.864 68.6187 268.309 68.8787 267.789 69.156L265.813 57.82Z" fill="#F7D9D3"/>
<path d="M73.432 58.756L74.3952 59.0248L74.6612 58.0716L73.7108 57.7957L73.432 58.756ZM71.664 63.02L72.5295 63.5211L72.535 63.5113L71.664 63.02ZM68.908 66.504L69.5912 67.2343L69.5912 67.2343L68.908 66.504ZM65.268 68.896L65.6676 69.8127L65.268 68.896ZM54.556 68.324L54.0617 69.1933L54.0717 69.199L54.0819 69.2045L54.556 68.324ZM50.084 64.372L49.276 64.9612L49.282 64.9693L50.084 64.372ZM47.328 58.652L46.3665 58.9267L46.3677 58.9308L47.328 58.652ZM47.38 44.508L46.4159 44.2425L47.38 44.508ZM50.188 38.112L51.0272 38.6559L51.0317 38.6489L50.188 38.112ZM62.668 31.976L62.5036 32.9624L62.5305 32.9669L62.5576 32.9699L62.668 31.976ZM64.54 32.392L64.8763 31.4503L64.8663 31.4467L64.8562 31.4433L64.54 32.392ZM65.892 32.86L65.5758 33.8087L65.6122 33.8208L65.6495 33.8301L65.892 32.86ZM68.908 32.704L69.3019 33.6231L69.3165 33.6169L69.3309 33.6102L68.908 32.704ZM70.52 31.82L71.4983 31.6129L71.2022 30.2144L69.99 30.972L70.52 31.82ZM72.964 43.364L73.193 44.3374L74.1448 44.1135L73.9423 43.1569L72.964 43.364ZM71.196 43.78L70.3052 44.2345L70.6616 44.933L71.425 44.7534L71.196 43.78ZM68.7 39.36L67.8467 39.8814L67.8519 39.89L67.8573 39.8984L68.7 39.36ZM66.256 36.292L65.5641 37.014L65.5714 37.021L65.5789 37.0279L66.256 36.292ZM63.604 34.524L63.1979 35.4378L63.2122 35.4442L63.2267 35.4501L63.604 34.524ZM54.244 37.436L53.4101 36.8841L53.4101 36.8841L54.244 37.436ZM52.84 56.936L51.8763 57.2029L51.8763 57.2029L52.84 56.936ZM55.284 62.448L54.4675 63.0255L54.4744 63.035L55.284 62.448ZM58.664 65.464L58.2168 66.3584L58.2168 66.3584L58.664 65.464ZM65.684 65.776L66.0779 66.6951L66.0855 66.6919L66.0931 66.6885L65.684 65.776ZM68.336 64.008L69.0265 64.7314L69.0265 64.7314L68.336 64.008ZM70.312 61.46L69.4493 60.9542L69.4438 60.9639L70.312 61.46ZM71.82 58.288L72.0988 57.3277L71.209 57.0693L70.8837 57.9369L71.82 58.288ZM72.4688 58.4872C72.0745 59.9 71.5162 61.2467 70.793 62.5287L72.535 63.5113C73.3371 62.0893 73.9575 60.5933 74.3952 59.0248L72.4688 58.4872ZM70.7986 62.519C70.0834 63.7543 69.2254 64.8377 68.2248 65.7737L69.5912 67.2343C70.7399 66.1596 71.7193 64.9204 72.5294 63.521L70.7986 62.519ZM68.2248 65.7737C67.2336 66.701 66.1162 67.4354 64.8684 67.9793L65.6676 69.8127C67.1238 69.1779 68.4331 68.3176 69.5912 67.2343L68.2248 65.7737ZM64.8684 67.9793C63.6577 68.5071 62.2881 68.78 60.744 68.78V70.78C62.5279 70.78 64.1743 70.4636 65.6676 69.8127L64.8684 67.9793ZM60.744 68.78C58.5643 68.78 56.6684 68.3257 55.0301 67.4435L54.0819 69.2045C56.0489 70.2636 58.2784 70.78 60.744 70.78V68.78ZM55.0503 67.4547C53.4025 66.5177 52.0166 65.2929 50.886 63.7747L49.282 64.9693C50.578 66.7097 52.1735 68.1196 54.0617 69.1933L55.0503 67.4547ZM50.892 63.7828C49.7528 62.2205 48.8828 60.4207 48.2883 58.3732L46.3677 58.9308C47.0212 61.182 47.9885 63.1955 49.276 64.9612L50.892 63.7828ZM48.2895 58.3773C47.692 56.286 47.392 54.1079 47.392 51.84H45.392C45.392 54.2867 45.716 56.65 46.3665 58.9267L48.2895 58.3773ZM47.392 51.84C47.392 49.4332 47.7094 47.0785 48.3441 44.7735L46.4159 44.2425C45.7333 46.7215 45.392 49.2548 45.392 51.84H47.392ZM48.3441 44.7735C48.9786 42.4692 49.8753 40.433 51.0272 38.6559L49.3488 37.5681C48.074 39.535 47.0987 41.7628 46.4159 44.2425L48.3441 44.7735ZM51.0317 38.6489C52.1735 36.8545 53.5647 35.4358 55.2033 34.3756L54.1167 32.6964C52.2193 33.9242 50.6291 35.5562 49.3443 37.5751L51.0317 38.6489ZM55.2033 34.3756C56.8032 33.3403 58.5892 32.82 60.588 32.82V30.82C58.2188 30.82 56.0528 31.4437 54.1167 32.6964L55.2033 34.3756ZM60.588 32.82C61.3064 32.82 61.9436 32.8691 62.5036 32.9624L62.8324 30.9896C62.1444 30.8749 61.3949 30.82 60.588 30.82V32.82ZM62.5576 32.9699C63.1083 33.0311 63.6634 33.1539 64.2238 33.3407L64.8562 31.4433C64.1686 31.2141 63.4757 31.0596 62.7784 30.9821L62.5576 32.9699ZM64.2037 33.3337C64.6946 33.5091 65.152 33.6674 65.5758 33.8087L66.2082 31.9113C65.8 31.7752 65.3561 31.6216 64.8763 31.4503L64.2037 33.3337ZM65.6495 33.8301C66.1487 33.955 66.6637 34.016 67.192 34.016V32.016C66.8189 32.016 66.4673 31.973 66.1345 31.8899L65.6495 33.8301ZM67.192 34.016C67.9537 34.016 68.6654 33.8959 69.3019 33.6231L68.5141 31.7849C68.1799 31.9281 67.7477 32.016 67.192 32.016V34.016ZM69.3309 33.6102C69.8924 33.3481 70.4655 33.0333 71.05 32.668L69.99 30.972C69.4652 31.3 68.9636 31.5745 68.4851 31.7978L69.3309 33.6102ZM69.5417 32.0271L71.9857 43.5711L73.9423 43.1569L71.4983 31.6129L69.5417 32.0271ZM72.735 42.3906L70.967 42.8066L71.425 44.7534L73.193 44.3374L72.735 42.3906ZM72.0868 43.3255C71.2094 41.6058 70.3615 40.1032 69.5427 38.8216L67.8573 39.8984C68.6332 41.1128 69.4493 42.5568 70.3052 44.2345L72.0868 43.3255ZM69.5533 38.8385C68.7533 37.5295 67.8823 36.4294 66.9331 35.5561L65.5789 37.0279C66.363 37.7493 67.1213 38.6945 67.8467 39.8814L69.5533 38.8385ZM66.9479 35.57C66.0375 34.6975 65.0493 34.033 63.9813 33.5979L63.2267 35.4501C64.0307 35.7776 64.8105 36.2918 65.5641 37.014L66.9479 35.57ZM64.0101 33.6102C62.9284 33.1294 61.7296 32.9 60.432 32.9V34.9C61.4917 34.9 62.4076 35.0866 63.1979 35.4378L64.0101 33.6102ZM60.432 32.9C57.4926 32.9 55.133 34.2806 53.4101 36.8841L55.0779 37.9879C56.475 35.8767 58.2407 34.9 60.432 34.9V32.9ZM53.4101 36.8841C51.6847 39.4914 50.904 43.4794 50.904 48.668H52.904C52.904 43.5953 53.6833 40.0953 55.0779 37.9879L53.4101 36.8841ZM50.904 48.668C50.904 51.9843 51.2208 54.836 51.8763 57.2029L53.8037 56.6691C53.2112 54.5293 52.904 51.869 52.904 48.668H50.904ZM51.8763 57.2029C52.5212 59.5317 53.3771 61.4837 54.4676 63.0255L56.1004 61.8705C55.1802 60.5696 54.4068 58.8469 53.8037 56.6691L51.8763 57.2029ZM54.4744 63.035C55.5529 64.5226 56.7959 65.648 58.2168 66.3584L59.1112 64.5696C58.0361 64.032 57.0258 63.1468 56.0936 61.861L54.4744 63.035ZM58.2168 66.3584C59.5871 67.0436 60.9872 67.4 62.408 67.4V65.4C61.3328 65.4 60.2369 65.1324 59.1112 64.5696L58.2168 66.3584ZM62.408 67.4C63.7367 67.4 64.9656 67.1719 66.0779 66.6951L65.2901 64.8569C64.4611 65.2121 63.5059 65.4 62.408 65.4V67.4ZM66.0931 66.6885C67.1976 66.1934 68.1778 65.5415 69.0265 64.7314L67.6455 63.2846C66.9689 63.9305 66.1811 64.4573 65.2749 64.8635L66.0931 66.6885ZM69.0265 64.7314C69.8632 63.9327 70.5805 63.0057 71.1802 61.9561L69.4438 60.9639C68.9342 61.8557 68.3342 62.6273 67.6455 63.2846L69.0265 64.7314ZM71.1747 61.9657C71.7934 60.9102 72.3206 59.8011 72.7563 58.6391L70.8837 57.9369C70.4874 58.9936 70.0092 59.9991 69.4493 60.9543L71.1747 61.9657ZM71.5412 59.2483L73.1532 59.7163L73.7108 57.7957L72.0988 57.3277L71.5412 59.2483ZM77.9731 57.82L77.7594 56.8431L76.8234 57.0478L76.9879 57.9917L77.9731 57.82ZM79.6371 57.456L80.5474 57.0422L80.213 56.3064L79.4234 56.4791L79.6371 57.456ZM81.4571 60.992L80.5888 61.4881L80.5973 61.503L80.6063 61.5175L81.4571 60.992ZM83.9531 64.268L83.2212 64.9494L83.2274 64.9561L83.2337 64.9626L83.9531 64.268ZM87.1771 66.764L86.6892 67.6369L86.7043 67.6454L86.7197 67.6533L87.1771 66.764ZM93.6771 67.284L93.3608 66.3353L93.3608 66.3353L93.6771 67.284ZM95.9131 66.036L95.2884 65.2551L95.2785 65.263L95.2689 65.2711L95.9131 66.036ZM97.5771 64.06L96.7065 63.5679L96.7028 63.5745L96.6992 63.5811L97.5771 64.06ZM96.8491 57.04L96.073 57.6706L96.0837 57.6839L96.095 57.6968L96.8491 57.04ZM93.4171 54.232L92.9351 55.1082L92.9351 55.1082L93.4171 54.232ZM88.9451 52.152L88.5807 53.0832L88.5807 53.0832L88.9451 52.152ZM80.9891 46.692L80.1709 47.2669L80.176 47.2743L80.1813 47.2815L80.9891 46.692ZM80.3131 37.748L79.3846 37.3766L79.38 37.3882L79.3756 37.3998L80.3131 37.748ZM82.3411 34.628L83.0482 35.3351L83.0482 35.3351L82.3411 34.628ZM85.4091 32.6L85.7898 33.5247L85.8013 33.5199L85.8127 33.5149L85.4091 32.6ZM91.1811 32.08L90.8828 33.0345L90.8908 33.037L90.8989 33.0394L91.1811 32.08ZM94.0931 33.12L93.6793 34.0304L93.6938 34.037L93.7084 34.0431L94.0931 33.12ZM96.7971 33.016L96.3962 32.0998L96.3852 32.1047L96.3742 32.1098L96.7971 33.016ZM98.4091 32.236L99.3902 32.0427L99.1293 30.7186L97.9385 31.3536L98.4091 32.236ZM100.489 42.792L100.63 43.7819L101.674 43.6329L101.47 42.5987L100.489 42.792ZM98.6691 43.052L97.7469 43.4387L98.0457 44.1512L98.8105 44.0419L98.6691 43.052ZM97.1091 39.828L96.2146 40.2752L96.2231 40.2922L96.2323 40.3088L97.1091 39.828ZM95.0811 36.864L94.3321 37.5266L94.3385 37.5339L94.3451 37.5411L95.0811 36.864ZM92.3251 34.732L91.8545 35.6144L91.8661 35.6205L91.8779 35.6264L92.3251 34.732ZM84.8371 35.356L85.506 36.0993L85.5128 36.0932L85.5194 36.0871L84.8371 35.356ZM84.6811 43.676L83.9378 44.345L83.9434 44.3512L83.9492 44.3574L84.6811 43.676ZM88.1651 46.276L87.7002 47.1614L87.7133 47.1683L87.7266 47.1748L88.1651 46.276ZM92.7411 48.2L92.4009 49.1404L92.4098 49.1436L92.4188 49.1466L92.7411 48.2ZM97.2651 50.384L96.7201 51.2224L96.7322 51.2303L96.7445 51.2378L97.2651 50.384ZM100.801 53.764L101.63 53.2045L101.63 53.2045L100.801 53.764ZM101.477 63.124L102.409 63.4865L102.412 63.4779L101.477 63.124ZM99.2931 66.504L98.5737 65.8094L98.5732 65.8099L99.2931 66.504ZM95.7571 68.896L96.1482 69.8164L96.1591 69.8116L95.7571 68.896ZM88.7891 69.468L89.1219 68.525L89.0968 68.5161L89.0712 68.5086L88.7891 69.468ZM87.1251 68.896L86.7022 69.8022L86.7276 69.8141L86.7537 69.8245L87.1251 68.896ZM85.5131 68.272L85.1619 69.2083L85.1881 69.2181L85.2148 69.2265L85.5131 68.272ZM81.6131 68.376L81.9938 69.3007L82.0166 69.2913L82.0389 69.2808L81.6131 68.376ZM79.9491 69.156L78.9639 69.3277L79.2011 70.6883L80.4197 70.0384L79.9491 69.156ZM78.1868 58.7969L79.8508 58.4329L79.4234 56.4791L77.7594 56.8431L78.1868 58.7969ZM78.7267 57.8698C79.2608 59.0448 79.8819 60.2509 80.5888 61.4881L82.3253 60.4959C81.6456 59.3064 81.0533 58.1552 80.5474 57.0422L78.7267 57.8698ZM80.6063 61.5175C81.3684 62.7514 82.2401 63.8957 83.2212 64.9494L84.685 63.5866C83.794 62.6296 83.0017 61.5899 82.3079 60.4665L80.6063 61.5175ZM83.2337 64.9626C84.27 66.0359 85.4221 66.9288 86.6892 67.6369L87.6649 65.8911C86.5747 65.2818 85.5775 64.5108 84.6725 63.5734L83.2337 64.9626ZM86.7197 67.6533C88.0905 68.3583 89.6197 68.7 91.2851 68.7V66.7C89.8998 66.7 88.6903 66.4177 87.6344 65.8747L86.7197 67.6533ZM91.2851 68.7C92.17 68.7 93.0743 68.539 93.9933 68.2327L93.3608 66.3353C92.6158 66.5837 91.9255 66.7 91.2851 66.7V68.7ZM93.9933 68.2327C94.943 67.9161 95.8 67.4385 96.5572 66.8009L95.2689 65.2711C94.7088 65.7428 94.0752 66.0972 93.3608 66.3353L93.9933 68.2327ZM96.5378 66.8169C97.3324 66.1812 97.974 65.4206 98.455 64.5389L96.6992 63.5811C96.3481 64.2247 95.8804 64.7815 95.2884 65.2551L96.5378 66.8169ZM98.4476 64.5521C98.9941 63.5852 99.2531 62.4927 99.2531 61.304H97.2531C97.2531 62.1953 97.0614 62.9401 96.7065 63.5679L98.4476 64.5521ZM99.2531 61.304C99.2531 59.3548 98.7333 57.6808 97.6031 56.3832L96.095 57.6968C96.8369 58.5486 97.2531 59.7172 97.2531 61.304H99.2531ZM97.6252 56.4094C96.6342 55.1898 95.3865 54.1739 93.899 53.3558L92.9351 55.1082C94.221 55.8154 95.2612 56.6715 96.073 57.6706L97.6252 56.4094ZM93.899 53.3558C92.4714 52.5706 90.9412 51.8593 89.3095 51.2208L88.5807 53.0832C90.1383 53.6927 91.5894 54.368 92.9351 55.1082L93.899 53.3558ZM89.3095 51.2208C87.7697 50.6183 86.3348 49.9003 85.0031 49.068L83.9431 50.764C85.3846 51.665 86.931 52.4377 88.5807 53.0832L89.3095 51.2208ZM85.0031 49.068C83.7214 48.2669 82.6553 47.279 81.7969 46.1025L80.1813 47.2815C81.1948 48.6703 82.4514 49.8317 83.9431 50.764L85.0031 49.068ZM81.8073 46.1171C81.0574 45.05 80.6371 43.5886 80.6371 41.648H78.6371C78.6371 43.8674 79.1181 45.7687 80.1709 47.2669L81.8073 46.1171ZM80.6371 41.648C80.6371 40.3717 80.8441 39.1904 81.2505 38.0962L79.3756 37.3998C78.8807 38.7323 78.6371 40.151 78.6371 41.648H80.6371ZM81.2415 38.1194C81.68 37.0234 82.2835 36.0998 83.0482 35.3351L81.634 33.9209C80.6653 34.8895 79.9168 36.046 79.3846 37.3766L81.2415 38.1194ZM83.0482 35.3351C83.8177 34.5655 84.7282 33.9618 85.7898 33.5247L85.0283 31.6753C83.7325 32.2089 82.5977 32.9571 81.634 33.9209L83.0482 35.3351ZM85.8127 33.5149C86.8516 33.0566 88.0123 32.82 89.3091 32.82V30.82C87.7632 30.82 86.3238 31.1034 85.0054 31.6851L85.8127 33.5149ZM89.3091 32.82C89.9202 32.82 90.4412 32.8965 90.8828 33.0345L91.4793 31.1255C90.8116 30.9168 90.0846 30.82 89.3091 30.82V32.82ZM90.8989 33.0394C91.4733 33.2083 91.9923 33.3759 92.4567 33.5417L93.1294 31.6583C92.6232 31.4775 92.0674 31.2983 91.4632 31.1206L90.8989 33.0394ZM92.4567 33.5417C92.9215 33.7077 93.3283 33.8708 93.6793 34.0304L94.5069 32.2096C94.0952 32.0225 93.6353 31.8389 93.1294 31.6583L92.4567 33.5417ZM93.7084 34.0431C94.1795 34.2394 94.6667 34.38 95.1331 34.38V32.38C95.0447 32.38 94.8386 32.3473 94.4777 32.1969L93.7084 34.0431ZM95.1331 34.38C95.8645 34.38 96.5639 34.2283 97.2199 33.9222L96.3742 32.1098C95.9902 32.289 95.5803 32.38 95.1331 32.38V34.38ZM97.1979 33.9322C97.7756 33.6794 98.3362 33.4082 98.8797 33.1184L97.9385 31.3536C97.4419 31.6185 96.9279 31.8673 96.3962 32.0998L97.1979 33.9322ZM97.4279 32.4293L99.5079 42.9853L101.47 42.5987L99.3902 32.0427L97.4279 32.4293ZM100.348 41.8021L98.5276 42.062L98.8105 44.0419L100.63 43.7819L100.348 41.8021ZM99.5913 42.6653C99.1264 41.5569 98.5911 40.4508 97.9859 39.3472L96.2323 40.3088C96.8057 41.3545 97.3104 42.3978 97.7469 43.4387L99.5913 42.6653ZM98.0035 39.3808C97.4092 38.1923 96.6809 37.126 95.817 36.1869L94.3451 37.5411C95.0759 38.3353 95.6996 39.2451 96.2146 40.2752L98.0035 39.3808ZM95.8301 36.2014C94.9509 35.2076 93.9308 34.4168 92.7723 33.8376L91.8779 35.6264C92.7993 36.0872 93.6165 36.7177 94.3321 37.5266L95.8301 36.2014ZM92.7957 33.8496C91.5872 33.2052 90.2069 32.9 88.6851 32.9V34.9C89.9366 34.9 90.9829 35.1495 91.8545 35.6144L92.7957 33.8496ZM88.6851 32.9C86.9265 32.9 85.3941 33.4683 84.1547 34.6249L85.5194 36.0871C86.3601 35.3024 87.393 34.9 88.6851 34.9V32.9ZM84.1681 34.6127C82.8645 35.786 82.2771 37.4405 82.2771 39.412H84.2771C84.2771 37.8475 84.7297 36.798 85.506 36.0993L84.1681 34.6127ZM82.2771 39.412C82.2771 41.3884 82.7933 43.0733 83.9378 44.345L85.4244 43.007C84.6969 42.1987 84.2771 41.0409 84.2771 39.412H82.2771ZM83.9492 44.3574C84.972 45.456 86.2275 46.3882 87.7002 47.1614L88.6299 45.3906C87.3293 44.7078 86.2621 43.9067 85.413 42.9946L83.9492 44.3574ZM87.7266 47.1748C89.1828 47.8851 90.7412 48.5401 92.4009 49.1404L93.0812 47.2596C91.4822 46.6813 89.99 46.0536 88.6035 45.3772L87.7266 47.1748ZM92.4188 49.1466C93.9729 49.6757 95.4057 50.3681 96.7201 51.2224L97.8101 49.5456C96.3511 48.5973 94.7679 47.8336 93.0633 47.2533L92.4188 49.1466ZM96.7445 51.2378C98.0425 52.0293 99.1162 53.0553 99.9722 54.3235L101.63 53.2045C100.614 51.6994 99.3303 50.4721 97.7857 49.5302L96.7445 51.2378ZM99.9722 54.3235C100.763 55.4943 101.205 57.1161 101.205 59.276H103.205C103.205 56.8599 102.712 54.807 101.63 53.2045L99.9722 54.3235ZM101.205 59.276C101.205 60.4296 100.987 61.5926 100.542 62.7701L102.412 63.4779C102.937 62.09 103.205 60.6877 103.205 59.276H101.205ZM100.545 62.7616C100.11 63.8804 99.4562 64.8953 98.5737 65.8094L100.012 67.1986C101.071 66.102 101.874 64.8636 102.409 63.4864L100.545 62.7616ZM98.5732 65.8099C97.7403 66.6736 96.6749 67.4009 95.3551 67.9804L96.1591 69.8116C97.6819 69.1431 98.9738 68.2757 100.013 67.1981L98.5732 65.8099ZM95.3659 67.9757C94.129 68.5013 92.6382 68.78 90.8691 68.78V70.78C92.8439 70.78 94.6118 70.4693 96.1482 69.8163L95.3659 67.9757ZM90.8691 68.78C90.1553 68.78 89.5794 68.6865 89.1219 68.525L88.4562 70.411C89.1774 70.6655 89.9881 70.78 90.8691 70.78V68.78ZM89.0712 68.5086C88.5092 68.3433 87.9846 68.1628 87.4965 67.9675L86.7537 69.8245C87.3056 70.0452 87.8902 70.246 88.5069 70.4274L89.0712 68.5086ZM87.5479 67.9898C86.987 67.7281 86.408 67.504 85.8113 67.3175L85.2148 69.2265C85.7274 69.3867 86.2231 69.5786 86.7022 69.8022L87.5479 67.9898ZM85.8642 67.3357C85.1854 67.0811 84.4583 66.96 83.6931 66.96V68.96C84.2452 68.96 84.7314 69.0469 85.1619 69.2083L85.8642 67.3357ZM83.6931 66.96C82.7808 66.96 81.9362 67.1187 81.1873 67.4712L82.0389 69.2808C82.4686 69.0786 83.0106 68.96 83.6931 68.96V66.96ZM81.2323 67.4513C80.6148 67.7056 80.0299 67.9795 79.4785 68.2736L80.4197 70.0384C80.9082 69.7778 81.4327 69.5317 81.9938 69.3007L81.2323 67.4513ZM80.9342 68.9843L78.9582 57.6483L76.9879 57.9917L78.9639 69.3277L80.9342 68.9843ZM106.868 57.82L106.654 56.8431L105.718 57.0478L105.882 57.9917L106.868 57.82ZM108.532 57.456L109.442 57.0422L109.107 56.3064L108.318 56.4791L108.532 57.456ZM110.352 60.992L109.483 61.4881L109.492 61.503L109.501 61.5175L110.352 60.992ZM112.848 64.268L112.116 64.9494L112.122 64.9561L112.128 64.9626L112.848 64.268ZM116.072 66.764L115.584 67.6369L115.599 67.6454L115.614 67.6533L116.072 66.764ZM122.572 67.284L122.255 66.3353L122.255 66.3353L122.572 67.284ZM124.808 66.036L124.183 65.2551L124.173 65.263L124.163 65.2711L124.808 66.036ZM126.472 64.06L125.601 63.5679L125.597 63.5745L125.594 63.5811L126.472 64.06ZM125.744 57.04L124.967 57.6706L124.978 57.6839L124.99 57.6968L125.744 57.04ZM122.312 54.232L121.83 55.1082L121.83 55.1082L122.312 54.232ZM117.84 52.152L117.475 53.0832L117.475 53.0832L117.84 52.152ZM109.884 46.692L109.065 47.2669L109.071 47.2743L109.076 47.2815L109.884 46.692ZM109.208 37.748L108.279 37.3766L108.274 37.3882L108.27 37.3998L109.208 37.748ZM111.236 34.628L111.943 35.3351L111.943 35.3351L111.236 34.628ZM114.304 32.6L114.684 33.5247L114.696 33.5199L114.707 33.5149L114.304 32.6ZM120.076 32.08L119.777 33.0345L119.785 33.037L119.793 33.0394L120.076 32.08ZM122.988 33.12L122.574 34.0304L122.588 34.037L122.603 34.0431L122.988 33.12ZM125.692 33.016L125.291 32.0998L125.28 32.1047L125.269 32.1098L125.692 33.016ZM127.304 32.236L128.285 32.0427L128.024 30.7186L126.833 31.3536L127.304 32.236ZM129.384 42.792L129.525 43.7819L130.569 43.6329L130.365 42.5987L129.384 42.792ZM127.564 43.052L126.641 43.4387L126.94 44.1512L127.705 44.0419L127.564 43.052ZM126.004 39.828L125.109 40.2752L125.118 40.2922L125.127 40.3088L126.004 39.828ZM123.976 36.864L123.227 37.5266L123.233 37.5339L123.24 37.5411L123.976 36.864ZM121.22 34.732L120.749 35.6144L120.761 35.6205L120.772 35.6264L121.22 34.732ZM113.732 35.356L114.401 36.0993L114.407 36.0932L114.414 36.0871L113.732 35.356ZM113.576 43.676L112.832 44.345L112.838 44.3512L112.844 44.3574L113.576 43.676ZM117.06 46.276L116.595 47.1614L116.608 47.1683L116.621 47.1748L117.06 46.276ZM121.636 48.2L121.295 49.1404L121.304 49.1436L121.313 49.1466L121.636 48.2ZM126.16 50.384L125.615 51.2224L125.627 51.2303L125.639 51.2378L126.16 50.384ZM129.696 53.764L130.524 53.2045L130.524 53.2045L129.696 53.764ZM130.372 63.124L131.304 63.4865L131.307 63.4779L130.372 63.124ZM128.188 66.504L127.468 65.8094L127.468 65.8099L128.188 66.504ZM124.652 68.896L125.043 69.8164L125.054 69.8116L124.652 68.896ZM117.684 69.468L118.016 68.525L117.991 68.5161L117.966 68.5086L117.684 69.468ZM116.02 68.896L115.597 69.8022L115.622 69.8141L115.648 69.8245L116.02 68.896ZM114.408 68.272L114.056 69.2083L114.083 69.2181L114.109 69.2265L114.408 68.272ZM110.508 68.376L110.888 69.3007L110.911 69.2913L110.933 69.2808L110.508 68.376ZM108.844 69.156L107.858 69.3277L108.096 70.6883L109.314 70.0384L108.844 69.156ZM107.081 58.7969L108.745 58.4329L108.318 56.4791L106.654 56.8431L107.081 58.7969ZM107.621 57.8698C108.155 59.0448 108.776 60.2509 109.483 61.4881L111.22 60.4959C110.54 59.3064 109.948 58.1552 109.442 57.0422L107.621 57.8698ZM109.501 61.5175C110.263 62.7514 111.135 63.8957 112.116 64.9494L113.579 63.5866C112.689 62.6296 111.896 61.5899 111.202 60.4665L109.501 61.5175ZM112.128 64.9626C113.165 66.0359 114.317 66.9288 115.584 67.6369L116.559 65.8911C115.469 65.2818 114.472 64.5108 113.567 63.5734L112.128 64.9626ZM115.614 67.6533C116.985 68.3583 118.514 68.7 120.18 68.7V66.7C118.794 66.7 117.585 66.4177 116.529 65.8747L115.614 67.6533ZM120.18 68.7C121.064 68.7 121.969 68.539 122.888 68.2327L122.255 66.3353C121.51 66.5837 120.82 66.7 120.18 66.7V68.7ZM122.888 68.2327C123.837 67.9161 124.695 67.4385 125.452 66.8009L124.163 65.2711C123.603 65.7428 122.97 66.0972 122.255 66.3353L122.888 68.2327ZM125.432 66.8169C126.227 66.1812 126.869 65.4206 127.349 64.5389L125.594 63.5811C125.243 64.2247 124.775 64.7815 124.183 65.2551L125.432 66.8169ZM127.342 64.5521C127.889 63.5852 128.148 62.4927 128.148 61.304H126.148C126.148 62.1953 125.956 62.9401 125.601 63.5679L127.342 64.5521ZM128.148 61.304C128.148 59.3548 127.628 57.6808 126.498 56.3832L124.99 57.6968C125.731 58.5486 126.148 59.7172 126.148 61.304H128.148ZM126.52 56.4094C125.529 55.1898 124.281 54.1739 122.794 53.3558L121.83 55.1082C123.115 55.8154 124.156 56.6715 124.967 57.6706L126.52 56.4094ZM122.794 53.3558C121.366 52.5706 119.836 51.8593 118.204 51.2208L117.475 53.0832C119.033 53.6927 120.484 54.368 121.83 55.1082L122.794 53.3558ZM118.204 51.2208C116.664 50.6183 115.229 49.9003 113.898 49.068L112.838 50.764C114.279 51.665 115.826 52.4377 117.475 53.0832L118.204 51.2208ZM113.898 49.068C112.616 48.2669 111.55 47.279 110.691 46.1025L109.076 47.2815C110.089 48.6703 111.346 49.8317 112.838 50.764L113.898 49.068ZM110.702 46.1171C109.952 45.05 109.532 43.5886 109.532 41.648H107.532C107.532 43.8674 108.013 45.7687 109.065 47.2669L110.702 46.1171ZM109.532 41.648C109.532 40.3717 109.739 39.1904 110.145 38.0962L108.27 37.3998C107.775 38.7323 107.532 40.151 107.532 41.648H109.532ZM110.136 38.1194C110.574 37.0234 111.178 36.0998 111.943 35.3351L110.528 33.9209C109.56 34.8895 108.811 36.046 108.279 37.3766L110.136 38.1194ZM111.943 35.3351C112.712 34.5655 113.623 33.9618 114.684 33.5247L113.923 31.6753C112.627 32.2089 111.492 32.9571 110.528 33.9209L111.943 35.3351ZM114.707 33.5149C115.746 33.0566 116.907 32.82 118.204 32.82V30.82C116.658 30.82 115.218 31.1034 113.9 31.6851L114.707 33.5149ZM118.204 32.82C118.815 32.82 119.336 32.8965 119.777 33.0345L120.374 31.1255C119.706 30.9168 118.979 30.82 118.204 30.82V32.82ZM119.793 33.0394C120.368 33.2083 120.887 33.3759 121.351 33.5417L122.024 31.6583C121.518 31.4775 120.962 31.2983 120.358 31.1206L119.793 33.0394ZM121.351 33.5417C121.816 33.7077 122.223 33.8708 122.574 34.0304L123.401 32.2096C122.99 32.0225 122.53 31.8389 122.024 31.6583L121.351 33.5417ZM122.603 34.0431C123.074 34.2394 123.561 34.38 124.028 34.38V32.38C123.939 32.38 123.733 32.3473 123.372 32.1969L122.603 34.0431ZM124.028 34.38C124.759 34.38 125.458 34.2283 126.114 33.9222L125.269 32.1098C124.885 32.289 124.475 32.38 124.028 32.38V34.38ZM126.092 33.9322C126.67 33.6794 127.231 33.4082 127.774 33.1184L126.833 31.3536C126.336 31.6185 125.822 31.8673 125.291 32.0998L126.092 33.9322ZM126.322 32.4293L128.402 42.9853L130.365 42.5987L128.285 32.0427L126.322 32.4293ZM129.242 41.8021L127.422 42.062L127.705 44.0419L129.525 43.7819L129.242 41.8021ZM128.486 42.6653C128.021 41.5569 127.486 40.4508 126.88 39.3472L125.127 40.3088C125.7 41.3545 126.205 42.3978 126.641 43.4387L128.486 42.6653ZM126.898 39.3808C126.304 38.1923 125.575 37.126 124.712 36.1869L123.24 37.5411C123.97 38.3353 124.594 39.2451 125.109 40.2752L126.898 39.3808ZM124.725 36.2014C123.845 35.2076 122.825 34.4168 121.667 33.8376L120.772 35.6264C121.694 36.0872 122.511 36.7177 123.227 37.5266L124.725 36.2014ZM121.69 33.8496C120.482 33.2052 119.101 32.9 117.58 32.9V34.9C118.831 34.9 119.877 35.1495 120.749 35.6144L121.69 33.8496ZM117.58 32.9C115.821 32.9 114.289 33.4683 113.049 34.6249L114.414 36.0871C115.255 35.3024 116.288 34.9 117.58 34.9V32.9ZM113.063 34.6127C111.759 35.786 111.172 37.4405 111.172 39.412H113.172C113.172 37.8475 113.624 36.798 114.401 36.0993L113.063 34.6127ZM111.172 39.412C111.172 41.3884 111.688 43.0733 112.832 44.345L114.319 43.007C113.591 42.1987 113.172 41.0409 113.172 39.412H111.172ZM112.844 44.3574C113.867 45.456 115.122 46.3882 116.595 47.1614L117.524 45.3906C116.224 44.7078 115.157 43.9067 114.307 42.9946L112.844 44.3574ZM116.621 47.1748C118.077 47.8851 119.636 48.5401 121.295 49.1404L121.976 47.2596C120.377 46.6813 118.884 46.0536 117.498 45.3772L116.621 47.1748ZM121.313 49.1466C122.867 49.6757 124.3 50.3681 125.615 51.2224L126.705 49.5456C125.246 48.5973 123.662 47.8336 121.958 47.2533L121.313 49.1466ZM125.639 51.2378C126.937 52.0293 128.011 53.0553 128.867 54.3235L130.524 53.2045C129.508 51.6994 128.225 50.4721 126.68 49.5302L125.639 51.2378ZM128.867 54.3235C129.657 55.4943 130.1 57.1161 130.1 59.276H132.1C132.1 56.8599 131.606 54.807 130.524 53.2045L128.867 54.3235ZM130.1 59.276C130.1 60.4296 129.882 61.5926 129.436 62.7701L131.307 63.4779C131.832 62.09 132.1 60.6877 132.1 59.276H130.1ZM129.44 62.7616C129.004 63.8804 128.351 64.8953 127.468 65.8094L128.907 67.1986C129.966 66.102 130.768 64.8636 131.304 63.4864L129.44 62.7616ZM127.468 65.8099C126.635 66.6736 125.569 67.4009 124.25 67.9804L125.054 69.8116C126.576 69.1431 127.868 68.2757 128.907 67.1981L127.468 65.8099ZM124.26 67.9757C123.024 68.5013 121.533 68.78 119.764 68.78V70.78C121.738 70.78 123.506 70.4693 125.043 69.8163L124.26 67.9757ZM119.764 68.78C119.05 68.78 118.474 68.6865 118.016 68.525L117.351 70.411C118.072 70.6655 118.883 70.78 119.764 70.78V68.78ZM117.966 68.5086C117.404 68.3433 116.879 68.1628 116.391 67.9675L115.648 69.8245C116.2 70.0452 116.785 70.246 117.401 70.4274L117.966 68.5086ZM116.442 67.9898C115.882 67.7281 115.303 67.504 114.706 67.3175L114.109 69.2265C114.622 69.3867 115.118 69.5786 115.597 69.8022L116.442 67.9898ZM114.759 67.3357C114.08 67.0811 113.353 66.96 112.588 66.96V68.96C113.14 68.96 113.626 69.0469 114.056 69.2083L114.759 67.3357ZM112.588 66.96C111.675 66.96 110.831 67.1187 110.082 67.4712L110.933 69.2808C111.363 69.0786 111.905 68.96 112.588 68.96V66.96ZM110.127 67.4513C109.509 67.7056 108.924 67.9795 108.373 68.2736L109.314 70.0384C109.803 69.7778 110.327 69.5317 110.888 69.3007L110.127 67.4513ZM109.829 68.9843L107.853 57.6483L105.882 57.9917L107.858 69.3277L109.829 68.9843ZM159.214 31.82V30.82H158.511L158.273 31.4822L159.214 31.82ZM162.022 31.82L162.963 32.1578L163.443 30.82H162.022V31.82ZM148.398 69.78V70.78H149.102L149.339 70.1178L148.398 69.78ZM145.59 69.78L144.649 69.4422L144.169 70.78H145.59V69.78ZM159.214 32.82H162.022V30.82H159.214V32.82ZM161.081 31.4822L147.457 69.4422L149.339 70.1178L162.963 32.1578L161.081 31.4822ZM148.398 68.78H145.59V70.78H148.398V68.78ZM146.531 70.1178L160.155 32.1578L158.273 31.4822L144.649 69.4422L146.531 70.1178ZM176.235 57.82L176.021 56.8431L175.085 57.0478L175.25 57.9917L176.235 57.82ZM177.899 57.456L178.809 57.0422L178.475 56.3064L177.685 56.4791L177.899 57.456ZM179.719 60.992L178.851 61.4881L178.859 61.503L178.868 61.5175L179.719 60.992ZM182.215 64.268L181.483 64.9494L181.489 64.9561L181.495 64.9626L182.215 64.268ZM185.439 66.764L184.951 67.6369L184.966 67.6454L184.981 67.6533L185.439 66.764ZM191.939 67.284L191.623 66.3353L191.623 66.3353L191.939 67.284ZM194.175 66.036L193.55 65.2551L193.54 65.263L193.531 65.2711L194.175 66.036ZM195.839 64.06L194.968 63.5679L194.965 63.5745L194.961 63.5811L195.839 64.06ZM195.111 57.04L194.335 57.6706L194.345 57.6839L194.357 57.6968L195.111 57.04ZM191.679 54.232L191.197 55.1082L191.197 55.1082L191.679 54.232ZM187.207 52.152L186.842 53.0832L186.842 53.0832L187.207 52.152ZM179.251 46.692L178.433 47.2669L178.438 47.2743L178.443 47.2815L179.251 46.692ZM178.575 37.748L177.646 37.3766L177.642 37.3882L177.637 37.3998L178.575 37.748ZM180.603 34.628L181.31 35.3351L181.31 35.3351L180.603 34.628ZM183.671 32.6L184.052 33.5247L184.063 33.5199L184.074 33.5149L183.671 32.6ZM189.443 32.08L189.145 33.0345L189.153 33.037L189.161 33.0394L189.443 32.08ZM192.355 33.12L191.941 34.0304L191.955 34.037L191.97 34.0431L192.355 33.12ZM195.059 33.016L194.658 32.0998L194.647 32.1047L194.636 32.1098L195.059 33.016ZM196.671 32.236L197.652 32.0427L197.391 30.7186L196.2 31.3536L196.671 32.236ZM198.751 42.792L198.892 43.7819L199.936 43.6329L199.732 42.5987L198.751 42.792ZM196.931 43.052L196.009 43.4387L196.307 44.1512L197.072 44.0419L196.931 43.052ZM195.371 39.828L194.476 40.2752L194.485 40.2922L194.494 40.3088L195.371 39.828ZM193.343 36.864L192.594 37.5266L192.6 37.5339L192.607 37.5411L193.343 36.864ZM190.587 34.732L190.116 35.6144L190.128 35.6205L190.14 35.6264L190.587 34.732ZM183.099 35.356L183.768 36.0993L183.774 36.0932L183.781 36.0871L183.099 35.356ZM182.943 43.676L182.199 44.345L182.205 44.3512L182.211 44.3574L182.943 43.676ZM186.427 46.276L185.962 47.1614L185.975 47.1683L185.988 47.1748L186.427 46.276ZM191.003 48.2L190.663 49.1404L190.672 49.1436L190.681 49.1466L191.003 48.2ZM195.527 50.384L194.982 51.2224L194.994 51.2303L195.006 51.2378L195.527 50.384ZM199.063 53.764L199.892 53.2045L199.892 53.2045L199.063 53.764ZM199.739 63.124L200.671 63.4865L200.674 63.4779L199.739 63.124ZM197.555 66.504L196.835 65.8094L196.835 65.8099L197.555 66.504ZM194.019 68.896L194.41 69.8164L194.421 69.8116L194.019 68.896ZM187.051 69.468L187.384 68.525L187.358 68.5161L187.333 68.5086L187.051 69.468ZM185.387 68.896L184.964 69.8022L184.989 69.8141L185.015 69.8245L185.387 68.896ZM183.775 68.272L183.424 69.2083L183.45 69.2181L183.477 69.2265L183.775 68.272ZM179.875 68.376L180.256 69.3007L180.278 69.2913L180.301 69.2808L179.875 68.376ZM178.211 69.156L177.226 69.3277L177.463 70.6883L178.681 70.0384L178.211 69.156ZM176.448 58.7969L178.112 58.4329L177.685 56.4791L176.021 56.8431L176.448 58.7969ZM176.988 57.8698C177.522 59.0448 178.144 60.2509 178.851 61.4881L180.587 60.4959C179.907 59.3064 179.315 58.1552 178.809 57.0422L176.988 57.8698ZM178.868 61.5175C179.63 62.7514 180.502 63.8957 181.483 64.9494L182.947 63.5866C182.056 62.6296 181.263 61.5899 180.57 60.4665L178.868 61.5175ZM181.495 64.9626C182.532 66.0359 183.684 66.9288 184.951 67.6369L185.927 65.8911C184.836 65.2818 183.839 64.5108 182.934 63.5734L181.495 64.9626ZM184.981 67.6533C186.352 68.3583 187.881 68.7 189.547 68.7V66.7C188.162 66.7 186.952 66.4177 185.896 65.8747L184.981 67.6533ZM189.547 68.7C190.432 68.7 191.336 68.539 192.255 68.2327L191.623 66.3353C190.878 66.5837 190.187 66.7 189.547 66.7V68.7ZM192.255 68.2327C193.205 67.9161 194.062 67.4385 194.819 66.8009L193.531 65.2711C192.97 65.7428 192.337 66.0972 191.623 66.3353L192.255 68.2327ZM194.799 66.8169C195.594 66.1812 196.236 65.4206 196.717 64.5389L194.961 63.5811C194.61 64.2247 194.142 64.7815 193.55 65.2551L194.799 66.8169ZM196.709 64.5521C197.256 63.5852 197.515 62.4927 197.515 61.304H195.515C195.515 62.1953 195.323 62.9401 194.968 63.5679L196.709 64.5521ZM197.515 61.304C197.515 59.3548 196.995 57.6808 195.865 56.3832L194.357 57.6968C195.099 58.5486 195.515 59.7172 195.515 61.304H197.515ZM195.887 56.4094C194.896 55.1898 193.648 54.1739 192.161 53.3558L191.197 55.1082C192.483 55.8154 193.523 56.6715 194.335 57.6706L195.887 56.4094ZM192.161 53.3558C190.733 52.5706 189.203 51.8593 187.571 51.2208L186.842 53.0832C188.4 53.6927 189.851 54.368 191.197 55.1082L192.161 53.3558ZM187.571 51.2208C186.031 50.6183 184.597 49.9003 183.265 49.068L182.205 50.764C183.646 51.665 185.193 52.4377 186.842 53.0832L187.571 51.2208ZM183.265 49.068C181.983 48.2669 180.917 47.279 180.059 46.1025L178.443 47.2815C179.456 48.6703 180.713 49.8317 182.205 50.764L183.265 49.068ZM180.069 46.1171C179.319 45.05 178.899 43.5886 178.899 41.648H176.899C176.899 43.8674 177.38 45.7687 178.433 47.2669L180.069 46.1171ZM178.899 41.648C178.899 40.3717 179.106 39.1904 179.512 38.0962L177.637 37.3998C177.142 38.7323 176.899 40.151 176.899 41.648H178.899ZM179.503 38.1194C179.942 37.0234 180.545 36.0998 181.31 35.3351L179.896 33.9209C178.927 34.8895 178.179 36.046 177.646 37.3766L179.503 38.1194ZM181.31 35.3351C182.079 34.5655 182.99 33.9618 184.052 33.5247L183.29 31.6753C181.994 32.2089 180.859 32.9571 179.896 33.9209L181.31 35.3351ZM184.074 33.5149C185.113 33.0566 186.274 32.82 187.571 32.82V30.82C186.025 30.82 184.586 31.1034 183.267 31.6851L184.074 33.5149ZM187.571 32.82C188.182 32.82 188.703 32.8965 189.145 33.0345L189.741 31.1255C189.073 30.9168 188.346 30.82 187.571 30.82V32.82ZM189.161 33.0394C189.735 33.2083 190.254 33.3759 190.718 33.5417L191.391 31.6583C190.885 31.4775 190.329 31.2983 189.725 31.1206L189.161 33.0394ZM190.718 33.5417C191.183 33.7077 191.59 33.8708 191.941 34.0304L192.769 32.2096C192.357 32.0225 191.897 31.8389 191.391 31.6583L190.718 33.5417ZM191.97 34.0431C192.441 34.2394 192.928 34.38 193.395 34.38V32.38C193.306 32.38 193.1 32.3473 192.739 32.1969L191.97 34.0431ZM193.395 34.38C194.126 34.38 194.826 34.2283 195.482 33.9222L194.636 32.1098C194.252 32.289 193.842 32.38 193.395 32.38V34.38ZM195.46 33.9322C196.037 33.6794 196.598 33.4082 197.141 33.1184L196.2 31.3536C195.704 31.6185 195.19 31.8673 194.658 32.0998L195.46 33.9322ZM195.69 32.4293L197.77 42.9853L199.732 42.5987L197.652 32.0427L195.69 32.4293ZM198.609 41.8021L196.789 42.062L197.072 44.0419L198.892 43.7819L198.609 41.8021ZM197.853 42.6653C197.388 41.5569 196.853 40.4508 196.248 39.3472L194.494 40.3088C195.067 41.3545 195.572 42.3978 196.009 43.4387L197.853 42.6653ZM196.265 39.3808C195.671 38.1923 194.943 37.126 194.079 36.1869L192.607 37.5411C193.338 38.3353 193.961 39.2451 194.476 40.2752L196.265 39.3808ZM194.092 36.2014C193.213 35.2076 192.193 34.4168 191.034 33.8376L190.14 35.6264C191.061 36.0872 191.878 36.7177 192.594 37.5266L194.092 36.2014ZM191.057 33.8496C189.849 33.2052 188.469 32.9 186.947 32.9V34.9C188.198 34.9 189.245 35.1495 190.116 35.6144L191.057 33.8496ZM186.947 32.9C185.188 32.9 183.656 33.4683 182.416 34.6249L183.781 36.0871C184.622 35.3024 185.655 34.9 186.947 34.9V32.9ZM182.43 34.6127C181.126 35.786 180.539 37.4405 180.539 39.412H182.539C182.539 37.8475 182.991 36.798 183.768 36.0993L182.43 34.6127ZM180.539 39.412C180.539 41.3884 181.055 43.0733 182.199 44.345L183.686 43.007C182.959 42.1987 182.539 41.0409 182.539 39.412H180.539ZM182.211 44.3574C183.234 45.456 184.489 46.3882 185.962 47.1614L186.892 45.3906C185.591 44.7078 184.524 43.9067 183.675 42.9946L182.211 44.3574ZM185.988 47.1748C187.445 47.8851 189.003 48.5401 190.663 49.1404L191.343 47.2596C189.744 46.6813 188.252 46.0536 186.865 45.3772L185.988 47.1748ZM190.681 49.1466C192.235 49.6757 193.667 50.3681 194.982 51.2224L196.072 49.5456C194.613 48.5973 193.03 47.8336 191.325 47.2533L190.681 49.1466ZM195.006 51.2378C196.304 52.0293 197.378 53.0553 198.234 54.3235L199.892 53.2045C198.876 51.6994 197.592 50.4721 196.047 49.5302L195.006 51.2378ZM198.234 54.3235C199.024 55.4943 199.467 57.1161 199.467 59.276H201.467C201.467 56.8599 200.973 54.807 199.892 53.2045L198.234 54.3235ZM199.467 59.276C199.467 60.4296 199.249 61.5926 198.803 62.7701L200.674 63.4779C201.199 62.09 201.467 60.6877 201.467 59.276H199.467ZM198.807 62.7616C198.372 63.8804 197.718 64.8953 196.835 65.8094L198.274 67.1986C199.333 66.102 200.135 64.8636 200.671 63.4864L198.807 62.7616ZM196.835 65.8099C196.002 66.6736 194.937 67.4009 193.617 67.9804L194.421 69.8116C195.944 69.1431 197.235 68.2757 198.275 67.1981L196.835 65.8099ZM193.628 67.9757C192.391 68.5013 190.9 68.78 189.131 68.78V70.78C191.106 70.78 192.873 70.4693 194.41 69.8163L193.628 67.9757ZM189.131 68.78C188.417 68.78 187.841 68.6865 187.384 68.525L186.718 70.411C187.439 70.6655 188.25 70.78 189.131 70.78V68.78ZM187.333 68.5086C186.771 68.3433 186.246 68.1628 185.758 67.9675L185.015 69.8245C185.567 70.0452 186.152 70.246 186.769 70.4274L187.333 68.5086ZM185.81 67.9898C185.249 67.7281 184.67 67.504 184.073 67.3175L183.477 69.2265C183.989 69.3867 184.485 69.5786 184.964 69.8022L185.81 67.9898ZM184.126 67.3357C183.447 67.0811 182.72 66.96 181.955 66.96V68.96C182.507 68.96 182.993 69.0469 183.424 69.2083L184.126 67.3357ZM181.955 66.96C181.043 66.96 180.198 67.1187 179.449 67.4712L180.301 69.2808C180.73 69.0786 181.272 68.96 181.955 68.96V66.96ZM179.494 67.4513C178.877 67.7056 178.292 67.9795 177.74 68.2736L178.681 70.0384C179.17 69.7778 179.694 69.5317 180.256 69.3007L179.494 67.4513ZM179.196 68.9843L177.22 57.6483L175.25 57.9917L177.226 69.3277L179.196 68.9843ZM232.377 58.756L233.341 59.0248L233.607 58.0716L232.656 57.7957L232.377 58.756ZM230.609 63.02L231.475 63.5211L231.48 63.5113L230.609 63.02ZM227.853 66.504L228.536 67.2343L228.536 67.2343L227.853 66.504ZM224.213 68.896L224.613 69.8127L224.213 68.896ZM213.501 68.324L213.007 69.1933L213.017 69.199L213.027 69.2045L213.501 68.324ZM209.029 64.372L208.221 64.9612L208.227 64.9693L209.029 64.372ZM206.273 58.652L205.312 58.9267L205.313 58.9308L206.273 58.652ZM206.325 44.508L205.361 44.2425L206.325 44.508ZM209.133 38.112L209.972 38.6559L209.977 38.6489L209.133 38.112ZM221.613 31.976L221.449 32.9624L221.476 32.9669L221.503 32.9699L221.613 31.976ZM223.485 32.392L223.822 31.4503L223.812 31.4467L223.802 31.4433L223.485 32.392ZM224.837 32.86L224.521 33.8087L224.558 33.8208L224.595 33.8301L224.837 32.86ZM227.853 32.704L228.247 33.6231L228.262 33.6169L228.276 33.6102L227.853 32.704ZM229.465 31.82L230.444 31.6129L230.148 30.2144L228.935 30.972L229.465 31.82ZM231.909 43.364L232.138 44.3374L233.09 44.1135L232.888 43.1569L231.909 43.364ZM230.141 43.78L229.251 44.2345L229.607 44.933L230.37 44.7534L230.141 43.78ZM227.645 39.36L226.792 39.8814L226.797 39.89L226.803 39.8984L227.645 39.36ZM225.201 36.292L224.509 37.014L224.517 37.021L224.524 37.0279L225.201 36.292ZM222.549 34.524L222.143 35.4378L222.157 35.4442L222.172 35.4501L222.549 34.524ZM213.189 37.436L212.355 36.8841L212.355 36.8841L213.189 37.436ZM211.785 56.936L210.822 57.2029L210.822 57.2029L211.785 56.936ZM214.229 62.448L213.413 63.0255L213.42 63.035L214.229 62.448ZM217.609 65.464L217.162 66.3584L217.162 66.3584L217.609 65.464ZM224.629 65.776L225.023 66.6951L225.031 66.6919L225.038 66.6885L224.629 65.776ZM227.281 64.008L227.972 64.7314L227.972 64.7314L227.281 64.008ZM229.257 61.46L228.395 60.9542L228.389 60.9639L229.257 61.46ZM230.765 58.288L231.044 57.3277L230.154 57.0693L229.829 57.9369L230.765 58.288ZM231.414 58.4872C231.02 59.9 230.462 61.2467 229.738 62.5287L231.48 63.5113C232.282 62.0893 232.903 60.5933 233.341 59.0248L231.414 58.4872ZM229.744 62.519C229.029 63.7543 228.171 64.8377 227.17 65.7737L228.536 67.2343C229.685 66.1596 230.665 64.9204 231.475 63.521L229.744 62.519ZM227.17 65.7737C226.179 66.701 225.062 67.4354 223.814 67.9793L224.613 69.8127C226.069 69.1779 227.378 68.3176 228.536 67.2343L227.17 65.7737ZM223.814 67.9793C222.603 68.5071 221.233 68.78 219.689 68.78V70.78C221.473 70.78 223.12 70.4636 224.613 69.8127L223.814 67.9793ZM219.689 68.78C217.51 68.78 215.614 68.3257 213.975 67.4435L213.027 69.2045C214.994 70.2636 217.224 70.78 219.689 70.78V68.78ZM213.996 67.4547C212.348 66.5177 210.962 65.2929 209.831 63.7747L208.227 64.9693C209.523 66.7097 211.119 68.1196 213.007 69.1933L213.996 67.4547ZM209.837 63.7828C208.698 62.2205 207.828 60.4207 207.234 58.3732L205.313 58.9308C205.967 61.182 206.934 63.1955 208.221 64.9612L209.837 63.7828ZM207.235 58.3773C206.637 56.286 206.337 54.1079 206.337 51.84H204.337C204.337 54.2867 204.661 56.65 205.312 58.9267L207.235 58.3773ZM206.337 51.84C206.337 49.4332 206.655 47.0785 207.289 44.7735L205.361 44.2425C204.679 46.7215 204.337 49.2548 204.337 51.84H206.337ZM207.289 44.7735C207.924 42.4692 208.821 40.433 209.972 38.6559L208.294 37.5681C207.019 39.535 206.044 41.7628 205.361 44.2425L207.289 44.7735ZM209.977 38.6489C211.119 36.8545 212.51 35.4358 214.149 34.3756L213.062 32.6964C211.165 33.9242 209.574 35.5562 208.29 37.5751L209.977 38.6489ZM214.149 34.3756C215.749 33.3403 217.535 32.82 219.533 32.82V30.82C217.164 30.82 214.998 31.4437 213.062 32.6964L214.149 34.3756ZM219.533 32.82C220.252 32.82 220.889 32.8691 221.449 32.9624L221.778 30.9896C221.09 30.8749 220.34 30.82 219.533 30.82V32.82ZM221.503 32.9699C222.054 33.0311 222.609 33.1539 223.169 33.3407L223.802 31.4433C223.114 31.2141 222.421 31.0596 221.724 30.9821L221.503 32.9699ZM223.149 33.3337C223.64 33.5091 224.097 33.6674 224.521 33.8087L225.154 31.9113C224.745 31.7752 224.301 31.6216 223.822 31.4503L223.149 33.3337ZM224.595 33.8301C225.094 33.955 225.609 34.016 226.137 34.016V32.016C225.764 32.016 225.413 31.973 225.08 31.8899L224.595 33.8301ZM226.137 34.016C226.899 34.016 227.611 33.8959 228.247 33.6231L227.459 31.7849C227.125 31.9281 226.693 32.016 226.137 32.016V34.016ZM228.276 33.6102C228.838 33.3481 229.411 33.0333 229.995 32.668L228.935 30.972C228.41 31.3 227.909 31.5745 227.43 31.7978L228.276 33.6102ZM228.487 32.0271L230.931 43.5711L232.888 43.1569L230.444 31.6129L228.487 32.0271ZM231.68 42.3906L229.912 42.8066L230.37 44.7534L232.138 44.3374L231.68 42.3906ZM231.032 43.3255C230.155 41.6058 229.307 40.1032 228.488 38.8216L226.803 39.8984C227.578 41.1128 228.395 42.5568 229.251 44.2345L231.032 43.3255ZM228.499 38.8385C227.699 37.5295 226.828 36.4294 225.878 35.5561L224.524 37.0279C225.308 37.7493 226.067 38.6945 226.792 39.8814L228.499 38.8385ZM225.893 35.57C224.983 34.6975 223.995 34.033 222.927 33.5979L222.172 35.4501C222.976 35.7776 223.756 36.2918 224.509 37.014L225.893 35.57ZM222.955 33.6102C221.874 33.1294 220.675 32.9 219.377 32.9V34.9C220.437 34.9 221.353 35.0866 222.143 35.4378L222.955 33.6102ZM219.377 32.9C216.438 32.9 214.078 34.2806 212.355 36.8841L214.023 37.9879C215.42 35.8767 217.186 34.9 219.377 34.9V32.9ZM212.355 36.8841C210.63 39.4914 209.849 43.4794 209.849 48.668H211.849C211.849 43.5953 212.629 40.0953 214.023 37.9879L212.355 36.8841ZM209.849 48.668C209.849 51.9843 210.166 54.836 210.822 57.2029L212.749 56.6691C212.156 54.5293 211.849 51.869 211.849 48.668H209.849ZM210.822 57.2029C211.466 59.5317 212.322 61.4837 213.413 63.0255L215.046 61.8705C214.126 60.5696 213.352 58.8469 212.749 56.6691L210.822 57.2029ZM213.42 63.035C214.498 64.5226 215.741 65.648 217.162 66.3584L218.057 64.5696C216.981 64.032 215.971 63.1468 215.039 61.861L213.42 63.035ZM217.162 66.3584C218.532 67.0436 219.933 67.4 221.353 67.4V65.4C220.278 65.4 219.182 65.1324 218.057 64.5696L217.162 66.3584ZM221.353 67.4C222.682 67.4 223.911 67.1719 225.023 66.6951L224.235 64.8569C223.406 65.2121 222.451 65.4 221.353 65.4V67.4ZM225.038 66.6885C226.143 66.1934 227.123 65.5415 227.972 64.7314L226.591 63.2846C225.914 63.9305 225.126 64.4573 224.22 64.8635L225.038 66.6885ZM227.972 64.7314C228.808 63.9327 229.526 63.0057 230.126 61.9561L228.389 60.9639C227.879 61.8557 227.279 62.6273 226.591 63.2846L227.972 64.7314ZM230.12 61.9657C230.739 60.9102 231.266 59.8011 231.702 58.6391L229.829 57.9369C229.433 58.9936 228.955 59.9991 228.395 60.9543L230.12 61.9657ZM230.487 59.2483L232.099 59.7163L232.656 57.7957L231.044 57.3277L230.487 59.2483ZM236.918 57.82L236.705 56.8431L235.769 57.0478L235.933 57.9917L236.918 57.82ZM238.582 57.456L239.493 57.0422L239.158 56.3064L238.369 56.4791L238.582 57.456ZM240.402 60.992L239.534 61.4881L239.543 61.503L239.552 61.5175L240.402 60.992ZM242.898 64.268L242.166 64.9494L242.173 64.9561L242.179 64.9626L242.898 64.268ZM246.122 66.764L245.635 67.6369L245.65 67.6454L245.665 67.6533L246.122 66.764ZM252.622 67.284L252.306 66.3353L252.306 66.3353L252.622 67.284ZM254.858 66.036L254.234 65.2551L254.224 65.263L254.214 65.2711L254.858 66.036ZM256.522 64.06L255.652 63.5679L255.648 63.5745L255.644 63.5811L256.522 64.06ZM255.794 57.04L255.018 57.6706L255.029 57.6839L255.04 57.6968L255.794 57.04ZM252.362 54.232L251.88 55.1082L251.88 55.1082L252.362 54.232ZM247.89 52.152L247.526 53.0832L247.526 53.0832L247.89 52.152ZM239.934 46.692L239.116 47.2669L239.121 47.2743L239.127 47.2815L239.934 46.692ZM239.258 37.748L238.33 37.3766L238.325 37.3882L238.321 37.3998L239.258 37.748ZM241.286 34.628L241.993 35.3351L241.993 35.3351L241.286 34.628ZM244.354 32.6L244.735 33.5247L244.747 33.5199L244.758 33.5149L244.354 32.6ZM250.126 32.08L249.828 33.0345L249.836 33.037L249.844 33.0394L250.126 32.08ZM253.038 33.12L252.625 34.0304L252.639 34.037L252.654 34.0431L253.038 33.12ZM255.742 33.016L255.342 32.0998L255.33 32.1047L255.319 32.1098L255.742 33.016ZM257.354 32.236L258.336 32.0427L258.075 30.7186L256.884 31.3536L257.354 32.236ZM259.434 42.792L259.576 43.7819L260.619 43.6329L260.416 42.5987L259.434 42.792ZM257.614 43.052L256.692 43.4387L256.991 44.1512L257.756 44.0419L257.614 43.052ZM256.054 39.828L255.16 40.2752L255.168 40.2922L255.178 40.3088L256.054 39.828ZM254.026 36.864L253.277 37.5266L253.284 37.5339L253.29 37.5411L254.026 36.864ZM251.27 34.732L250.8 35.6144L250.811 35.6205L250.823 35.6264L251.27 34.732ZM243.782 35.356L244.451 36.0993L244.458 36.0932L244.465 36.0871L243.782 35.356ZM243.626 43.676L242.883 44.345L242.889 44.3512L242.894 44.3574L243.626 43.676ZM247.11 46.276L246.646 47.1614L246.659 47.1683L246.672 47.1748L247.11 46.276ZM251.686 48.2L251.346 49.1404L251.355 49.1436L251.364 49.1466L251.686 48.2ZM256.21 50.384L255.665 51.2224L255.677 51.2303L255.69 51.2378L256.21 50.384ZM259.746 53.764L260.575 53.2045L260.575 53.2045L259.746 53.764ZM260.422 63.124L261.354 63.4865L261.358 63.4779L260.422 63.124ZM258.238 66.504L257.519 65.8094L257.519 65.8099L258.238 66.504ZM254.702 68.896L255.094 69.8164L255.104 69.8116L254.702 68.896ZM247.734 69.468L248.067 68.525L248.042 68.5161L248.017 68.5086L247.734 69.468ZM246.07 68.896L245.647 69.8022L245.673 69.8141L245.699 69.8245L246.07 68.896ZM244.458 68.272L244.107 69.2083L244.133 69.2181L244.16 69.2265L244.458 68.272ZM240.558 68.376L240.939 69.3007L240.962 69.2913L240.984 69.2808L240.558 68.376ZM238.894 69.156L237.909 69.3277L238.146 70.6883L239.365 70.0384L238.894 69.156ZM237.132 58.7969L238.796 58.4329L238.369 56.4791L236.705 56.8431L237.132 58.7969ZM237.672 57.8698C238.206 59.0448 238.827 60.2509 239.534 61.4881L241.271 60.4959C240.591 59.3064 239.999 58.1552 239.493 57.0422L237.672 57.8698ZM239.552 61.5175C240.314 62.7514 241.185 63.8957 242.166 64.9494L243.63 63.5866C242.739 62.6296 241.947 61.5899 241.253 60.4665L239.552 61.5175ZM242.179 64.9626C243.215 66.0359 244.367 66.9288 245.635 67.6369L246.61 65.8911C245.52 65.2818 244.523 64.5108 243.618 63.5734L242.179 64.9626ZM245.665 67.6533C247.036 68.3583 248.565 68.7 250.23 68.7V66.7C248.845 66.7 247.636 66.4177 246.58 65.8747L245.665 67.6533ZM250.23 68.7C251.115 68.7 252.02 68.539 252.939 68.2327L252.306 66.3353C251.561 66.5837 250.871 66.7 250.23 66.7V68.7ZM252.939 68.2327C253.888 67.9161 254.745 67.4385 255.503 66.8009L254.214 65.2711C253.654 65.7428 253.02 66.0972 252.306 66.3353L252.939 68.2327ZM255.483 66.8169C256.278 66.1812 256.919 65.4206 257.4 64.5389L255.644 63.5811C255.293 64.2247 254.826 64.7815 254.234 65.2551L255.483 66.8169ZM257.393 64.5521C257.939 63.5852 258.198 62.4927 258.198 61.304H256.198C256.198 62.1953 256.007 62.9401 255.652 63.5679L257.393 64.5521ZM258.198 61.304C258.198 59.3548 257.679 57.6808 256.548 56.3832L255.04 57.6968C255.782 58.5486 256.198 59.7172 256.198 61.304H258.198ZM256.57 56.4094C255.58 55.1898 254.332 54.1739 252.844 53.3558L251.88 55.1082C253.166 55.8154 254.207 56.6715 255.018 57.6706L256.57 56.4094ZM252.844 53.3558C251.417 52.5706 249.887 51.8593 248.255 51.2208L247.526 53.0832C249.084 53.6927 250.535 54.368 251.88 55.1082L252.844 53.3558ZM248.255 51.2208C246.715 50.6183 245.28 49.9003 243.948 49.068L242.888 50.764C244.33 51.665 245.876 52.4377 247.526 53.0832L248.255 51.2208ZM243.948 49.068C242.667 48.2669 241.601 47.279 240.742 46.1025L239.127 47.2815C240.14 48.6703 241.397 49.8317 242.888 50.764L243.948 49.068ZM240.753 46.1171C240.003 45.05 239.582 43.5886 239.582 41.648H237.582C237.582 43.8674 238.063 45.7687 239.116 47.2669L240.753 46.1171ZM239.582 41.648C239.582 40.3717 239.789 39.1904 240.196 38.0962L238.321 37.3998C237.826 38.7323 237.582 40.151 237.582 41.648H239.582ZM240.187 38.1194C240.625 37.0234 241.229 36.0998 241.993 35.3351L240.579 33.9209C239.611 34.8895 238.862 36.046 238.33 37.3766L240.187 38.1194ZM241.993 35.3351C242.763 34.5655 243.674 33.9618 244.735 33.5247L243.974 31.6753C242.678 32.2089 241.543 32.9571 240.579 33.9209L241.993 35.3351ZM244.758 33.5149C245.797 33.0566 246.958 32.82 248.254 32.82V30.82C246.708 30.82 245.269 31.1034 243.951 31.6851L244.758 33.5149ZM248.254 32.82C248.865 32.82 249.387 32.8965 249.828 33.0345L250.425 31.1255C249.757 30.9168 249.03 30.82 248.254 30.82V32.82ZM249.844 33.0394C250.419 33.2083 250.938 33.3759 251.402 33.5417L252.075 31.6583C251.568 31.4775 251.013 31.2983 250.409 31.1206L249.844 33.0394ZM251.402 33.5417C251.867 33.7077 252.274 33.8708 252.625 34.0304L253.452 32.2096C253.04 32.0225 252.581 31.8389 252.075 31.6583L251.402 33.5417ZM252.654 34.0431C253.125 34.2394 253.612 34.38 254.078 34.38V32.38C253.99 32.38 253.784 32.3473 253.423 32.1969L252.654 34.0431ZM254.078 34.38C254.81 34.38 255.509 34.2283 256.165 33.9222L255.319 32.1098C254.936 32.289 254.526 32.38 254.078 32.38V34.38ZM256.143 33.9322C256.721 33.6794 257.282 33.4082 257.825 33.1184L256.884 31.3536C256.387 31.6185 255.873 31.8673 255.342 32.0998L256.143 33.9322ZM256.373 32.4293L258.453 42.9853L260.416 42.5987L258.336 32.0427L256.373 32.4293ZM259.293 41.8021L257.473 42.062L257.756 44.0419L259.576 43.7819L259.293 41.8021ZM258.537 42.6653C258.072 41.5569 257.536 40.4508 256.931 39.3472L255.178 40.3088C255.751 41.3545 256.256 42.3978 256.692 43.4387L258.537 42.6653ZM256.949 39.3808C256.355 38.1923 255.626 37.126 254.762 36.1869L253.29 37.5411C254.021 38.3353 254.645 39.2451 255.16 40.2752L256.949 39.3808ZM254.775 36.2014C253.896 35.2076 252.876 34.4168 251.718 33.8376L250.823 35.6264C251.745 36.0872 252.562 36.7177 253.277 37.5266L254.775 36.2014ZM251.741 33.8496C250.533 33.2052 249.152 32.9 247.63 32.9V34.9C248.882 34.9 249.928 35.1495 250.8 35.6144L251.741 33.8496ZM247.63 32.9C245.872 32.9 244.339 33.4683 243.1 34.6249L244.465 36.0871C245.305 35.3024 246.338 34.9 247.63 34.9V32.9ZM243.113 34.6127C241.81 35.786 241.222 37.4405 241.222 39.412H243.222C243.222 37.8475 243.675 36.798 244.451 36.0993L243.113 34.6127ZM241.222 39.412C241.222 41.3884 241.739 43.0733 242.883 44.345L244.37 43.007C243.642 42.1987 243.222 41.0409 243.222 39.412H241.222ZM242.894 44.3574C243.917 45.456 245.173 46.3882 246.646 47.1614L247.575 45.3906C246.275 44.7078 245.207 43.9067 244.358 42.9946L242.894 44.3574ZM246.672 47.1748C248.128 47.8851 249.687 48.5401 251.346 49.1404L252.027 47.2596C250.428 46.6813 248.935 46.0536 247.549 45.3772L246.672 47.1748ZM251.364 49.1466C252.918 49.6757 254.351 50.3681 255.665 51.2224L256.755 49.5456C255.296 48.5973 253.713 47.8336 252.009 47.2533L251.364 49.1466ZM255.69 51.2378C256.988 52.0293 258.062 53.0553 258.918 54.3235L260.575 53.2045C259.559 51.6994 258.276 50.4721 256.731 49.5302L255.69 51.2378ZM258.918 54.3235C259.708 55.4943 260.15 57.1161 260.15 59.276H262.15C262.15 56.8599 261.657 54.807 260.575 53.2045L258.918 54.3235ZM260.15 59.276C260.15 60.4296 259.933 61.5926 259.487 62.7701L261.358 63.4779C261.883 62.09 262.15 60.6877 262.15 59.276H260.15ZM259.49 62.7616C259.055 63.8804 258.402 64.8953 257.519 65.8094L258.958 67.1986C260.017 66.102 260.819 64.8636 261.354 63.4864L259.49 62.7616ZM257.519 65.8099C256.686 66.6736 255.62 67.4009 254.3 67.9804L255.104 69.8116C256.627 69.1431 257.919 68.2757 258.958 67.1981L257.519 65.8099ZM254.311 67.9757C253.074 68.5013 251.584 68.78 249.814 68.78V70.78C251.789 70.78 253.557 70.4693 255.094 69.8163L254.311 67.9757ZM249.814 68.78C249.101 68.78 248.525 68.6865 248.067 68.525L247.402 70.411C248.123 70.6655 248.933 70.78 249.814 70.78V68.78ZM248.017 68.5086C247.455 68.3433 246.93 68.1628 246.442 67.9675L245.699 69.8245C246.251 70.0452 246.836 70.246 247.452 70.4274L248.017 68.5086ZM246.493 67.9898C245.932 67.7281 245.353 67.504 244.757 67.3175L244.16 69.2265C244.673 69.3867 245.168 69.5786 245.647 69.8022L246.493 67.9898ZM244.809 67.3357C244.131 67.0811 243.404 66.96 242.638 66.96V68.96C243.19 68.96 243.677 69.0469 244.107 69.2083L244.809 67.3357ZM242.638 66.96C241.726 66.96 240.882 67.1187 240.133 67.4712L240.984 69.2808C241.414 69.0786 241.956 68.96 242.638 68.96V66.96ZM240.178 67.4513C239.56 67.7056 238.975 67.9795 238.424 68.2736L239.365 70.0384C239.853 69.7778 240.378 69.5317 240.939 69.3007L240.178 67.4513ZM239.88 68.9843L237.904 57.6483L235.933 57.9917L237.909 69.3277L239.88 68.9843ZM265.813 57.82L265.599 56.8431L264.663 57.0478L264.828 57.9917L265.813 57.82ZM267.477 57.456L268.387 57.0422L268.053 56.3064L267.263 56.4791L267.477 57.456ZM269.297 60.992L268.429 61.4881L268.437 61.503L268.446 61.5175L269.297 60.992ZM271.793 64.268L271.061 64.9494L271.067 64.9561L271.074 64.9626L271.793 64.268ZM275.017 66.764L274.529 67.6369L274.544 67.6454L274.56 67.6533L275.017 66.764ZM281.517 67.284L281.201 66.3353L281.201 66.3353L281.517 67.284ZM283.753 66.036L283.128 65.2551L283.118 65.263L283.109 65.2711L283.753 66.036ZM285.417 64.06L284.546 63.5679L284.543 63.5745L284.539 63.5811L285.417 64.06ZM284.689 57.04L283.913 57.6706L283.924 57.6839L283.935 57.6968L284.689 57.04ZM281.257 54.232L280.775 55.1082L280.775 55.1082L281.257 54.232ZM276.785 52.152L276.421 53.0832L276.421 53.0832L276.785 52.152ZM268.829 46.692L268.011 47.2669L268.016 47.2743L268.021 47.2815L268.829 46.692ZM268.153 37.748L267.224 37.3766L267.22 37.3882L267.215 37.3998L268.153 37.748ZM270.181 34.628L270.888 35.3351L270.888 35.3351L270.181 34.628ZM273.249 32.6L273.63 33.5247L273.641 33.5199L273.653 33.5149L273.249 32.6ZM279.021 32.08L278.723 33.0345L278.731 33.037L278.739 33.0394L279.021 32.08ZM281.933 33.12L281.519 34.0304L281.534 34.037L281.548 34.0431L281.933 33.12ZM284.637 33.016L284.236 32.0998L284.225 32.1047L284.214 32.1098L284.637 33.016ZM286.249 32.236L287.23 32.0427L286.969 30.7186L285.778 31.3536L286.249 32.236ZM288.329 42.792L288.47 43.7819L289.514 43.6329L289.31 42.5987L288.329 42.792ZM286.509 43.052L285.587 43.4387L285.885 44.1512L286.65 44.0419L286.509 43.052ZM284.949 39.828L284.054 40.2752L284.063 40.2922L284.072 40.3088L284.949 39.828ZM282.921 36.864L282.172 37.5266L282.178 37.5339L282.185 37.5411L282.921 36.864ZM280.165 34.732L279.694 35.6144L279.706 35.6205L279.718 35.6264L280.165 34.732ZM272.677 35.356L273.346 36.0993L273.353 36.0932L273.359 36.0871L272.677 35.356ZM272.521 43.676L271.778 44.345L271.783 44.3512L271.789 44.3574L272.521 43.676ZM276.005 46.276L275.54 47.1614L275.553 47.1683L275.566 47.1748L276.005 46.276ZM280.581 48.2L280.241 49.1404L280.25 49.1436L280.259 49.1466L280.581 48.2ZM285.105 50.384L284.56 51.2224L284.572 51.2303L284.584 51.2378L285.105 50.384ZM288.641 53.764L289.47 53.2045L289.47 53.2045L288.641 53.764ZM289.317 63.124L290.249 63.4865L290.252 63.4779L289.317 63.124ZM287.133 66.504L286.414 65.8094L286.413 65.8099L287.133 66.504ZM283.597 68.896L283.988 69.8164L283.999 69.8116L283.597 68.896ZM276.629 69.468L276.962 68.525L276.937 68.5161L276.911 68.5086L276.629 69.468ZM274.965 68.896L274.542 69.8022L274.567 69.8141L274.594 69.8245L274.965 68.896ZM273.353 68.272L273.002 69.2083L273.028 69.2181L273.055 69.2265L273.353 68.272ZM269.453 68.376L269.834 69.3007L269.856 69.2913L269.879 69.2808L269.453 68.376ZM267.789 69.156L266.804 69.3277L267.041 70.6883L268.259 70.0384L267.789 69.156ZM266.027 58.7969L267.691 58.4329L267.263 56.4791L265.599 56.8431L266.027 58.7969ZM266.567 57.8698C267.101 59.0448 267.722 60.2509 268.429 61.4881L270.165 60.4959C269.485 59.3064 268.893 58.1552 268.387 57.0422L266.567 57.8698ZM268.446 61.5175C269.208 62.7514 270.08 63.8957 271.061 64.9494L272.525 63.5866C271.634 62.6296 270.842 61.5899 270.148 60.4665L268.446 61.5175ZM271.074 64.9626C272.11 66.0359 273.262 66.9288 274.529 67.6369L275.505 65.8911C274.415 65.2818 273.417 64.5108 272.512 63.5734L271.074 64.9626ZM274.56 67.6533C275.93 68.3583 277.459 68.7 279.125 68.7V66.7C277.74 66.7 276.53 66.4177 275.474 65.8747L274.56 67.6533ZM279.125 68.7C280.01 68.7 280.914 68.539 281.833 68.2327L281.201 66.3353C280.456 66.5837 279.765 66.7 279.125 66.7V68.7ZM281.833 68.2327C282.783 67.9161 283.64 67.4385 284.397 66.8009L283.109 65.2711C282.549 65.7428 281.915 66.0972 281.201 66.3353L281.833 68.2327ZM284.378 66.8169C285.172 66.1812 285.814 65.4206 286.295 64.5389L284.539 63.5811C284.188 64.2247 283.72 64.7815 283.128 65.2551L284.378 66.8169ZM286.287 64.5521C286.834 63.5852 287.093 62.4927 287.093 61.304H285.093C285.093 62.1953 284.901 62.9401 284.546 63.5679L286.287 64.5521ZM287.093 61.304C287.093 59.3548 286.573 57.6808 285.443 56.3832L283.935 57.6968C284.677 58.5486 285.093 59.7172 285.093 61.304H287.093ZM285.465 56.4094C284.474 55.1898 283.226 54.1739 281.739 53.3558L280.775 55.1082C282.061 55.8154 283.101 56.6715 283.913 57.6706L285.465 56.4094ZM281.739 53.3558C280.311 52.5706 278.781 51.8593 277.149 51.2208L276.421 53.0832C277.978 53.6927 279.429 54.368 280.775 55.1082L281.739 53.3558ZM277.149 51.2208C275.61 50.6183 274.175 49.9003 272.843 49.068L271.783 50.764C273.224 51.665 274.771 52.4377 276.421 53.0832L277.149 51.2208ZM272.843 49.068C271.561 48.2669 270.495 47.279 269.637 46.1025L268.021 47.2815C269.035 48.6703 270.291 49.8317 271.783 50.764L272.843 49.068ZM269.647 46.1171C268.897 45.05 268.477 43.5886 268.477 41.648H266.477C266.477 43.8674 266.958 45.7687 268.011 47.2669L269.647 46.1171ZM268.477 41.648C268.477 40.3717 268.684 39.1904 269.09 38.0962L267.215 37.3998C266.721 38.7323 266.477 40.151 266.477 41.648H268.477ZM269.081 38.1194C269.52 37.0234 270.123 36.0998 270.888 35.3351L269.474 33.9209C268.505 34.8895 267.757 36.046 267.224 37.3766L269.081 38.1194ZM270.888 35.3351C271.658 34.5655 272.568 33.9618 273.63 33.5247L272.868 31.6753C271.572 32.2089 270.438 32.9571 269.474 33.9209L270.888 35.3351ZM273.653 33.5149C274.691 33.0566 275.852 32.82 277.149 32.82V30.82C275.603 30.82 274.164 31.1034 272.845 31.6851L273.653 33.5149ZM277.149 32.82C277.76 32.82 278.281 32.8965 278.723 33.0345L279.319 31.1255C278.651 30.9168 277.924 30.82 277.149 30.82V32.82ZM278.739 33.0394C279.313 33.2083 279.832 33.3759 280.297 33.5417L280.969 31.6583C280.463 31.4775 279.907 31.2983 279.303 31.1206L278.739 33.0394ZM280.297 33.5417C280.761 33.7077 281.168 33.8708 281.519 34.0304L282.347 32.2096C281.935 32.0225 281.475 31.8389 280.969 31.6583L280.297 33.5417ZM281.548 34.0431C282.019 34.2394 282.507 34.38 282.973 34.38V32.38C282.885 32.38 282.678 32.3473 282.318 32.1969L281.548 34.0431ZM282.973 34.38C283.704 34.38 284.404 34.2283 285.06 33.9222L284.214 32.1098C283.83 32.289 283.42 32.38 282.973 32.38V34.38ZM285.038 33.9322C285.615 33.6794 286.176 33.4082 286.719 33.1184L285.778 31.3536C285.282 31.6185 284.768 31.8673 284.236 32.0998L285.038 33.9322ZM285.268 32.4293L287.348 42.9853L289.31 42.5987L287.23 32.0427L285.268 32.4293ZM288.187 41.8021L286.367 42.062L286.65 44.0419L288.47 43.7819L288.187 41.8021ZM287.431 42.6653C286.966 41.5569 286.431 40.4508 285.826 39.3472L284.072 40.3088C284.646 41.3545 285.15 42.3978 285.587 43.4387L287.431 42.6653ZM285.843 39.3808C285.249 38.1923 284.521 37.126 283.657 36.1869L282.185 37.5411C282.916 38.3353 283.539 39.2451 284.054 40.2752L285.843 39.3808ZM283.67 36.2014C282.791 35.2076 281.771 34.4168 280.612 33.8376L279.718 35.6264C280.639 36.0872 281.456 36.7177 282.172 37.5266L283.67 36.2014ZM280.635 33.8496C279.427 33.2052 278.047 32.9 276.525 32.9V34.9C277.776 34.9 278.823 35.1495 279.694 35.6144L280.635 33.8496ZM276.525 32.9C274.766 32.9 273.234 33.4683 271.995 34.6249L273.359 36.0871C274.2 35.3024 275.233 34.9 276.525 34.9V32.9ZM272.008 34.6127C270.704 35.786 270.117 37.4405 270.117 39.412H272.117C272.117 37.8475 272.57 36.798 273.346 36.0993L272.008 34.6127ZM270.117 39.412C270.117 41.3884 270.633 43.0733 271.778 44.345L273.264 43.007C272.537 42.1987 272.117 41.0409 272.117 39.412H270.117ZM271.789 44.3574C272.812 45.456 274.067 46.3882 275.54 47.1614L276.47 45.3906C275.169 44.7078 274.102 43.9067 273.253 42.9946L271.789 44.3574ZM275.566 47.1748C277.023 47.8851 278.581 48.5401 280.241 49.1404L280.921 47.2596C279.322 46.6813 277.83 46.0536 276.443 45.3772L275.566 47.1748ZM280.259 49.1466C281.813 49.6757 283.245 50.3681 284.56 51.2224L285.65 49.5456C284.191 48.5973 282.608 47.8336 280.903 47.2533L280.259 49.1466ZM284.584 51.2378C285.882 52.0293 286.956 53.0553 287.812 54.3235L289.47 53.2045C288.454 51.6994 287.17 50.4721 285.626 49.5302L284.584 51.2378ZM287.812 54.3235C288.602 55.4943 289.045 57.1161 289.045 59.276H291.045C291.045 56.8599 290.551 54.807 289.47 53.2045L287.812 54.3235ZM289.045 59.276C289.045 60.4296 288.827 61.5926 288.382 62.7701L290.252 63.4779C290.777 62.09 291.045 60.6877 291.045 59.276H289.045ZM288.385 62.7616C287.95 63.8804 287.296 64.8953 286.414 65.8094L287.852 67.1986C288.911 66.102 289.713 64.8636 290.249 63.4864L288.385 62.7616ZM286.413 65.8099C285.58 66.6736 284.515 67.4009 283.195 67.9804L283.999 69.8116C285.522 69.1431 286.814 68.2757 287.853 67.1981L286.413 65.8099ZM283.206 67.9757C281.969 68.5013 280.478 68.78 278.709 68.78V70.78C280.684 70.78 282.452 70.4693 283.988 69.8163L283.206 67.9757ZM278.709 68.78C277.995 68.78 277.419 68.6865 276.962 68.525L276.296 70.411C277.017 70.6655 277.828 70.78 278.709 70.78V68.78ZM276.911 68.5086C276.349 68.3433 275.824 68.1628 275.336 67.9675L274.594 69.8245C275.145 70.0452 275.73 70.246 276.347 70.4274L276.911 68.5086ZM275.388 67.9898C274.827 67.7281 274.248 67.504 273.651 67.3175L273.055 69.2265C273.567 69.3867 274.063 69.5786 274.542 69.8022L275.388 67.9898ZM273.704 67.3357C273.025 67.0811 272.298 66.96 271.533 66.96V68.96C272.085 68.96 272.571 69.0469 273.002 69.2083L273.704 67.3357ZM271.533 66.96C270.621 66.96 269.776 67.1187 269.027 67.4712L269.879 69.2808C270.308 69.0786 270.85 68.96 271.533 68.96V66.96ZM269.072 67.4513C268.455 67.7056 267.87 67.9795 267.318 68.2736L268.259 70.0384C268.748 69.7778 269.273 69.5317 269.834 69.3007L269.072 67.4513ZM268.774 68.9843L266.798 57.6483L264.828 57.9917L266.804 69.3277L268.774 68.9843Z" fill="#F7D9D3"/>
</svg>
