<svg width="302" height="102" viewBox="0 0 302 102" fill="none" xmlns="http://www.w3.org/2000/svg">
<rect x="0.5" y="0.5" width="301" height="101" rx="50.5" fill="#F0EDE5" stroke="black"/>
<path d="M91.532 32.6V33.12H74.372V50.28H89.972V50.8H74.372V68.48H91.532V69H69.432V32.6H91.532ZM105.717 54.492L116.377 69H111.229L102.701 57.404L93.549 69H92.925L102.337 56.936L92.145 43H97.293L105.405 54.024L113.933 43H114.609L105.717 54.492ZM134.224 42.48C140.776 42.48 145.508 47.576 145.508 55.896C145.508 64.372 140.724 69.52 134.12 69.52C128.764 69.52 124.864 66.244 123.512 60.576V77.32H118.832V43H123.512V51.32C124.864 45.756 128.816 42.48 134.224 42.48ZM132.248 68.22C136.98 68.22 140.568 63.28 140.568 55.896C140.568 48.616 136.98 43.78 132.3 43.78C127.36 43.78 123.512 48.616 123.512 55.896C123.512 63.28 127.308 68.22 132.248 68.22ZM154.844 43V51.424C155.988 46.276 159.108 42.48 165.192 42.48V43C157.652 43 154.844 49.188 154.844 56.468V69H150.164V43H154.844ZM188.133 56.104H168.529V56.208C168.529 64.476 171.961 68.532 178.097 68.532C183.453 68.532 186.781 65.256 187.405 59.796H187.873C187.197 66.036 183.089 69.52 176.745 69.52C168.685 69.52 163.589 64.164 163.589 56.104C163.589 47.888 168.893 42.48 176.433 42.48C183.661 42.48 188.341 47.524 188.133 56.104ZM176.381 43C171.857 43 168.685 47.732 168.529 55.584H183.609C183.557 47.576 180.957 43 176.381 43ZM201.661 69.52C195.629 69.52 191.365 65.776 191.365 59.796H191.885C191.885 65.412 195.837 69 201.765 69C206.081 69 208.941 67.024 208.941 63.956C208.941 55.896 191.781 60.784 191.781 50.176C191.781 45.6 195.577 42.48 201.037 42.48C206.601 42.48 210.189 45.808 210.189 51.32H209.721C209.721 46.12 206.289 43 201.037 43C196.929 43 193.965 44.976 193.965 47.94C193.965 55.844 211.177 51.476 211.177 61.564C211.177 66.192 207.433 69.52 201.661 69.52ZM224.461 69.52C218.429 69.52 214.165 65.776 214.165 59.796H214.685C214.685 65.412 218.637 69 224.565 69C228.881 69 231.741 67.024 231.741 63.956C231.741 55.896 214.581 60.784 214.581 50.176C214.581 45.6 218.377 42.48 223.837 42.48C229.401 42.48 232.989 45.808 232.989 51.32H232.521C232.521 46.12 229.089 43 223.837 43C219.729 43 216.765 44.976 216.765 47.94C216.765 55.844 233.977 51.476 233.977 61.564C233.977 66.192 230.233 69.52 224.461 69.52Z" fill="black"/>
<path d="M91.532 32.6H92.532V31.6H91.532V32.6ZM91.532 33.12V34.12H92.532V33.12H91.532ZM74.372 33.12V32.12H73.372V33.12H74.372ZM74.372 50.28H73.372V51.28H74.372V50.28ZM89.972 50.28H90.972V49.28H89.972V50.28ZM89.972 50.8V51.8H90.972V50.8H89.972ZM74.372 50.8V49.8H73.372V50.8H74.372ZM74.372 68.48H73.372V69.48H74.372V68.48ZM91.532 68.48H92.532V67.48H91.532V68.48ZM91.532 69V70H92.532V69H91.532ZM69.432 69H68.432V70H69.432V69ZM69.432 32.6V31.6H68.432V32.6H69.432ZM90.532 32.6V33.12H92.532V32.6H90.532ZM91.532 32.12H74.372V34.12H91.532V32.12ZM73.372 33.12V50.28H75.372V33.12H73.372ZM74.372 51.28H89.972V49.28H74.372V51.28ZM88.972 50.28V50.8H90.972V50.28H88.972ZM89.972 49.8H74.372V51.8H89.972V49.8ZM73.372 50.8V68.48H75.372V50.8H73.372ZM74.372 69.48H91.532V67.48H74.372V69.48ZM90.532 68.48V69H92.532V68.48H90.532ZM91.532 68H69.432V70H91.532V68ZM70.432 69V32.6H68.432V69H70.432ZM69.432 33.6H91.532V31.6H69.432V33.6ZM105.717 54.492L104.926 53.88L104.465 54.4764L104.911 55.0841L105.717 54.492ZM116.377 69V70H118.353L117.183 68.4079L116.377 69ZM111.229 69L110.423 69.5925L110.723 70H111.229V69ZM102.701 57.404L103.507 56.8115L102.729 55.7543L101.916 56.7845L102.701 57.404ZM93.549 69V70H94.0337L94.334 69.6195L93.549 69ZM92.925 69L92.1366 68.3849L90.8765 70H92.925V69ZM102.337 56.936L103.125 57.5511L103.59 56.9555L103.144 56.3457L102.337 56.936ZM92.145 43V42H90.1748L91.3379 43.5903L92.145 43ZM97.293 43L98.0985 42.4073L97.7987 42H97.293V43ZM105.405 54.024L104.6 54.6167L105.385 55.6841L106.196 54.6359L105.405 54.024ZM113.933 43V42H113.442L113.142 42.3881L113.933 43ZM114.609 43L115.4 43.612L116.647 42H114.609V43ZM104.911 55.0841L115.571 69.5921L117.183 68.4079L106.523 53.8999L104.911 55.0841ZM116.377 68H111.229V70H116.377V68ZM112.035 68.4075L103.507 56.8115L101.895 57.9965L110.423 69.5925L112.035 68.4075ZM101.916 56.7845L92.7641 68.3805L94.334 69.6195L103.486 58.0235L101.916 56.7845ZM93.549 68H92.925V70H93.549V68ZM93.7135 69.6151L103.125 57.5511L101.549 56.3209L92.1366 68.3849L93.7135 69.6151ZM103.144 56.3457L92.9522 42.4097L91.3379 43.5903L101.53 57.5263L103.144 56.3457ZM92.145 44H97.293V42H92.145V44ZM96.4876 43.5927L104.6 54.6167L106.21 53.4313L98.0985 42.4073L96.4876 43.5927ZM106.196 54.6359L114.724 43.6119L113.142 42.3881L104.614 53.4121L106.196 54.6359ZM113.933 44H114.609V42H113.933V44ZM113.818 42.388L104.926 53.88L106.508 55.104L115.4 43.612L113.818 42.388ZM123.512 60.576L124.485 60.344L122.512 60.576H123.512ZM123.512 77.32V78.32H124.512V77.32H123.512ZM118.832 77.32H117.832V78.32H118.832V77.32ZM118.832 43V42H117.832V43H118.832ZM123.512 43H124.512V42H123.512V43ZM123.512 51.32H122.512L124.484 51.5561L123.512 51.32ZM134.224 43.48C137.225 43.48 139.764 44.6387 141.567 46.7223C143.38 48.8171 144.508 51.9216 144.508 55.896H146.508C146.508 51.5504 145.271 47.9469 143.08 45.4137C140.878 42.8693 137.776 41.48 134.224 41.48V43.48ZM144.508 55.896C144.508 59.9501 143.366 63.107 141.533 65.2338C139.711 67.349 137.146 68.52 134.12 68.52V70.52C137.699 70.52 140.828 69.117 143.049 66.5392C145.259 63.973 146.508 60.3179 146.508 55.896H144.508ZM134.12 68.52C131.655 68.52 129.575 67.7701 127.959 66.4087C126.338 65.0429 125.121 63.009 124.485 60.344L122.54 60.808C123.256 63.811 124.665 66.2491 126.671 67.9383C128.681 69.6319 131.23 70.52 134.12 70.52V68.52ZM122.512 60.576V77.32H124.512V60.576H122.512ZM123.512 76.32H118.832V78.32H123.512V76.32ZM119.832 77.32V43H117.832V77.32H119.832ZM118.832 44H123.512V42H118.832V44ZM122.512 43V51.32H124.512V43H122.512ZM124.484 51.5561C125.118 48.9488 126.344 46.9401 127.984 45.5844C129.621 44.2319 131.73 43.48 134.224 43.48V41.48C131.311 41.48 128.739 42.3661 126.71 44.0426C124.685 45.7159 123.259 48.1272 122.541 51.0839L124.484 51.5561ZM132.248 69.22C135.001 69.22 137.367 67.7717 139.006 65.3948C140.636 63.0317 141.568 59.739 141.568 55.896H139.568C139.568 59.437 138.707 62.3063 137.36 64.2592C136.022 66.1983 134.227 67.22 132.248 67.22V69.22ZM141.568 55.896C141.568 52.1022 140.635 48.8595 139.009 46.5349C137.374 44.1969 135.022 42.78 132.3 42.78V44.78C134.259 44.78 136.041 45.7811 137.37 47.6811C138.708 49.5945 139.568 52.4098 139.568 55.896H141.568ZM132.3 42.78C126.556 42.78 122.512 48.3556 122.512 55.896H124.512C124.512 48.8764 128.165 44.78 132.3 44.78V42.78ZM122.512 55.896C122.512 59.7502 123.502 63.05 125.219 65.4144C126.944 67.7918 129.412 69.22 132.248 69.22V67.22C130.145 67.22 128.244 66.1782 126.837 64.2396C125.421 62.288 124.512 59.4258 124.512 55.896H122.512ZM154.844 43H155.844V42H154.844V43ZM154.844 51.424H153.844L155.821 51.6409L154.844 51.424ZM165.192 42.48H166.192V41.48H165.192V42.48ZM165.192 43V44H166.192V43H165.192ZM154.844 69V70H155.844V69H154.844ZM150.164 69H149.164V70H150.164V69ZM150.164 43V42H149.164V43H150.164ZM153.844 43V51.424H155.844V43H153.844ZM155.821 51.6409C156.364 49.1946 157.358 47.1625 158.853 45.748C160.33 44.351 162.376 43.48 165.192 43.48V41.48C161.925 41.48 159.369 42.507 157.479 44.295C155.607 46.0655 154.469 48.5054 153.868 51.2071L155.821 51.6409ZM164.192 42.48V43H166.192V42.48H164.192ZM165.192 42C161.1 42 158.196 43.7039 156.36 46.4478C154.562 49.1335 153.844 52.7245 153.844 56.468H155.844C155.844 52.9315 156.531 49.7885 158.022 47.5602C159.474 45.3901 161.745 44 165.192 44V42ZM153.844 56.468V69H155.844V56.468H153.844ZM154.844 68H150.164V70H154.844V68ZM151.164 69V43H149.164V69H151.164ZM150.164 44H154.844V42H150.164V44ZM188.133 56.104V57.104H189.109L189.132 56.1282L188.133 56.104ZM168.529 56.104V55.104H167.529V56.104H168.529ZM187.405 59.796V58.796H186.512L186.411 59.6825L187.405 59.796ZM187.873 59.796L188.867 59.9037L188.987 58.796H187.873V59.796ZM168.529 55.584L167.529 55.5641L167.508 56.584H168.529V55.584ZM183.609 55.584V56.584H184.615L184.609 55.5775L183.609 55.584ZM188.133 55.104H168.529V57.104H188.133V55.104ZM167.529 56.104V56.208H169.529V56.104H167.529ZM167.529 56.208C167.529 60.4572 168.407 63.7973 170.228 66.0922C172.081 68.4272 174.791 69.532 178.097 69.532V67.532C175.266 67.532 173.192 66.6088 171.795 64.8488C170.366 63.0487 169.529 60.2268 169.529 56.208H167.529ZM178.097 69.532C180.986 69.532 183.419 68.643 185.214 66.9363C187.002 65.2365 188.066 62.8138 188.398 59.9095L186.411 59.6825C186.119 62.2382 185.207 64.1835 183.836 65.4867C182.472 66.783 180.563 67.532 178.097 67.532V69.532ZM187.405 60.796H187.873V58.796H187.405V60.796ZM186.878 59.6883C186.562 62.6075 185.458 64.7872 183.779 66.2424C182.096 67.7014 179.734 68.52 176.745 68.52V70.52C180.099 70.52 182.963 69.5966 185.089 67.7536C187.219 65.9068 188.507 63.2245 188.867 59.9037L186.878 59.6883ZM176.745 68.52C172.943 68.52 169.927 67.2621 167.861 65.1374C165.792 63.0094 164.589 59.9216 164.589 56.104H162.589C162.589 60.3464 163.933 63.9666 166.427 66.5316C168.924 69.0999 172.486 70.52 176.745 70.52V68.52ZM164.589 56.104C164.589 52.2138 165.841 49.0675 167.907 46.9011C169.97 44.7378 172.91 43.48 176.433 43.48V41.48C172.415 41.48 168.933 42.9262 166.459 45.5209C163.988 48.1125 162.589 51.7782 162.589 56.104H164.589ZM176.433 43.48C179.803 43.48 182.489 44.6482 184.319 46.734C186.16 48.8319 187.232 51.9704 187.133 56.0798L189.132 56.1282C189.241 51.6576 188.077 47.9841 185.823 45.415C183.558 42.8338 180.29 41.48 176.433 41.48V43.48ZM176.381 42C173.715 42 171.499 43.4138 169.973 45.8105C168.465 48.1796 167.609 51.5245 167.529 55.5641L169.528 55.6039C169.604 51.7915 170.412 48.8444 171.66 46.8845C172.89 44.9522 174.522 44 176.381 44V42ZM168.529 56.584H183.609V54.584H168.529V56.584ZM184.609 55.5775C184.582 51.4914 183.909 48.1488 182.559 45.792C181.178 43.3806 179.076 42 176.381 42V44C178.261 44 179.747 44.9074 180.823 46.786C181.93 48.7192 182.583 51.6686 182.609 55.5905L184.609 55.5775ZM191.365 59.796V58.796H190.365V59.796H191.365ZM191.885 59.796H192.885V58.796H191.885V59.796ZM210.189 51.32V52.32H211.189V51.32H210.189ZM209.721 51.32H208.721V52.32H209.721V51.32ZM201.661 68.52C198.85 68.52 196.534 67.6499 194.93 66.1664C193.334 64.6908 192.365 62.5359 192.365 59.796H190.365C190.365 63.0361 191.527 65.7432 193.572 67.6346C195.608 69.5181 198.439 70.52 201.661 70.52V68.52ZM191.365 60.796H191.885V58.796H191.365V60.796ZM190.885 59.796C190.885 62.8499 191.966 65.4287 193.923 67.2382C195.871 69.0401 198.601 70 201.765 70V68C199.001 68 196.79 67.1659 195.281 65.7698C193.779 64.3813 192.885 62.3581 192.885 59.796H190.885ZM201.765 70C204.061 70 206.074 69.4763 207.544 68.4479C209.044 67.3992 209.941 65.8432 209.941 63.956H207.941C207.941 65.1368 207.408 66.1028 206.398 66.8091C205.359 67.5357 203.785 68 201.765 68V70ZM209.941 63.956C209.941 62.7573 209.617 61.7456 209.018 60.9045C208.428 60.0776 207.615 59.4744 206.723 59.0081C204.983 58.0989 202.682 57.59 200.611 57.0535C198.453 56.4941 196.483 55.8952 195.047 54.8597C193.688 53.8805 192.781 52.4937 192.781 50.176H190.781C190.781 53.1623 192.018 55.1425 193.877 56.4822C195.658 57.7656 197.979 58.4374 200.11 58.9895C202.329 59.5645 204.318 60.0078 205.796 60.7805C206.513 61.1552 207.04 61.5753 207.389 62.0652C207.728 62.541 207.941 63.1397 207.941 63.956H209.941ZM192.781 50.176C192.781 48.1873 193.596 46.545 194.999 45.382C196.417 44.2069 198.491 43.48 201.037 43.48V41.48C198.122 41.48 195.568 42.3131 193.723 43.842C191.864 45.383 190.781 47.5887 190.781 50.176H192.781ZM201.037 43.48C203.621 43.48 205.641 44.25 207.009 45.5562C208.37 46.8568 209.189 48.7877 209.189 51.32H211.189C211.189 48.3403 210.213 45.8512 208.39 44.1098C206.572 42.374 204.017 41.48 201.037 41.48V43.48ZM210.189 50.32H209.721V52.32H210.189V50.32ZM210.721 51.32C210.721 48.492 209.781 46.1319 208.035 44.4829C206.295 42.8407 203.859 42 201.037 42V44C203.467 44 205.372 44.7193 206.662 45.9371C207.944 47.1481 208.721 48.948 208.721 51.32H210.721ZM201.037 42C198.835 42 196.855 42.5278 195.393 43.5351C193.91 44.5572 192.965 46.081 192.965 47.94H194.965C194.965 46.835 195.502 45.8888 196.528 45.1819C197.575 44.4602 199.13 44 201.037 44V42ZM192.965 47.94C192.965 49.1243 193.292 50.1269 193.891 50.9635C194.48 51.7851 195.293 52.3924 196.184 52.8672C197.926 53.7952 200.227 54.3383 202.311 54.8987C204.48 55.4818 206.464 56.0922 207.913 57.1094C209.286 58.0729 210.177 59.3982 210.177 61.564H212.177C212.177 58.6858 210.916 56.7741 209.062 55.4724C207.284 54.2243 204.965 53.5412 202.83 52.9673C200.611 52.3707 198.61 51.8933 197.124 51.102C196.402 50.7173 195.87 50.2902 195.517 49.7984C195.175 49.3216 194.965 48.7317 194.965 47.94H192.965ZM210.177 61.564C210.177 63.5895 209.366 65.2985 207.935 66.5159C206.493 67.7433 204.359 68.52 201.661 68.52V70.52C204.735 70.52 207.359 69.6327 209.231 68.0391C211.116 66.4355 212.177 64.1665 212.177 61.564H210.177ZM214.165 59.796V58.796H213.165V59.796H214.165ZM214.685 59.796H215.685V58.796H214.685V59.796ZM232.989 51.32V52.32H233.989V51.32H232.989ZM232.521 51.32H231.521V52.32H232.521V51.32ZM224.461 68.52C221.651 68.52 219.334 67.6499 217.731 66.1664C216.135 64.6908 215.165 62.5359 215.165 59.796H213.165C213.165 63.0361 214.328 65.7432 216.372 67.6346C218.409 69.5181 221.24 70.52 224.461 70.52V68.52ZM214.165 60.796H214.685V58.796H214.165V60.796ZM213.685 59.796C213.685 62.8499 214.767 65.4287 216.724 67.2382C218.672 69.0401 221.401 70 224.565 70V68C221.802 68 219.591 67.1659 218.081 65.7698C216.58 64.3813 215.685 62.3581 215.685 59.796H213.685ZM224.565 70C226.862 70 228.875 69.4763 230.345 68.4479C231.844 67.3992 232.741 65.8432 232.741 63.956H230.741C230.741 65.1368 230.209 66.1028 229.199 66.8091C228.16 67.5357 226.585 68 224.565 68V70ZM232.741 63.956C232.741 62.7573 232.418 61.7456 231.818 60.9045C231.229 60.0776 230.416 59.4744 229.523 59.0081C227.784 58.0989 225.483 57.59 223.412 57.0535C221.253 56.4941 219.284 55.8952 217.847 54.8597C216.489 53.8805 215.581 52.4937 215.581 50.176H213.581C213.581 53.1623 214.819 55.1425 216.678 56.4822C218.459 57.7656 220.78 58.4374 222.911 58.9895C225.13 59.5645 227.119 60.0078 228.597 60.7805C229.314 61.1552 229.841 61.5753 230.19 62.0652C230.529 62.541 230.741 63.1397 230.741 63.956H232.741ZM215.581 50.176C215.581 48.1873 216.397 46.545 217.8 45.382C219.218 44.2069 221.292 43.48 223.837 43.48V41.48C220.923 41.48 218.369 42.3131 216.524 43.842C214.664 45.383 213.581 47.5887 213.581 50.176H215.581ZM223.837 43.48C226.421 43.48 228.442 44.25 229.809 45.5562C231.171 46.8568 231.989 48.7877 231.989 51.32H233.989C233.989 48.3403 233.014 45.8512 231.191 44.1098C229.373 42.374 226.817 41.48 223.837 41.48V43.48ZM232.989 50.32H232.521V52.32H232.989V50.32ZM233.521 51.32C233.521 48.492 232.582 46.1319 230.836 44.4829C229.096 42.8407 226.659 42 223.837 42V44C226.268 44 228.173 44.7193 229.462 45.9371C230.745 47.1481 231.521 48.948 231.521 51.32H233.521ZM223.837 42C221.636 42 219.655 42.5278 218.194 43.5351C216.71 44.5572 215.765 46.081 215.765 47.94H217.765C217.765 46.835 218.303 45.8888 219.328 45.1819C220.376 44.4602 221.931 44 223.837 44V42ZM215.765 47.94C215.765 49.1243 216.093 50.1269 216.692 50.9635C217.281 51.7851 218.093 52.3924 218.985 52.8672C220.727 53.7952 223.028 54.3383 225.112 54.8987C227.28 55.4818 229.264 56.0922 230.714 57.1094C232.086 58.0729 232.977 59.3982 232.977 61.564H234.977C234.977 58.6858 233.717 56.7741 231.863 55.4724C230.084 54.2243 227.766 53.5412 225.631 52.9673C223.412 52.3707 221.41 51.8933 219.925 51.102C219.203 50.7173 218.67 50.2902 218.318 49.7984C217.976 49.3216 217.765 48.7317 217.765 47.94H215.765ZM232.977 61.564C232.977 63.5895 232.167 65.2985 230.736 66.5159C229.294 67.7433 227.159 68.52 224.461 68.52V70.52C227.536 70.52 230.159 69.6327 232.032 68.0391C233.916 66.4355 234.977 64.1665 234.977 61.564H232.977Z" fill="black"/>
</svg>
