<svg width="302" height="102" viewBox="0 0 302 102" fill="none" xmlns="http://www.w3.org/2000/svg">
<rect x="0.5" y="0.5" width="301" height="101" rx="50.5" fill="#F0EDE5" stroke="black"/>
<path d="M106.752 32.6V33.12H90.372V50.28H105.192V50.8H90.372V69H85.432V32.6H106.752ZM112.999 32.444C114.767 32.444 115.963 33.744 115.963 35.304C115.963 36.864 114.767 38.164 112.999 38.164C111.283 38.164 110.087 36.864 110.087 35.304C110.087 33.744 111.283 32.444 112.999 32.444ZM115.391 69H110.711V43H115.391V69ZM123.713 61.772H134.529C139.989 61.772 143.421 64.684 143.421 69.208C143.421 74.772 138.169 77.84 130.109 77.84C125.065 77.84 120.801 76.54 117.941 73.524L118.305 73.056C121.165 76.176 125.481 77.32 130.005 77.32C137.337 77.32 141.289 74.98 141.289 71.132C141.289 68.012 139.001 66.556 134.529 66.556H123.193V55.792C121.113 54.44 119.917 52.516 119.917 50.072C119.917 45.392 124.337 42.48 131.409 42.48C139.157 42.48 142.797 40.192 142.797 36.864C142.797 33.484 139.313 31.976 134.113 32.808V32.288C139.625 31.456 143.317 33.172 143.317 36.864C143.317 39.932 140.613 42.116 135.101 42.792C139.833 43.676 142.693 46.276 142.693 50.072C142.693 54.856 138.377 57.768 131.461 57.768C128.289 57.768 125.689 57.196 123.713 56.104V61.772ZM131.357 43C126.989 43 124.233 45.652 124.233 50.02C124.233 54.492 126.989 57.248 131.357 57.248C135.621 57.248 138.325 54.492 138.325 50.02C138.325 45.652 135.621 43 131.357 43ZM181.38 42.48C186.892 42.48 190.532 46.12 190.532 52.1V69H185.904V51.008C185.904 46.432 183.356 43.936 179.716 43.936C174.672 43.936 171.396 49.136 171.396 56V69H166.716V51.008C166.716 46.432 164.22 43.936 160.528 43.936C155.536 43.936 152.208 49.136 152.208 56V69H147.528V43H152.208V51.632C153.352 46.12 156.784 42.48 162.244 42.48C167.652 42.48 171.24 46.016 171.396 51.788C172.54 46.172 175.92 42.48 181.38 42.48ZM207.091 42.48C214.059 42.48 217.751 46.432 217.751 53.608V69.52H217.231L213.123 59.12C211.615 66.504 206.311 69.52 201.475 69.52C196.951 69.52 194.819 66.92 194.819 63.8C194.819 58.184 201.423 55.012 213.071 54.284V52.256C213.071 46.588 210.991 43.312 205.687 43.312C200.331 43.312 196.483 47.056 196.483 53.764H195.963C195.963 46.536 200.123 42.48 207.091 42.48ZM204.335 67.388C208.547 67.388 213.019 63.28 213.071 54.648C204.491 55.428 199.499 58.08 199.499 62.916C199.499 65.724 201.163 67.388 204.335 67.388Z" fill="black"/>
<path d="M106.752 32.6H107.752V31.6H106.752V32.6ZM106.752 33.12V34.12H107.752V33.12H106.752ZM90.372 33.12V32.12H89.372V33.12H90.372ZM90.372 50.28H89.372V51.28H90.372V50.28ZM105.192 50.28H106.192V49.28H105.192V50.28ZM105.192 50.8V51.8H106.192V50.8H105.192ZM90.372 50.8V49.8H89.372V50.8H90.372ZM90.372 69V70H91.372V69H90.372ZM85.432 69H84.432V70H85.432V69ZM85.432 32.6V31.6H84.432V32.6H85.432ZM105.752 32.6V33.12H107.752V32.6H105.752ZM106.752 32.12H90.372V34.12H106.752V32.12ZM89.372 33.12V50.28H91.372V33.12H89.372ZM90.372 51.28H105.192V49.28H90.372V51.28ZM104.192 50.28V50.8H106.192V50.28H104.192ZM105.192 49.8H90.372V51.8H105.192V49.8ZM89.372 50.8V69H91.372V50.8H89.372ZM90.372 68H85.432V70H90.372V68ZM86.432 69V32.6H84.432V69H86.432ZM85.432 33.6H106.752V31.6H85.432V33.6ZM115.391 69V70H116.391V69H115.391ZM110.711 69H109.711V70H110.711V69ZM110.711 43V42H109.711V43H110.711ZM115.391 43H116.391V42H115.391V43ZM112.999 33.444C114.215 33.444 114.963 34.2963 114.963 35.304H116.963C116.963 33.1917 115.32 31.444 112.999 31.444V33.444ZM114.963 35.304C114.963 36.3117 114.215 37.164 112.999 37.164V39.164C115.32 39.164 116.963 37.4163 116.963 35.304H114.963ZM112.999 37.164C111.847 37.164 111.087 36.3236 111.087 35.304H109.087C109.087 37.4044 110.719 39.164 112.999 39.164V37.164ZM111.087 35.304C111.087 34.2844 111.847 33.444 112.999 33.444V31.444C110.719 31.444 109.087 33.2036 109.087 35.304H111.087ZM115.391 68H110.711V70H115.391V68ZM111.711 69V43H109.711V69H111.711ZM110.711 44H115.391V42H110.711V44ZM114.391 43V69H116.391V43H114.391ZM123.713 61.772H122.713V62.772H123.713V61.772ZM117.941 73.524L117.152 72.9101L116.624 73.5885L117.215 74.2121L117.941 73.524ZM118.305 73.056L119.042 72.3803L118.242 71.5077L117.516 72.4421L118.305 73.056ZM123.193 66.556H122.193V67.556H123.193V66.556ZM123.193 55.792H124.193V55.2493L123.738 54.9536L123.193 55.792ZM134.113 32.808H133.113V33.9807L134.271 33.7954L134.113 32.808ZM134.113 32.288L133.964 31.2992L133.113 31.4276V32.288H134.113ZM135.101 42.792L134.979 41.7994L134.917 43.775L135.101 42.792ZM123.713 56.104L124.197 55.2288L122.713 54.4088V56.104H123.713ZM123.713 62.772H134.529V60.772H123.713V62.772ZM134.529 62.772C137.089 62.772 139.064 63.4545 140.379 64.5593C141.677 65.6487 142.421 67.2187 142.421 69.208H144.421C144.421 66.6733 143.449 64.5253 141.665 63.0277C139.9 61.5455 137.428 60.772 134.529 60.772V62.772ZM142.421 69.208C142.421 71.617 141.31 73.4688 139.254 74.7645C137.152 76.0897 134.033 76.84 130.109 76.84V78.84C134.244 78.84 137.782 78.0563 140.321 76.4565C142.906 74.8272 144.421 72.363 144.421 69.208H142.421ZM130.109 76.84C125.218 76.84 121.268 75.5793 118.667 72.8359L117.215 74.2121C120.334 77.5007 124.912 78.84 130.109 78.84V76.84ZM118.73 74.1379L119.094 73.6699L117.516 72.4421L117.152 72.9101L118.73 74.1379ZM117.568 73.7317C120.696 77.1439 125.343 78.32 130.005 78.32V76.32C125.619 76.32 121.634 75.2081 119.042 72.3803L117.568 73.7317ZM130.005 78.32C133.753 78.32 136.769 77.726 138.885 76.5416C141.053 75.328 142.289 73.4741 142.289 71.132H140.289C140.289 72.6379 139.549 73.878 137.908 74.7964C136.215 75.744 133.589 76.32 130.005 76.32V78.32ZM142.289 71.132C142.289 69.2879 141.589 67.8077 140.141 66.8419C138.767 65.9261 136.84 65.556 134.529 65.556V67.556C136.69 67.556 138.143 67.9139 139.031 68.5061C139.845 69.0483 140.289 69.8561 140.289 71.132H142.289ZM134.529 65.556H123.193V67.556H134.529V65.556ZM124.193 66.556V55.792H122.193V66.556H124.193ZM123.738 54.9536C121.9 53.7587 120.917 52.1302 120.917 50.072H118.917C118.917 52.9018 120.326 55.1213 122.648 56.6304L123.738 54.9536ZM120.917 50.072C120.917 48.0971 121.828 46.5001 123.562 45.3556C125.333 44.1861 127.992 43.48 131.409 43.48V41.48C127.754 41.48 124.667 42.2299 122.46 43.6864C120.216 45.1679 118.917 47.3669 118.917 50.072H120.917ZM131.409 43.48C135.356 43.48 138.39 42.9012 140.474 41.805C142.606 40.6835 143.797 38.977 143.797 36.864H141.797C141.797 38.079 141.168 39.1804 139.543 40.0349C137.87 40.9148 135.21 41.48 131.409 41.48V43.48ZM143.797 36.864C143.797 34.7465 142.664 33.1897 140.821 32.3471C139.05 31.5372 136.655 31.3885 133.955 31.8206L134.271 33.7954C136.771 33.3955 138.718 33.5848 139.989 34.1659C141.188 34.7143 141.797 35.6015 141.797 36.864H143.797ZM135.113 32.808V32.288H133.113V32.808H135.113ZM134.262 33.2768C136.911 32.8769 138.983 33.1147 140.343 33.7782C141.636 34.4086 142.317 35.4259 142.317 36.864H144.317C144.317 34.6101 143.152 32.9233 141.22 31.9808C139.356 31.0713 136.827 30.8671 133.964 31.2992L134.262 33.2768ZM142.317 36.864C142.317 38.0558 141.812 39.081 140.68 39.9223C139.508 40.7928 137.645 41.4724 134.979 41.7994L135.223 43.7846C138.068 43.4356 140.314 42.6852 141.872 41.5277C143.47 40.341 144.317 38.7402 144.317 36.864H142.317ZM134.917 43.775C137.155 44.1931 138.857 45.0007 139.984 46.0667C141.092 47.114 141.693 48.4507 141.693 50.072H143.693C143.693 47.8972 142.863 46.036 141.358 44.6133C139.873 43.2093 137.779 42.2749 135.285 41.809L134.917 43.775ZM141.693 50.072C141.693 52.1174 140.791 53.739 139.107 54.8879C137.384 56.0632 134.797 56.768 131.461 56.768V58.768C135.041 58.768 138.07 58.0168 140.234 56.5401C142.437 55.037 143.693 52.8106 143.693 50.072H141.693ZM131.461 56.768C128.399 56.768 125.98 56.2146 124.197 55.2288L123.229 56.9792C125.397 58.1774 128.178 58.768 131.461 58.768V56.768ZM122.713 56.104V61.772H124.713V56.104H122.713ZM131.357 42C128.97 42 126.918 42.728 125.457 44.1574C123.994 45.5895 123.233 47.6216 123.233 50.02H125.233C125.233 48.0504 125.849 46.5725 126.856 45.5866C127.866 44.598 129.376 44 131.357 44V42ZM123.233 50.02C123.233 52.4631 123.99 54.5426 125.446 56.0144C126.904 57.4871 128.959 58.248 131.357 58.248V56.248C129.386 56.248 127.88 55.6309 126.868 54.6076C125.854 53.5834 125.233 52.0489 125.233 50.02H123.233ZM131.357 58.248C133.71 58.248 135.729 57.4825 137.158 56.0068C138.585 54.5344 139.325 52.4577 139.325 50.02H137.325C137.325 52.0543 136.713 53.5916 135.722 54.6152C134.733 55.6355 133.268 56.248 131.357 56.248V58.248ZM139.325 50.02C139.325 47.6272 138.58 45.5979 137.147 44.1649C135.714 42.7322 133.698 42 131.357 42V44C133.28 44 134.747 44.5938 135.733 45.5791C136.718 46.5641 137.325 48.0448 137.325 50.02H139.325ZM190.532 69V70H191.532V69H190.532ZM185.904 69H184.904V70H185.904V69ZM171.396 69V70H172.396V69H171.396ZM166.716 69H165.716V70H166.716V69ZM152.208 69V70H153.208V69H152.208ZM147.528 69H146.528V70H147.528V69ZM147.528 43V42H146.528V43H147.528ZM152.208 43H153.208V42H152.208V43ZM152.208 51.632H151.208L153.187 51.8352L152.208 51.632ZM171.396 51.788L170.396 51.815L172.376 51.9876L171.396 51.788ZM181.38 43.48C183.91 43.48 185.922 44.3102 187.303 45.7418C188.687 47.1765 189.532 49.3136 189.532 52.1H191.532C191.532 48.9064 190.556 46.2335 188.742 44.3532C186.926 42.4698 184.362 41.48 181.38 41.48V43.48ZM189.532 52.1V69H191.532V52.1H189.532ZM190.532 68H185.904V70H190.532V68ZM186.904 69V51.008H184.904V69H186.904ZM186.904 51.008C186.904 48.5384 186.214 46.5067 184.913 45.0817C183.604 43.6481 181.773 42.936 179.716 42.936V44.936C181.298 44.936 182.561 45.4719 183.436 46.4303C184.319 47.3973 184.904 48.9016 184.904 51.008H186.904ZM179.716 42.936C176.803 42.936 174.435 44.4536 172.834 46.8364C171.247 49.1985 170.396 52.4226 170.396 56H172.396C172.396 52.7134 173.182 49.9055 174.494 47.9516C175.793 46.0184 177.585 44.936 179.716 44.936V42.936ZM170.396 56V69H172.396V56H170.396ZM171.396 68H166.716V70H171.396V68ZM167.716 69V51.008H165.716V69H167.716ZM167.716 51.008C167.716 48.5437 167.042 46.5112 165.747 45.0839C164.442 43.6462 162.608 42.936 160.528 42.936V44.936C162.139 44.936 163.4 45.4738 164.266 46.4281C165.141 47.3928 165.716 48.8963 165.716 51.008H167.716ZM160.528 42.936C157.639 42.936 155.272 44.4556 153.667 46.8347C152.074 49.1955 151.208 52.4195 151.208 56H153.208C153.208 52.7165 154.006 49.9085 155.325 47.9533C156.631 46.0164 158.425 44.936 160.528 44.936V42.936ZM151.208 56V69H153.208V56H151.208ZM152.208 68H147.528V70H152.208V68ZM148.528 69V43H146.528V69H148.528ZM147.528 44H152.208V42H147.528V44ZM151.208 43V51.632H153.208V43H151.208ZM153.187 51.8352C153.729 49.2247 154.796 47.139 156.296 45.7141C157.782 44.3028 159.753 43.48 162.244 43.48V41.48C159.274 41.48 156.8 42.4772 154.919 44.2639C153.052 46.037 151.831 48.5273 151.229 51.4288L153.187 51.8352ZM162.244 43.48C164.724 43.48 166.702 44.2857 168.079 45.6737C169.459 47.0649 170.324 49.1316 170.396 51.815L172.395 51.761C172.312 48.6724 171.304 46.0851 169.499 44.2653C167.691 42.4423 165.172 41.48 162.244 41.48V43.48ZM172.376 51.9876C172.919 49.3185 173.977 47.1934 175.466 45.7448C176.939 44.3122 178.894 43.48 181.38 43.48V41.48C178.405 41.48 175.94 42.4938 174.072 44.3112C172.22 46.1126 171.016 48.6415 170.416 51.5884L172.376 51.9876ZM217.751 69.52V70.52H218.751V69.52H217.751ZM217.231 69.52L216.301 69.8874L216.551 70.52H217.231V69.52ZM213.123 59.12L214.053 58.7526L212.817 55.6224L212.144 58.9199L213.123 59.12ZM213.071 54.284L213.134 55.2821L214.071 55.2235V54.284H213.071ZM196.483 53.764V54.764H197.483V53.764H196.483ZM195.963 53.764H194.963V54.764H195.963V53.764ZM213.071 54.648L214.071 54.654L214.078 53.5524L212.981 53.6521L213.071 54.648ZM207.091 43.48C210.388 43.48 212.757 44.4107 214.31 46.0424C215.871 47.6822 216.751 50.1812 216.751 53.608H218.751C218.751 49.8588 217.786 46.7938 215.759 44.6636C213.724 42.5253 210.763 41.48 207.091 41.48V43.48ZM216.751 53.608V69.52H218.751V53.608H216.751ZM217.751 68.52H217.231V70.52H217.751V68.52ZM218.161 69.1526L214.053 58.7526L212.193 59.4874L216.301 69.8874L218.161 69.1526ZM212.144 58.9199C210.736 65.813 205.863 68.52 201.475 68.52V70.52C206.76 70.52 212.495 67.195 214.103 59.3201L212.144 58.9199ZM201.475 68.52C199.405 68.52 198.009 67.9283 197.138 67.1038C196.269 66.2806 195.819 65.1287 195.819 63.8H193.819C193.819 65.5913 194.436 67.2994 195.763 68.5562C197.089 69.8117 199.022 70.52 201.475 70.52V68.52ZM195.819 63.8C195.819 61.4855 197.14 59.5759 200.032 58.0997C202.96 56.6052 207.363 55.6427 213.134 55.2821L213.009 53.2859C207.132 53.6533 202.409 54.6407 199.123 56.3183C195.801 58.0141 193.819 60.4985 193.819 63.8H195.819ZM214.071 54.284V52.256H212.071V54.284H214.071ZM214.071 52.256C214.071 49.3313 213.54 46.8301 212.159 45.0462C210.737 43.2103 208.558 42.312 205.687 42.312V44.312C208.121 44.312 209.634 45.0517 210.578 46.2708C211.562 47.5419 212.071 49.5127 212.071 52.256H214.071ZM205.687 42.312C202.767 42.312 200.186 43.3389 198.341 45.3457C196.502 47.3456 195.483 50.221 195.483 53.764H197.483C197.483 50.599 198.389 48.2484 199.813 46.6993C201.231 45.1571 203.251 44.312 205.687 44.312V42.312ZM196.483 52.764H195.963V54.764H196.483V52.764ZM196.963 53.764C196.963 50.3401 197.945 47.8006 199.623 46.1174C201.3 44.4344 203.8 43.48 207.091 43.48V41.48C203.415 41.48 200.351 42.5536 198.206 44.7056C196.061 46.8574 194.963 49.9599 194.963 53.764H196.963ZM204.335 68.388C209.314 68.388 214.017 63.5899 214.071 54.654L212.071 54.642C212.021 62.9701 207.78 66.388 204.335 66.388V68.388ZM212.981 53.6521C208.632 54.0474 205.068 54.9244 202.561 56.3991C200.003 57.9034 198.499 60.0706 198.499 62.916H200.499C200.499 60.9254 201.491 59.3486 203.575 58.1229C205.709 56.8676 208.93 56.0286 213.162 55.6439L212.981 53.6521ZM198.499 62.916C198.499 64.5185 198.979 65.9294 200.041 66.9322C201.095 67.9271 202.583 68.388 204.335 68.388V66.388C202.916 66.388 201.985 66.0169 201.414 65.4778C200.852 64.9466 200.499 64.1215 200.499 62.916H198.499Z" fill="black"/>
</svg>
