<svg width="302" height="102" viewBox="0 0 302 102" fill="none" xmlns="http://www.w3.org/2000/svg">
<rect x="0.5" y="0.5" width="301" height="101" rx="50.5" fill="#5266AB" stroke="#F7D9D3"/>
<path d="M73.684 73V70.804L77.344 70.377V32.923L73.684 32.496V30.3H93.631C95.2983 30.3 96.681 30.2593 97.779 30.178C98.877 30.056 100.036 29.7917 101.256 29.385L104.245 42.988L102.171 43.293C100.544 39.6737 98.5517 36.9693 96.193 35.18C93.875 33.3907 90.9267 32.496 87.348 32.496C86.6567 32.496 85.9653 32.5163 85.274 32.557C84.6233 32.5977 83.9727 32.618 83.322 32.618V49.942H86.128C87.104 49.942 87.9377 49.8607 88.629 49.698C89.361 49.5353 89.9913 49.21 90.52 48.722C91.0487 48.234 91.4757 47.5427 91.801 46.648C92.167 45.7533 92.5127 44.5943 92.838 43.171H94.851V58.909H92.838C92.5127 57.4857 92.167 56.3267 91.801 55.432C91.4757 54.5373 91.0487 53.846 90.52 53.358C89.9913 52.87 89.361 52.5447 88.629 52.382C87.9377 52.2193 87.104 52.138 86.128 52.138H83.2V70.377L86.86 70.804V73H73.684ZM107.289 73V71.17L110.339 70.743V52.687C110.339 50.5723 110.196 49.1693 109.912 48.478C109.627 47.746 109.159 47.38 108.509 47.38C108.021 47.38 107.512 47.4613 106.984 47.624V45.794L115.402 42.988C115.361 43.6387 115.32 44.2487 115.28 44.818C115.28 45.3873 115.28 46.0177 115.28 46.709V70.743L118.33 71.17V73H107.289ZM112.84 29.385C113.897 29.385 114.71 29.7103 115.28 30.361C115.89 30.971 116.195 31.7233 116.195 32.618C116.195 33.5127 115.89 34.2853 115.28 34.936C114.71 35.546 113.897 35.851 112.84 35.851C111.782 35.851 110.949 35.546 110.339 34.936C109.769 34.2853 109.485 33.5127 109.485 32.618C109.485 31.7233 109.769 30.971 110.339 30.361C110.949 29.7103 111.782 29.385 112.84 29.385ZM135.194 81.723C136.577 81.723 137.919 81.662 139.22 81.54C140.521 81.418 141.66 81.174 142.636 80.808C143.653 80.442 144.446 79.9337 145.015 79.283C145.625 78.6323 145.93 77.758 145.93 76.66C145.93 75.9687 145.686 75.379 145.198 74.891C144.71 74.4437 144.12 74.098 143.429 73.854C142.046 73.366 140.379 73.0813 138.427 73C136.516 72.878 133.994 72.817 130.863 72.817C130.619 72.8577 130.314 73.0203 129.948 73.305C129.623 73.6303 129.277 73.9963 128.911 74.403C128.586 74.8503 128.301 75.318 128.057 75.806C127.813 76.294 127.691 76.7617 127.691 77.209C127.691 78.2257 127.915 79.039 128.362 79.649C128.85 80.259 129.44 80.7063 130.131 80.991C130.863 81.3163 131.676 81.5197 132.571 81.601C133.466 81.6823 134.34 81.723 135.194 81.723ZM129.216 53.358C129.216 54.1713 129.338 55.0863 129.582 56.103C129.826 57.079 130.212 57.994 130.741 58.848C131.31 59.702 132.022 60.434 132.876 61.044C133.73 61.6133 134.747 61.898 135.926 61.898C137.105 61.898 138.122 61.6337 138.976 61.105C139.83 60.5763 140.521 59.9053 141.05 59.092C141.619 58.2787 142.026 57.3637 142.27 56.347C142.514 55.3303 142.636 54.334 142.636 53.358C142.636 50.8367 142.046 48.844 140.867 47.38C139.728 45.916 138.081 45.184 135.926 45.184C134.747 45.184 133.73 45.428 132.876 45.916C132.022 46.404 131.31 47.0343 130.741 47.807C130.212 48.5797 129.826 49.454 129.582 50.43C129.338 51.406 129.216 52.382 129.216 53.358ZM134.706 83.919C133.486 83.919 132.185 83.858 130.802 83.736C129.419 83.6547 128.118 83.4107 126.898 83.004C125.719 82.5973 124.722 81.9873 123.909 81.174C123.136 80.3607 122.75 79.2627 122.75 77.88C122.75 77.1887 122.933 76.5583 123.299 75.989C123.665 75.4603 124.112 74.9723 124.641 74.525C125.21 74.1183 125.8 73.732 126.41 73.366C127.02 73.0407 127.569 72.7153 128.057 72.39C127.65 72.268 127.183 72.1663 126.654 72.085C126.166 72.0037 125.678 71.8613 125.19 71.658C124.743 71.4547 124.356 71.17 124.031 70.804C123.746 70.438 123.604 69.9297 123.604 69.279C123.604 68.669 123.848 68.0387 124.336 67.388C124.824 66.7373 125.414 66.1273 126.105 65.558C126.796 64.948 127.488 64.3787 128.179 63.85C128.87 63.3213 129.44 62.874 129.887 62.508C128.179 61.532 126.817 60.312 125.8 58.848C124.783 57.384 124.275 55.615 124.275 53.541C124.275 52.0363 124.56 50.6333 125.129 49.332C125.698 48.0307 126.491 46.9123 127.508 45.977C128.525 45.0417 129.704 44.3097 131.046 43.781C132.388 43.2523 133.832 42.988 135.377 42.988H137.451L139.22 41.219C140.277 40.1617 141.416 39.2263 142.636 38.413C143.856 37.559 145.198 37.132 146.662 37.132C147.638 37.132 148.411 37.4167 148.98 37.986C149.59 38.5553 149.895 39.1857 149.895 39.877C149.895 40.8123 149.631 41.5647 149.102 42.134C148.573 42.6627 147.76 42.927 146.662 42.927C145.971 42.927 145.32 42.7237 144.71 42.317C144.141 41.9103 143.673 41.5037 143.307 41.097C142.697 41.1377 142.087 41.3817 141.477 41.829C140.908 42.2763 140.379 42.7847 139.891 43.354C142.087 44.086 143.917 45.306 145.381 47.014C146.845 48.6813 147.577 50.735 147.577 53.175C147.577 54.761 147.272 56.225 146.662 57.567C146.052 58.909 145.198 60.068 144.1 61.044C143.043 62.02 141.782 62.7723 140.318 63.301C138.895 63.8297 137.349 64.094 135.682 64.094C135.113 64.094 134.523 64.0533 133.913 63.972C133.303 63.8907 132.754 63.7687 132.266 63.606C132.144 63.728 131.9 63.911 131.534 64.155C131.209 64.3583 130.863 64.582 130.497 64.826C130.172 65.07 129.867 65.3343 129.582 65.619C129.338 65.9037 129.216 66.168 129.216 66.412C129.216 66.9813 129.867 67.4287 131.168 67.754C132.469 68.0387 134.828 68.181 138.244 68.181C141.945 68.181 144.832 68.791 146.906 70.011C148.98 71.1903 150.017 73.1017 150.017 75.745C150.017 78.2257 148.817 80.198 146.418 81.662C144.019 83.1667 140.115 83.919 134.706 83.919ZM156.849 50.552C156.849 48.9253 156.585 47.8883 156.056 47.441C155.568 46.9937 154.755 46.77 153.616 46.77V45.184L159.411 42.988C159.858 43.7607 160.265 44.574 160.631 45.428C160.997 46.282 161.322 47.1157 161.607 47.929C162.502 47.075 163.315 46.343 164.047 45.733C164.82 45.0823 165.572 44.574 166.304 44.208C167.036 43.8013 167.768 43.4963 168.5 43.293C169.273 43.0897 170.127 42.988 171.062 42.988C172.933 42.988 174.478 43.476 175.698 44.452C176.918 45.428 177.894 46.6073 178.626 47.99C180.415 46.3633 182.022 45.123 183.445 44.269C184.909 43.415 186.556 42.988 188.386 42.988C191.273 42.988 193.51 43.964 195.096 45.916C196.723 47.8273 197.536 50.5113 197.536 53.968V70.743L200.586 71.17V73H189.545V71.17L192.595 70.743V53.48C192.595 52.138 192.412 51.04 192.046 50.186C191.68 49.2913 191.192 48.5797 190.582 48.051C190.013 47.4817 189.342 47.0953 188.569 46.892C187.837 46.648 187.105 46.526 186.373 46.526C185.072 46.526 183.872 46.8717 182.774 47.563C181.676 48.2543 180.639 49.0677 179.663 50.003V70.743L182.713 71.17V73H171.672V71.17L174.722 70.743V52.382C174.722 51.6907 174.58 50.9993 174.295 50.308C174.01 49.576 173.624 48.9457 173.136 48.417C172.648 47.8477 172.038 47.4003 171.306 47.075C170.615 46.709 169.842 46.526 168.988 46.526C167.809 46.526 166.67 46.892 165.572 47.624C164.474 48.3153 163.213 49.271 161.79 50.491V70.743L164.84 71.17V73H153.799V71.17L156.849 70.743V50.552ZM224.982 68.669C224.982 69.3603 225.124 69.828 225.409 70.072C225.734 70.2753 226.08 70.377 226.446 70.377C226.893 70.377 227.28 70.255 227.605 70.011C227.93 69.7263 228.195 69.4823 228.398 69.279L229.679 70.499C228.988 71.475 228.174 72.2883 227.239 72.939C226.344 73.5897 225.246 73.915 223.945 73.915C222.888 73.915 222.013 73.5083 221.322 72.695C220.671 71.8817 220.305 70.9463 220.224 69.889C219.167 71.0277 217.865 71.9833 216.32 72.756C214.775 73.5287 213.229 73.915 211.684 73.915C210.627 73.915 209.63 73.732 208.695 73.366C207.8 73.0407 206.987 72.5527 206.255 71.902C205.564 71.2513 205.015 70.4787 204.608 69.584C204.201 68.6893 203.998 67.7133 203.998 66.656C203.998 64.704 204.527 63.0163 205.584 61.593C206.682 60.129 208.024 58.8683 209.61 57.811C211.237 56.7537 212.985 55.8997 214.856 55.249C216.767 54.5577 218.516 54.029 220.102 53.663C220.102 51.9957 219.878 50.613 219.431 49.515C218.984 48.417 218.455 47.563 217.845 46.953C217.235 46.3023 216.584 45.855 215.893 45.611C215.202 45.3263 214.612 45.184 214.124 45.184C213.555 45.184 213.148 45.4077 212.904 45.855C212.66 46.2617 212.396 46.7293 212.111 47.258C211.867 47.746 211.501 48.2137 211.013 48.661C210.566 49.0677 209.834 49.271 208.817 49.271C208.044 49.271 207.414 49.027 206.926 48.539C206.438 48.0103 206.194 47.319 206.194 46.465C206.194 45.1637 206.601 44.269 207.414 43.781C208.227 43.2523 209.651 42.988 211.684 42.988C212.619 42.988 213.839 43.1507 215.344 43.476C216.849 43.7607 218.313 44.2893 219.736 45.062C221.159 45.8347 222.379 46.9123 223.396 48.295C224.453 49.6777 224.982 51.4263 224.982 53.541V68.669ZM220.041 55.92C219.024 56.1233 217.886 56.4487 216.625 56.896C215.405 57.3027 214.246 57.8923 213.148 58.665C212.05 59.397 211.135 60.312 210.403 61.41C209.671 62.508 209.305 63.8093 209.305 65.314C209.305 66.8593 209.732 68.0997 210.586 69.035C211.481 69.9297 212.701 70.377 214.246 70.377C215.466 70.377 216.564 70.072 217.54 69.462C218.516 68.8113 219.35 68.0387 220.041 67.144V55.92Z" fill="#F7D9D3"/>
<path d="M73.684 73H72.684V74H73.684V73ZM73.684 70.804L73.5681 69.8107L72.684 69.9139V70.804H73.684ZM77.344 70.377L77.4599 71.3703L78.344 71.2671V70.377H77.344ZM77.344 32.923H78.344V32.0329L77.4599 31.9297L77.344 32.923ZM73.684 32.496H72.684V33.3861L73.5681 33.4893L73.684 32.496ZM73.684 30.3V29.3H72.684V30.3H73.684ZM97.779 30.178L97.8529 31.1753L97.8712 31.1739L97.8894 31.1719L97.779 30.178ZM101.256 29.385L102.233 29.1704L101.994 28.0848L100.94 28.4363L101.256 29.385ZM104.245 42.988L104.39 43.9774L105.452 43.8213L105.222 42.7734L104.245 42.988ZM102.171 43.293L101.259 43.7029L101.569 44.3923L102.316 44.2824L102.171 43.293ZM96.193 35.18L95.5819 35.9716L95.5886 35.9767L96.193 35.18ZM85.274 32.557L85.2153 31.5587L85.2116 31.5589L85.274 32.557ZM83.322 32.618V31.618H82.322V32.618H83.322ZM83.322 49.942H82.322V50.942H83.322V49.942ZM88.629 49.698L88.4121 48.7217L88.4 48.7246L88.629 49.698ZM90.52 48.722L89.8417 47.9872L89.8417 47.9872L90.52 48.722ZM91.801 46.648L90.8755 46.2694L90.868 46.2877L90.8612 46.3063L91.801 46.648ZM92.838 43.171V42.171H92.0408L91.8631 42.9482L92.838 43.171ZM94.851 43.171H95.851V42.171H94.851V43.171ZM94.851 58.909V59.909H95.851V58.909H94.851ZM92.838 58.909L91.8631 59.1318L92.0408 59.909H92.838V58.909ZM91.801 55.432L90.8612 55.7737L90.868 55.7923L90.8755 55.8106L91.801 55.432ZM90.52 53.358L91.1983 52.6232L91.1983 52.6232L90.52 53.358ZM88.629 52.382L88.3999 53.3555L88.4121 53.3582L88.629 52.382ZM83.2 52.138V51.138H82.2V52.138H83.2ZM83.2 70.377H82.2V71.2671L83.0841 71.3703L83.2 70.377ZM86.86 70.804H87.86V69.9139L86.9759 69.8107L86.86 70.804ZM86.86 73V74H87.86V73H86.86ZM74.684 73V70.804H72.684V73H74.684ZM73.7999 71.7973L77.4599 71.3703L77.2281 69.3837L73.5681 69.8107L73.7999 71.7973ZM78.344 70.377V32.923H76.344V70.377H78.344ZM77.4599 31.9297L73.7999 31.5027L73.5681 33.4893L77.2281 33.9163L77.4599 31.9297ZM74.684 32.496V30.3H72.684V32.496H74.684ZM73.684 31.3H93.631V29.3H73.684V31.3ZM93.631 31.3C95.3119 31.3 96.7213 31.2591 97.8529 31.1753L97.7051 29.1807C96.6407 29.2596 95.2848 29.3 93.631 29.3V31.3ZM97.8894 31.1719C99.0677 31.041 100.296 30.7591 101.572 30.3337L100.94 28.4363C99.776 28.8242 98.6863 29.071 97.6686 29.1841L97.8894 31.1719ZM100.279 29.5996L103.268 43.2026L105.222 42.7734L102.233 29.1704L100.279 29.5996ZM104.1 41.9986L102.026 42.3036L102.316 44.2824L104.39 43.9774L104.1 41.9986ZM103.083 42.8831C101.41 39.161 99.327 36.3024 96.7974 34.3833L95.5886 35.9767C97.7763 37.6363 99.6784 40.1863 101.259 43.7029L103.083 42.8831ZM96.8041 34.3884C94.2749 32.4361 91.0974 31.496 87.348 31.496V33.496C90.7559 33.496 93.4751 34.3452 95.5819 35.9716L96.8041 34.3884ZM87.348 31.496C86.637 31.496 85.9261 31.5169 85.2153 31.5587L85.3327 33.5553C86.0045 33.5158 86.6763 33.496 87.348 33.496V31.496ZM85.2116 31.5589C84.5817 31.5983 83.9518 31.618 83.322 31.618V33.618C83.9935 33.618 84.665 33.597 85.3364 33.555L85.2116 31.5589ZM82.322 32.618V49.942H84.322V32.618H82.322ZM83.322 50.942H86.128V48.942H83.322V50.942ZM86.128 50.942C87.1546 50.942 88.0696 50.8569 88.858 50.6714L88.4 48.7246C87.8057 48.8644 87.0534 48.942 86.128 48.942V50.942ZM88.8459 50.6742C89.7427 50.4749 90.5342 50.0698 91.1983 49.4568L89.8417 47.9872C89.4484 48.3502 88.9793 48.5958 88.4121 48.7218L88.8459 50.6742ZM91.1983 49.4568C91.8759 48.8313 92.3778 47.9878 92.7408 46.9897L90.8612 46.3063C90.5735 47.0975 90.2214 47.6367 89.8417 47.9872L91.1983 49.4568ZM92.7265 47.0266C93.1208 46.0629 93.4808 44.8464 93.8129 43.3938L91.8631 42.9482C91.5445 44.3423 91.2132 45.4437 90.8755 46.2694L92.7265 47.0266ZM92.838 44.171H94.851V42.171H92.838V44.171ZM93.851 43.171V58.909H95.851V43.171H93.851ZM94.851 57.909H92.838V59.909H94.851V57.909ZM93.8129 58.6862C93.4808 57.2336 93.1208 56.0171 92.7265 55.0534L90.8755 55.8106C91.2132 56.6363 91.5445 57.7377 91.8631 59.1318L93.8129 58.6862ZM92.7408 55.0903C92.3778 54.0922 91.8759 53.2487 91.1983 52.6232L89.8417 54.0928C90.2214 54.4433 90.5735 54.9825 90.8612 55.7737L92.7408 55.0903ZM91.1983 52.6232C90.5342 52.0102 89.7427 51.6051 88.8459 51.4058L88.4121 53.3582C88.9793 53.4842 89.4484 53.7298 89.8417 54.0928L91.1983 52.6232ZM88.858 51.4086C88.0696 51.2231 87.1546 51.138 86.128 51.138V53.138C87.0534 53.138 87.8057 53.2156 88.4 53.3554L88.858 51.4086ZM86.128 51.138H83.2V53.138H86.128V51.138ZM82.2 52.138V70.377H84.2V52.138H82.2ZM83.0841 71.3703L86.7441 71.7973L86.9759 69.8107L83.3159 69.3837L83.0841 71.3703ZM85.86 70.804V73H87.86V70.804H85.86ZM86.86 72H73.684V74H86.86V72ZM107.289 73H106.289V74H107.289V73ZM107.289 71.17L107.15 70.1797L106.289 70.3002V71.17H107.289ZM110.339 70.743L110.477 71.7333L111.339 71.6128V70.743H110.339ZM109.912 48.478L108.98 48.8404L108.983 48.8496L108.987 48.8587L109.912 48.478ZM106.984 47.624H105.984V48.978L107.278 48.5798L106.984 47.624ZM106.984 45.794L106.668 44.8453L105.984 45.0732V45.794H106.984ZM115.402 42.988L116.4 43.0504L116.492 41.5704L115.086 42.0393L115.402 42.988ZM115.28 44.818L114.282 44.7468L114.28 44.7823V44.818H115.28ZM115.28 70.743H114.28V71.6128L115.141 71.7333L115.28 70.743ZM118.33 71.17H119.33V70.3002L118.468 70.1797L118.33 71.17ZM118.33 73V74H119.33V73H118.33ZM115.28 30.361L114.527 31.0195L114.549 31.0446L114.573 31.0681L115.28 30.361ZM115.28 34.936L114.55 34.2521L114.549 34.2537L115.28 34.936ZM110.339 34.936L109.586 35.5945L109.608 35.6196L109.632 35.6431L110.339 34.936ZM110.339 30.361L109.609 29.6771L109.608 29.6787L110.339 30.361ZM108.289 73V71.17H106.289V73H108.289ZM107.427 72.1603L110.477 71.7333L110.2 69.7527L107.15 70.1797L107.427 72.1603ZM111.339 70.743V52.687H109.339V70.743H111.339ZM111.339 52.687C111.339 51.6108 111.303 50.6949 111.227 49.9478C111.153 49.2193 111.035 48.5795 110.836 48.0972L108.987 48.8587C109.073 49.0679 109.169 49.4752 109.237 50.1497C109.304 50.8056 109.339 51.6485 109.339 52.687H111.339ZM110.844 48.1156C110.657 47.6346 110.378 47.191 109.964 46.867C109.537 46.5329 109.035 46.38 108.509 46.38V48.38C108.633 48.38 108.69 48.4101 108.731 48.442C108.785 48.484 108.882 48.5894 108.98 48.8404L110.844 48.1156ZM108.509 46.38C107.909 46.38 107.301 46.4801 106.69 46.6682L107.278 48.5798C107.724 48.4426 108.133 48.38 108.509 48.38V46.38ZM107.984 47.624V45.794H105.984V47.624H107.984ZM107.3 46.7427L115.718 43.9367L115.086 42.0393L106.668 44.8453L107.3 46.7427ZM114.404 42.9256C114.363 43.5737 114.323 44.1808 114.282 44.7468L116.277 44.8892C116.318 44.3166 116.359 43.7036 116.4 43.0504L114.404 42.9256ZM114.28 44.818C114.28 44.8191 114.28 44.8202 114.28 44.8213C114.28 44.8224 114.28 44.8236 114.28 44.8247C114.28 44.8258 114.28 44.8269 114.28 44.828C114.28 44.8291 114.28 44.8302 114.28 44.8314C114.28 44.8325 114.28 44.8336 114.28 44.8347C114.28 44.8358 114.28 44.8369 114.28 44.838C114.28 44.8392 114.28 44.8403 114.28 44.8414C114.28 44.8425 114.28 44.8436 114.28 44.8447C114.28 44.8458 114.28 44.847 114.28 44.8481C114.28 44.8492 114.28 44.8503 114.28 44.8514C114.28 44.8525 114.28 44.8537 114.28 44.8548C114.28 44.8559 114.28 44.857 114.28 44.8581C114.28 44.8592 114.28 44.8604 114.28 44.8615C114.28 44.8626 114.28 44.8637 114.28 44.8648C114.28 44.866 114.28 44.8671 114.28 44.8682C114.28 44.8693 114.28 44.8704 114.28 44.8716C114.28 44.8727 114.28 44.8738 114.28 44.8749C114.28 44.876 114.28 44.8772 114.28 44.8783C114.28 44.8794 114.28 44.8805 114.28 44.8816C114.28 44.8828 114.28 44.8839 114.28 44.885C114.28 44.8861 114.28 44.8872 114.28 44.8884C114.28 44.8895 114.28 44.8906 114.28 44.8917C114.28 44.8928 114.28 44.894 114.28 44.8951C114.28 44.8962 114.28 44.8973 114.28 44.8985C114.28 44.8996 114.28 44.9007 114.28 44.9018C114.28 44.903 114.28 44.9041 114.28 44.9052C114.28 44.9063 114.28 44.9075 114.28 44.9086C114.28 44.9097 114.28 44.9108 114.28 44.912C114.28 44.9131 114.28 44.9142 114.28 44.9153C114.28 44.9165 114.28 44.9176 114.28 44.9187C114.28 44.9198 114.28 44.921 114.28 44.9221C114.28 44.9232 114.28 44.9243 114.28 44.9255C114.28 44.9266 114.28 44.9277 114.28 44.9288C114.28 44.93 114.28 44.9311 114.28 44.9322C114.28 44.9334 114.28 44.9345 114.28 44.9356C114.28 44.9367 114.28 44.9379 114.28 44.939C114.28 44.9401 114.28 44.9413 114.28 44.9424C114.28 44.9435 114.28 44.9446 114.28 44.9458C114.28 44.9469 114.28 44.948 114.28 44.9492C114.28 44.9503 114.28 44.9514 114.28 44.9526C114.28 44.9537 114.28 44.9548 114.28 44.9559C114.28 44.9571 114.28 44.9582 114.28 44.9593C114.28 44.9605 114.28 44.9616 114.28 44.9627C114.28 44.9639 114.28 44.965 114.28 44.9661C114.28 44.9673 114.28 44.9684 114.28 44.9695C114.28 44.9707 114.28 44.9718 114.28 44.9729C114.28 44.9741 114.28 44.9752 114.28 44.9763C114.28 44.9775 114.28 44.9786 114.28 44.9797C114.28 44.9809 114.28 44.982 114.28 44.9831C114.28 44.9843 114.28 44.9854 114.28 44.9865C114.28 44.9877 114.28 44.9888 114.28 44.9899C114.28 44.9911 114.28 44.9922 114.28 44.9934C114.28 44.9945 114.28 44.9956 114.28 44.9968C114.28 44.9979 114.28 44.999 114.28 45.0002C114.28 45.0013 114.28 45.0024 114.28 45.0036C114.28 45.0047 114.28 45.0059 114.28 45.007C114.28 45.0081 114.28 45.0093 114.28 45.0104C114.28 45.0116 114.28 45.0127 114.28 45.0138C114.28 45.015 114.28 45.0161 114.28 45.0172C114.28 45.0184 114.28 45.0195 114.28 45.0207C114.28 45.0218 114.28 45.0229 114.28 45.0241C114.28 45.0252 114.28 45.0264 114.28 45.0275C114.28 45.0287 114.28 45.0298 114.28 45.0309C114.28 45.0321 114.28 45.0332 114.28 45.0344C114.28 45.0355 114.28 45.0366 114.28 45.0378C114.28 45.0389 114.28 45.0401 114.28 45.0412C114.28 45.0424 114.28 45.0435 114.28 45.0446C114.28 45.0458 114.28 45.0469 114.28 45.0481C114.28 45.0492 114.28 45.0504 114.28 45.0515C114.28 45.0526 114.28 45.0538 114.28 45.0549C114.28 45.0561 114.28 45.0572 114.28 45.0584C114.28 45.0595 114.28 45.0607 114.28 45.0618C114.28 45.063 114.28 45.0641 114.28 45.0652C114.28 45.0664 114.28 45.0675 114.28 45.0687C114.28 45.0698 114.28 45.071 114.28 45.0721C114.28 45.0733 114.28 45.0744 114.28 45.0756C114.28 45.0767 114.28 45.0779 114.28 45.079C114.28 45.0802 114.28 45.0813 114.28 45.0824C114.28 45.0836 114.28 45.0847 114.28 45.0859C114.28 45.087 114.28 45.0882 114.28 45.0893C114.28 45.0905 114.28 45.0916 114.28 45.0928C114.28 45.0939 114.28 45.0951 114.28 45.0962C114.28 45.0974 114.28 45.0985 114.28 45.0997C114.28 45.1008 114.28 45.102 114.28 45.1031C114.28 45.1043 114.28 45.1054 114.28 45.1066C114.28 45.1077 114.28 45.1089 114.28 45.1101C114.28 45.1112 114.28 45.1124 114.28 45.1135C114.28 45.1147 114.28 45.1158 114.28 45.117C114.28 45.1181 114.28 45.1193 114.28 45.1204C114.28 45.1216 114.28 45.1227 114.28 45.1239C114.28 45.125 114.28 45.1262 114.28 45.1274C114.28 45.1285 114.28 45.1297 114.28 45.1308C114.28 45.132 114.28 45.1331 114.28 45.1343C114.28 45.1354 114.28 45.1366 114.28 45.1377C114.28 45.1389 114.28 45.1401 114.28 45.1412C114.28 45.1424 114.28 45.1435 114.28 45.1447C114.28 45.1458 114.28 45.147 114.28 45.1482C114.28 45.1493 114.28 45.1505 114.28 45.1516C114.28 45.1528 114.28 45.1539 114.28 45.1551C114.28 45.1563 114.28 45.1574 114.28 45.1586C114.28 45.1597 114.28 45.1609 114.28 45.1621C114.28 45.1632 114.28 45.1644 114.28 45.1655C114.28 45.1667 114.28 45.1678 114.28 45.169C114.28 45.1702 114.28 45.1713 114.28 45.1725C114.28 45.1736 114.28 45.1748 114.28 45.176C114.28 45.1771 114.28 45.1783 114.28 45.1795C114.28 45.1806 114.28 45.1818 114.28 45.1829C114.28 45.1841 114.28 45.1853 114.28 45.1864C114.28 45.1876 114.28 45.1887 114.28 45.1899C114.28 45.1911 114.28 45.1922 114.28 45.1934C114.28 45.1946 114.28 45.1957 114.28 45.1969C114.28 45.1981 114.28 45.1992 114.28 45.2004C114.28 45.2015 114.28 45.2027 114.28 45.2039C114.28 45.205 114.28 45.2062 114.28 45.2074C114.28 45.2085 114.28 45.2097 114.28 45.2109C114.28 45.212 114.28 45.2132 114.28 45.2144C114.28 45.2155 114.28 45.2167 114.28 45.2179C114.28 45.219 114.28 45.2202 114.28 45.2214C114.28 45.2225 114.28 45.2237 114.28 45.2249C114.28 45.226 114.28 45.2272 114.28 45.2284C114.28 45.2295 114.28 45.2307 114.28 45.2319C114.28 45.233 114.28 45.2342 114.28 45.2354C114.28 45.2365 114.28 45.2377 114.28 45.2389C114.28 45.2401 114.28 45.2412 114.28 45.2424C114.28 45.2436 114.28 45.2447 114.28 45.2459C114.28 45.2471 114.28 45.2482 114.28 45.2494C114.28 45.2506 114.28 45.2518 114.28 45.2529C114.28 45.2541 114.28 45.2553 114.28 45.2564C114.28 45.2576 114.28 45.2588 114.28 45.26C114.28 45.2611 114.28 45.2623 114.28 45.2635C114.28 45.2646 114.28 45.2658 114.28 45.267C114.28 45.2682 114.28 45.2693 114.28 45.2705C114.28 45.2717 114.28 45.2729 114.28 45.274C114.28 45.2752 114.28 45.2764 114.28 45.2775C114.28 45.2787 114.28 45.2799 114.28 45.2811C114.28 45.2822 114.28 45.2834 114.28 45.2846C114.28 45.2858 114.28 45.2869 114.28 45.2881C114.28 45.2893 114.28 45.2905 114.28 45.2917C114.28 45.2928 114.28 45.294 114.28 45.2952C114.28 45.2964 114.28 45.2975 114.28 45.2987C114.28 45.2999 114.28 45.3011 114.28 45.3022C114.28 45.3034 114.28 45.3046 114.28 45.3058C114.28 45.307 114.28 45.3081 114.28 45.3093C114.28 45.3105 114.28 45.3117 114.28 45.3128C114.28 45.314 114.28 45.3152 114.28 45.3164C114.28 45.3176 114.28 45.3187 114.28 45.3199C114.28 45.3211 114.28 45.3223 114.28 45.3235C114.28 45.3246 114.28 45.3258 114.28 45.327C114.28 45.3282 114.28 45.3294 114.28 45.3306C114.28 45.3317 114.28 45.3329 114.28 45.3341C114.28 45.3353 114.28 45.3365 114.28 45.3376C114.28 45.3388 114.28 45.34 114.28 45.3412C114.28 45.3424 114.28 45.3436 114.28 45.3447C114.28 45.3459 114.28 45.3471 114.28 45.3483C114.28 45.3495 114.28 45.3507 114.28 45.3518C114.28 45.353 114.28 45.3542 114.28 45.3554C114.28 45.3566 114.28 45.3578 114.28 45.3589C114.28 45.3601 114.28 45.3613 114.28 45.3625C114.28 45.3637 114.28 45.3649 114.28 45.3661C114.28 45.3672 114.28 45.3684 114.28 45.3696C114.28 45.3708 114.28 45.372 114.28 45.3732C114.28 45.3744 114.28 45.3756 114.28 45.3767C114.28 45.3779 114.28 45.3791 114.28 45.3803C114.28 45.3815 114.28 45.3827 114.28 45.3839C114.28 45.3851 114.28 45.3862 114.28 45.3874C114.28 45.3886 114.28 45.3898 114.28 45.391C114.28 45.3922 114.28 45.3934 114.28 45.3946C114.28 45.3958 114.28 45.3969 114.28 45.3981C114.28 45.3993 114.28 45.4005 114.28 45.4017C114.28 45.4029 114.28 45.4041 114.28 45.4053C114.28 45.4065 114.28 45.4077 114.28 45.4089C114.28 45.41 114.28 45.4112 114.28 45.4124C114.28 45.4136 114.28 45.4148 114.28 45.416C114.28 45.4172 114.28 45.4184 114.28 45.4196C114.28 45.4208 114.28 45.422 114.28 45.4232C114.28 45.4244 114.28 45.4256 114.28 45.4267C114.28 45.4279 114.28 45.4291 114.28 45.4303C114.28 45.4315 114.28 45.4327 114.28 45.4339C114.28 45.4351 114.28 45.4363 114.28 45.4375C114.28 45.4387 114.28 45.4399 114.28 45.4411C114.28 45.4423 114.28 45.4435 114.28 45.4447C114.28 45.4459 114.28 45.4471 114.28 45.4483C114.28 45.4495 114.28 45.4507 114.28 45.4519C114.28 45.4531 114.28 45.4542 114.28 45.4554C114.28 45.4566 114.28 45.4578 114.28 45.459C114.28 45.4602 114.28 45.4614 114.28 45.4626C114.28 45.4638 114.28 45.465 114.28 45.4662C114.28 45.4674 114.28 45.4686 114.28 45.4698C114.28 45.471 114.28 45.4722 114.28 45.4734C114.28 45.4746 114.28 45.4758 114.28 45.477C114.28 45.4782 114.28 45.4794 114.28 45.4806C114.28 45.4818 114.28 45.483 114.28 45.4842C114.28 45.4854 114.28 45.4866 114.28 45.4878C114.28 45.489 114.28 45.4902 114.28 45.4914C114.28 45.4926 114.28 45.4938 114.28 45.4951C114.28 45.4963 114.28 45.4975 114.28 45.4987C114.28 45.4999 114.28 45.5011 114.28 45.5023C114.28 45.5035 114.28 45.5047 114.28 45.5059C114.28 45.5071 114.28 45.5083 114.28 45.5095C114.28 45.5107 114.28 45.5119 114.28 45.5131C114.28 45.5143 114.28 45.5155 114.28 45.5167C114.28 45.5179 114.28 45.5191 114.28 45.5203C114.28 45.5215 114.28 45.5228 114.28 45.524C114.28 45.5252 114.28 45.5264 114.28 45.5276C114.28 45.5288 114.28 45.53 114.28 45.5312C114.28 45.5324 114.28 45.5336 114.28 45.5348C114.28 45.536 114.28 45.5372 114.28 45.5385C114.28 45.5397 114.28 45.5409 114.28 45.5421C114.28 45.5433 114.28 45.5445 114.28 45.5457C114.28 45.5469 114.28 45.5481 114.28 45.5493C114.28 45.5505 114.28 45.5518 114.28 45.553C114.28 45.5542 114.28 45.5554 114.28 45.5566C114.28 45.5578 114.28 45.559 114.28 45.5602C114.28 45.5614 114.28 45.5626 114.28 45.5639C114.28 45.5651 114.28 45.5663 114.28 45.5675C114.28 45.5687 114.28 45.5699 114.28 45.5711C114.28 45.5723 114.28 45.5736 114.28 45.5748C114.28 45.576 114.28 45.5772 114.28 45.5784C114.28 45.5796 114.28 45.5808 114.28 45.5821C114.28 45.5833 114.28 45.5845 114.28 45.5857C114.28 45.5869 114.28 45.5881 114.28 45.5893C114.28 45.5906 114.28 45.5918 114.28 45.593C114.28 45.5942 114.28 45.5954 114.28 45.5966C114.28 45.5978 114.28 45.5991 114.28 45.6003C114.28 45.6015 114.28 45.6027 114.28 45.6039C114.28 45.6051 114.28 45.6064 114.28 45.6076C114.28 45.6088 114.28 45.61 114.28 45.6112C114.28 45.6124 114.28 45.6137 114.28 45.6149C114.28 45.6161 114.28 45.6173 114.28 45.6185C114.28 45.6198 114.28 45.621 114.28 45.6222C114.28 45.6234 114.28 45.6246 114.28 45.6259C114.28 45.6271 114.28 45.6283 114.28 45.6295C114.28 45.6307 114.28 45.632 114.28 45.6332C114.28 45.6344 114.28 45.6356 114.28 45.6368C114.28 45.6381 114.28 45.6393 114.28 45.6405C114.28 45.6417 114.28 45.6429 114.28 45.6442C114.28 45.6454 114.28 45.6466 114.28 45.6478C114.28 45.649 114.28 45.6503 114.28 45.6515C114.28 45.6527 114.28 45.6539 114.28 45.6552C114.28 45.6564 114.28 45.6576 114.28 45.6588C114.28 45.6601 114.28 45.6613 114.28 45.6625C114.28 45.6637 114.28 45.665 114.28 45.6662C114.28 45.6674 114.28 45.6686 114.28 45.6699C114.28 45.6711 114.28 45.6723 114.28 45.6735C114.28 45.6748 114.28 45.676 114.28 45.6772C114.28 45.6784 114.28 45.6797 114.28 45.6809C114.28 45.6821 114.28 45.6833 114.28 45.6846C114.28 45.6858 114.28 45.687 114.28 45.6882C114.28 45.6895 114.28 45.6907 114.28 45.6919C114.28 45.6932 114.28 45.6944 114.28 45.6956C114.28 45.6968 114.28 45.6981 114.28 45.6993C114.28 45.7005 114.28 45.7018 114.28 45.703C114.28 45.7042 114.28 45.7054 114.28 45.7067C114.28 45.7079 114.28 45.7091 114.28 45.7104C114.28 45.7116 114.28 45.7128 114.28 45.7141C114.28 45.7153 114.28 45.7165 114.28 45.7177C114.28 45.719 114.28 45.7202 114.28 45.7214C114.28 45.7227 114.28 45.7239 114.28 45.7251C114.28 45.7264 114.28 45.7276 114.28 45.7288C114.28 45.7301 114.28 45.7313 114.28 45.7325C114.28 45.7338 114.28 45.735 114.28 45.7362C114.28 45.7375 114.28 45.7387 114.28 45.7399C114.28 45.7412 114.28 45.7424 114.28 45.7436C114.28 45.7449 114.28 45.7461 114.28 45.7473C114.28 45.7486 114.28 45.7498 114.28 45.751C114.28 45.7523 114.28 45.7535 114.28 45.7548C114.28 45.756 114.28 45.7572 114.28 45.7585C114.28 45.7597 114.28 45.7609 114.28 45.7622C114.28 45.7634 114.28 45.7646 114.28 45.7659C114.28 45.7671 114.28 45.7684 114.28 45.7696C114.28 45.7708 114.28 45.7721 114.28 45.7733C114.28 45.7745 114.28 45.7758 114.28 45.777C114.28 45.7783 114.28 45.7795 114.28 45.7807C114.28 45.782 114.28 45.7832 114.28 45.7845C114.28 45.7857 114.28 45.7869 114.28 45.7882C114.28 45.7894 114.28 45.7907 114.28 45.7919C114.28 45.7931 114.28 45.7944 114.28 45.7956C114.28 45.7969 114.28 45.7981 114.28 45.7993C114.28 45.8006 114.28 45.8018 114.28 45.8031C114.28 45.8043 114.28 45.8055 114.28 45.8068C114.28 45.808 114.28 45.8093 114.28 45.8105C114.28 45.8118 114.28 45.813 114.28 45.8142C114.28 45.8155 114.28 45.8167 114.28 45.818C114.28 45.8192 114.28 45.8205 114.28 45.8217C114.28 45.823 114.28 45.8242 114.28 45.8254C114.28 45.8267 114.28 45.8279 114.28 45.8292C114.28 45.8304 114.28 45.8317 114.28 45.8329C114.28 45.8342 114.28 45.8354 114.28 45.8367C114.28 45.8379 114.28 45.8391 114.28 45.8404C114.28 45.8416 114.28 45.8429 114.28 45.8441C114.28 45.8454 114.28 45.8466 114.28 45.8479C114.28 45.8491 114.28 45.8504 114.28 45.8516C114.28 45.8529 114.28 45.8541 114.28 45.8554C114.28 45.8566 114.28 45.8579 114.28 45.8591C114.28 45.8604 114.28 45.8616 114.28 45.8629C114.28 45.8641 114.28 45.8654 114.28 45.8666C114.28 45.8679 114.28 45.8691 114.28 45.8704C114.28 45.8716 114.28 45.8729 114.28 45.8741C114.28 45.8754 114.28 45.8766 114.28 45.8779C114.28 45.8791 114.28 45.8804 114.28 45.8816C114.28 45.8829 114.28 45.8841 114.28 45.8854C114.28 45.8866 114.28 45.8879 114.28 45.8891C114.28 45.8904 114.28 45.8916 114.28 45.8929C114.28 45.8941 114.28 45.8954 114.28 45.8966C114.28 45.8979 114.28 45.8991 114.28 45.9004C114.28 45.9017 114.28 45.9029 114.28 45.9042C114.28 45.9054 114.28 45.9067 114.28 45.9079C114.28 45.9092 114.28 45.9104 114.28 45.9117C114.28 45.9129 114.28 45.9142 114.28 45.9155C114.28 45.9167 114.28 45.918 114.28 45.9192C114.28 45.9205 114.28 45.9217 114.28 45.923C114.28 45.9243 114.28 45.9255 114.28 45.9268C114.28 45.928 114.28 45.9293 114.28 45.9305C114.28 45.9318 114.28 45.9331 114.28 45.9343C114.28 45.9356 114.28 45.9368 114.28 45.9381C114.28 45.9393 114.28 45.9406 114.28 45.9419C114.28 45.9431 114.28 45.9444 114.28 45.9456C114.28 45.9469 114.28 45.9482 114.28 45.9494C114.28 45.9507 114.28 45.9519 114.28 45.9532C114.28 45.9545 114.28 45.9557 114.28 45.957C114.28 45.9582 114.28 45.9595 114.28 45.9608C114.28 45.962 114.28 45.9633 114.28 45.9646C114.28 45.9658 114.28 45.9671 114.28 45.9683C114.28 45.9696 114.28 45.9709 114.28 45.9721C114.28 45.9734 114.28 45.9747 114.28 45.9759C114.28 45.9772 114.28 45.9784 114.28 45.9797C114.28 45.981 114.28 45.9822 114.28 45.9835C114.28 45.9848 114.28 45.986 114.28 45.9873C114.28 45.9886 114.28 45.9898 114.28 45.9911C114.28 45.9923 114.28 45.9936 114.28 45.9949C114.28 45.9961 114.28 45.9974 114.28 45.9987C114.28 45.9999 114.28 46.0012 114.28 46.0025C114.28 46.0037 114.28 46.005 114.28 46.0063C114.28 46.0075 114.28 46.0088 114.28 46.0101C114.28 46.0113 114.28 46.0126 114.28 46.0139C114.28 46.0151 114.28 46.0164 114.28 46.0177C114.28 46.019 114.28 46.0202 114.28 46.0215C114.28 46.0228 114.28 46.024 114.28 46.0253C114.28 46.0266 114.28 46.0278 114.28 46.0291C114.28 46.0304 114.28 46.0316 114.28 46.0329C114.28 46.0342 114.28 46.0355 114.28 46.0367C114.28 46.038 114.28 46.0393 114.28 46.0405C114.28 46.0418 114.28 46.0431 114.28 46.0444C114.28 46.0456 114.28 46.0469 114.28 46.0482C114.28 46.0494 114.28 46.0507 114.28 46.052C114.28 46.0533 114.28 46.0545 114.28 46.0558C114.28 46.0571 114.28 46.0584 114.28 46.0596C114.28 46.0609 114.28 46.0622 114.28 46.0634C114.28 46.0647 114.28 46.066 114.28 46.0673C114.28 46.0685 114.28 46.0698 114.28 46.0711C114.28 46.0724 114.28 46.0736 114.28 46.0749C114.28 46.0762 114.28 46.0775 114.28 46.0787C114.28 46.08 114.28 46.0813 114.28 46.0826C114.28 46.0838 114.28 46.0851 114.28 46.0864C114.28 46.0877 114.28 46.089 114.28 46.0902C114.28 46.0915 114.28 46.0928 114.28 46.0941C114.28 46.0953 114.28 46.0966 114.28 46.0979C114.28 46.0992 114.28 46.1005 114.28 46.1017C114.28 46.103 114.28 46.1043 114.28 46.1056C114.28 46.1068 114.28 46.1081 114.28 46.1094C114.28 46.1107 114.28 46.112 114.28 46.1132C114.28 46.1145 114.28 46.1158 114.28 46.1171C114.28 46.1184 114.28 46.1196 114.28 46.1209C114.28 46.1222 114.28 46.1235 114.28 46.1248C114.28 46.1261 114.28 46.1273 114.28 46.1286C114.28 46.1299 114.28 46.1312 114.28 46.1325C114.28 46.1337 114.28 46.135 114.28 46.1363C114.28 46.1376 114.28 46.1389 114.28 46.1402C114.28 46.1414 114.28 46.1427 114.28 46.144C114.28 46.1453 114.28 46.1466 114.28 46.1479C114.28 46.1491 114.28 46.1504 114.28 46.1517C114.28 46.153 114.28 46.1543 114.28 46.1556C114.28 46.1569 114.28 46.1581 114.28 46.1594C114.28 46.1607 114.28 46.162 114.28 46.1633C114.28 46.1646 114.28 46.1659 114.28 46.1671C114.28 46.1684 114.28 46.1697 114.28 46.171C114.28 46.1723 114.28 46.1736 114.28 46.1749C114.28 46.1762 114.28 46.1774 114.28 46.1787C114.28 46.18 114.28 46.1813 114.28 46.1826C114.28 46.1839 114.28 46.1852 114.28 46.1865C114.28 46.1877 114.28 46.189 114.28 46.1903C114.28 46.1916 114.28 46.1929 114.28 46.1942C114.28 46.1955 114.28 46.1968 114.28 46.1981C114.28 46.1994 114.28 46.2006 114.28 46.2019C114.28 46.2032 114.28 46.2045 114.28 46.2058C114.28 46.2071 114.28 46.2084 114.28 46.2097C114.28 46.211 114.28 46.2123 114.28 46.2136C114.28 46.2149 114.28 46.2161 114.28 46.2174C114.28 46.2187 114.28 46.22 114.28 46.2213C114.28 46.2226 114.28 46.2239 114.28 46.2252C114.28 46.2265 114.28 46.2278 114.28 46.2291C114.28 46.2304 114.28 46.2317 114.28 46.233C114.28 46.2343 114.28 46.2355 114.28 46.2368C114.28 46.2381 114.28 46.2394 114.28 46.2407C114.28 46.242 114.28 46.2433 114.28 46.2446C114.28 46.2459 114.28 46.2472 114.28 46.2485C114.28 46.2498 114.28 46.2511 114.28 46.2524C114.28 46.2537 114.28 46.255 114.28 46.2563C114.28 46.2576 114.28 46.2589 114.28 46.2602C114.28 46.2615 114.28 46.2628 114.28 46.2641C114.28 46.2654 114.28 46.2667 114.28 46.268C114.28 46.2693 114.28 46.2706 114.28 46.2719C114.28 46.2732 114.28 46.2745 114.28 46.2758C114.28 46.2771 114.28 46.2784 114.28 46.2797C114.28 46.281 114.28 46.2823 114.28 46.2836C114.28 46.2849 114.28 46.2862 114.28 46.2875C114.28 46.2888 114.28 46.2901 114.28 46.2914C114.28 46.2927 114.28 46.294 114.28 46.2953C114.28 46.2966 114.28 46.2979 114.28 46.2992C114.28 46.3005 114.28 46.3018 114.28 46.3031C114.28 46.3044 114.28 46.3057 114.28 46.307C114.28 46.3083 114.28 46.3096 114.28 46.3109C114.28 46.3122 114.28 46.3135 114.28 46.3148C114.28 46.3161 114.28 46.3174 114.28 46.3187C114.28 46.32 114.28 46.3213 114.28 46.3226C114.28 46.3239 114.28 46.3253 114.28 46.3266C114.28 46.3279 114.28 46.3292 114.28 46.3305C114.28 46.3318 114.28 46.3331 114.28 46.3344C114.28 46.3357 114.28 46.337 114.28 46.3383C114.28 46.3396 114.28 46.3409 114.28 46.3422C114.28 46.3435 114.28 46.3449 114.28 46.3462C114.28 46.3475 114.28 46.3488 114.28 46.3501C114.28 46.3514 114.28 46.3527 114.28 46.354C114.28 46.3553 114.28 46.3566 114.28 46.3579C114.28 46.3592 114.28 46.3606 114.28 46.3619C114.28 46.3632 114.28 46.3645 114.28 46.3658C114.28 46.3671 114.28 46.3684 114.28 46.3697C114.28 46.371 114.28 46.3723 114.28 46.3737C114.28 46.375 114.28 46.3763 114.28 46.3776C114.28 46.3789 114.28 46.3802 114.28 46.3815C114.28 46.3828 114.28 46.3842 114.28 46.3855C114.28 46.3868 114.28 46.3881 114.28 46.3894C114.28 46.3907 114.28 46.392 114.28 46.3933C114.28 46.3947 114.28 46.396 114.28 46.3973C114.28 46.3986 114.28 46.3999 114.28 46.4012C114.28 46.4025 114.28 46.4039 114.28 46.4052C114.28 46.4065 114.28 46.4078 114.28 46.4091C114.28 46.4104 114.28 46.4117 114.28 46.4131C114.28 46.4144 114.28 46.4157 114.28 46.417C114.28 46.4183 114.28 46.4196 114.28 46.421C114.28 46.4223 114.28 46.4236 114.28 46.4249C114.28 46.4262 114.28 46.4275 114.28 46.4289C114.28 46.4302 114.28 46.4315 114.28 46.4328C114.28 46.4341 114.28 46.4355 114.28 46.4368C114.28 46.4381 114.28 46.4394 114.28 46.4407C114.28 46.442 114.28 46.4434 114.28 46.4447C114.28 46.446 114.28 46.4473 114.28 46.4486C114.28 46.45 114.28 46.4513 114.28 46.4526C114.28 46.4539 114.28 46.4552 114.28 46.4566C114.28 46.4579 114.28 46.4592 114.28 46.4605C114.28 46.4619 114.28 46.4632 114.28 46.4645C114.28 46.4658 114.28 46.4671 114.28 46.4685C114.28 46.4698 114.28 46.4711 114.28 46.4724C114.28 46.4738 114.28 46.4751 114.28 46.4764C114.28 46.4777 114.28 46.479 114.28 46.4804C114.28 46.4817 114.28 46.483 114.28 46.4843C114.28 46.4857 114.28 46.487 114.28 46.4883C114.28 46.4896 114.28 46.491 114.28 46.4923C114.28 46.4936 114.28 46.4949 114.28 46.4963C114.28 46.4976 114.28 46.4989 114.28 46.5002C114.28 46.5016 114.28 46.5029 114.28 46.5042C114.28 46.5056 114.28 46.5069 114.28 46.5082C114.28 46.5095 114.28 46.5109 114.28 46.5122C114.28 46.5135 114.28 46.5148 114.28 46.5162C114.28 46.5175 114.28 46.5188 114.28 46.5202C114.28 46.5215 114.28 46.5228 114.28 46.5241C114.28 46.5255 114.28 46.5268 114.28 46.5281C114.28 46.5295 114.28 46.5308 114.28 46.5321C114.28 46.5334 114.28 46.5348 114.28 46.5361C114.28 46.5374 114.28 46.5388 114.28 46.5401C114.28 46.5414 114.28 46.5428 114.28 46.5441C114.28 46.5454 114.28 46.5468 114.28 46.5481C114.28 46.5494 114.28 46.5507 114.28 46.5521C114.28 46.5534 114.28 46.5547 114.28 46.5561C114.28 46.5574 114.28 46.5587 114.28 46.5601C114.28 46.5614 114.28 46.5627 114.28 46.5641C114.28 46.5654 114.28 46.5667 114.28 46.5681C114.28 46.5694 114.28 46.5707 114.28 46.5721C114.28 46.5734 114.28 46.5747 114.28 46.5761C114.28 46.5774 114.28 46.5788 114.28 46.5801C114.28 46.5814 114.28 46.5828 114.28 46.5841C114.28 46.5854 114.28 46.5868 114.28 46.5881C114.28 46.5894 114.28 46.5908 114.28 46.5921C114.28 46.5934 114.28 46.5948 114.28 46.5961C114.28 46.5975 114.28 46.5988 114.28 46.6001C114.28 46.6015 114.28 46.6028 114.28 46.6042C114.28 46.6055 114.28 46.6068 114.28 46.6082C114.28 46.6095 114.28 46.6108 114.28 46.6122C114.28 46.6135 114.28 46.6149 114.28 46.6162C114.28 46.6175 114.28 46.6189 114.28 46.6202C114.28 46.6216 114.28 46.6229 114.28 46.6242C114.28 46.6256 114.28 46.6269 114.28 46.6283C114.28 46.6296 114.28 46.6309 114.28 46.6323C114.28 46.6336 114.28 46.635 114.28 46.6363C114.28 46.6377 114.28 46.639 114.28 46.6403C114.28 46.6417 114.28 46.643 114.28 46.6444C114.28 46.6457 114.28 46.6471 114.28 46.6484C114.28 46.6497 114.28 46.6511 114.28 46.6524C114.28 46.6538 114.28 46.6551 114.28 46.6565C114.28 46.6578 114.28 46.6591 114.28 46.6605C114.28 46.6618 114.28 46.6632 114.28 46.6645C114.28 46.6659 114.28 46.6672 114.28 46.6686C114.28 46.6699 114.28 46.6713 114.28 46.6726C114.28 46.6739 114.28 46.6753 114.28 46.6766C114.28 46.678 114.28 46.6793 114.28 46.6807C114.28 46.682 114.28 46.6834 114.28 46.6847C114.28 46.6861 114.28 46.6874 114.28 46.6888C114.28 46.6901 114.28 46.6915 114.28 46.6928C114.28 46.6942 114.28 46.6955 114.28 46.6969C114.28 46.6982 114.28 46.6996 114.28 46.7009C114.28 46.7022 114.28 46.7036 114.28 46.7049C114.28 46.7063 114.28 46.7076 114.28 46.709H116.28C116.28 46.7076 116.28 46.7063 116.28 46.7049C116.28 46.7036 116.28 46.7022 116.28 46.7009C116.28 46.6996 116.28 46.6982 116.28 46.6969C116.28 46.6955 116.28 46.6942 116.28 46.6928C116.28 46.6915 116.28 46.6901 116.28 46.6888C116.28 46.6874 116.28 46.6861 116.28 46.6847C116.28 46.6834 116.28 46.682 116.28 46.6807C116.28 46.6793 116.28 46.678 116.28 46.6766C116.28 46.6753 116.28 46.6739 116.28 46.6726C116.28 46.6713 116.28 46.6699 116.28 46.6686C116.28 46.6672 116.28 46.6659 116.28 46.6645C116.28 46.6632 116.28 46.6618 116.28 46.6605C116.28 46.6591 116.28 46.6578 116.28 46.6565C116.28 46.6551 116.28 46.6538 116.28 46.6524C116.28 46.6511 116.28 46.6497 116.28 46.6484C116.28 46.6471 116.28 46.6457 116.28 46.6444C116.28 46.643 116.28 46.6417 116.28 46.6403C116.28 46.639 116.28 46.6377 116.28 46.6363C116.28 46.635 116.28 46.6336 116.28 46.6323C116.28 46.6309 116.28 46.6296 116.28 46.6283C116.28 46.6269 116.28 46.6256 116.28 46.6242C116.28 46.6229 116.28 46.6216 116.28 46.6202C116.28 46.6189 116.28 46.6175 116.28 46.6162C116.28 46.6149 116.28 46.6135 116.28 46.6122C116.28 46.6108 116.28 46.6095 116.28 46.6082C116.28 46.6068 116.28 46.6055 116.28 46.6042C116.28 46.6028 116.28 46.6015 116.28 46.6001C116.28 46.5988 116.28 46.5975 116.28 46.5961C116.28 46.5948 116.28 46.5934 116.28 46.5921C116.28 46.5908 116.28 46.5894 116.28 46.5881C116.28 46.5868 116.28 46.5854 116.28 46.5841C116.28 46.5828 116.28 46.5814 116.28 46.5801C116.28 46.5788 116.28 46.5774 116.28 46.5761C116.28 46.5747 116.28 46.5734 116.28 46.5721C116.28 46.5707 116.28 46.5694 116.28 46.5681C116.28 46.5667 116.28 46.5654 116.28 46.5641C116.28 46.5627 116.28 46.5614 116.28 46.5601C116.28 46.5587 116.28 46.5574 116.28 46.5561C116.28 46.5547 116.28 46.5534 116.28 46.5521C116.28 46.5507 116.28 46.5494 116.28 46.5481C116.28 46.5468 116.28 46.5454 116.28 46.5441C116.28 46.5428 116.28 46.5414 116.28 46.5401C116.28 46.5388 116.28 46.5374 116.28 46.5361C116.28 46.5348 116.28 46.5334 116.28 46.5321C116.28 46.5308 116.28 46.5295 116.28 46.5281C116.28 46.5268 116.28 46.5255 116.28 46.5241C116.28 46.5228 116.28 46.5215 116.28 46.5202C116.28 46.5188 116.28 46.5175 116.28 46.5162C116.28 46.5148 116.28 46.5135 116.28 46.5122C116.28 46.5109 116.28 46.5095 116.28 46.5082C116.28 46.5069 116.28 46.5056 116.28 46.5042C116.28 46.5029 116.28 46.5016 116.28 46.5002C116.28 46.4989 116.28 46.4976 116.28 46.4963C116.28 46.4949 116.28 46.4936 116.28 46.4923C116.28 46.491 116.28 46.4896 116.28 46.4883C116.28 46.487 116.28 46.4857 116.28 46.4843C116.28 46.483 116.28 46.4817 116.28 46.4804C116.28 46.479 116.28 46.4777 116.28 46.4764C116.28 46.4751 116.28 46.4738 116.28 46.4724C116.28 46.4711 116.28 46.4698 116.28 46.4685C116.28 46.4671 116.28 46.4658 116.28 46.4645C116.28 46.4632 116.28 46.4619 116.28 46.4605C116.28 46.4592 116.28 46.4579 116.28 46.4566C116.28 46.4552 116.28 46.4539 116.28 46.4526C116.28 46.4513 116.28 46.45 116.28 46.4486C116.28 46.4473 116.28 46.446 116.28 46.4447C116.28 46.4434 116.28 46.442 116.28 46.4407C116.28 46.4394 116.28 46.4381 116.28 46.4368C116.28 46.4355 116.28 46.4341 116.28 46.4328C116.28 46.4315 116.28 46.4302 116.28 46.4289C116.28 46.4275 116.28 46.4262 116.28 46.4249C116.28 46.4236 116.28 46.4223 116.28 46.421C116.28 46.4196 116.28 46.4183 116.28 46.417C116.28 46.4157 116.28 46.4144 116.28 46.4131C116.28 46.4117 116.28 46.4104 116.28 46.4091C116.28 46.4078 116.28 46.4065 116.28 46.4052C116.28 46.4039 116.28 46.4025 116.28 46.4012C116.28 46.3999 116.28 46.3986 116.28 46.3973C116.28 46.396 116.28 46.3947 116.28 46.3933C116.28 46.392 116.28 46.3907 116.28 46.3894C116.28 46.3881 116.28 46.3868 116.28 46.3855C116.28 46.3842 116.28 46.3828 116.28 46.3815C116.28 46.3802 116.28 46.3789 116.28 46.3776C116.28 46.3763 116.28 46.375 116.28 46.3737C116.28 46.3723 116.28 46.371 116.28 46.3697C116.28 46.3684 116.28 46.3671 116.28 46.3658C116.28 46.3645 116.28 46.3632 116.28 46.3619C116.28 46.3606 116.28 46.3592 116.28 46.3579C116.28 46.3566 116.28 46.3553 116.28 46.354C116.28 46.3527 116.28 46.3514 116.28 46.3501C116.28 46.3488 116.28 46.3475 116.28 46.3462C116.28 46.3449 116.28 46.3435 116.28 46.3422C116.28 46.3409 116.28 46.3396 116.28 46.3383C116.28 46.337 116.28 46.3357 116.28 46.3344C116.28 46.3331 116.28 46.3318 116.28 46.3305C116.28 46.3292 116.28 46.3279 116.28 46.3266C116.28 46.3253 116.28 46.3239 116.28 46.3226C116.28 46.3213 116.28 46.32 116.28 46.3187C116.28 46.3174 116.28 46.3161 116.28 46.3148C116.28 46.3135 116.28 46.3122 116.28 46.3109C116.28 46.3096 116.28 46.3083 116.28 46.307C116.28 46.3057 116.28 46.3044 116.28 46.3031C116.28 46.3018 116.28 46.3005 116.28 46.2992C116.28 46.2979 116.28 46.2966 116.28 46.2953C116.28 46.294 116.28 46.2927 116.28 46.2914C116.28 46.2901 116.28 46.2888 116.28 46.2875C116.28 46.2862 116.28 46.2849 116.28 46.2836C116.28 46.2823 116.28 46.281 116.28 46.2797C116.28 46.2784 116.28 46.2771 116.28 46.2758C116.28 46.2745 116.28 46.2732 116.28 46.2719C116.28 46.2706 116.28 46.2693 116.28 46.268C116.28 46.2667 116.28 46.2654 116.28 46.2641C116.28 46.2628 116.28 46.2615 116.28 46.2602C116.28 46.2589 116.28 46.2576 116.28 46.2563C116.28 46.255 116.28 46.2537 116.28 46.2524C116.28 46.2511 116.28 46.2498 116.28 46.2485C116.28 46.2472 116.28 46.2459 116.28 46.2446C116.28 46.2433 116.28 46.242 116.28 46.2407C116.28 46.2394 116.28 46.2381 116.28 46.2368C116.28 46.2355 116.28 46.2343 116.28 46.233C116.28 46.2317 116.28 46.2304 116.28 46.2291C116.28 46.2278 116.28 46.2265 116.28 46.2252C116.28 46.2239 116.28 46.2226 116.28 46.2213C116.28 46.22 116.28 46.2187 116.28 46.2174C116.28 46.2161 116.28 46.2149 116.28 46.2136C116.28 46.2123 116.28 46.211 116.28 46.2097C116.28 46.2084 116.28 46.2071 116.28 46.2058C116.28 46.2045 116.28 46.2032 116.28 46.2019C116.28 46.2006 116.28 46.1994 116.28 46.1981C116.28 46.1968 116.28 46.1955 116.28 46.1942C116.28 46.1929 116.28 46.1916 116.28 46.1903C116.28 46.189 116.28 46.1877 116.28 46.1865C116.28 46.1852 116.28 46.1839 116.28 46.1826C116.28 46.1813 116.28 46.18 116.28 46.1787C116.28 46.1774 116.28 46.1762 116.28 46.1749C116.28 46.1736 116.28 46.1723 116.28 46.171C116.28 46.1697 116.28 46.1684 116.28 46.1671C116.28 46.1659 116.28 46.1646 116.28 46.1633C116.28 46.162 116.28 46.1607 116.28 46.1594C116.28 46.1581 116.28 46.1569 116.28 46.1556C116.28 46.1543 116.28 46.153 116.28 46.1517C116.28 46.1504 116.28 46.1491 116.28 46.1479C116.28 46.1466 116.28 46.1453 116.28 46.144C116.28 46.1427 116.28 46.1414 116.28 46.1402C116.28 46.1389 116.28 46.1376 116.28 46.1363C116.28 46.135 116.28 46.1337 116.28 46.1325C116.28 46.1312 116.28 46.1299 116.28 46.1286C116.28 46.1273 116.28 46.1261 116.28 46.1248C116.28 46.1235 116.28 46.1222 116.28 46.1209C116.28 46.1196 116.28 46.1184 116.28 46.1171C116.28 46.1158 116.28 46.1145 116.28 46.1132C116.28 46.112 116.28 46.1107 116.28 46.1094C116.28 46.1081 116.28 46.1068 116.28 46.1056C116.28 46.1043 116.28 46.103 116.28 46.1017C116.28 46.1005 116.28 46.0992 116.28 46.0979C116.28 46.0966 116.28 46.0953 116.28 46.0941C116.28 46.0928 116.28 46.0915 116.28 46.0902C116.28 46.089 116.28 46.0877 116.28 46.0864C116.28 46.0851 116.28 46.0838 116.28 46.0826C116.28 46.0813 116.28 46.08 116.28 46.0787C116.28 46.0775 116.28 46.0762 116.28 46.0749C116.28 46.0736 116.28 46.0724 116.28 46.0711C116.28 46.0698 116.28 46.0685 116.28 46.0673C116.28 46.066 116.28 46.0647 116.28 46.0634C116.28 46.0622 116.28 46.0609 116.28 46.0596C116.28 46.0584 116.28 46.0571 116.28 46.0558C116.28 46.0545 116.28 46.0533 116.28 46.052C116.28 46.0507 116.28 46.0494 116.28 46.0482C116.28 46.0469 116.28 46.0456 116.28 46.0444C116.28 46.0431 116.28 46.0418 116.28 46.0405C116.28 46.0393 116.28 46.038 116.28 46.0367C116.28 46.0355 116.28 46.0342 116.28 46.0329C116.28 46.0316 116.28 46.0304 116.28 46.0291C116.28 46.0278 116.28 46.0266 116.28 46.0253C116.28 46.024 116.28 46.0228 116.28 46.0215C116.28 46.0202 116.28 46.019 116.28 46.0177C116.28 46.0164 116.28 46.0151 116.28 46.0139C116.28 46.0126 116.28 46.0113 116.28 46.0101C116.28 46.0088 116.28 46.0075 116.28 46.0063C116.28 46.005 116.28 46.0037 116.28 46.0025C116.28 46.0012 116.28 45.9999 116.28 45.9987C116.28 45.9974 116.28 45.9961 116.28 45.9949C116.28 45.9936 116.28 45.9923 116.28 45.9911C116.28 45.9898 116.28 45.9886 116.28 45.9873C116.28 45.986 116.28 45.9848 116.28 45.9835C116.28 45.9822 116.28 45.981 116.28 45.9797C116.28 45.9784 116.28 45.9772 116.28 45.9759C116.28 45.9747 116.28 45.9734 116.28 45.9721C116.28 45.9709 116.28 45.9696 116.28 45.9683C116.28 45.9671 116.28 45.9658 116.28 45.9646C116.28 45.9633 116.28 45.962 116.28 45.9608C116.28 45.9595 116.28 45.9582 116.28 45.957C116.28 45.9557 116.28 45.9545 116.28 45.9532C116.28 45.9519 116.28 45.9507 116.28 45.9494C116.28 45.9482 116.28 45.9469 116.28 45.9456C116.28 45.9444 116.28 45.9431 116.28 45.9419C116.28 45.9406 116.28 45.9393 116.28 45.9381C116.28 45.9368 116.28 45.9356 116.28 45.9343C116.28 45.9331 116.28 45.9318 116.28 45.9305C116.28 45.9293 116.28 45.928 116.28 45.9268C116.28 45.9255 116.28 45.9243 116.28 45.923C116.28 45.9217 116.28 45.9205 116.28 45.9192C116.28 45.918 116.28 45.9167 116.28 45.9155C116.28 45.9142 116.28 45.9129 116.28 45.9117C116.28 45.9104 116.28 45.9092 116.28 45.9079C116.28 45.9067 116.28 45.9054 116.28 45.9042C116.28 45.9029 116.28 45.9017 116.28 45.9004C116.28 45.8991 116.28 45.8979 116.28 45.8966C116.28 45.8954 116.28 45.8941 116.28 45.8929C116.28 45.8916 116.28 45.8904 116.28 45.8891C116.28 45.8879 116.28 45.8866 116.28 45.8854C116.28 45.8841 116.28 45.8829 116.28 45.8816C116.28 45.8804 116.28 45.8791 116.28 45.8779C116.28 45.8766 116.28 45.8754 116.28 45.8741C116.28 45.8729 116.28 45.8716 116.28 45.8704C116.28 45.8691 116.28 45.8679 116.28 45.8666C116.28 45.8654 116.28 45.8641 116.28 45.8629C116.28 45.8616 116.28 45.8604 116.28 45.8591C116.28 45.8579 116.28 45.8566 116.28 45.8554C116.28 45.8541 116.28 45.8529 116.28 45.8516C116.28 45.8504 116.28 45.8491 116.28 45.8479C116.28 45.8466 116.28 45.8454 116.28 45.8441C116.28 45.8429 116.28 45.8416 116.28 45.8404C116.28 45.8391 116.28 45.8379 116.28 45.8367C116.28 45.8354 116.28 45.8342 116.28 45.8329C116.28 45.8317 116.28 45.8304 116.28 45.8292C116.28 45.8279 116.28 45.8267 116.28 45.8254C116.28 45.8242 116.28 45.823 116.28 45.8217C116.28 45.8205 116.28 45.8192 116.28 45.818C116.28 45.8167 116.28 45.8155 116.28 45.8142C116.28 45.813 116.28 45.8118 116.28 45.8105C116.28 45.8093 116.28 45.808 116.28 45.8068C116.28 45.8055 116.28 45.8043 116.28 45.8031C116.28 45.8018 116.28 45.8006 116.28 45.7993C116.28 45.7981 116.28 45.7969 116.28 45.7956C116.28 45.7944 116.28 45.7931 116.28 45.7919C116.28 45.7907 116.28 45.7894 116.28 45.7882C116.28 45.7869 116.28 45.7857 116.28 45.7845C116.28 45.7832 116.28 45.782 116.28 45.7807C116.28 45.7795 116.28 45.7783 116.28 45.777C116.28 45.7758 116.28 45.7745 116.28 45.7733C116.28 45.7721 116.28 45.7708 116.28 45.7696C116.28 45.7684 116.28 45.7671 116.28 45.7659C116.28 45.7646 116.28 45.7634 116.28 45.7622C116.28 45.7609 116.28 45.7597 116.28 45.7585C116.28 45.7572 116.28 45.756 116.28 45.7548C116.28 45.7535 116.28 45.7523 116.28 45.751C116.28 45.7498 116.28 45.7486 116.28 45.7473C116.28 45.7461 116.28 45.7449 116.28 45.7436C116.28 45.7424 116.28 45.7412 116.28 45.7399C116.28 45.7387 116.28 45.7375 116.28 45.7362C116.28 45.735 116.28 45.7338 116.28 45.7325C116.28 45.7313 116.28 45.7301 116.28 45.7288C116.28 45.7276 116.28 45.7264 116.28 45.7251C116.28 45.7239 116.28 45.7227 116.28 45.7214C116.28 45.7202 116.28 45.719 116.28 45.7177C116.28 45.7165 116.28 45.7153 116.28 45.7141C116.28 45.7128 116.28 45.7116 116.28 45.7104C116.28 45.7091 116.28 45.7079 116.28 45.7067C116.28 45.7054 116.28 45.7042 116.28 45.703C116.28 45.7018 116.28 45.7005 116.28 45.6993C116.28 45.6981 116.28 45.6968 116.28 45.6956C116.28 45.6944 116.28 45.6932 116.28 45.6919C116.28 45.6907 116.28 45.6895 116.28 45.6882C116.28 45.687 116.28 45.6858 116.28 45.6846C116.28 45.6833 116.28 45.6821 116.28 45.6809C116.28 45.6797 116.28 45.6784 116.28 45.6772C116.28 45.676 116.28 45.6748 116.28 45.6735C116.28 45.6723 116.28 45.6711 116.28 45.6699C116.28 45.6686 116.28 45.6674 116.28 45.6662C116.28 45.665 116.28 45.6637 116.28 45.6625C116.28 45.6613 116.28 45.6601 116.28 45.6588C116.28 45.6576 116.28 45.6564 116.28 45.6552C116.28 45.6539 116.28 45.6527 116.28 45.6515C116.28 45.6503 116.28 45.649 116.28 45.6478C116.28 45.6466 116.28 45.6454 116.28 45.6442C116.28 45.6429 116.28 45.6417 116.28 45.6405C116.28 45.6393 116.28 45.6381 116.28 45.6368C116.28 45.6356 116.28 45.6344 116.28 45.6332C116.28 45.632 116.28 45.6307 116.28 45.6295C116.28 45.6283 116.28 45.6271 116.28 45.6259C116.28 45.6246 116.28 45.6234 116.28 45.6222C116.28 45.621 116.28 45.6198 116.28 45.6185C116.28 45.6173 116.28 45.6161 116.28 45.6149C116.28 45.6137 116.28 45.6124 116.28 45.6112C116.28 45.61 116.28 45.6088 116.28 45.6076C116.28 45.6064 116.28 45.6051 116.28 45.6039C116.28 45.6027 116.28 45.6015 116.28 45.6003C116.28 45.5991 116.28 45.5978 116.28 45.5966C116.28 45.5954 116.28 45.5942 116.28 45.593C116.28 45.5918 116.28 45.5906 116.28 45.5893C116.28 45.5881 116.28 45.5869 116.28 45.5857C116.28 45.5845 116.28 45.5833 116.28 45.5821C116.28 45.5808 116.28 45.5796 116.28 45.5784C116.28 45.5772 116.28 45.576 116.28 45.5748C116.28 45.5736 116.28 45.5723 116.28 45.5711C116.28 45.5699 116.28 45.5687 116.28 45.5675C116.28 45.5663 116.28 45.5651 116.28 45.5639C116.28 45.5626 116.28 45.5614 116.28 45.5602C116.28 45.559 116.28 45.5578 116.28 45.5566C116.28 45.5554 116.28 45.5542 116.28 45.553C116.28 45.5518 116.28 45.5505 116.28 45.5493C116.28 45.5481 116.28 45.5469 116.28 45.5457C116.28 45.5445 116.28 45.5433 116.28 45.5421C116.28 45.5409 116.28 45.5397 116.28 45.5385C116.28 45.5372 116.28 45.536 116.28 45.5348C116.28 45.5336 116.28 45.5324 116.28 45.5312C116.28 45.53 116.28 45.5288 116.28 45.5276C116.28 45.5264 116.28 45.5252 116.28 45.524C116.28 45.5228 116.28 45.5215 116.28 45.5203C116.28 45.5191 116.28 45.5179 116.28 45.5167C116.28 45.5155 116.28 45.5143 116.28 45.5131C116.28 45.5119 116.28 45.5107 116.28 45.5095C116.28 45.5083 116.28 45.5071 116.28 45.5059C116.28 45.5047 116.28 45.5035 116.28 45.5023C116.28 45.5011 116.28 45.4999 116.28 45.4987C116.28 45.4975 116.28 45.4963 116.28 45.4951C116.28 45.4938 116.28 45.4926 116.28 45.4914C116.28 45.4902 116.28 45.489 116.28 45.4878C116.28 45.4866 116.28 45.4854 116.28 45.4842C116.28 45.483 116.28 45.4818 116.28 45.4806C116.28 45.4794 116.28 45.4782 116.28 45.477C116.28 45.4758 116.28 45.4746 116.28 45.4734C116.28 45.4722 116.28 45.471 116.28 45.4698C116.28 45.4686 116.28 45.4674 116.28 45.4662C116.28 45.465 116.28 45.4638 116.28 45.4626C116.28 45.4614 116.28 45.4602 116.28 45.459C116.28 45.4578 116.28 45.4566 116.28 45.4554C116.28 45.4542 116.28 45.4531 116.28 45.4519C116.28 45.4507 116.28 45.4495 116.28 45.4483C116.28 45.4471 116.28 45.4459 116.28 45.4447C116.28 45.4435 116.28 45.4423 116.28 45.4411C116.28 45.4399 116.28 45.4387 116.28 45.4375C116.28 45.4363 116.28 45.4351 116.28 45.4339C116.28 45.4327 116.28 45.4315 116.28 45.4303C116.28 45.4291 116.28 45.4279 116.28 45.4267C116.28 45.4256 116.28 45.4244 116.28 45.4232C116.28 45.422 116.28 45.4208 116.28 45.4196C116.28 45.4184 116.28 45.4172 116.28 45.416C116.28 45.4148 116.28 45.4136 116.28 45.4124C116.28 45.4112 116.28 45.41 116.28 45.4089C116.28 45.4077 116.28 45.4065 116.28 45.4053C116.28 45.4041 116.28 45.4029 116.28 45.4017C116.28 45.4005 116.28 45.3993 116.28 45.3981C116.28 45.3969 116.28 45.3958 116.28 45.3946C116.28 45.3934 116.28 45.3922 116.28 45.391C116.28 45.3898 116.28 45.3886 116.28 45.3874C116.28 45.3862 116.28 45.3851 116.28 45.3839C116.28 45.3827 116.28 45.3815 116.28 45.3803C116.28 45.3791 116.28 45.3779 116.28 45.3767C116.28 45.3756 116.28 45.3744 116.28 45.3732C116.28 45.372 116.28 45.3708 116.28 45.3696C116.28 45.3684 116.28 45.3672 116.28 45.3661C116.28 45.3649 116.28 45.3637 116.28 45.3625C116.28 45.3613 116.28 45.3601 116.28 45.3589C116.28 45.3578 116.28 45.3566 116.28 45.3554C116.28 45.3542 116.28 45.353 116.28 45.3518C116.28 45.3507 116.28 45.3495 116.28 45.3483C116.28 45.3471 116.28 45.3459 116.28 45.3447C116.28 45.3436 116.28 45.3424 116.28 45.3412C116.28 45.34 116.28 45.3388 116.28 45.3376C116.28 45.3365 116.28 45.3353 116.28 45.3341C116.28 45.3329 116.28 45.3317 116.28 45.3306C116.28 45.3294 116.28 45.3282 116.28 45.327C116.28 45.3258 116.28 45.3246 116.28 45.3235C116.28 45.3223 116.28 45.3211 116.28 45.3199C116.28 45.3187 116.28 45.3176 116.28 45.3164C116.28 45.3152 116.28 45.314 116.28 45.3128C116.28 45.3117 116.28 45.3105 116.28 45.3093C116.28 45.3081 116.28 45.307 116.28 45.3058C116.28 45.3046 116.28 45.3034 116.28 45.3022C116.28 45.3011 116.28 45.2999 116.28 45.2987C116.28 45.2975 116.28 45.2964 116.28 45.2952C116.28 45.294 116.28 45.2928 116.28 45.2917C116.28 45.2905 116.28 45.2893 116.28 45.2881C116.28 45.2869 116.28 45.2858 116.28 45.2846C116.28 45.2834 116.28 45.2822 116.28 45.2811C116.28 45.2799 116.28 45.2787 116.28 45.2775C116.28 45.2764 116.28 45.2752 116.28 45.274C116.28 45.2729 116.28 45.2717 116.28 45.2705C116.28 45.2693 116.28 45.2682 116.28 45.267C116.28 45.2658 116.28 45.2646 116.28 45.2635C116.28 45.2623 116.28 45.2611 116.28 45.26C116.28 45.2588 116.28 45.2576 116.28 45.2564C116.28 45.2553 116.28 45.2541 116.28 45.2529C116.28 45.2518 116.28 45.2506 116.28 45.2494C116.28 45.2482 116.28 45.2471 116.28 45.2459C116.28 45.2447 116.28 45.2436 116.28 45.2424C116.28 45.2412 116.28 45.2401 116.28 45.2389C116.28 45.2377 116.28 45.2365 116.28 45.2354C116.28 45.2342 116.28 45.233 116.28 45.2319C116.28 45.2307 116.28 45.2295 116.28 45.2284C116.28 45.2272 116.28 45.226 116.28 45.2249C116.28 45.2237 116.28 45.2225 116.28 45.2214C116.28 45.2202 116.28 45.219 116.28 45.2179C116.28 45.2167 116.28 45.2155 116.28 45.2144C116.28 45.2132 116.28 45.212 116.28 45.2109C116.28 45.2097 116.28 45.2085 116.28 45.2074C116.28 45.2062 116.28 45.205 116.28 45.2039C116.28 45.2027 116.28 45.2015 116.28 45.2004C116.28 45.1992 116.28 45.1981 116.28 45.1969C116.28 45.1957 116.28 45.1946 116.28 45.1934C116.28 45.1922 116.28 45.1911 116.28 45.1899C116.28 45.1887 116.28 45.1876 116.28 45.1864C116.28 45.1853 116.28 45.1841 116.28 45.1829C116.28 45.1818 116.28 45.1806 116.28 45.1795C116.28 45.1783 116.28 45.1771 116.28 45.176C116.28 45.1748 116.28 45.1736 116.28 45.1725C116.28 45.1713 116.28 45.1702 116.28 45.169C116.28 45.1678 116.28 45.1667 116.28 45.1655C116.28 45.1644 116.28 45.1632 116.28 45.1621C116.28 45.1609 116.28 45.1597 116.28 45.1586C116.28 45.1574 116.28 45.1563 116.28 45.1551C116.28 45.1539 116.28 45.1528 116.28 45.1516C116.28 45.1505 116.28 45.1493 116.28 45.1482C116.28 45.147 116.28 45.1458 116.28 45.1447C116.28 45.1435 116.28 45.1424 116.28 45.1412C116.28 45.1401 116.28 45.1389 116.28 45.1377C116.28 45.1366 116.28 45.1354 116.28 45.1343C116.28 45.1331 116.28 45.132 116.28 45.1308C116.28 45.1297 116.28 45.1285 116.28 45.1274C116.28 45.1262 116.28 45.125 116.28 45.1239C116.28 45.1227 116.28 45.1216 116.28 45.1204C116.28 45.1193 116.28 45.1181 116.28 45.117C116.28 45.1158 116.28 45.1147 116.28 45.1135C116.28 45.1124 116.28 45.1112 116.28 45.1101C116.28 45.1089 116.28 45.1077 116.28 45.1066C116.28 45.1054 116.28 45.1043 116.28 45.1031C116.28 45.102 116.28 45.1008 116.28 45.0997C116.28 45.0985 116.28 45.0974 116.28 45.0962C116.28 45.0951 116.28 45.0939 116.28 45.0928C116.28 45.0916 116.28 45.0905 116.28 45.0893C116.28 45.0882 116.28 45.087 116.28 45.0859C116.28 45.0847 116.28 45.0836 116.28 45.0824C116.28 45.0813 116.28 45.0802 116.28 45.079C116.28 45.0779 116.28 45.0767 116.28 45.0756C116.28 45.0744 116.28 45.0733 116.28 45.0721C116.28 45.071 116.28 45.0698 116.28 45.0687C116.28 45.0675 116.28 45.0664 116.28 45.0652C116.28 45.0641 116.28 45.063 116.28 45.0618C116.28 45.0607 116.28 45.0595 116.28 45.0584C116.28 45.0572 116.28 45.0561 116.28 45.0549C116.28 45.0538 116.28 45.0526 116.28 45.0515C116.28 45.0504 116.28 45.0492 116.28 45.0481C116.28 45.0469 116.28 45.0458 116.28 45.0446C116.28 45.0435 116.28 45.0424 116.28 45.0412C116.28 45.0401 116.28 45.0389 116.28 45.0378C116.28 45.0366 116.28 45.0355 116.28 45.0344C116.28 45.0332 116.28 45.0321 116.28 45.0309C116.28 45.0298 116.28 45.0287 116.28 45.0275C116.28 45.0264 116.28 45.0252 116.28 45.0241C116.28 45.0229 116.28 45.0218 116.28 45.0207C116.28 45.0195 116.28 45.0184 116.28 45.0172C116.28 45.0161 116.28 45.015 116.28 45.0138C116.28 45.0127 116.28 45.0116 116.28 45.0104C116.28 45.0093 116.28 45.0081 116.28 45.007C116.28 45.0059 116.28 45.0047 116.28 45.0036C116.28 45.0024 116.28 45.0013 116.28 45.0002C116.28 44.999 116.28 44.9979 116.28 44.9968C116.28 44.9956 116.28 44.9945 116.28 44.9934C116.28 44.9922 116.28 44.9911 116.28 44.9899C116.28 44.9888 116.28 44.9877 116.28 44.9865C116.28 44.9854 116.28 44.9843 116.28 44.9831C116.28 44.982 116.28 44.9809 116.28 44.9797C116.28 44.9786 116.28 44.9775 116.28 44.9763C116.28 44.9752 116.28 44.9741 116.28 44.9729C116.28 44.9718 116.28 44.9707 116.28 44.9695C116.28 44.9684 116.28 44.9673 116.28 44.9661C116.28 44.965 116.28 44.9639 116.28 44.9627C116.28 44.9616 116.28 44.9605 116.28 44.9593C116.28 44.9582 116.28 44.9571 116.28 44.9559C116.28 44.9548 116.28 44.9537 116.28 44.9526C116.28 44.9514 116.28 44.9503 116.28 44.9492C116.28 44.948 116.28 44.9469 116.28 44.9458C116.28 44.9446 116.28 44.9435 116.28 44.9424C116.28 44.9413 116.28 44.9401 116.28 44.939C116.28 44.9379 116.28 44.9367 116.28 44.9356C116.28 44.9345 116.28 44.9334 116.28 44.9322C116.28 44.9311 116.28 44.93 116.28 44.9288C116.28 44.9277 116.28 44.9266 116.28 44.9255C116.28 44.9243 116.28 44.9232 116.28 44.9221C116.28 44.921 116.28 44.9198 116.28 44.9187C116.28 44.9176 116.28 44.9165 116.28 44.9153C116.28 44.9142 116.28 44.9131 116.28 44.912C116.28 44.9108 116.28 44.9097 116.28 44.9086C116.28 44.9075 116.28 44.9063 116.28 44.9052C116.28 44.9041 116.28 44.903 116.28 44.9018C116.28 44.9007 116.28 44.8996 116.28 44.8985C116.28 44.8973 116.28 44.8962 116.28 44.8951C116.28 44.894 116.28 44.8928 116.28 44.8917C116.28 44.8906 116.28 44.8895 116.28 44.8884C116.28 44.8872 116.28 44.8861 116.28 44.885C116.28 44.8839 116.28 44.8828 116.28 44.8816C116.28 44.8805 116.28 44.8794 116.28 44.8783C116.28 44.8772 116.28 44.876 116.28 44.8749C116.28 44.8738 116.28 44.8727 116.28 44.8716C116.28 44.8704 116.28 44.8693 116.28 44.8682C116.28 44.8671 116.28 44.866 116.28 44.8648C116.28 44.8637 116.28 44.8626 116.28 44.8615C116.28 44.8604 116.28 44.8592 116.28 44.8581C116.28 44.857 116.28 44.8559 116.28 44.8548C116.28 44.8537 116.28 44.8525 116.28 44.8514C116.28 44.8503 116.28 44.8492 116.28 44.8481C116.28 44.847 116.28 44.8458 116.28 44.8447C116.28 44.8436 116.28 44.8425 116.28 44.8414C116.28 44.8403 116.28 44.8392 116.28 44.838C116.28 44.8369 116.28 44.8358 116.28 44.8347C116.28 44.8336 116.28 44.8325 116.28 44.8314C116.28 44.8302 116.28 44.8291 116.28 44.828C116.28 44.8269 116.28 44.8258 116.28 44.8247C116.28 44.8236 116.28 44.8224 116.28 44.8213C116.28 44.8202 116.28 44.8191 116.28 44.818H114.28ZM114.28 46.709V70.743H116.28V46.709H114.28ZM115.141 71.7333L118.191 72.1603L118.468 70.1797L115.418 69.7527L115.141 71.7333ZM117.33 71.17V73H119.33V71.17H117.33ZM118.33 72H107.289V74H118.33V72ZM112.84 30.385C113.679 30.385 114.189 30.6334 114.527 31.0195L116.032 29.7025C115.232 28.7872 114.116 28.385 112.84 28.385V30.385ZM114.573 31.0681C114.988 31.4829 115.195 31.9776 115.195 32.618H117.195C117.195 31.4691 116.792 30.4591 115.987 29.6539L114.573 31.0681ZM115.195 32.618C115.195 33.2595 114.986 33.7874 114.55 34.2521L116.009 35.6199C116.794 34.7833 117.195 33.7658 117.195 32.618H115.195ZM114.549 34.2537C114.216 34.6099 113.699 34.851 112.84 34.851V36.851C114.096 36.851 115.205 36.4821 116.011 35.6183L114.549 34.2537ZM112.84 34.851C111.984 34.851 111.428 34.6107 111.046 34.2289L109.632 35.6431C110.47 36.4813 111.581 36.851 112.84 36.851V34.851ZM111.091 34.2775C110.688 33.8159 110.485 33.2797 110.485 32.618H108.485C108.485 33.7457 108.851 34.7547 109.586 35.5945L111.091 34.2775ZM110.485 32.618C110.485 31.9566 110.687 31.454 111.07 31.0433L109.608 29.6787C108.852 30.488 108.485 31.4901 108.485 32.618H110.485ZM111.068 31.0449C111.454 30.6332 112.003 30.385 112.84 30.385V28.385C111.562 28.385 110.443 28.7874 109.609 29.6771L111.068 31.0449ZM139.22 81.54L139.127 80.5444L139.127 80.5444L139.22 81.54ZM142.636 80.808L142.297 79.867L142.285 79.8717L142.636 80.808ZM145.015 79.283L144.285 78.5991L144.274 78.6116L144.262 78.6245L145.015 79.283ZM145.198 74.891L145.905 74.1839L145.89 74.1685L145.874 74.1538L145.198 74.891ZM143.429 73.854L143.762 72.911L143.762 72.911L143.429 73.854ZM138.427 73L138.363 73.998L138.374 73.9987L138.385 73.9991L138.427 73ZM130.863 72.817V71.817H130.78L130.699 71.8306L130.863 72.817ZM129.948 73.305L129.334 72.5156L129.285 72.5539L129.241 72.5979L129.948 73.305ZM128.911 74.403L128.168 73.734L128.133 73.7727L128.102 73.8148L128.911 74.403ZM128.057 75.806L128.951 76.2532L128.951 76.2532L128.057 75.806ZM128.362 79.649L127.556 80.2404L127.568 80.2573L127.581 80.2737L128.362 79.649ZM130.131 80.991L130.537 80.0772L130.524 80.0716L130.512 80.0663L130.131 80.991ZM132.571 81.601L132.661 80.6051L132.661 80.6051L132.571 81.601ZM129.582 56.103L128.609 56.3364L128.612 56.3455L129.582 56.103ZM130.741 58.848L129.891 59.3744L129.9 59.3887L129.909 59.4027L130.741 58.848ZM132.876 61.044L132.295 61.8577L132.308 61.8671L132.321 61.876L132.876 61.044ZM141.05 59.092L140.231 58.5185L140.221 58.5326L140.211 58.547L141.05 59.092ZM142.27 56.347L143.242 56.5804L143.242 56.5804L142.27 56.347ZM140.867 47.38L140.078 47.9939L140.083 48.0007L140.088 48.0073L140.867 47.38ZM132.876 45.916L132.38 45.0478L132.38 45.0478L132.876 45.916ZM130.741 47.807L129.936 47.2138L129.925 47.2279L129.916 47.2423L130.741 47.807ZM129.582 50.43L130.552 50.6725L130.552 50.6725L129.582 50.43ZM130.802 83.736L130.89 82.7399L130.875 82.7386L130.861 82.7377L130.802 83.736ZM126.898 83.004L126.572 83.9494L126.582 83.9527L126.898 83.004ZM123.909 81.174L123.184 81.8627L123.193 81.872L123.202 81.8811L123.909 81.174ZM123.299 75.989L122.477 75.4198L122.467 75.4339L122.458 75.4482L123.299 75.989ZM124.641 74.525L124.06 73.7113L124.026 73.7351L123.995 73.7616L124.641 74.525ZM126.41 73.366L125.939 72.4836L125.917 72.4955L125.895 72.5085L126.41 73.366ZM128.057 72.39L128.612 73.2221L130.38 72.043L128.344 71.4322L128.057 72.39ZM126.654 72.085L126.49 73.0715L126.502 73.0734L126.654 72.085ZM125.19 71.658L124.776 72.5684L124.791 72.575L124.805 72.5811L125.19 71.658ZM124.031 70.804L123.242 71.4179L123.262 71.4438L123.284 71.4684L124.031 70.804ZM124.336 67.388L123.536 66.788L123.536 66.788L124.336 67.388ZM126.105 65.558L126.741 66.3299L126.754 66.3191L126.767 66.3078L126.105 65.558ZM128.179 63.85L127.571 63.0556L127.571 63.0556L128.179 63.85ZM129.887 62.508L130.52 63.282L131.646 62.3612L130.383 61.6398L129.887 62.508ZM125.8 58.848L126.621 58.2776L126.621 58.2776L125.8 58.848ZM125.129 49.332L126.045 49.7328L126.045 49.7328L125.129 49.332ZM131.046 43.781L130.679 42.8506L130.679 42.8506L131.046 43.781ZM137.451 42.988V43.988H137.865L138.158 43.6951L137.451 42.988ZM139.22 41.219L139.927 41.9261L139.927 41.9261L139.22 41.219ZM142.636 38.413L143.191 39.245L143.2 39.2387L143.209 39.2322L142.636 38.413ZM148.98 37.986L148.273 38.6931L148.285 38.7053L148.298 38.7171L148.98 37.986ZM149.102 42.134L149.809 42.8411L149.822 42.828L149.835 42.8144L149.102 42.134ZM144.71 42.317L144.129 43.1307L144.142 43.1401L144.155 43.149L144.71 42.317ZM143.307 41.097L144.05 40.428L143.725 40.0669L143.24 40.0992L143.307 41.097ZM141.477 41.829L140.886 41.0226L140.872 41.0324L140.859 41.0427L141.477 41.829ZM139.891 43.354L139.132 42.7032L138.164 43.8324L139.575 44.3027L139.891 43.354ZM145.381 47.014L144.622 47.6648L144.629 47.6738L145.381 47.014ZM146.662 57.567L147.572 57.9808L147.572 57.9808L146.662 57.567ZM144.1 61.044L143.436 60.2966L143.429 60.3028L143.422 60.3092L144.1 61.044ZM140.318 63.301L139.978 62.3604L139.97 62.3636L140.318 63.301ZM133.913 63.972L133.781 64.9632L133.781 64.9632L133.913 63.972ZM132.266 63.606L132.582 62.6573L131.996 62.4619L131.559 62.8989L132.266 63.606ZM131.534 64.155L132.064 65.003L132.076 64.9952L132.089 64.987L131.534 64.155ZM130.497 64.826L129.942 63.9939L129.919 64.0093L129.897 64.026L130.497 64.826ZM129.582 65.619L128.875 64.9119L128.848 64.939L128.823 64.9682L129.582 65.619ZM131.168 67.754L130.925 68.7241L130.94 68.7277L130.954 68.7309L131.168 67.754ZM146.906 70.011L146.399 70.8729L146.405 70.8767L146.412 70.8803L146.906 70.011ZM146.418 81.662L145.897 80.8083L145.887 80.8148L146.418 81.662ZM135.194 82.723C136.606 82.723 137.979 82.6607 139.313 82.5356L139.127 80.5444C137.858 80.6633 136.547 80.723 135.194 80.723V82.723ZM139.313 82.5356C140.682 82.4074 141.91 82.1481 142.987 81.7443L142.285 79.8717C141.41 80.1999 140.361 80.4286 139.127 80.5444L139.313 82.5356ZM142.975 81.7489C144.112 81.3395 145.062 80.748 145.767 79.9415L144.262 78.6245C143.829 79.1193 143.193 79.5445 142.297 79.8671L142.975 81.7489ZM145.744 79.9669C146.566 79.0903 146.93 77.9503 146.93 76.66H144.93C144.93 77.5657 144.684 78.1743 144.285 78.5991L145.744 79.9669ZM146.93 76.66C146.93 75.704 146.581 74.8598 145.905 74.1839L144.491 75.5981C144.791 75.8982 144.93 76.2334 144.93 76.66H146.93ZM145.874 74.1538C145.276 73.6062 144.566 73.195 143.762 72.911L143.096 74.797C143.674 75.001 144.144 75.2811 144.522 75.6282L145.874 74.1538ZM143.762 72.911C142.26 72.381 140.489 72.0851 138.469 72.0009L138.385 73.9991C140.269 74.0776 141.832 74.351 143.096 74.797L143.762 72.911ZM138.491 72.002C136.549 71.8781 134.004 71.817 130.863 71.817V73.817C133.984 73.817 136.482 73.8779 138.363 73.998L138.491 72.002ZM130.699 71.8306C130.202 71.9133 129.735 72.2037 129.334 72.5156L130.562 74.0944C130.714 73.976 130.833 73.899 130.922 73.8519C131.014 73.8029 131.046 73.8004 131.027 73.8034L130.699 71.8306ZM129.241 72.5979C128.901 72.9377 128.543 73.3167 128.168 73.734L129.654 75.072C130.011 74.676 130.344 74.323 130.655 74.0121L129.241 72.5979ZM128.102 73.8148C127.745 74.3061 127.431 74.8208 127.162 75.3588L128.951 76.2532C129.17 75.8152 129.426 75.3946 129.72 74.9912L128.102 73.8148ZM127.162 75.3588C126.864 75.9556 126.691 76.576 126.691 77.209H128.691C128.691 76.9473 128.762 76.6324 128.951 76.2532L127.162 75.3588ZM126.691 77.209C126.691 78.3661 126.946 79.4085 127.556 80.2404L129.168 79.0576C128.884 78.6695 128.691 78.0852 128.691 77.209H126.691ZM127.581 80.2737C128.17 81.0098 128.895 81.5636 129.75 81.9157L130.512 80.0663C129.984 79.8491 129.53 79.5082 129.143 79.0243L127.581 80.2737ZM129.725 81.9048C130.568 82.2796 131.49 82.5068 132.48 82.5969L132.661 80.6051C131.863 80.5325 131.158 80.353 130.537 80.0772L129.725 81.9048ZM132.48 82.5969C133.404 82.6808 134.308 82.723 135.194 82.723V80.723C134.372 80.723 133.528 80.6838 132.661 80.6051L132.48 82.5969ZM128.216 53.358C128.216 54.2685 128.352 55.2638 128.61 56.3364L130.554 55.8696C130.324 54.9089 130.216 54.0741 130.216 53.358H128.216ZM128.612 56.3455C128.881 57.4216 129.308 58.4324 129.891 59.3744L131.591 58.3216C131.117 57.5556 130.771 56.7364 130.552 55.8605L128.612 56.3455ZM129.909 59.4027C130.547 60.3598 131.344 61.1789 132.295 61.8577L133.457 60.2303C132.7 59.6891 132.074 59.0442 131.573 58.2933L129.909 59.4027ZM132.321 61.876C133.363 62.5706 134.579 62.898 135.926 62.898V60.898C134.914 60.898 134.097 60.6561 133.431 60.2119L132.321 61.876ZM135.926 62.898C137.258 62.898 138.464 62.5978 139.502 61.9553L138.45 60.2547C137.779 60.6696 136.952 60.898 135.926 60.898V62.898ZM139.502 61.9553C140.477 61.3519 141.277 60.5782 141.888 59.637L140.211 58.547C139.766 59.2324 139.183 59.8008 138.45 60.2547L139.502 61.9553ZM141.869 59.6655C142.514 58.744 142.971 57.7124 143.242 56.5804L141.298 56.1136C141.081 57.0149 140.724 57.8133 140.231 58.5185L141.869 59.6655ZM143.242 56.5804C143.503 55.4927 143.636 54.418 143.636 53.358H141.636C141.636 54.25 141.524 55.168 141.298 56.1136L143.242 56.5804ZM143.636 53.358C143.636 50.6863 143.01 48.4468 141.646 46.7527L140.088 48.0073C141.082 49.2412 141.636 50.987 141.636 53.358H143.636ZM141.656 46.7661C140.296 45.0171 138.333 44.184 135.926 44.184V46.184C137.829 46.184 139.161 46.8148 140.078 47.9939L141.656 46.7661ZM135.926 44.184C134.607 44.184 133.412 44.4577 132.38 45.0478L133.372 46.7842C134.047 46.3983 134.886 46.184 135.926 46.184V44.184ZM132.38 45.0478C131.408 45.6031 130.59 46.3261 129.936 47.2138L131.546 48.4002C132.031 47.7426 132.636 47.2049 133.372 46.7842L132.38 45.0478ZM129.916 47.2423C129.315 48.12 128.882 49.105 128.612 50.1875L130.552 50.6725C130.769 49.803 131.109 49.0393 131.566 48.3717L129.916 47.2423ZM128.612 50.1875C128.349 51.2403 128.216 52.2977 128.216 53.358H130.216C130.216 52.4662 130.327 51.5717 130.552 50.6725L128.612 50.1875ZM134.706 82.919C133.519 82.919 132.247 82.8596 130.89 82.7399L130.714 84.7321C132.122 84.8564 133.453 84.919 134.706 84.919V82.919ZM130.861 82.7377C129.559 82.6612 128.345 82.4322 127.214 82.0553L126.582 83.9527C127.891 84.3892 129.28 84.6482 130.743 84.7343L130.861 82.7377ZM127.224 82.0586C126.176 81.6972 125.313 81.164 124.616 80.4669L123.202 81.8811C124.131 82.8106 125.261 83.4975 126.572 83.9494L127.224 82.0586ZM124.634 80.4853C124.077 79.8988 123.75 79.0691 123.75 77.88H121.75C121.75 79.4563 122.196 80.8226 123.184 81.8627L124.634 80.4853ZM123.75 77.88C123.75 77.3761 123.88 76.9342 124.14 76.5298L122.458 75.4482C121.986 76.1825 121.75 77.0013 121.75 77.88H123.75ZM124.121 76.5582C124.433 76.107 124.82 75.6834 125.287 75.2884L123.995 73.7616C123.404 74.2613 122.896 74.8136 122.477 75.4198L124.121 76.5582ZM125.222 75.3387C125.769 74.9478 126.337 74.576 126.924 74.2235L125.895 72.5085C125.263 72.888 124.651 73.2889 124.06 73.7113L125.222 75.3387ZM126.881 74.2484C127.514 73.9103 128.092 73.5684 128.612 73.2221L127.502 71.5579C127.046 71.8623 126.525 72.1711 125.939 72.4836L126.881 74.2484ZM128.344 71.4322C127.884 71.294 127.369 71.1833 126.806 71.0966L126.502 73.0734C126.996 73.1494 127.417 73.242 127.77 73.3478L128.344 71.4322ZM126.818 71.0986C126.411 71.0307 125.997 70.9108 125.575 70.7349L124.805 72.5811C125.359 72.8119 125.921 72.9766 126.49 73.0714L126.818 71.0986ZM125.604 70.7476C125.283 70.6019 125.011 70.4009 124.778 70.1396L123.284 71.4684C123.702 71.9391 124.202 72.3074 124.776 72.5684L125.604 70.7476ZM124.82 70.1901C124.718 70.0582 124.604 69.7951 124.604 69.279H122.604C122.604 70.0642 122.775 70.8178 123.242 71.4179L124.82 70.1901ZM124.604 69.279C124.604 68.9474 124.735 68.5229 125.136 67.988L123.536 66.788C122.961 67.5545 122.604 68.3906 122.604 69.279H124.604ZM125.136 67.988C125.572 67.407 126.105 66.8537 126.741 66.3299L125.469 64.7861C124.723 65.4009 124.076 66.0676 123.536 66.788L125.136 67.988ZM126.767 66.3078C127.441 65.7124 128.115 65.158 128.786 64.6444L127.571 63.0556C126.861 63.5993 126.151 64.1836 125.443 64.8082L126.767 66.3078ZM128.786 64.6444C129.483 64.112 130.061 63.6574 130.52 63.282L129.254 61.734C128.818 62.0906 128.258 62.5307 127.571 63.0556L128.786 64.6444ZM130.383 61.6398C128.791 60.7299 127.545 59.6072 126.621 58.2776L124.979 59.4184C126.089 61.0168 127.567 62.3341 129.391 63.3762L130.383 61.6398ZM126.621 58.2776C125.739 57.0072 125.275 55.4454 125.275 53.541H123.275C123.275 55.7846 123.827 57.7608 124.979 59.4184L126.621 58.2776ZM125.275 53.541C125.275 52.166 125.534 50.9003 126.045 49.7328L124.213 48.9312C123.585 50.3663 123.275 51.9067 123.275 53.541H125.275ZM126.045 49.7328C126.56 48.5549 127.273 47.5517 128.185 46.7129L126.831 45.2411C125.709 46.273 124.836 47.5064 124.213 48.9312L126.045 49.7328ZM128.185 46.7129C129.107 45.8646 130.18 45.1969 131.412 44.7114L130.679 42.8506C129.228 43.4224 127.942 44.2187 126.831 45.2411L128.185 46.7129ZM131.412 44.7114C132.63 44.2319 133.948 43.988 135.377 43.988V41.988C133.715 41.988 132.146 42.2727 130.679 42.8506L131.412 44.7114ZM135.377 43.988H137.451V41.988H135.377V43.988ZM138.158 43.6951L139.927 41.9261L138.513 40.5119L136.744 42.2809L138.158 43.6951ZM139.927 41.9261C140.939 40.9144 142.026 40.0211 143.191 39.245L142.081 37.5809C140.805 38.4315 139.616 39.4089 138.513 40.5119L139.927 41.9261ZM143.209 39.2322C144.264 38.4937 145.407 38.132 146.662 38.132V36.132C144.989 36.132 143.447 36.6243 142.062 37.5938L143.209 39.2322ZM146.662 38.132C147.433 38.132 147.93 38.3499 148.273 38.6931L149.687 37.2789C148.892 36.4835 147.843 36.132 146.662 36.132V38.132ZM148.298 38.7171C148.75 39.1395 148.895 39.5193 148.895 39.877H150.895C150.895 38.8521 150.43 37.9711 149.662 37.2549L148.298 38.7171ZM148.895 39.877C148.895 40.6143 148.692 41.1055 148.369 41.4535L149.835 42.8144C150.569 42.0238 150.895 41.0103 150.895 39.877H148.895ZM148.395 41.4269C148.126 41.6956 147.619 41.927 146.662 41.927V43.927C147.901 43.927 149.02 43.6297 149.809 42.8411L148.395 41.4269ZM146.662 41.927C146.18 41.927 145.721 41.7891 145.265 41.4849L144.155 43.149C144.919 43.6583 145.761 43.927 146.662 43.927V41.927ZM145.291 41.5033C144.765 41.1278 144.356 40.7682 144.05 40.428L142.564 41.766C142.989 42.2391 143.516 42.6929 144.129 43.1307L145.291 41.5033ZM143.24 40.0992C142.4 40.1552 141.612 40.4896 140.886 41.0226L142.068 42.6354C142.561 42.2738 142.993 42.1201 143.373 42.0948L143.24 40.0992ZM140.859 41.0427C140.237 41.5319 139.661 42.0859 139.132 42.7032L140.65 44.0048C141.097 43.4834 141.579 43.0208 142.095 42.6153L140.859 41.0427ZM139.575 44.3027C141.604 44.9791 143.279 46.0985 144.622 47.6648L146.14 46.3632C144.555 44.5135 142.57 43.1929 140.207 42.4053L139.575 44.3027ZM144.629 47.6738C145.917 49.14 146.577 50.9517 146.577 53.175H148.577C148.577 50.5183 147.773 48.2227 146.132 46.3542L144.629 47.6738ZM146.577 53.175C146.577 54.6292 146.298 55.9508 145.752 57.1532L147.572 57.9808C148.246 56.4992 148.577 54.8927 148.577 53.175H146.577ZM145.752 57.1532C145.199 58.3685 144.429 59.4137 143.436 60.2966L144.764 61.7914C145.967 60.7223 146.905 59.4495 147.572 57.9808L145.752 57.1532ZM143.422 60.3092C142.47 61.1875 141.327 61.8734 139.978 62.3604L140.658 64.2416C142.237 63.6713 143.615 62.8525 144.778 61.7788L143.422 60.3092ZM139.97 62.3636C138.668 62.847 137.242 63.094 135.682 63.094V65.094C137.456 65.094 139.121 64.8123 140.666 64.2384L139.97 62.3636ZM135.682 63.094C135.16 63.094 134.615 63.0567 134.045 62.9808L133.781 64.9632C134.431 65.0499 135.065 65.094 135.682 65.094V63.094ZM134.045 62.9808C133.486 62.9062 133 62.7966 132.582 62.6573L131.95 64.5547C132.508 64.7407 133.12 64.8751 133.781 64.9632L134.045 62.9808ZM131.559 62.8989C131.515 62.9423 131.349 63.0764 130.979 63.3229L132.089 64.987C132.451 64.7456 132.772 64.5137 132.973 64.3131L131.559 62.8989ZM131.004 63.307C130.669 63.5162 130.315 63.7453 129.942 63.9939L131.052 65.6581C131.411 65.4187 131.748 65.2005 132.064 65.003L131.004 63.307ZM129.897 64.026C129.534 64.2981 129.193 64.5934 128.875 64.9119L130.289 66.3261C130.54 66.0752 130.809 65.8419 131.097 65.626L129.897 64.026ZM128.823 64.9682C128.503 65.341 128.216 65.8301 128.216 66.412H130.216C130.216 66.4599 130.203 66.4756 130.215 66.4498C130.228 66.4214 130.263 66.3611 130.341 66.2698L128.823 64.9682ZM128.216 66.412C128.216 67.1436 128.655 67.6667 129.137 67.9985C129.607 68.3211 130.228 68.5498 130.925 68.7241L131.41 66.7839C130.806 66.6328 130.452 66.4753 130.27 66.3505C130.102 66.235 130.216 66.2497 130.216 66.412H128.216ZM130.954 68.7309C132.374 69.0415 134.834 69.181 138.244 69.181V67.181C134.822 67.181 132.564 67.0358 131.382 66.7771L130.954 68.7309ZM138.244 69.181C141.854 69.181 144.54 69.7794 146.399 70.8729L147.413 69.1491C145.124 67.8026 142.035 67.181 138.244 67.181V69.181ZM146.412 70.8803C148.134 71.8597 149.017 73.4142 149.017 75.745H151.017C151.017 72.7892 149.826 70.5209 147.4 69.1417L146.412 70.8803ZM149.017 75.745C149.017 77.8252 148.046 79.4972 145.897 80.8084L146.939 82.5156C149.589 80.8988 151.017 78.6261 151.017 75.745H149.017ZM145.887 80.8148C143.735 82.1639 140.07 82.919 134.706 82.919V84.919C140.159 84.919 144.302 84.1694 146.949 82.5092L145.887 80.8148ZM156.056 47.441L155.38 48.1782L155.395 48.1916L155.41 48.2044L156.056 47.441ZM153.616 46.77H152.616V47.77H153.616V46.77ZM153.616 45.184L153.262 44.2489L152.616 44.4936V45.184H153.616ZM159.411 42.988L160.276 42.487L159.851 41.7519L159.057 42.0529L159.411 42.988ZM161.607 47.929L160.663 48.2593L161.175 49.7233L162.297 48.6524L161.607 47.929ZM164.047 45.733L164.687 46.5012L164.691 46.4979L164.047 45.733ZM166.304 44.208L166.751 45.1024L166.771 45.0927L166.79 45.0822L166.304 44.208ZM168.5 43.293L168.245 42.3258L168.232 42.3295L168.5 43.293ZM178.626 47.99L177.742 48.4579L178.345 49.5968L179.299 48.7299L178.626 47.99ZM183.445 44.269L182.941 43.4052L182.93 43.4115L183.445 44.269ZM195.096 45.916L194.32 46.5466L194.327 46.5554L194.334 46.5641L195.096 45.916ZM197.536 70.743H196.536V71.6128L197.397 71.7333L197.536 70.743ZM200.586 71.17H201.586V70.3002L200.725 70.1797L200.586 71.17ZM200.586 73V74H201.586V73H200.586ZM189.545 73H188.545V74H189.545V73ZM189.545 71.17L189.406 70.1797L188.545 70.3002V71.17H189.545ZM192.595 70.743L192.734 71.7333L193.595 71.6128V70.743H192.595ZM192.046 50.186L191.12 50.5646L191.124 50.5723L191.127 50.5799L192.046 50.186ZM190.582 48.051L189.875 48.7581L189.9 48.7833L189.927 48.8067L190.582 48.051ZM188.569 46.892L188.253 47.8407L188.283 47.8509L188.314 47.8591L188.569 46.892ZM182.774 47.563L182.241 46.7168L182.241 46.7168L182.774 47.563ZM179.663 50.003L178.971 49.281L178.663 49.5763V50.003H179.663ZM179.663 70.743H178.663V71.6128L179.524 71.7333L179.663 70.743ZM182.713 71.17H183.713V70.3002L182.852 70.1797L182.713 71.17ZM182.713 73V74H183.713V73H182.713ZM171.672 73H170.672V74H171.672V73ZM171.672 71.17L171.533 70.1797L170.672 70.3002V71.17H171.672ZM174.722 70.743L174.861 71.7333L175.722 71.6128V70.743H174.722ZM174.295 50.308L173.363 50.6704L173.366 50.6796L173.37 50.6887L174.295 50.308ZM173.136 48.417L172.377 49.0678L172.389 49.0818L172.401 49.0953L173.136 48.417ZM171.306 47.075L170.838 47.9588L170.868 47.9749L170.9 47.9888L171.306 47.075ZM165.572 47.624L166.105 48.4702L166.116 48.4633L166.127 48.456L165.572 47.624ZM161.79 50.491L161.139 49.7317L160.79 50.0311V50.491H161.79ZM161.79 70.743H160.79V71.6128L161.651 71.7333L161.79 70.743ZM164.84 71.17H165.84V70.3002L164.979 70.1797L164.84 71.17ZM164.84 73V74H165.84V73H164.84ZM153.799 73H152.799V74H153.799V73ZM153.799 71.17L153.66 70.1797L152.799 70.3002V71.17H153.799ZM156.849 70.743L156.988 71.7333L157.849 71.6128V70.743H156.849ZM157.849 50.552C157.849 49.6937 157.78 48.9367 157.62 48.3072C157.462 47.6898 157.19 47.0908 156.702 46.6776L155.41 48.2044C155.45 48.2385 155.575 48.3817 155.682 48.8013C155.786 49.2088 155.849 49.7836 155.849 50.552H157.849ZM156.732 46.7038C155.965 46.0015 154.839 45.77 153.616 45.77V47.77C154.67 47.77 155.17 47.9858 155.38 48.1782L156.732 46.7038ZM154.616 46.77V45.184H152.616V46.77H154.616ZM153.97 46.1191L159.765 43.9231L159.057 42.0529L153.262 44.2489L153.97 46.1191ZM158.545 43.489C158.972 44.2257 159.361 45.0032 159.712 45.8219L161.55 45.0341C161.169 44.1448 160.745 43.2956 160.276 42.487L158.545 43.489ZM159.712 45.8219C160.07 46.6566 160.386 47.4691 160.663 48.2593L162.551 47.5986C162.258 46.7623 161.924 45.9074 161.55 45.0341L159.712 45.8219ZM162.297 48.6524C163.18 47.8096 163.977 47.0933 164.687 46.5012L163.407 44.9648C162.653 45.5927 161.823 46.3404 160.916 47.2056L162.297 48.6524ZM164.691 46.4979C165.417 45.8867 166.104 45.4261 166.751 45.1024L165.857 43.3136C165.04 43.7219 164.222 44.278 163.403 44.9681L164.691 46.4979ZM166.79 45.0822C167.46 44.7099 168.119 44.4367 168.768 44.2565L168.232 42.3295C167.417 42.5559 166.612 42.8928 165.818 43.3338L166.79 45.0822ZM168.754 44.2601C169.431 44.0819 170.198 43.988 171.062 43.988V41.988C170.055 41.988 169.114 42.0974 168.245 42.3259L168.754 44.2601ZM171.062 43.988C172.752 43.988 174.064 44.4253 175.073 45.2329L176.323 43.6711C174.892 42.5267 173.113 41.988 171.062 41.988V43.988ZM175.073 45.2329C176.186 46.1232 177.074 47.196 177.742 48.4579L179.51 47.5221C178.714 46.0187 177.65 44.7327 176.323 43.6711L175.073 45.2329ZM179.299 48.7299C181.059 47.1294 182.612 45.9351 183.959 45.1265L182.93 43.4115C181.431 44.3109 179.771 45.5972 177.953 47.2501L179.299 48.7299ZM183.949 45.1328C185.248 44.3751 186.718 43.988 188.386 43.988V41.988C186.393 41.988 184.57 42.4549 182.941 43.4052L183.949 45.1328ZM188.386 43.988C191.022 43.988 192.953 44.8646 194.32 46.5466L195.872 45.2854C194.067 43.0634 191.524 41.988 188.386 41.988V43.988ZM194.334 46.5641C195.758 48.2365 196.536 50.6595 196.536 53.968H198.536C198.536 50.3632 197.687 47.4181 195.857 45.2679L194.334 46.5641ZM196.536 53.968V70.743H198.536V53.968H196.536ZM197.397 71.7333L200.447 72.1603L200.725 70.1797L197.675 69.7527L197.397 71.7333ZM199.586 71.17V73H201.586V71.17H199.586ZM200.586 72H189.545V74H200.586V72ZM190.545 73V71.17H188.545V73H190.545ZM189.684 72.1603L192.734 71.7333L192.456 69.7527L189.406 70.1797L189.684 72.1603ZM193.595 70.743V53.48H191.595V70.743H193.595ZM193.595 53.48C193.595 52.0579 193.403 50.813 192.965 49.7921L191.127 50.5799C191.421 51.267 191.595 52.2181 191.595 53.48H193.595ZM192.971 49.8074C192.558 48.7959 191.987 47.9451 191.237 47.2953L189.927 48.8067C190.397 49.2143 190.802 49.7867 191.12 50.5646L192.971 49.8074ZM191.289 47.3439C190.596 46.6504 189.769 46.1737 188.823 45.9249L188.314 47.8591C188.914 48.017 189.43 48.3129 189.875 48.7581L191.289 47.3439ZM188.885 45.9433C188.057 45.6672 187.218 45.526 186.373 45.526V47.526C186.992 47.526 187.617 47.6288 188.253 47.8407L188.885 45.9433ZM186.373 45.526C184.884 45.526 183.499 45.9247 182.241 46.7168L183.307 48.4092C184.245 47.8187 185.26 47.526 186.373 47.526V45.526ZM182.241 46.7168C181.084 47.4455 179.994 48.301 178.971 49.281L180.355 50.725C181.284 49.8344 182.268 49.0632 183.307 48.4092L182.241 46.7168ZM178.663 50.003V70.743H180.663V50.003H178.663ZM179.524 71.7333L182.574 72.1603L182.852 70.1797L179.802 69.7527L179.524 71.7333ZM181.713 71.17V73H183.713V71.17H181.713ZM182.713 72H171.672V74H182.713V72ZM172.672 73V71.17H170.672V73H172.672ZM171.811 72.1603L174.861 71.7333L174.583 69.7527L171.533 70.1797L171.811 72.1603ZM175.722 70.743V52.382H173.722V70.743H175.722ZM175.722 52.382C175.722 51.5497 175.55 50.7294 175.22 49.9272L173.37 50.6887C173.609 51.2692 173.722 51.8316 173.722 52.382H175.722ZM175.227 49.9456C174.901 49.1076 174.451 48.3675 173.871 47.7387L172.401 49.0953C172.797 49.5238 173.119 50.0444 173.363 50.6704L175.227 49.9456ZM173.895 47.7662C173.304 47.0765 172.57 46.5427 171.712 46.1612L170.9 47.9888C171.505 48.258 171.992 48.6189 172.377 49.0678L173.895 47.7662ZM171.774 46.1912C170.925 45.742 169.99 45.526 168.988 45.526V47.526C169.694 47.526 170.304 47.676 170.838 47.9588L171.774 46.1912ZM168.988 45.526C167.588 45.526 166.259 45.9639 165.017 46.7919L166.127 48.456C167.081 47.8201 168.029 47.526 168.988 47.526V45.526ZM165.039 46.7778C163.886 47.5038 162.585 48.4926 161.139 49.7317L162.441 51.2503C163.842 50.0494 165.062 49.1268 166.105 48.4702L165.039 46.7778ZM160.79 50.491V70.743H162.79V50.491H160.79ZM161.651 71.7333L164.701 72.1603L164.979 70.1797L161.929 69.7527L161.651 71.7333ZM163.84 71.17V73H165.84V71.17H163.84ZM164.84 72H153.799V74H164.84V72ZM154.799 73V71.17H152.799V73H154.799ZM153.938 72.1603L156.988 71.7333L156.71 69.7527L153.66 70.1797L153.938 72.1603ZM157.849 70.743V50.552H155.849V70.743H157.849ZM225.409 70.072L224.758 70.8313L224.815 70.8802L224.879 70.92L225.409 70.072ZM227.605 70.011L228.205 70.811L228.235 70.7884L228.264 70.7636L227.605 70.011ZM228.398 69.279L229.088 68.5549L228.381 67.8818L227.691 68.5719L228.398 69.279ZM229.679 70.499L230.495 71.077L230.995 70.3713L230.369 69.7749L229.679 70.499ZM227.239 72.939L226.668 72.1181L226.659 72.1241L226.651 72.1303L227.239 72.939ZM221.322 72.695L220.541 73.3197L220.551 73.3313L220.56 73.3426L221.322 72.695ZM220.224 69.889L221.221 69.8123L221.046 67.5343L219.491 69.2085L220.224 69.889ZM216.32 72.756L216.767 73.6504L216.767 73.6504L216.32 72.756ZM208.695 73.366L209.06 72.4348L209.048 72.4303L209.037 72.4262L208.695 73.366ZM206.255 71.902L205.57 72.6302L205.58 72.64L205.591 72.6494L206.255 71.902ZM205.584 61.593L204.784 60.993L204.781 60.9967L205.584 61.593ZM209.61 57.811L209.065 56.9725L209.055 56.9789L209.61 57.811ZM214.856 55.249L215.185 56.1936L215.196 56.1894L214.856 55.249ZM220.102 53.663L220.327 54.6374L221.102 54.4585V53.663H220.102ZM217.845 46.953L217.116 47.6369L217.127 47.6487L217.138 47.6601L217.845 46.953ZM215.893 45.611L215.512 46.5357L215.536 46.5454L215.56 46.554L215.893 45.611ZM212.904 45.855L213.762 46.3695L213.772 46.3519L213.782 46.3339L212.904 45.855ZM212.111 47.258L211.231 46.7839L211.223 46.7972L211.217 46.8108L212.111 47.258ZM211.013 48.661L211.686 49.4009L211.689 49.3982L211.013 48.661ZM206.926 48.539L206.191 49.2173L206.205 49.232L206.219 49.2461L206.926 48.539ZM207.414 43.781L207.929 44.6385L207.944 44.6292L207.959 44.6194L207.414 43.781ZM215.344 43.476L215.133 44.4534L215.145 44.4562L215.158 44.4586L215.344 43.476ZM219.736 45.062L220.213 44.1831L220.213 44.1831L219.736 45.062ZM223.396 48.295L222.59 48.8874L222.596 48.895L222.602 48.9024L223.396 48.295ZM220.041 55.92H221.041V54.7002L219.845 54.9394L220.041 55.92ZM216.625 56.896L216.941 57.8447L216.95 57.8416L216.96 57.8384L216.625 56.896ZM213.148 58.665L213.703 59.497L213.713 59.4901L213.724 59.4828L213.148 58.665ZM210.403 61.41L211.235 61.9647L211.235 61.9647L210.403 61.41ZM210.586 69.035L209.848 69.7093L209.863 69.726L209.879 69.7421L210.586 69.035ZM217.54 69.462L218.07 70.31L218.083 70.3022L218.095 70.2941L217.54 69.462ZM220.041 67.144L220.832 67.7554L221.041 67.4853V67.144H220.041ZM223.982 68.669C223.982 69.4245 224.124 70.2872 224.758 70.8313L226.06 69.3127C226.1 69.3469 226.078 69.3533 226.046 69.2471C226.012 69.1377 225.982 68.9534 225.982 68.669H223.982ZM224.879 70.92C225.355 71.2176 225.883 71.377 226.446 71.377V69.377C226.277 69.377 226.114 69.333 225.939 69.224L224.879 70.92ZM226.446 71.377C227.087 71.377 227.689 71.1979 228.205 70.811L227.005 69.211C226.87 69.3121 226.7 69.377 226.446 69.377V71.377ZM228.264 70.7636C228.598 70.4708 228.881 70.2108 229.105 69.9861L227.691 68.5719C227.509 68.7539 227.263 68.9819 226.947 69.2584L228.264 70.7636ZM227.708 70.0031L228.989 71.2231L230.369 69.7749L229.088 68.5549L227.708 70.0031ZM228.863 69.921C228.235 70.8072 227.504 71.5368 226.668 72.1181L227.81 73.7599C228.845 73.0398 229.74 72.1428 230.495 71.077L228.863 69.921ZM226.651 72.1303C225.956 72.6358 225.074 72.915 223.945 72.915V74.915C225.419 74.915 226.733 74.5435 227.827 73.7477L226.651 72.1303ZM223.945 72.915C223.184 72.915 222.587 72.6396 222.084 72.0474L220.56 73.3426C221.439 74.377 222.591 74.915 223.945 74.915V72.915ZM222.103 72.0703C221.58 71.4168 221.287 70.6733 221.221 69.8123L219.227 69.9657C219.323 71.2194 219.763 72.3465 220.541 73.3197L222.103 72.0703ZM219.491 69.2085C218.524 70.2501 217.323 71.1366 215.873 71.8616L216.767 73.6504C218.408 72.8301 219.809 71.8053 220.957 70.5695L219.491 69.2085ZM215.873 71.8616C214.45 72.5731 213.057 72.915 211.684 72.915V74.915C213.402 74.915 215.1 74.4842 216.767 73.6504L215.873 71.8616ZM211.684 72.915C210.745 72.915 209.873 72.753 209.06 72.4348L208.331 74.2972C209.388 74.711 210.509 74.915 211.684 74.915V72.915ZM209.037 72.4262C208.264 72.1453 207.56 71.7238 206.919 71.1546L205.591 72.6494C206.414 73.3815 207.337 73.936 208.353 74.3058L209.037 72.4262ZM206.94 71.1738C206.347 70.6154 205.873 69.9507 205.518 69.1702L203.698 69.9978C204.156 71.0067 204.78 71.8872 205.57 72.6302L206.94 71.1738ZM205.518 69.1702C205.175 68.4151 204.998 67.5816 204.998 66.656H202.998C202.998 67.8451 203.228 68.9635 203.698 69.9978L205.518 69.1702ZM204.998 66.656C204.998 64.896 205.471 63.4227 206.387 62.1893L204.781 60.9967C203.583 62.6099 202.998 64.512 202.998 66.656H204.998ZM206.384 62.193C207.411 60.8234 208.669 59.6401 210.165 58.643L209.055 56.9789C207.379 58.0965 205.953 59.4346 204.784 60.993L206.384 62.193ZM210.155 58.6494C211.713 57.637 213.389 56.8182 215.185 56.1935L214.528 54.3045C212.582 54.9811 210.761 55.8704 209.065 56.9726L210.155 58.6494ZM215.196 56.1894C217.079 55.5085 218.788 54.9925 220.327 54.6374L219.877 52.6886C218.244 53.0655 216.456 53.6068 214.516 54.3086L215.196 56.1894ZM221.102 53.663C221.102 51.915 220.869 50.3936 220.357 49.1377L218.505 49.8923C218.888 50.8324 219.102 52.0763 219.102 53.663H221.102ZM220.357 49.1377C219.877 47.9595 219.285 46.9783 218.552 46.2459L217.138 47.6601C217.626 48.1477 218.09 48.8745 218.505 49.8923L220.357 49.1377ZM218.575 46.2691C217.879 45.5265 217.098 44.9757 216.226 44.668L215.56 46.554C216.071 46.7343 216.592 47.0781 217.116 47.6369L218.575 46.2691ZM216.274 44.6863C215.519 44.3757 214.793 44.184 214.124 44.184V46.184C214.431 46.184 214.884 46.277 215.512 46.5357L216.274 44.6863ZM214.124 44.184C213.241 44.184 212.469 44.564 212.026 45.3761L213.782 46.3339C213.822 46.2607 213.854 46.2389 213.874 46.228C213.9 46.2138 213.97 46.184 214.124 46.184V44.184ZM212.047 45.3405C211.793 45.7634 211.521 46.245 211.231 46.7839L212.992 47.7321C213.271 47.2137 213.527 46.7599 213.762 46.3695L212.047 45.3405ZM211.217 46.8108C211.038 47.1691 210.754 47.5419 210.337 47.9238L211.689 49.3982C212.248 48.8854 212.697 48.3229 213.006 47.7052L211.217 46.8108ZM210.34 47.9211C210.168 48.0783 209.743 48.271 208.817 48.271V50.271C209.925 50.271 210.964 50.0571 211.686 49.4009L210.34 47.9211ZM208.817 48.271C208.275 48.271 207.911 48.1092 207.633 47.8319L206.219 49.2461C206.918 49.9448 207.814 50.271 208.817 50.271V48.271ZM207.661 47.8607C207.374 47.5504 207.194 47.1175 207.194 46.465H205.194C205.194 47.5205 205.502 48.4702 206.191 49.2173L207.661 47.8607ZM207.194 46.465C207.194 45.3688 207.524 44.8815 207.929 44.6385L206.9 42.9235C205.678 43.6565 205.194 44.9585 205.194 46.465H207.194ZM207.959 44.6194C208.51 44.2614 209.673 43.988 211.684 43.988V41.988C209.628 41.988 207.945 42.2433 206.869 42.9426L207.959 44.6194ZM211.684 43.988C212.518 43.988 213.659 44.1348 215.133 44.4534L215.555 42.4986C214.02 42.1665 212.721 41.988 211.684 41.988V43.988ZM215.158 44.4586C216.555 44.7229 217.922 45.2148 219.259 45.9409L220.213 44.1831C218.704 43.3639 217.142 42.7984 215.53 42.4934L215.158 44.4586ZM219.259 45.9409C220.545 46.6392 221.656 47.616 222.59 48.8874L224.202 47.7026C223.103 46.2087 221.773 45.0301 220.213 44.1831L219.259 45.9409ZM222.602 48.9024C223.499 50.0758 223.982 51.5974 223.982 53.541H225.982C225.982 51.2552 225.408 49.2796 224.19 47.6875L222.602 48.9024ZM223.982 53.541V68.669H225.982V53.541H223.982ZM219.845 54.9394C218.77 55.1544 217.584 55.4946 216.291 55.9536L216.96 57.8384C218.187 57.4028 219.279 57.0923 220.237 56.9006L219.845 54.9394ZM216.309 55.9473C214.993 56.3861 213.747 57.021 212.573 57.8472L213.724 59.4828C214.746 58.7637 215.818 58.2192 216.941 57.8447L216.309 55.9473ZM212.593 57.8329C211.386 58.6382 210.376 59.6474 209.571 60.8553L211.235 61.9647C211.894 60.9766 212.715 60.1558 213.703 59.497L212.593 57.8329ZM209.571 60.8553C208.715 62.1398 208.305 63.6404 208.305 65.314H210.305C210.305 63.9782 210.627 62.8762 211.235 61.9647L209.571 60.8553ZM208.305 65.314C208.305 67.0512 208.79 68.5511 209.848 69.7093L211.325 68.3607C210.674 67.6482 210.305 66.6675 210.305 65.314H208.305ZM209.879 69.7421C211.001 70.8643 212.498 71.377 214.246 71.377V69.377C212.904 69.377 211.96 68.995 211.293 68.3279L209.879 69.7421ZM214.246 71.377C215.642 71.377 216.925 71.0254 218.07 70.31L217.01 68.614C216.203 69.1186 215.29 69.377 214.246 69.377V71.377ZM218.095 70.2941C219.158 69.5855 220.072 68.7392 220.832 67.7554L219.25 66.5326C218.627 67.3381 217.875 68.0372 216.985 68.6299L218.095 70.2941ZM221.041 67.144V55.92H219.041V67.144H221.041Z" fill="#F7D9D3"/>
</svg>
