<svg width="67" height="100" viewBox="0 0 67 100" fill="none" xmlns="http://www.w3.org/2000/svg">
<g clip-path="url(#clip0_22_88)">
<path d="M16.6701 100C21.0895 99.9973 25.327 98.2399 28.4511 95.1139C31.5751 91.988 33.3301 87.7494 33.3301 83.33V66.67H16.6701C14.4472 66.6155 12.236 67.0063 10.1664 67.8193C8.09691 68.6323 6.21095 69.8512 4.61956 71.404C3.02818 72.9569 1.76353 74.8125 0.900076 76.8615C0.0366183 78.9105 -0.408203 81.1115 -0.408203 83.335C-0.408203 85.5585 0.0366183 87.7595 0.900076 89.8085C1.76353 91.8575 3.02818 93.713 4.61956 95.2659C6.21095 96.8188 8.09691 98.0376 10.1664 98.8506C12.236 99.6637 14.4472 100.054 16.6701 100Z" fill="#009563"/>
<path d="M0 50C0.00264929 45.5796 1.7598 41.3411 4.88546 38.2154C8.01111 35.0898 12.2497 33.3326 16.67 33.33H33.33V66.67H16.67C12.2497 66.6673 8.01111 64.9102 4.88546 61.7845C1.7598 58.6589 0.00264929 54.4203 0 50Z" fill="#009563"/>
<path d="M0 16.67C0.00264929 12.2497 1.7598 8.01111 4.88546 4.88546C8.01111 1.7598 12.2497 0.00264929 16.67 0L33.33 0V33.33H16.67C12.2506 33.33 8.01201 31.5751 4.88606 28.451C1.76012 25.3269 0.00265113 21.0894 0 16.67Z" fill="#009563"/>
<path d="M33.3301 -4.54951e-06H50.0001C52.2229 -0.0544593 54.4342 0.336324 56.5037 1.14934C58.5732 1.96236 60.4592 3.18118 62.0506 4.73406C63.642 6.28693 64.9066 8.14248 65.7701 10.1915C66.6335 12.2405 67.0783 14.4415 67.0783 16.665C67.0783 18.8885 66.6335 21.0895 65.7701 23.1385C64.9066 25.1875 63.642 27.0431 62.0506 28.5959C60.4592 30.1488 58.5732 31.3676 56.5037 32.1806C54.4342 32.9937 52.2229 33.3845 50.0001 33.33H33.3301V-4.54951e-06Z" fill="#009563"/>
<path d="M66.6701 50C66.6701 53.297 65.6924 56.52 63.8607 59.2613C62.029 62.0027 59.4255 64.1393 56.3794 65.4011C53.3334 66.6628 49.9816 66.9929 46.7479 66.3497C43.5143 65.7065 40.544 64.1188 38.2126 61.7875C35.8813 59.4561 34.2936 56.4858 33.6504 53.2521C33.0072 50.0185 33.3373 46.6667 34.599 43.6207C35.8607 40.5746 37.9974 37.9711 40.7387 36.1394C43.4801 34.3077 46.7031 33.33 50.0001 33.33C54.4204 33.3326 58.659 35.0898 61.7846 38.2154C64.9103 41.3411 66.6674 45.5796 66.6701 50Z" fill="#009563"/>
</g>
<defs>
<clipPath id="clip0_22_88">
<rect width="66.67" height="100" fill="white"/>
</clipPath>
</defs>
</svg>
