<svg width="338" height="102" viewBox="0 0 338 102" fill="none" xmlns="http://www.w3.org/2000/svg">
<rect x="0.5" y="0.5" width="337" height="101" rx="50.5" fill="#F0EDE5" stroke="black"/>
<path d="M52.088 52.308V51.788H65.764V69.52H65.244L61.136 64.944C58.9 67.44 55.312 69.52 50.32 69.52C39.608 69.52 30.82 62.344 30.82 50.748C30.82 39.776 38.62 32.08 49.28 32.08C58.432 32.08 65.036 37.8 65.4 47.42H64.88C64.516 38.528 58.432 32.964 50.788 32.964C42.312 32.964 36.332 39.984 36.332 50.644C36.332 61.408 42.468 68.74 51.256 68.74C55.572 68.74 58.848 66.92 60.772 64.528V52.308H52.088ZM73.7103 32.444C75.4783 32.444 76.6743 33.744 76.6743 35.304C76.6743 36.864 75.4783 38.164 73.7103 38.164C71.9943 38.164 70.7983 36.864 70.7983 35.304C70.7983 33.744 71.9943 32.444 73.7103 32.444ZM76.1023 69H71.4223V43H76.1023V69ZM98.9319 59.796H99.4519C99.4519 66.504 96.0199 69.468 91.9119 69.468C87.6479 69.468 84.0599 67.024 84.0599 60.94V43.52H79.2239V43H84.0599L88.2719 36.24H88.7919V43H98.9319V43.52H88.7919V62.24C88.7919 66.14 90.2999 68.116 93.4199 68.116C96.3319 68.116 98.8799 65.724 98.9319 59.796ZM128.566 31.872L114.734 69H110.262L124.094 31.872H128.566ZM162.791 52.308V51.788H176.467V69.52H175.947L171.839 64.944C169.603 67.44 166.015 69.52 161.023 69.52C150.311 69.52 141.523 62.344 141.523 50.748C141.523 39.776 149.323 32.08 159.983 32.08C169.135 32.08 175.739 37.8 176.103 47.42H175.583C175.219 38.528 169.135 32.964 161.491 32.964C153.015 32.964 147.035 39.984 147.035 50.644C147.035 61.408 153.171 68.74 161.959 68.74C166.275 68.74 169.551 66.92 171.475 64.528V52.308H162.791ZM184.413 32.444C186.181 32.444 187.377 33.744 187.377 35.304C187.377 36.864 186.181 38.164 184.413 38.164C182.697 38.164 181.501 36.864 181.501 35.304C181.501 33.744 182.697 32.444 184.413 32.444ZM186.805 69H182.125V43H186.805V69ZM209.635 59.796H210.155C210.155 66.504 206.723 69.468 202.615 69.468C198.351 69.468 194.763 67.024 194.763 60.94V43.52H189.927V43H194.763L198.975 36.24H199.495V43H209.635V43.52H199.495V62.24C199.495 66.14 201.003 68.116 204.123 68.116C207.035 68.116 209.583 65.724 209.635 59.796ZM238.168 49.552V32.6H243.108V69H238.168V50.072H218.356V69H213.416V32.6H218.356V49.552H238.168ZM268.185 56V43H272.917V69.104H272.397L268.341 59.952C267.301 65.776 263.817 69.52 258.253 69.52C252.741 69.52 249.101 65.88 249.101 59.9V43H253.781V60.992C253.781 65.568 256.277 68.064 259.969 68.064C264.961 68.064 268.185 62.916 268.185 56ZM294.357 42.48C300.909 42.48 305.641 47.576 305.641 55.896C305.641 64.372 300.857 69.52 294.253 69.52C288.845 69.52 284.997 66.244 283.645 60.576L279.485 69.26H278.965V32.6H283.697V51.06C285.101 45.652 289.001 42.48 294.357 42.48ZM292.381 68.22C297.113 68.22 300.701 63.28 300.701 55.896C300.701 48.616 297.113 43.78 292.433 43.78C287.493 43.78 283.645 48.616 283.645 55.896C283.645 63.28 287.441 68.22 292.381 68.22Z" fill="black"/>
<path d="M52.088 52.308H51.088V53.308H52.088V52.308ZM52.088 51.788V50.788H51.088V51.788H52.088ZM65.764 51.788H66.764V50.788H65.764V51.788ZM65.764 69.52V70.52H66.764V69.52H65.764ZM65.244 69.52L64.4999 70.188L64.7979 70.52H65.244V69.52ZM61.136 64.944L61.8801 64.276L61.1352 63.4462L60.3912 64.2768L61.136 64.944ZM65.4 47.42V48.42H66.4386L66.3993 47.3822L65.4 47.42ZM64.88 47.42L63.8808 47.4609L63.9201 48.42H64.88V47.42ZM60.772 64.528L61.5512 65.1548L61.772 64.8803V64.528H60.772ZM60.772 52.308H61.772V51.308H60.772V52.308ZM53.088 52.308V51.788H51.088V52.308H53.088ZM52.088 52.788H65.764V50.788H52.088V52.788ZM64.764 51.788V69.52H66.764V51.788H64.764ZM65.764 68.52H65.244V70.52H65.764V68.52ZM65.9881 68.852L61.8801 64.276L60.3919 65.612L64.4999 70.188L65.9881 68.852ZM60.3912 64.2768C58.3323 66.575 55.0094 68.52 50.32 68.52V70.52C55.6146 70.52 59.4677 68.305 61.8808 65.6112L60.3912 64.2768ZM50.32 68.52C45.1851 68.52 40.5601 66.8011 37.229 63.7456C33.9078 60.6992 31.82 56.2774 31.82 50.748H29.82C29.82 56.8146 32.1262 61.7788 35.877 65.2194C39.6179 68.6509 44.7429 70.52 50.32 70.52V68.52ZM31.82 50.748C31.82 40.3246 39.176 33.08 49.28 33.08V31.08C38.064 31.08 29.82 39.2274 29.82 50.748H31.82ZM49.28 33.08C53.6469 33.08 57.3294 34.4419 59.9558 36.8759C62.577 39.3052 64.2274 42.8772 64.4007 47.4578L66.3993 47.3822C66.2086 42.3428 64.375 38.2448 61.3152 35.409C58.2606 32.5781 54.0651 31.08 49.28 31.08V33.08ZM65.4 46.42H64.88V48.42H65.4V46.42ZM65.8792 47.3791C65.4945 37.982 58.9987 31.964 50.788 31.964V33.964C57.8653 33.964 63.5375 39.074 63.8808 47.4609L65.8792 47.3791ZM50.788 31.964C46.2519 31.964 42.3555 33.8519 39.611 37.169C36.8783 40.4719 35.332 45.1329 35.332 50.644H37.332C37.332 45.4951 38.7757 41.3161 41.152 38.444C43.5165 35.5861 46.8481 33.964 50.788 33.964V31.964ZM35.332 50.644C35.332 56.2104 36.919 60.9744 39.7283 64.3664C42.5491 67.7722 46.5615 69.74 51.256 69.74V67.74C47.1625 67.74 43.7129 66.0418 41.2687 63.0906C38.813 60.1256 37.332 55.8416 37.332 50.644H35.332ZM51.256 69.74C55.8658 69.74 59.4318 67.7897 61.5512 65.1548L59.9928 63.9012C58.2642 66.0503 55.2782 67.74 51.256 67.74V69.74ZM61.772 64.528V52.308H59.772V64.528H61.772ZM60.772 51.308H52.088V53.308H60.772V51.308ZM76.1023 69V70H77.1023V69H76.1023ZM71.4223 69H70.4223V70H71.4223V69ZM71.4223 43V42H70.4223V43H71.4223ZM76.1023 43H77.1023V42H76.1023V43ZM73.7103 33.444C74.926 33.444 75.6743 34.2963 75.6743 35.304H77.6743C77.6743 33.1917 76.0305 31.444 73.7103 31.444V33.444ZM75.6743 35.304C75.6743 36.3117 74.926 37.164 73.7103 37.164V39.164C76.0305 39.164 77.6743 37.4163 77.6743 35.304H75.6743ZM73.7103 37.164C72.5584 37.164 71.7983 36.3236 71.7983 35.304H69.7983C69.7983 37.4044 71.4301 39.164 73.7103 39.164V37.164ZM71.7983 35.304C71.7983 34.2844 72.5584 33.444 73.7103 33.444V31.444C71.4301 31.444 69.7983 33.2036 69.7983 35.304H71.7983ZM76.1023 68H71.4223V70H76.1023V68ZM72.4223 69V43H70.4223V69H72.4223ZM71.4223 44H76.1023V42H71.4223V44ZM75.1023 43V69H77.1023V43H75.1023ZM98.9319 59.796V58.796H97.9406L97.9319 59.7872L98.9319 59.796ZM99.4519 59.796H100.452V58.796H99.4519V59.796ZM84.0599 43.52H85.0599V42.52H84.0599V43.52ZM79.2239 43.52H78.2239V44.52H79.2239V43.52ZM79.2239 43V42H78.2239V43H79.2239ZM84.0599 43V44H84.615L84.9086 43.5288L84.0599 43ZM88.2719 36.24V35.24H87.7167L87.4231 35.7112L88.2719 36.24ZM88.7919 36.24H89.7919V35.24H88.7919V36.24ZM88.7919 43H87.7919V44H88.7919V43ZM98.9319 43H99.9319V42H98.9319V43ZM98.9319 43.52V44.52H99.9319V43.52H98.9319ZM88.7919 43.52V42.52H87.7919V43.52H88.7919ZM98.9319 60.796H99.4519V58.796H98.9319V60.796ZM98.4519 59.796C98.4519 62.9873 97.6362 65.1457 96.4673 66.4919C95.3096 67.8251 93.7148 68.468 91.9119 68.468V70.468C94.217 70.468 96.3921 69.6289 97.9774 67.8031C99.5516 65.9903 100.452 63.3127 100.452 59.796H98.4519ZM91.9119 68.468C89.9634 68.468 88.2753 67.9111 87.0791 66.7638C85.8925 65.6258 85.0599 63.7821 85.0599 60.94H83.0599C83.0599 64.1819 84.0212 66.6022 85.6947 68.2072C87.3584 69.8029 89.5963 70.468 91.9119 70.468V68.468ZM85.0599 60.94V43.52H83.0599V60.94H85.0599ZM84.0599 42.52H79.2239V44.52H84.0599V42.52ZM80.2239 43.52V43H78.2239V43.52H80.2239ZM79.2239 44H84.0599V42H79.2239V44ZM84.9086 43.5288L89.1206 36.7688L87.4231 35.7112L83.2111 42.4712L84.9086 43.5288ZM88.2719 37.24H88.7919V35.24H88.2719V37.24ZM87.7919 36.24V43H89.7919V36.24H87.7919ZM88.7919 44H98.9319V42H88.7919V44ZM97.9319 43V43.52H99.9319V43H97.9319ZM98.9319 42.52H88.7919V44.52H98.9319V42.52ZM87.7919 43.52V62.24H89.7919V43.52H87.7919ZM87.7919 62.24C87.7919 64.2906 88.1835 66.022 89.1479 67.2562C90.1497 68.5382 91.634 69.116 93.4199 69.116V67.116C92.0858 67.116 91.256 66.7058 90.7238 66.0248C90.1543 65.296 89.7919 64.0894 89.7919 62.24H87.7919ZM93.4199 69.116C95.1769 69.116 96.8432 68.3807 98.0474 66.7802C99.2281 65.2111 99.9047 62.8943 99.9318 59.8048L97.9319 59.7872C97.907 62.6257 97.2837 64.4689 96.4493 65.5778C95.6385 66.6553 94.5749 67.116 93.4199 67.116V69.116ZM128.566 31.872L129.503 32.2211L130.006 30.872H128.566V31.872ZM114.734 69V70H115.429L115.671 69.3491L114.734 69ZM110.262 69L109.325 68.6509L108.822 70H110.262V69ZM124.094 31.872V30.872H123.4L123.157 31.5229L124.094 31.872ZM127.629 31.5229L113.797 68.6509L115.671 69.3491L129.503 32.2211L127.629 31.5229ZM114.734 68H110.262V70H114.734V68ZM111.199 69.3491L125.031 32.2211L123.157 31.5229L109.325 68.6509L111.199 69.3491ZM124.094 32.872H128.566V30.872H124.094V32.872ZM162.791 52.308H161.791V53.308H162.791V52.308ZM162.791 51.788V50.788H161.791V51.788H162.791ZM176.467 51.788H177.467V50.788H176.467V51.788ZM176.467 69.52V70.52H177.467V69.52H176.467ZM175.947 69.52L175.203 70.188L175.501 70.52H175.947V69.52ZM171.839 64.944L172.583 64.276L171.838 63.4462L171.094 64.2768L171.839 64.944ZM176.103 47.42V48.42H177.142L177.102 47.3822L176.103 47.42ZM175.583 47.42L174.584 47.4609L174.623 48.42H175.583V47.42ZM171.475 64.528L172.254 65.1548L172.475 64.8803V64.528H171.475ZM171.475 52.308H172.475V51.308H171.475V52.308ZM163.791 52.308V51.788H161.791V52.308H163.791ZM162.791 52.788H176.467V50.788H162.791V52.788ZM175.467 51.788V69.52H177.467V51.788H175.467ZM176.467 68.52H175.947V70.52H176.467V68.52ZM176.691 68.852L172.583 64.276L171.095 65.612L175.203 70.188L176.691 68.852ZM171.094 64.2768C169.035 66.575 165.713 68.52 161.023 68.52V70.52C166.318 70.52 170.171 68.305 172.584 65.6112L171.094 64.2768ZM161.023 68.52C155.888 68.52 151.263 66.8011 147.932 63.7456C144.611 60.6992 142.523 56.2774 142.523 50.748H140.523C140.523 56.8146 142.829 61.7788 146.58 65.2194C150.321 68.6509 155.446 70.52 161.023 70.52V68.52ZM142.523 50.748C142.523 40.3246 149.879 33.08 159.983 33.08V31.08C148.767 31.08 140.523 39.2274 140.523 50.748H142.523ZM159.983 33.08C164.35 33.08 168.033 34.4419 170.659 36.8759C173.28 39.3052 174.931 42.8772 175.104 47.4578L177.102 47.3822C176.912 42.3428 175.078 38.2448 172.018 35.409C168.964 32.5781 164.768 31.08 159.983 31.08V33.08ZM176.103 46.42H175.583V48.42H176.103V46.42ZM176.582 47.3791C176.198 37.982 169.702 31.964 161.491 31.964V33.964C168.568 33.964 174.241 39.074 174.584 47.4609L176.582 47.3791ZM161.491 31.964C156.955 31.964 153.059 33.8519 150.314 37.169C147.581 40.4719 146.035 45.1329 146.035 50.644H148.035C148.035 45.4951 149.479 41.3161 151.855 38.444C154.22 35.5861 157.551 33.964 161.491 33.964V31.964ZM146.035 50.644C146.035 56.2104 147.622 60.9744 150.431 64.3664C153.252 67.7722 157.265 69.74 161.959 69.74V67.74C157.866 67.74 154.416 66.0418 151.972 63.0906C149.516 60.1256 148.035 55.8416 148.035 50.644H146.035ZM161.959 69.74C166.569 69.74 170.135 67.7897 172.254 65.1548L170.696 63.9012C168.967 66.0503 165.981 67.74 161.959 67.74V69.74ZM172.475 64.528V52.308H170.475V64.528H172.475ZM171.475 51.308H162.791V53.308H171.475V51.308ZM186.805 69V70H187.805V69H186.805ZM182.125 69H181.125V70H182.125V69ZM182.125 43V42H181.125V43H182.125ZM186.805 43H187.805V42H186.805V43ZM184.413 33.444C185.629 33.444 186.377 34.2963 186.377 35.304H188.377C188.377 33.1917 186.734 31.444 184.413 31.444V33.444ZM186.377 35.304C186.377 36.3117 185.629 37.164 184.413 37.164V39.164C186.734 39.164 188.377 37.4163 188.377 35.304H186.377ZM184.413 37.164C183.261 37.164 182.501 36.3236 182.501 35.304H180.501C180.501 37.4044 182.133 39.164 184.413 39.164V37.164ZM182.501 35.304C182.501 34.2844 183.261 33.444 184.413 33.444V31.444C182.133 31.444 180.501 33.2036 180.501 35.304H182.501ZM186.805 68H182.125V70H186.805V68ZM183.125 69V43H181.125V69H183.125ZM182.125 44H186.805V42H182.125V44ZM185.805 43V69H187.805V43H185.805ZM209.635 59.796V58.796H208.644L208.635 59.7872L209.635 59.796ZM210.155 59.796H211.155V58.796H210.155V59.796ZM194.763 43.52H195.763V42.52H194.763V43.52ZM189.927 43.52H188.927V44.52H189.927V43.52ZM189.927 43V42H188.927V43H189.927ZM194.763 43V44H195.318L195.612 43.5288L194.763 43ZM198.975 36.24V35.24H198.42L198.126 35.7112L198.975 36.24ZM199.495 36.24H200.495V35.24H199.495V36.24ZM199.495 43H198.495V44H199.495V43ZM209.635 43H210.635V42H209.635V43ZM209.635 43.52V44.52H210.635V43.52H209.635ZM199.495 43.52V42.52H198.495V43.52H199.495ZM209.635 60.796H210.155V58.796H209.635V60.796ZM209.155 59.796C209.155 62.9873 208.339 65.1457 207.17 66.4919C206.013 67.8251 204.418 68.468 202.615 68.468V70.468C204.92 70.468 207.095 69.6289 208.681 67.8031C210.255 65.9903 211.155 63.3127 211.155 59.796H209.155ZM202.615 68.468C200.667 68.468 198.978 67.9111 197.782 66.7638C196.596 65.6258 195.763 63.7821 195.763 60.94H193.763C193.763 64.1819 194.724 66.6022 196.398 68.2072C198.062 69.8029 200.299 70.468 202.615 70.468V68.468ZM195.763 60.94V43.52H193.763V60.94H195.763ZM194.763 42.52H189.927V44.52H194.763V42.52ZM190.927 43.52V43H188.927V43.52H190.927ZM189.927 44H194.763V42H189.927V44ZM195.612 43.5288L199.824 36.7688L198.126 35.7112L193.914 42.4712L195.612 43.5288ZM198.975 37.24H199.495V35.24H198.975V37.24ZM198.495 36.24V43H200.495V36.24H198.495ZM199.495 44H209.635V42H199.495V44ZM208.635 43V43.52H210.635V43H208.635ZM209.635 42.52H199.495V44.52H209.635V42.52ZM198.495 43.52V62.24H200.495V43.52H198.495ZM198.495 62.24C198.495 64.2906 198.887 66.022 199.851 67.2562C200.853 68.5382 202.337 69.116 204.123 69.116V67.116C202.789 67.116 201.959 66.7058 201.427 66.0248C200.857 65.296 200.495 64.0894 200.495 62.24H198.495ZM204.123 69.116C205.88 69.116 207.546 68.3807 208.751 66.7802C209.931 65.2111 210.608 62.8943 210.635 59.8048L208.635 59.7872C208.61 62.6257 207.987 64.4689 207.152 65.5778C206.342 66.6553 205.278 67.116 204.123 67.116V69.116ZM238.168 49.552V50.552H239.168V49.552H238.168ZM238.168 32.6V31.6H237.168V32.6H238.168ZM243.108 32.6H244.108V31.6H243.108V32.6ZM243.108 69V70H244.108V69H243.108ZM238.168 69H237.168V70H238.168V69ZM238.168 50.072H239.168V49.072H238.168V50.072ZM218.356 50.072V49.072H217.356V50.072H218.356ZM218.356 69V70H219.356V69H218.356ZM213.416 69H212.416V70H213.416V69ZM213.416 32.6V31.6H212.416V32.6H213.416ZM218.356 32.6H219.356V31.6H218.356V32.6ZM218.356 49.552H217.356V50.552H218.356V49.552ZM239.168 49.552V32.6H237.168V49.552H239.168ZM238.168 33.6H243.108V31.6H238.168V33.6ZM242.108 32.6V69H244.108V32.6H242.108ZM243.108 68H238.168V70H243.108V68ZM239.168 69V50.072H237.168V69H239.168ZM238.168 49.072H218.356V51.072H238.168V49.072ZM217.356 50.072V69H219.356V50.072H217.356ZM218.356 68H213.416V70H218.356V68ZM214.416 69V32.6H212.416V69H214.416ZM213.416 33.6H218.356V31.6H213.416V33.6ZM217.356 32.6V49.552H219.356V32.6H217.356ZM218.356 50.552H238.168V48.552H218.356V50.552ZM268.185 43V42H267.185V43H268.185ZM272.917 43H273.917V42H272.917V43ZM272.917 69.104V70.104H273.917V69.104H272.917ZM272.397 69.104L271.483 69.5092L271.746 70.104H272.397V69.104ZM268.341 59.952L269.255 59.5468L267.931 56.559L267.357 59.7762L268.341 59.952ZM249.101 43V42H248.101V43H249.101ZM253.781 43H254.781V42H253.781V43ZM269.185 56V43H267.185V56H269.185ZM268.185 44H272.917V42H268.185V44ZM271.917 43V69.104H273.917V43H271.917ZM272.917 68.104H272.397V70.104H272.917V68.104ZM273.311 68.6988L269.255 59.5468L267.427 60.3572L271.483 69.5092L273.311 68.6988ZM267.357 59.7762C266.863 62.5416 265.804 64.724 264.293 66.2061C262.797 67.6732 260.793 68.52 258.253 68.52V70.52C261.277 70.52 263.797 69.4948 265.694 67.6339C267.576 65.788 268.779 63.1864 269.325 60.1278L267.357 59.7762ZM258.253 68.52C255.723 68.52 253.711 67.6898 252.33 66.2582C250.946 64.8235 250.101 62.6864 250.101 59.9H248.101C248.101 63.0936 249.076 65.7665 250.89 67.6468C252.707 69.5302 255.271 70.52 258.253 70.52V68.52ZM250.101 59.9V43H248.101V59.9H250.101ZM249.101 44H253.781V42H249.101V44ZM252.781 43V60.992H254.781V43H252.781ZM252.781 60.992C252.781 63.4563 253.455 65.4888 254.75 66.9161C256.055 68.3538 257.889 69.064 259.969 69.064V67.064C258.357 67.064 257.097 66.5262 256.231 65.5719C255.355 64.6072 254.781 63.1037 254.781 60.992H252.781ZM259.969 69.064C262.857 69.064 265.201 67.5577 266.782 65.179C268.348 62.8225 269.185 59.5992 269.185 56H267.185C267.185 59.3168 266.41 62.1255 265.116 64.072C263.837 65.9963 262.072 67.064 259.969 67.064V69.064ZM283.645 60.576L284.618 60.344L283.963 57.5981L282.743 60.144L283.645 60.576ZM279.485 69.26V70.26H280.115L280.387 69.692L279.485 69.26ZM278.965 69.26H277.965V70.26H278.965V69.26ZM278.965 32.6V31.6H277.965V32.6H278.965ZM283.697 32.6H284.697V31.6H283.697V32.6ZM283.697 51.06H282.697L284.665 51.3113L283.697 51.06ZM294.357 43.48C297.358 43.48 299.897 44.6387 301.7 46.7223C303.512 48.8171 304.641 51.9216 304.641 55.896H306.641C306.641 51.5504 305.404 47.9469 303.212 45.4137C301.011 42.8693 297.909 41.48 294.357 41.48V43.48ZM304.641 55.896C304.641 59.9501 303.498 63.107 301.666 65.2338C299.844 67.349 297.279 68.52 294.253 68.52V70.52C297.832 70.52 300.961 69.117 303.181 66.5392C305.392 63.973 306.641 60.3179 306.641 55.896H304.641ZM294.253 68.52C291.76 68.52 289.682 67.7691 288.074 66.4098C286.46 65.0456 285.254 63.0124 284.618 60.344L282.673 60.808C283.388 63.8076 284.783 66.2464 286.783 67.9372C288.789 69.6329 291.338 70.52 294.253 70.52V68.52ZM282.743 60.144L278.583 68.828L280.387 69.692L284.547 61.008L282.743 60.144ZM279.485 68.26H278.965V70.26H279.485V68.26ZM279.965 69.26V32.6H277.965V69.26H279.965ZM278.965 33.6H283.697V31.6H278.965V33.6ZM282.697 32.6V51.06H284.697V32.6H282.697ZM284.665 51.3113C285.322 48.7808 286.546 46.834 288.173 45.5201C289.798 44.209 291.884 43.48 294.357 43.48V41.48C291.475 41.48 288.933 42.337 286.917 43.9638C284.905 45.588 283.476 47.9312 282.729 50.8087L284.665 51.3113ZM292.381 69.22C295.134 69.22 297.499 67.7717 299.139 65.3948C300.769 63.0317 301.701 59.739 301.701 55.896H299.701C299.701 59.437 298.84 62.3063 297.493 64.2592C296.155 66.1983 294.36 67.22 292.381 67.22V69.22ZM301.701 55.896C301.701 52.1022 300.767 48.8595 299.142 46.5349C297.507 44.1969 295.155 42.78 292.433 42.78V44.78C294.392 44.78 296.174 45.7811 297.503 47.6811C298.841 49.5945 299.701 52.4098 299.701 55.896H301.701ZM292.433 42.78C286.689 42.78 282.645 48.3556 282.645 55.896H284.645C284.645 48.8764 288.298 44.78 292.433 44.78V42.78ZM282.645 55.896C282.645 59.7502 283.635 63.05 285.351 65.4144C287.077 67.7918 289.545 69.22 292.381 69.22V67.22C290.278 67.22 288.377 66.1782 286.97 64.2396C285.553 62.288 284.645 59.4258 284.645 55.896H282.645Z" fill="black"/>
</svg>
