<svg width="100" height="100" viewBox="0 0 100 100" fill="none" xmlns="http://www.w3.org/2000/svg">
<g clip-path="url(#clip0_22_53)">
<path d="M98.11 45.54L54.45 1.89001C53.8535 1.29074 53.1445 0.815219 52.3636 0.490745C51.5828 0.16627 50.7456 -0.000762939 49.9 -0.000762939C49.0545 -0.000762939 48.2172 0.16627 47.4364 0.490745C46.6556 0.815219 45.9466 1.29074 45.35 1.89001L36.28 11L47.78 22.5C49.1363 22.0389 50.5947 21.9678 51.9894 22.2949C53.384 22.622 54.6588 23.3342 55.6686 24.3502C56.6784 25.3662 57.3826 26.6454 57.7011 28.042C58.0196 29.4386 57.9395 30.8966 57.47 32.25L68.55 43.29C70.2019 42.7114 72.0022 42.7167 73.6507 43.305C75.2991 43.8934 76.6959 45.0292 77.6081 46.523C78.5203 48.0168 78.8926 49.7782 78.663 51.5134C78.4334 53.2485 77.6158 54.8525 76.3465 56.0576C75.0771 57.2628 73.433 57.9962 71.6882 58.1356C69.9435 58.2749 68.2038 57.8118 66.7593 56.8234C65.3148 55.8351 64.2528 54.3813 63.7507 52.7046C63.2486 51.0279 63.3366 49.2297 64 47.61L53.62 37.27V64.47C55.0738 65.1886 56.262 66.3499 57.0136 67.7869C57.7652 69.2239 58.0413 70.8623 57.8022 72.4663C57.5631 74.0702 56.8212 75.5569 55.6833 76.7122C54.5453 77.8676 53.07 78.632 51.4699 78.8953C49.8698 79.1587 48.2274 78.9074 46.7791 78.1777C45.3309 77.448 44.1517 76.2775 43.4112 74.8348C42.6707 73.3921 42.4071 71.7516 42.6585 70.1496C42.9099 68.5475 43.6632 67.0666 44.81 65.92C45.5314 65.207 46.3837 64.6399 47.32 64.25V36.8C46.3812 36.4103 45.5283 35.8394 44.81 35.12C43.7349 34.0464 43.0038 32.677 42.71 31.1864C42.4161 29.6957 42.5728 28.1513 43.16 26.75L31.82 15.41L1.89004 45.34C1.29046 45.9374 0.814728 46.6473 0.490119 47.4289C0.16551 48.2106 -0.00158691 49.0486 -0.00158691 49.895C-0.00158691 50.7414 0.16551 51.5794 0.490119 52.3611C0.814728 53.1427 1.29046 53.8526 1.89004 54.45L45.55 98.11C46.1474 98.7096 46.8573 99.1853 47.639 99.5099C48.4206 99.8345 49.2587 100.002 50.105 100.002C50.9514 100.002 51.7895 99.8345 52.5711 99.5099C53.3528 99.1853 54.0626 98.7096 54.66 98.11L98.11 54.66C99.3191 53.4505 99.9984 51.8102 99.9984 50.1C99.9984 48.3898 99.3191 46.7496 98.11 45.54Z" fill="#009563"/>
</g>
<defs>
<clipPath id="clip0_22_53">
<rect width="100" height="100" fill="white"/>
</clipPath>
</defs>
</svg>
