<svg width="302" height="102" viewBox="0 0 302 102" fill="none" xmlns="http://www.w3.org/2000/svg">
<rect x="0.5" y="0.5" width="301" height="101" rx="50.5" fill="#5266AB" stroke="#F7D9D3"/>
<path d="M77.344 32.923L73.684 32.496V30.3H86.86V32.496L83.2 32.923V49.088H102.842V32.923L99.182 32.496V30.3H112.358V32.496L108.698 32.923V70.377L112.358 70.804V73H99.182V70.804L102.842 70.377V51.467H83.2V70.377L86.86 70.804V73H73.684V70.804L77.344 70.377V32.923ZM125.392 73V70.804L129.052 70.377V32.496C127.466 32.496 126.084 32.7807 124.904 33.35C123.725 33.8787 122.688 34.6107 121.793 35.546C120.899 36.4407 120.106 37.498 119.414 38.718C118.764 39.938 118.154 41.219 117.584 42.561L115.876 42.317L118.133 29.385C119.394 29.751 120.553 29.995 121.61 30.117C122.83 30.239 124.213 30.3 125.758 30.3H138.202C139.87 30.3 141.252 30.2593 142.35 30.178C143.448 30.056 144.607 29.7917 145.827 29.385L148.084 42.317L146.376 42.561C145.807 41.219 145.177 39.938 144.485 38.718C143.835 37.498 143.062 36.4407 142.167 35.546C141.273 34.6107 140.236 33.8787 139.056 33.35C137.877 32.7807 136.494 32.496 134.908 32.496V70.377L138.568 70.804V73H125.392ZM158.617 35.729H158.495L158.068 58.421C158.027 60.129 157.987 61.6337 157.946 62.935C157.946 64.1957 157.946 65.3547 157.946 66.412C157.946 67.9573 158.373 69.035 159.227 69.645C160.122 70.255 161.342 70.6413 162.887 70.804V73H150.077V70.804C151.175 70.56 152.029 70.316 152.639 70.072C153.29 69.7873 153.798 69.3603 154.164 68.791C154.53 68.181 154.774 67.3677 154.896 66.351C155.018 65.3343 155.099 63.9313 155.14 62.142L155.75 32.923L152.151 32.496V30.3H162.338L172.586 56.286L182.956 30.3H193.143V32.496L189.422 32.923L190.581 70.377L194.241 70.804V73H180.943V70.804L184.603 70.377L183.749 35.363H183.627L171.732 65.07H170.268L158.617 35.729ZM202.74 32.923L199.08 32.496V30.3H212.256V32.496L208.596 32.923V70.499C209.287 70.5803 209.958 70.6617 210.609 70.743C211.259 70.7837 211.91 70.804 212.561 70.804C214.635 70.804 216.444 70.6007 217.99 70.194C219.576 69.7873 220.979 69.157 222.199 68.303C223.419 67.449 224.476 66.351 225.371 65.009C226.265 63.6263 227.058 61.959 227.75 60.007L229.702 60.312L226.713 73.915C226.103 73.7117 225.513 73.549 224.944 73.427C224.374 73.3457 223.805 73.2643 223.236 73.183C222.626 73.1017 221.975 73.0407 221.284 73C220.633 73 219.901 73 219.088 73H199.08V70.804L202.74 70.377V32.923Z" fill="#F7D9D3"/>
<path d="M77.344 32.923H78.344V32.0329L77.4599 31.9297L77.344 32.923ZM73.684 32.496H72.684V33.3861L73.5681 33.4893L73.684 32.496ZM73.684 30.3V29.3H72.684V30.3H73.684ZM86.86 30.3H87.86V29.3H86.86V30.3ZM86.86 32.496L86.9759 33.4893L87.86 33.3861V32.496H86.86ZM83.2 32.923L83.0841 31.9297L82.2 32.0329V32.923H83.2ZM83.2 49.088H82.2V50.088H83.2V49.088ZM102.842 49.088V50.088H103.842V49.088H102.842ZM102.842 32.923H103.842V32.0329L102.958 31.9297L102.842 32.923ZM99.182 32.496H98.182V33.3861L99.0661 33.4893L99.182 32.496ZM99.182 30.3V29.3H98.182V30.3H99.182ZM112.358 30.3H113.358V29.3H112.358V30.3ZM112.358 32.496L112.474 33.4893L113.358 33.3861V32.496H112.358ZM108.698 32.923L108.582 31.9297L107.698 32.0329V32.923H108.698ZM108.698 70.377H107.698V71.2671L108.582 71.3703L108.698 70.377ZM112.358 70.804H113.358V69.9139L112.474 69.8107L112.358 70.804ZM112.358 73V74H113.358V73H112.358ZM99.182 73H98.182V74H99.182V73ZM99.182 70.804L99.0661 69.8107L98.182 69.9139V70.804H99.182ZM102.842 70.377L102.958 71.3703L103.842 71.2671V70.377H102.842ZM102.842 51.467H103.842V50.467H102.842V51.467ZM83.2 51.467V50.467H82.2V51.467H83.2ZM83.2 70.377H82.2V71.2671L83.0841 71.3703L83.2 70.377ZM86.86 70.804H87.86V69.9139L86.9759 69.8107L86.86 70.804ZM86.86 73V74H87.86V73H86.86ZM73.684 73H72.684V74H73.684V73ZM73.684 70.804L73.5681 69.8107L72.684 69.9139V70.804H73.684ZM77.344 70.377L77.4599 71.3703L78.344 71.2671V70.377H77.344ZM77.4599 31.9297L73.7999 31.5027L73.5681 33.4893L77.2281 33.9163L77.4599 31.9297ZM74.684 32.496V30.3H72.684V32.496H74.684ZM73.684 31.3H86.86V29.3H73.684V31.3ZM85.86 30.3V32.496H87.86V30.3H85.86ZM86.7441 31.5027L83.0841 31.9297L83.3159 33.9163L86.9759 33.4893L86.7441 31.5027ZM82.2 32.923V49.088H84.2V32.923H82.2ZM83.2 50.088H102.842V48.088H83.2V50.088ZM103.842 49.088V32.923H101.842V49.088H103.842ZM102.958 31.9297L99.2979 31.5027L99.0661 33.4893L102.726 33.9163L102.958 31.9297ZM100.182 32.496V30.3H98.182V32.496H100.182ZM99.182 31.3H112.358V29.3H99.182V31.3ZM111.358 30.3V32.496H113.358V30.3H111.358ZM112.242 31.5027L108.582 31.9297L108.814 33.9163L112.474 33.4893L112.242 31.5027ZM107.698 32.923V70.377H109.698V32.923H107.698ZM108.582 71.3703L112.242 71.7973L112.474 69.8107L108.814 69.3837L108.582 71.3703ZM111.358 70.804V73H113.358V70.804H111.358ZM112.358 72H99.182V74H112.358V72ZM100.182 73V70.804H98.182V73H100.182ZM99.2979 71.7973L102.958 71.3703L102.726 69.3837L99.0661 69.8107L99.2979 71.7973ZM103.842 70.377V51.467H101.842V70.377H103.842ZM102.842 50.467H83.2V52.467H102.842V50.467ZM82.2 51.467V70.377H84.2V51.467H82.2ZM83.0841 71.3703L86.7441 71.7973L86.9759 69.8107L83.3159 69.3837L83.0841 71.3703ZM85.86 70.804V73H87.86V70.804H85.86ZM86.86 72H73.684V74H86.86V72ZM74.684 73V70.804H72.684V73H74.684ZM73.7999 71.7973L77.4599 71.3703L77.2281 69.3837L73.5681 69.8107L73.7999 71.7973ZM78.344 70.377V32.923H76.344V70.377H78.344ZM125.392 73H124.392V74H125.392V73ZM125.392 70.804L125.277 69.8107L124.392 69.9139V70.804H125.392ZM129.052 70.377L129.168 71.3703L130.052 71.2671V70.377H129.052ZM129.052 32.496H130.052V31.496H129.052V32.496ZM124.904 33.35L125.314 34.2625L125.326 34.2567L125.339 34.2505L124.904 33.35ZM121.793 35.546L122.501 36.2531L122.508 36.2452L122.516 36.2372L121.793 35.546ZM119.414 38.718L118.544 38.225L118.538 38.2361L118.532 38.2474L119.414 38.718ZM117.584 42.561L117.443 43.5509L118.205 43.6597L118.505 42.9515L117.584 42.561ZM115.876 42.317L114.891 42.1451L114.714 43.1611L115.735 43.3069L115.876 42.317ZM118.133 29.385L118.412 28.4247L117.34 28.1134L117.148 29.2131L118.133 29.385ZM121.61 30.117L121.496 31.1104L121.503 31.1113L121.511 31.112L121.61 30.117ZM142.35 30.178L142.424 31.1753L142.443 31.1739L142.461 31.1719L142.35 30.178ZM145.827 29.385L146.813 29.2131L146.613 28.0691L145.511 28.4363L145.827 29.385ZM148.084 42.317L148.226 43.3069L149.247 43.1611L149.07 42.1451L148.084 42.317ZM146.376 42.561L145.456 42.9515L145.756 43.6597L146.518 43.5509L146.376 42.561ZM144.485 38.718L143.603 39.1886L143.609 39.1999L143.615 39.211L144.485 38.718ZM142.167 35.546L141.445 36.2372L141.452 36.2452L141.46 36.2531L142.167 35.546ZM139.056 33.35L138.622 34.2505L138.634 34.2567L138.647 34.2625L139.056 33.35ZM134.908 32.496V31.496H133.908V32.496H134.908ZM134.908 70.377H133.908V71.2671L134.793 71.3703L134.908 70.377ZM138.568 70.804H139.568V69.9139L138.684 69.8107L138.568 70.804ZM138.568 73V74H139.568V73H138.568ZM126.392 73V70.804H124.392V73H126.392ZM125.508 71.7973L129.168 71.3703L128.937 69.3837L125.277 69.8107L125.508 71.7973ZM130.052 70.377V32.496H128.052V70.377H130.052ZM129.052 31.496C127.347 31.496 125.81 31.8023 124.47 32.4494L125.339 34.2505C126.357 33.759 127.586 33.496 129.052 33.496V31.496ZM124.495 32.4375C123.198 33.0191 122.055 33.8263 121.071 34.8548L122.516 36.2372C123.322 35.3951 124.252 34.7383 125.314 34.2625L124.495 32.4375ZM121.086 34.8389C120.122 35.8037 119.275 36.935 118.544 38.225L120.284 39.211C120.936 38.061 121.676 37.0776 122.501 36.2531L121.086 34.8389ZM118.532 38.2474C117.867 39.4949 117.244 40.8027 116.664 42.1704L118.505 42.9515C119.063 41.6353 119.661 40.3811 120.297 39.1886L118.532 38.2474ZM117.726 41.571L116.018 41.327L115.735 43.3069L117.443 43.5509L117.726 41.571ZM116.862 42.4889L119.119 29.5569L117.148 29.2131L114.891 42.1451L116.862 42.4889ZM117.855 30.3453C119.157 30.7235 120.372 30.9807 121.496 31.1104L121.725 29.1236C120.734 29.0093 119.631 28.7785 118.412 28.4247L117.855 30.3453ZM121.511 31.112C122.771 31.2381 124.188 31.3 125.758 31.3V29.3C124.238 29.3 122.89 29.2399 121.71 29.122L121.511 31.112ZM125.758 31.3H138.202V29.3H125.758V31.3ZM138.202 31.3C139.883 31.3 141.293 31.2591 142.424 31.1753L142.277 29.1807C141.212 29.2596 139.856 29.3 138.202 29.3V31.3ZM142.461 31.1719C143.639 31.041 144.867 30.7591 146.144 30.3337L145.511 28.4363C144.347 28.8242 143.258 29.071 142.24 29.1841L142.461 31.1719ZM144.842 29.5569L147.099 42.4889L149.07 42.1451L146.813 29.2131L144.842 29.5569ZM147.943 41.327L146.235 41.571L146.518 43.5509L148.226 43.3069L147.943 41.327ZM147.297 42.1704C146.713 40.7947 146.066 39.4794 145.355 38.225L143.615 39.211C144.287 40.3966 144.901 41.6433 145.456 42.9515L147.297 42.1704ZM145.368 38.2474C144.675 36.9484 143.845 35.8095 142.875 34.8389L141.46 36.2531C142.279 37.0719 142.995 38.0476 143.603 39.1886L145.368 38.2474ZM142.89 34.8548C141.906 33.8263 140.763 33.0191 139.466 32.4375L138.647 34.2625C139.709 34.7383 140.639 35.3951 141.445 36.2372L142.89 34.8548ZM139.491 32.4494C138.151 31.8023 136.614 31.496 134.908 31.496V33.496C136.375 33.496 137.604 33.759 138.622 34.2505L139.491 32.4494ZM133.908 32.496V70.377H135.908V32.496H133.908ZM134.793 71.3703L138.453 71.7973L138.684 69.8107L135.024 69.3837L134.793 71.3703ZM137.568 70.804V73H139.568V70.804H137.568ZM138.568 72H125.392V74H138.568V72ZM158.617 35.729L159.546 35.3599L159.296 34.729H158.617V35.729ZM158.495 35.729V34.729H157.514L157.495 35.7102L158.495 35.729ZM158.068 58.421L159.068 58.4448L159.068 58.4398L158.068 58.421ZM157.946 62.935L156.946 62.9038L156.946 62.9194V62.935H157.946ZM159.227 69.645L158.646 70.4587L158.655 70.4651L158.664 70.4712L159.227 69.645ZM162.887 70.804H163.887V69.9037L162.992 69.8095L162.887 70.804ZM162.887 73V74H163.887V73H162.887ZM150.077 73H149.077V74H150.077V73ZM150.077 70.804L149.86 69.8278L149.077 70.0018V70.804H150.077ZM152.639 70.072L153.01 71.0005L153.025 70.9946L153.04 70.9882L152.639 70.072ZM154.164 68.791L155.005 69.3318L155.014 69.3188L155.021 69.3055L154.164 68.791ZM155.14 62.142L156.14 62.1647L156.14 62.1629L155.14 62.142ZM155.75 32.923L156.75 32.9439L156.769 32.0369L155.868 31.93L155.75 32.923ZM152.151 32.496H151.151V33.3844L152.033 33.489L152.151 32.496ZM152.151 30.3V29.3H151.151V30.3H152.151ZM162.338 30.3L163.268 29.9331L163.019 29.3H162.338V30.3ZM172.586 56.286L171.656 56.6529L172.58 58.9978L173.515 56.6566L172.586 56.286ZM182.956 30.3V29.3H182.278L182.027 29.9294L182.956 30.3ZM193.143 30.3H194.143V29.3H193.143V30.3ZM193.143 32.496L193.257 33.4895L194.143 33.3878V32.496H193.143ZM189.422 32.923L189.308 31.9295L188.394 32.0344L188.422 32.9539L189.422 32.923ZM190.581 70.377L189.581 70.4079L189.608 71.2703L190.465 71.3703L190.581 70.377ZM194.241 70.804H195.241V69.9139L194.357 69.8107L194.241 70.804ZM194.241 73V74H195.241V73H194.241ZM180.943 73H179.943V74H180.943V73ZM180.943 70.804L180.827 69.8107L179.943 69.9139V70.804H180.943ZM184.603 70.377L184.719 71.3703L185.625 71.2646L185.603 70.3526L184.603 70.377ZM183.749 35.363L184.749 35.3386L184.725 34.363H183.749V35.363ZM183.627 35.363V34.363H182.95L182.699 34.9913L183.627 35.363ZM171.732 65.07V66.07H172.409L172.66 65.4417L171.732 65.07ZM170.268 65.07L169.339 65.4391L169.589 66.07H170.268V65.07ZM158.617 34.729H158.495V36.729H158.617V34.729ZM157.495 35.7102L157.068 58.4022L159.068 58.4398L159.495 35.7478L157.495 35.7102ZM157.068 58.3972C157.028 60.1034 156.987 61.6055 156.946 62.9038L158.945 62.9662C158.986 61.6618 159.027 60.1546 159.068 58.4448L157.068 58.3972ZM156.946 62.935C156.946 62.9375 156.946 62.9399 156.946 62.9424C156.946 62.9448 156.946 62.9473 156.946 62.9498C156.946 62.9522 156.946 62.9547 156.946 62.9571C156.946 62.9596 156.946 62.9621 156.946 62.9645C156.946 62.967 156.946 62.9694 156.946 62.9719C156.946 62.9744 156.946 62.9768 156.946 62.9793C156.946 62.9817 156.946 62.9842 156.946 62.9866C156.946 62.9891 156.946 62.9916 156.946 62.994C156.946 62.9965 156.946 62.9989 156.946 63.0014C156.946 63.0038 156.946 63.0063 156.946 63.0088C156.946 63.0112 156.946 63.0137 156.946 63.0161C156.946 63.0186 156.946 63.021 156.946 63.0235C156.946 63.0259 156.946 63.0284 156.946 63.0308C156.946 63.0333 156.946 63.0357 156.946 63.0382C156.946 63.0406 156.946 63.0431 156.946 63.0455C156.946 63.048 156.946 63.0504 156.946 63.0529C156.946 63.0553 156.946 63.0578 156.946 63.0602C156.946 63.0627 156.946 63.0651 156.946 63.0676C156.946 63.07 156.946 63.0725 156.946 63.0749C156.946 63.0774 156.946 63.0798 156.946 63.0823C156.946 63.0847 156.946 63.0872 156.946 63.0896C156.946 63.0921 156.946 63.0945 156.946 63.0969C156.946 63.0994 156.946 63.1018 156.946 63.1043C156.946 63.1067 156.946 63.1092 156.946 63.1116C156.946 63.1141 156.946 63.1165 156.946 63.1189C156.946 63.1214 156.946 63.1238 156.946 63.1263C156.946 63.1287 156.946 63.1312 156.946 63.1336C156.946 63.136 156.946 63.1385 156.946 63.1409C156.946 63.1434 156.946 63.1458 156.946 63.1482C156.946 63.1507 156.946 63.1531 156.946 63.1556C156.946 63.158 156.946 63.1604 156.946 63.1629C156.946 63.1653 156.946 63.1677 156.946 63.1702C156.946 63.1726 156.946 63.1751 156.946 63.1775C156.946 63.1799 156.946 63.1824 156.946 63.1848C156.946 63.1872 156.946 63.1897 156.946 63.1921C156.946 63.1945 156.946 63.197 156.946 63.1994C156.946 63.2018 156.946 63.2043 156.946 63.2067C156.946 63.2091 156.946 63.2116 156.946 63.214C156.946 63.2164 156.946 63.2189 156.946 63.2213C156.946 63.2237 156.946 63.2262 156.946 63.2286C156.946 63.231 156.946 63.2335 156.946 63.2359C156.946 63.2383 156.946 63.2408 156.946 63.2432C156.946 63.2456 156.946 63.248 156.946 63.2505C156.946 63.2529 156.946 63.2553 156.946 63.2578C156.946 63.2602 156.946 63.2626 156.946 63.265C156.946 63.2675 156.946 63.2699 156.946 63.2723C156.946 63.2748 156.946 63.2772 156.946 63.2796C156.946 63.282 156.946 63.2845 156.946 63.2869C156.946 63.2893 156.946 63.2917 156.946 63.2942C156.946 63.2966 156.946 63.299 156.946 63.3014C156.946 63.3039 156.946 63.3063 156.946 63.3087C156.946 63.3111 156.946 63.3135 156.946 63.316C156.946 63.3184 156.946 63.3208 156.946 63.3232C156.946 63.3256 156.946 63.3281 156.946 63.3305C156.946 63.3329 156.946 63.3353 156.946 63.3377C156.946 63.3402 156.946 63.3426 156.946 63.345C156.946 63.3474 156.946 63.3498 156.946 63.3523C156.946 63.3547 156.946 63.3571 156.946 63.3595C156.946 63.3619 156.946 63.3643 156.946 63.3668C156.946 63.3692 156.946 63.3716 156.946 63.374C156.946 63.3764 156.946 63.3788 156.946 63.3813C156.946 63.3837 156.946 63.3861 156.946 63.3885C156.946 63.3909 156.946 63.3933 156.946 63.3957C156.946 63.3982 156.946 63.4006 156.946 63.403C156.946 63.4054 156.946 63.4078 156.946 63.4102C156.946 63.4126 156.946 63.415 156.946 63.4175C156.946 63.4199 156.946 63.4223 156.946 63.4247C156.946 63.4271 156.946 63.4295 156.946 63.4319C156.946 63.4343 156.946 63.4367 156.946 63.4391C156.946 63.4416 156.946 63.444 156.946 63.4464C156.946 63.4488 156.946 63.4512 156.946 63.4536C156.946 63.456 156.946 63.4584 156.946 63.4608C156.946 63.4632 156.946 63.4656 156.946 63.468C156.946 63.4704 156.946 63.4728 156.946 63.4752C156.946 63.4777 156.946 63.4801 156.946 63.4825C156.946 63.4849 156.946 63.4873 156.946 63.4897C156.946 63.4921 156.946 63.4945 156.946 63.4969C156.946 63.4993 156.946 63.5017 156.946 63.5041C156.946 63.5065 156.946 63.5089 156.946 63.5113C156.946 63.5137 156.946 63.5161 156.946 63.5185C156.946 63.5209 156.946 63.5233 156.946 63.5257C156.946 63.5281 156.946 63.5305 156.946 63.5329C156.946 63.5353 156.946 63.5377 156.946 63.5401C156.946 63.5425 156.946 63.5449 156.946 63.5473C156.946 63.5497 156.946 63.5521 156.946 63.5545C156.946 63.5569 156.946 63.5593 156.946 63.5617C156.946 63.564 156.946 63.5664 156.946 63.5688C156.946 63.5712 156.946 63.5736 156.946 63.576C156.946 63.5784 156.946 63.5808 156.946 63.5832C156.946 63.5856 156.946 63.588 156.946 63.5904C156.946 63.5928 156.946 63.5952 156.946 63.5976C156.946 63.5999 156.946 63.6023 156.946 63.6047C156.946 63.6071 156.946 63.6095 156.946 63.6119C156.946 63.6143 156.946 63.6167 156.946 63.6191C156.946 63.6215 156.946 63.6238 156.946 63.6262C156.946 63.6286 156.946 63.631 156.946 63.6334C156.946 63.6358 156.946 63.6382 156.946 63.6406C156.946 63.643 156.946 63.6453 156.946 63.6477C156.946 63.6501 156.946 63.6525 156.946 63.6549C156.946 63.6573 156.946 63.6597 156.946 63.662C156.946 63.6644 156.946 63.6668 156.946 63.6692C156.946 63.6716 156.946 63.674 156.946 63.6763C156.946 63.6787 156.946 63.6811 156.946 63.6835C156.946 63.6859 156.946 63.6883 156.946 63.6906C156.946 63.693 156.946 63.6954 156.946 63.6978C156.946 63.7002 156.946 63.7025 156.946 63.7049C156.946 63.7073 156.946 63.7097 156.946 63.7121C156.946 63.7144 156.946 63.7168 156.946 63.7192C156.946 63.7216 156.946 63.724 156.946 63.7263C156.946 63.7287 156.946 63.7311 156.946 63.7335C156.946 63.7358 156.946 63.7382 156.946 63.7406C156.946 63.743 156.946 63.7453 156.946 63.7477C156.946 63.7501 156.946 63.7525 156.946 63.7548C156.946 63.7572 156.946 63.7596 156.946 63.762C156.946 63.7643 156.946 63.7667 156.946 63.7691C156.946 63.7715 156.946 63.7738 156.946 63.7762C156.946 63.7786 156.946 63.7809 156.946 63.7833C156.946 63.7857 156.946 63.7881 156.946 63.7904C156.946 63.7928 156.946 63.7952 156.946 63.7975C156.946 63.7999 156.946 63.8023 156.946 63.8047C156.946 63.807 156.946 63.8094 156.946 63.8118C156.946 63.8141 156.946 63.8165 156.946 63.8189C156.946 63.8212 156.946 63.8236 156.946 63.826C156.946 63.8283 156.946 63.8307 156.946 63.8331C156.946 63.8354 156.946 63.8378 156.946 63.8402C156.946 63.8425 156.946 63.8449 156.946 63.8473C156.946 63.8496 156.946 63.852 156.946 63.8543C156.946 63.8567 156.946 63.8591 156.946 63.8614C156.946 63.8638 156.946 63.8662 156.946 63.8685C156.946 63.8709 156.946 63.8732 156.946 63.8756C156.946 63.878 156.946 63.8803 156.946 63.8827C156.946 63.8851 156.946 63.8874 156.946 63.8898C156.946 63.8921 156.946 63.8945 156.946 63.8969C156.946 63.8992 156.946 63.9016 156.946 63.9039C156.946 63.9063 156.946 63.9086 156.946 63.911C156.946 63.9134 156.946 63.9157 156.946 63.9181C156.946 63.9204 156.946 63.9228 156.946 63.9251C156.946 63.9275 156.946 63.9299 156.946 63.9322C156.946 63.9346 156.946 63.9369 156.946 63.9393C156.946 63.9416 156.946 63.944 156.946 63.9463C156.946 63.9487 156.946 63.951 156.946 63.9534C156.946 63.9557 156.946 63.9581 156.946 63.9605C156.946 63.9628 156.946 63.9652 156.946 63.9675C156.946 63.9699 156.946 63.9722 156.946 63.9746C156.946 63.9769 156.946 63.9793 156.946 63.9816C156.946 63.984 156.946 63.9863 156.946 63.9887C156.946 63.991 156.946 63.9934 156.946 63.9957C156.946 63.9981 156.946 64.0004 156.946 64.0027C156.946 64.0051 156.946 64.0074 156.946 64.0098C156.946 64.0121 156.946 64.0145 156.946 64.0168C156.946 64.0192 156.946 64.0215 156.946 64.0239C156.946 64.0262 156.946 64.0286 156.946 64.0309C156.946 64.0332 156.946 64.0356 156.946 64.0379C156.946 64.0403 156.946 64.0426 156.946 64.045C156.946 64.0473 156.946 64.0496 156.946 64.052C156.946 64.0543 156.946 64.0567 156.946 64.059C156.946 64.0614 156.946 64.0637 156.946 64.066C156.946 64.0684 156.946 64.0707 156.946 64.0731C156.946 64.0754 156.946 64.0777 156.946 64.0801C156.946 64.0824 156.946 64.0848 156.946 64.0871C156.946 64.0894 156.946 64.0918 156.946 64.0941C156.946 64.0964 156.946 64.0988 156.946 64.1011C156.946 64.1035 156.946 64.1058 156.946 64.1081C156.946 64.1105 156.946 64.1128 156.946 64.1151C156.946 64.1175 156.946 64.1198 156.946 64.1221C156.946 64.1245 156.946 64.1268 156.946 64.1291C156.946 64.1315 156.946 64.1338 156.946 64.1361C156.946 64.1385 156.946 64.1408 156.946 64.1431C156.946 64.1455 156.946 64.1478 156.946 64.1501C156.946 64.1525 156.946 64.1548 156.946 64.1571C156.946 64.1594 156.946 64.1618 156.946 64.1641C156.946 64.1664 156.946 64.1688 156.946 64.1711C156.946 64.1734 156.946 64.1758 156.946 64.1781C156.946 64.1804 156.946 64.1827 156.946 64.1851C156.946 64.1874 156.946 64.1897 156.946 64.192C156.946 64.1944 156.946 64.1967 156.946 64.199C156.946 64.2013 156.946 64.2037 156.946 64.206C156.946 64.2083 156.946 64.2106 156.946 64.213C156.946 64.2153 156.946 64.2176 156.946 64.2199C156.946 64.2223 156.946 64.2246 156.946 64.2269C156.946 64.2292 156.946 64.2316 156.946 64.2339C156.946 64.2362 156.946 64.2385 156.946 64.2408C156.946 64.2432 156.946 64.2455 156.946 64.2478C156.946 64.2501 156.946 64.2524 156.946 64.2548C156.946 64.2571 156.946 64.2594 156.946 64.2617C156.946 64.264 156.946 64.2664 156.946 64.2687C156.946 64.271 156.946 64.2733 156.946 64.2756C156.946 64.2779 156.946 64.2803 156.946 64.2826C156.946 64.2849 156.946 64.2872 156.946 64.2895C156.946 64.2918 156.946 64.2942 156.946 64.2965C156.946 64.2988 156.946 64.3011 156.946 64.3034C156.946 64.3057 156.946 64.308 156.946 64.3104C156.946 64.3127 156.946 64.315 156.946 64.3173C156.946 64.3196 156.946 64.3219 156.946 64.3242C156.946 64.3265 156.946 64.3289 156.946 64.3312C156.946 64.3335 156.946 64.3358 156.946 64.3381C156.946 64.3404 156.946 64.3427 156.946 64.345C156.946 64.3473 156.946 64.3496 156.946 64.352C156.946 64.3543 156.946 64.3566 156.946 64.3589C156.946 64.3612 156.946 64.3635 156.946 64.3658C156.946 64.3681 156.946 64.3704 156.946 64.3727C156.946 64.375 156.946 64.3773 156.946 64.3796C156.946 64.3819 156.946 64.3843 156.946 64.3866C156.946 64.3889 156.946 64.3912 156.946 64.3935C156.946 64.3958 156.946 64.3981 156.946 64.4004C156.946 64.4027 156.946 64.405 156.946 64.4073C156.946 64.4096 156.946 64.4119 156.946 64.4142C156.946 64.4165 156.946 64.4188 156.946 64.4211C156.946 64.4234 156.946 64.4257 156.946 64.428C156.946 64.4303 156.946 64.4326 156.946 64.4349C156.946 64.4372 156.946 64.4395 156.946 64.4418C156.946 64.4441 156.946 64.4464 156.946 64.4487C156.946 64.451 156.946 64.4533 156.946 64.4556C156.946 64.4579 156.946 64.4602 156.946 64.4625C156.946 64.4648 156.946 64.4671 156.946 64.4694C156.946 64.4717 156.946 64.474 156.946 64.4762C156.946 64.4785 156.946 64.4808 156.946 64.4831C156.946 64.4854 156.946 64.4877 156.946 64.49C156.946 64.4923 156.946 64.4946 156.946 64.4969C156.946 64.4992 156.946 64.5015 156.946 64.5038C156.946 64.5061 156.946 64.5083 156.946 64.5106C156.946 64.5129 156.946 64.5152 156.946 64.5175C156.946 64.5198 156.946 64.5221 156.946 64.5244C156.946 64.5267 156.946 64.529 156.946 64.5312C156.946 64.5335 156.946 64.5358 156.946 64.5381C156.946 64.5404 156.946 64.5427 156.946 64.545C156.946 64.5473 156.946 64.5495 156.946 64.5518C156.946 64.5541 156.946 64.5564 156.946 64.5587C156.946 64.561 156.946 64.5633 156.946 64.5655C156.946 64.5678 156.946 64.5701 156.946 64.5724C156.946 64.5747 156.946 64.577 156.946 64.5792C156.946 64.5815 156.946 64.5838 156.946 64.5861C156.946 64.5884 156.946 64.5907 156.946 64.5929C156.946 64.5952 156.946 64.5975 156.946 64.5998C156.946 64.6021 156.946 64.6043 156.946 64.6066C156.946 64.6089 156.946 64.6112 156.946 64.6135C156.946 64.6157 156.946 64.618 156.946 64.6203C156.946 64.6226 156.946 64.6249 156.946 64.6271C156.946 64.6294 156.946 64.6317 156.946 64.634C156.946 64.6362 156.946 64.6385 156.946 64.6408C156.946 64.6431 156.946 64.6453 156.946 64.6476C156.946 64.6499 156.946 64.6522 156.946 64.6544C156.946 64.6567 156.946 64.659 156.946 64.6613C156.946 64.6635 156.946 64.6658 156.946 64.6681C156.946 64.6704 156.946 64.6726 156.946 64.6749C156.946 64.6772 156.946 64.6795 156.946 64.6817C156.946 64.684 156.946 64.6863 156.946 64.6885C156.946 64.6908 156.946 64.6931 156.946 64.6953C156.946 64.6976 156.946 64.6999 156.946 64.7022C156.946 64.7044 156.946 64.7067 156.946 64.709C156.946 64.7112 156.946 64.7135 156.946 64.7158C156.946 64.718 156.946 64.7203 156.946 64.7226C156.946 64.7248 156.946 64.7271 156.946 64.7294C156.946 64.7316 156.946 64.7339 156.946 64.7362C156.946 64.7384 156.946 64.7407 156.946 64.743C156.946 64.7452 156.946 64.7475 156.946 64.7497C156.946 64.752 156.946 64.7543 156.946 64.7565C156.946 64.7588 156.946 64.7611 156.946 64.7633C156.946 64.7656 156.946 64.7679 156.946 64.7701C156.946 64.7724 156.946 64.7746 156.946 64.7769C156.946 64.7792 156.946 64.7814 156.946 64.7837C156.946 64.7859 156.946 64.7882 156.946 64.7905C156.946 64.7927 156.946 64.795 156.946 64.7972C156.946 64.7995 156.946 64.8017 156.946 64.804C156.946 64.8063 156.946 64.8085 156.946 64.8108C156.946 64.813 156.946 64.8153 156.946 64.8175C156.946 64.8198 156.946 64.8221 156.946 64.8243C156.946 64.8266 156.946 64.8288 156.946 64.8311C156.946 64.8333 156.946 64.8356 156.946 64.8378C156.946 64.8401 156.946 64.8423 156.946 64.8446C156.946 64.8468 156.946 64.8491 156.946 64.8514C156.946 64.8536 156.946 64.8559 156.946 64.8581C156.946 64.8604 156.946 64.8626 156.946 64.8649C156.946 64.8671 156.946 64.8694 156.946 64.8716C156.946 64.8739 156.946 64.8761 156.946 64.8784C156.946 64.8806 156.946 64.8829 156.946 64.8851C156.946 64.8874 156.946 64.8896 156.946 64.8918C156.946 64.8941 156.946 64.8963 156.946 64.8986C156.946 64.9008 156.946 64.9031 156.946 64.9053C156.946 64.9076 156.946 64.9098 156.946 64.9121C156.946 64.9143 156.946 64.9166 156.946 64.9188C156.946 64.921 156.946 64.9233 156.946 64.9255C156.946 64.9278 156.946 64.93 156.946 64.9323C156.946 64.9345 156.946 64.9367 156.946 64.939C156.946 64.9412 156.946 64.9435 156.946 64.9457C156.946 64.948 156.946 64.9502 156.946 64.9524C156.946 64.9547 156.946 64.9569 156.946 64.9592C156.946 64.9614 156.946 64.9636 156.946 64.9659C156.946 64.9681 156.946 64.9703 156.946 64.9726C156.946 64.9748 156.946 64.9771 156.946 64.9793C156.946 64.9815 156.946 64.9838 156.946 64.986C156.946 64.9882 156.946 64.9905 156.946 64.9927C156.946 64.995 156.946 64.9972 156.946 64.9994C156.946 65.0017 156.946 65.0039 156.946 65.0061C156.946 65.0084 156.946 65.0106 156.946 65.0128C156.946 65.0151 156.946 65.0173 156.946 65.0195C156.946 65.0218 156.946 65.024 156.946 65.0262C156.946 65.0285 156.946 65.0307 156.946 65.0329C156.946 65.0352 156.946 65.0374 156.946 65.0396C156.946 65.0418 156.946 65.0441 156.946 65.0463C156.946 65.0485 156.946 65.0508 156.946 65.053C156.946 65.0552 156.946 65.0574 156.946 65.0597C156.946 65.0619 156.946 65.0641 156.946 65.0664C156.946 65.0686 156.946 65.0708 156.946 65.073C156.946 65.0753 156.946 65.0775 156.946 65.0797C156.946 65.0819 156.946 65.0842 156.946 65.0864C156.946 65.0886 156.946 65.0908 156.946 65.0931C156.946 65.0953 156.946 65.0975 156.946 65.0997C156.946 65.102 156.946 65.1042 156.946 65.1064C156.946 65.1086 156.946 65.1109 156.946 65.1131C156.946 65.1153 156.946 65.1175 156.946 65.1197C156.946 65.122 156.946 65.1242 156.946 65.1264C156.946 65.1286 156.946 65.1308 156.946 65.1331C156.946 65.1353 156.946 65.1375 156.946 65.1397C156.946 65.1419 156.946 65.1442 156.946 65.1464C156.946 65.1486 156.946 65.1508 156.946 65.153C156.946 65.1552 156.946 65.1575 156.946 65.1597C156.946 65.1619 156.946 65.1641 156.946 65.1663C156.946 65.1685 156.946 65.1708 156.946 65.173C156.946 65.1752 156.946 65.1774 156.946 65.1796C156.946 65.1818 156.946 65.184 156.946 65.1863C156.946 65.1885 156.946 65.1907 156.946 65.1929C156.946 65.1951 156.946 65.1973 156.946 65.1995C156.946 65.2017 156.946 65.2039 156.946 65.2062C156.946 65.2084 156.946 65.2106 156.946 65.2128C156.946 65.215 156.946 65.2172 156.946 65.2194C156.946 65.2216 156.946 65.2238 156.946 65.226C156.946 65.2283 156.946 65.2305 156.946 65.2327C156.946 65.2349 156.946 65.2371 156.946 65.2393C156.946 65.2415 156.946 65.2437 156.946 65.2459C156.946 65.2481 156.946 65.2503 156.946 65.2525C156.946 65.2547 156.946 65.2569 156.946 65.2591C156.946 65.2614 156.946 65.2636 156.946 65.2658C156.946 65.268 156.946 65.2702 156.946 65.2724C156.946 65.2746 156.946 65.2768 156.946 65.279C156.946 65.2812 156.946 65.2834 156.946 65.2856C156.946 65.2878 156.946 65.29 156.946 65.2922C156.946 65.2944 156.946 65.2966 156.946 65.2988C156.946 65.301 156.946 65.3032 156.946 65.3054C156.946 65.3076 156.946 65.3098 156.946 65.312C156.946 65.3142 156.946 65.3164 156.946 65.3186C156.946 65.3208 156.946 65.323 156.946 65.3252C156.946 65.3274 156.946 65.3296 156.946 65.3318C156.946 65.334 156.946 65.3362 156.946 65.3383C156.946 65.3405 156.946 65.3427 156.946 65.3449C156.946 65.3471 156.946 65.3493 156.946 65.3515C156.946 65.3537 156.946 65.3559 156.946 65.3581C156.946 65.3603 156.946 65.3625 156.946 65.3647C156.946 65.3669 156.946 65.3691 156.946 65.3713C156.946 65.3734 156.946 65.3756 156.946 65.3778C156.946 65.38 156.946 65.3822 156.946 65.3844C156.946 65.3866 156.946 65.3888 156.946 65.391C156.946 65.3932 156.946 65.3953 156.946 65.3975C156.946 65.3997 156.946 65.4019 156.946 65.4041C156.946 65.4063 156.946 65.4085 156.946 65.4107C156.946 65.4128 156.946 65.415 156.946 65.4172C156.946 65.4194 156.946 65.4216 156.946 65.4238C156.946 65.426 156.946 65.4281 156.946 65.4303C156.946 65.4325 156.946 65.4347 156.946 65.4369C156.946 65.4391 156.946 65.4412 156.946 65.4434C156.946 65.4456 156.946 65.4478 156.946 65.45C156.946 65.4522 156.946 65.4543 156.946 65.4565C156.946 65.4587 156.946 65.4609 156.946 65.4631C156.946 65.4652 156.946 65.4674 156.946 65.4696C156.946 65.4718 156.946 65.474 156.946 65.4761C156.946 65.4783 156.946 65.4805 156.946 65.4827C156.946 65.4849 156.946 65.487 156.946 65.4892C156.946 65.4914 156.946 65.4936 156.946 65.4957C156.946 65.4979 156.946 65.5001 156.946 65.5023C156.946 65.5045 156.946 65.5066 156.946 65.5088C156.946 65.511 156.946 65.5132 156.946 65.5153C156.946 65.5175 156.946 65.5197 156.946 65.5219C156.946 65.524 156.946 65.5262 156.946 65.5284C156.946 65.5305 156.946 65.5327 156.946 65.5349C156.946 65.5371 156.946 65.5392 156.946 65.5414C156.946 65.5436 156.946 65.5457 156.946 65.5479C156.946 65.5501 156.946 65.5523 156.946 65.5544C156.946 65.5566 156.946 65.5588 156.946 65.5609C156.946 65.5631 156.946 65.5653 156.946 65.5674C156.946 65.5696 156.946 65.5718 156.946 65.5739C156.946 65.5761 156.946 65.5783 156.946 65.5804C156.946 65.5826 156.946 65.5848 156.946 65.5869C156.946 65.5891 156.946 65.5913 156.946 65.5934C156.946 65.5956 156.946 65.5978 156.946 65.5999C156.946 65.6021 156.946 65.6043 156.946 65.6064C156.946 65.6086 156.946 65.6108 156.946 65.6129C156.946 65.6151 156.946 65.6172 156.946 65.6194C156.946 65.6216 156.946 65.6237 156.946 65.6259C156.946 65.6281 156.946 65.6302 156.946 65.6324C156.946 65.6345 156.946 65.6367 156.946 65.6389C156.946 65.641 156.946 65.6432 156.946 65.6453C156.946 65.6475 156.946 65.6496 156.946 65.6518C156.946 65.654 156.946 65.6561 156.946 65.6583C156.946 65.6604 156.946 65.6626 156.946 65.6648C156.946 65.6669 156.946 65.6691 156.946 65.6712C156.946 65.6734 156.946 65.6755 156.946 65.6777C156.946 65.6798 156.946 65.682 156.946 65.6842C156.946 65.6863 156.946 65.6885 156.946 65.6906C156.946 65.6928 156.946 65.6949 156.946 65.6971C156.946 65.6992 156.946 65.7014 156.946 65.7035C156.946 65.7057 156.946 65.7078 156.946 65.71C156.946 65.7121 156.946 65.7143 156.946 65.7164C156.946 65.7186 156.946 65.7207 156.946 65.7229C156.946 65.725 156.946 65.7272 156.946 65.7293C156.946 65.7315 156.946 65.7336 156.946 65.7358C156.946 65.7379 156.946 65.7401 156.946 65.7422C156.946 65.7444 156.946 65.7465 156.946 65.7487C156.946 65.7508 156.946 65.753 156.946 65.7551C156.946 65.7572 156.946 65.7594 156.946 65.7615C156.946 65.7637 156.946 65.7658 156.946 65.768C156.946 65.7701 156.946 65.7723 156.946 65.7744C156.946 65.7765 156.946 65.7787 156.946 65.7808C156.946 65.783 156.946 65.7851 156.946 65.7873C156.946 65.7894 156.946 65.7915 156.946 65.7937C156.946 65.7958 156.946 65.798 156.946 65.8001C156.946 65.8022 156.946 65.8044 156.946 65.8065C156.946 65.8087 156.946 65.8108 156.946 65.8129C156.946 65.8151 156.946 65.8172 156.946 65.8194C156.946 65.8215 156.946 65.8236 156.946 65.8258C156.946 65.8279 156.946 65.83 156.946 65.8322C156.946 65.8343 156.946 65.8365 156.946 65.8386C156.946 65.8407 156.946 65.8429 156.946 65.845C156.946 65.8471 156.946 65.8493 156.946 65.8514C156.946 65.8535 156.946 65.8557 156.946 65.8578C156.946 65.8599 156.946 65.8621 156.946 65.8642C156.946 65.8663 156.946 65.8685 156.946 65.8706C156.946 65.8727 156.946 65.8749 156.946 65.877C156.946 65.8791 156.946 65.8813 156.946 65.8834C156.946 65.8855 156.946 65.8876 156.946 65.8898C156.946 65.8919 156.946 65.894 156.946 65.8962C156.946 65.8983 156.946 65.9004 156.946 65.9025C156.946 65.9047 156.946 65.9068 156.946 65.9089C156.946 65.9111 156.946 65.9132 156.946 65.9153C156.946 65.9174 156.946 65.9196 156.946 65.9217C156.946 65.9238 156.946 65.9259 156.946 65.9281C156.946 65.9302 156.946 65.9323 156.946 65.9344C156.946 65.9366 156.946 65.9387 156.946 65.9408C156.946 65.9429 156.946 65.9451 156.946 65.9472C156.946 65.9493 156.946 65.9514 156.946 65.9535C156.946 65.9557 156.946 65.9578 156.946 65.9599C156.946 65.962 156.946 65.9641 156.946 65.9663C156.946 65.9684 156.946 65.9705 156.946 65.9726C156.946 65.9747 156.946 65.9769 156.946 65.979C156.946 65.9811 156.946 65.9832 156.946 65.9853C156.946 65.9875 156.946 65.9896 156.946 65.9917C156.946 65.9938 156.946 65.9959 156.946 65.998C156.946 66.0002 156.946 66.0023 156.946 66.0044C156.946 66.0065 156.946 66.0086 156.946 66.0107C156.946 66.0128 156.946 66.015 156.946 66.0171C156.946 66.0192 156.946 66.0213 156.946 66.0234C156.946 66.0255 156.946 66.0276 156.946 66.0298C156.946 66.0319 156.946 66.034 156.946 66.0361C156.946 66.0382 156.946 66.0403 156.946 66.0424C156.946 66.0445 156.946 66.0466 156.946 66.0488C156.946 66.0509 156.946 66.053 156.946 66.0551C156.946 66.0572 156.946 66.0593 156.946 66.0614C156.946 66.0635 156.946 66.0656 156.946 66.0677C156.946 66.0698 156.946 66.072 156.946 66.0741C156.946 66.0762 156.946 66.0783 156.946 66.0804C156.946 66.0825 156.946 66.0846 156.946 66.0867C156.946 66.0888 156.946 66.0909 156.946 66.093C156.946 66.0951 156.946 66.0972 156.946 66.0993C156.946 66.1014 156.946 66.1035 156.946 66.1056C156.946 66.1077 156.946 66.1098 156.946 66.1119C156.946 66.114 156.946 66.1161 156.946 66.1183C156.946 66.1204 156.946 66.1225 156.946 66.1246C156.946 66.1267 156.946 66.1288 156.946 66.1309C156.946 66.133 156.946 66.1351 156.946 66.1372C156.946 66.1393 156.946 66.1414 156.946 66.1435C156.946 66.1455 156.946 66.1476 156.946 66.1497C156.946 66.1518 156.946 66.1539 156.946 66.156C156.946 66.1581 156.946 66.1602 156.946 66.1623C156.946 66.1644 156.946 66.1665 156.946 66.1686C156.946 66.1707 156.946 66.1728 156.946 66.1749C156.946 66.177 156.946 66.1791 156.946 66.1812C156.946 66.1833 156.946 66.1854 156.946 66.1875C156.946 66.1896 156.946 66.1916 156.946 66.1937C156.946 66.1958 156.946 66.1979 156.946 66.2C156.946 66.2021 156.946 66.2042 156.946 66.2063C156.946 66.2084 156.946 66.2105 156.946 66.2126C156.946 66.2146 156.946 66.2167 156.946 66.2188C156.946 66.2209 156.946 66.223 156.946 66.2251C156.946 66.2272 156.946 66.2293 156.946 66.2314C156.946 66.2334 156.946 66.2355 156.946 66.2376C156.946 66.2397 156.946 66.2418 156.946 66.2439C156.946 66.246 156.946 66.248 156.946 66.2501C156.946 66.2522 156.946 66.2543 156.946 66.2564C156.946 66.2585 156.946 66.2606 156.946 66.2626C156.946 66.2647 156.946 66.2668 156.946 66.2689C156.946 66.271 156.946 66.2731 156.946 66.2751C156.946 66.2772 156.946 66.2793 156.946 66.2814C156.946 66.2835 156.946 66.2855 156.946 66.2876C156.946 66.2897 156.946 66.2918 156.946 66.2939C156.946 66.2959 156.946 66.298 156.946 66.3001C156.946 66.3022 156.946 66.3043 156.946 66.3063C156.946 66.3084 156.946 66.3105 156.946 66.3126C156.946 66.3147 156.946 66.3167 156.946 66.3188C156.946 66.3209 156.946 66.323 156.946 66.325C156.946 66.3271 156.946 66.3292 156.946 66.3313C156.946 66.3333 156.946 66.3354 156.946 66.3375C156.946 66.3396 156.946 66.3416 156.946 66.3437C156.946 66.3458 156.946 66.3479 156.946 66.3499C156.946 66.352 156.946 66.3541 156.946 66.3561C156.946 66.3582 156.946 66.3603 156.946 66.3624C156.946 66.3644 156.946 66.3665 156.946 66.3686C156.946 66.3706 156.946 66.3727 156.946 66.3748C156.946 66.3769 156.946 66.3789 156.946 66.381C156.946 66.3831 156.946 66.3851 156.946 66.3872C156.946 66.3893 156.946 66.3913 156.946 66.3934C156.946 66.3955 156.946 66.3975 156.946 66.3996C156.946 66.4017 156.946 66.4037 156.946 66.4058C156.946 66.4079 156.946 66.4099 156.946 66.412H158.946C158.946 66.4099 158.946 66.4079 158.946 66.4058C158.946 66.4037 158.946 66.4017 158.946 66.3996C158.946 66.3975 158.946 66.3955 158.946 66.3934C158.946 66.3913 158.946 66.3893 158.946 66.3872C158.946 66.3851 158.946 66.3831 158.946 66.381C158.946 66.3789 158.946 66.3769 158.946 66.3748C158.946 66.3727 158.946 66.3706 158.946 66.3686C158.946 66.3665 158.946 66.3644 158.946 66.3624C158.946 66.3603 158.946 66.3582 158.946 66.3561C158.946 66.3541 158.946 66.352 158.946 66.3499C158.946 66.3479 158.946 66.3458 158.946 66.3437C158.946 66.3416 158.946 66.3396 158.946 66.3375C158.946 66.3354 158.946 66.3333 158.946 66.3313C158.946 66.3292 158.946 66.3271 158.946 66.325C158.946 66.323 158.946 66.3209 158.946 66.3188C158.946 66.3167 158.946 66.3147 158.946 66.3126C158.946 66.3105 158.946 66.3084 158.946 66.3063C158.946 66.3043 158.946 66.3022 158.946 66.3001C158.946 66.298 158.946 66.2959 158.946 66.2939C158.946 66.2918 158.946 66.2897 158.946 66.2876C158.946 66.2855 158.946 66.2835 158.946 66.2814C158.946 66.2793 158.946 66.2772 158.946 66.2751C158.946 66.2731 158.946 66.271 158.946 66.2689C158.946 66.2668 158.946 66.2647 158.946 66.2626C158.946 66.2606 158.946 66.2585 158.946 66.2564C158.946 66.2543 158.946 66.2522 158.946 66.2501C158.946 66.248 158.946 66.246 158.946 66.2439C158.946 66.2418 158.946 66.2397 158.946 66.2376C158.946 66.2355 158.946 66.2334 158.946 66.2314C158.946 66.2293 158.946 66.2272 158.946 66.2251C158.946 66.223 158.946 66.2209 158.946 66.2188C158.946 66.2167 158.946 66.2146 158.946 66.2126C158.946 66.2105 158.946 66.2084 158.946 66.2063C158.946 66.2042 158.946 66.2021 158.946 66.2C158.946 66.1979 158.946 66.1958 158.946 66.1937C158.946 66.1916 158.946 66.1896 158.946 66.1875C158.946 66.1854 158.946 66.1833 158.946 66.1812C158.946 66.1791 158.946 66.177 158.946 66.1749C158.946 66.1728 158.946 66.1707 158.946 66.1686C158.946 66.1665 158.946 66.1644 158.946 66.1623C158.946 66.1602 158.946 66.1581 158.946 66.156C158.946 66.1539 158.946 66.1518 158.946 66.1497C158.946 66.1476 158.946 66.1455 158.946 66.1435C158.946 66.1414 158.946 66.1393 158.946 66.1372C158.946 66.1351 158.946 66.133 158.946 66.1309C158.946 66.1288 158.946 66.1267 158.946 66.1246C158.946 66.1225 158.946 66.1204 158.946 66.1183C158.946 66.1161 158.946 66.114 158.946 66.1119C158.946 66.1098 158.946 66.1077 158.946 66.1056C158.946 66.1035 158.946 66.1014 158.946 66.0993C158.946 66.0972 158.946 66.0951 158.946 66.093C158.946 66.0909 158.946 66.0888 158.946 66.0867C158.946 66.0846 158.946 66.0825 158.946 66.0804C158.946 66.0783 158.946 66.0762 158.946 66.0741C158.946 66.072 158.946 66.0698 158.946 66.0677C158.946 66.0656 158.946 66.0635 158.946 66.0614C158.946 66.0593 158.946 66.0572 158.946 66.0551C158.946 66.053 158.946 66.0509 158.946 66.0488C158.946 66.0466 158.946 66.0445 158.946 66.0424C158.946 66.0403 158.946 66.0382 158.946 66.0361C158.946 66.034 158.946 66.0319 158.946 66.0298C158.946 66.0276 158.946 66.0255 158.946 66.0234C158.946 66.0213 158.946 66.0192 158.946 66.0171C158.946 66.015 158.946 66.0128 158.946 66.0107C158.946 66.0086 158.946 66.0065 158.946 66.0044C158.946 66.0023 158.946 66.0002 158.946 65.998C158.946 65.9959 158.946 65.9938 158.946 65.9917C158.946 65.9896 158.946 65.9875 158.946 65.9853C158.946 65.9832 158.946 65.9811 158.946 65.979C158.946 65.9769 158.946 65.9747 158.946 65.9726C158.946 65.9705 158.946 65.9684 158.946 65.9663C158.946 65.9641 158.946 65.962 158.946 65.9599C158.946 65.9578 158.946 65.9557 158.946 65.9535C158.946 65.9514 158.946 65.9493 158.946 65.9472C158.946 65.9451 158.946 65.9429 158.946 65.9408C158.946 65.9387 158.946 65.9366 158.946 65.9344C158.946 65.9323 158.946 65.9302 158.946 65.9281C158.946 65.9259 158.946 65.9238 158.946 65.9217C158.946 65.9196 158.946 65.9174 158.946 65.9153C158.946 65.9132 158.946 65.9111 158.946 65.9089C158.946 65.9068 158.946 65.9047 158.946 65.9025C158.946 65.9004 158.946 65.8983 158.946 65.8962C158.946 65.894 158.946 65.8919 158.946 65.8898C158.946 65.8876 158.946 65.8855 158.946 65.8834C158.946 65.8813 158.946 65.8791 158.946 65.877C158.946 65.8749 158.946 65.8727 158.946 65.8706C158.946 65.8685 158.946 65.8663 158.946 65.8642C158.946 65.8621 158.946 65.8599 158.946 65.8578C158.946 65.8557 158.946 65.8535 158.946 65.8514C158.946 65.8493 158.946 65.8471 158.946 65.845C158.946 65.8429 158.946 65.8407 158.946 65.8386C158.946 65.8365 158.946 65.8343 158.946 65.8322C158.946 65.83 158.946 65.8279 158.946 65.8258C158.946 65.8236 158.946 65.8215 158.946 65.8194C158.946 65.8172 158.946 65.8151 158.946 65.8129C158.946 65.8108 158.946 65.8087 158.946 65.8065C158.946 65.8044 158.946 65.8022 158.946 65.8001C158.946 65.798 158.946 65.7958 158.946 65.7937C158.946 65.7915 158.946 65.7894 158.946 65.7873C158.946 65.7851 158.946 65.783 158.946 65.7808C158.946 65.7787 158.946 65.7765 158.946 65.7744C158.946 65.7723 158.946 65.7701 158.946 65.768C158.946 65.7658 158.946 65.7637 158.946 65.7615C158.946 65.7594 158.946 65.7572 158.946 65.7551C158.946 65.753 158.946 65.7508 158.946 65.7487C158.946 65.7465 158.946 65.7444 158.946 65.7422C158.946 65.7401 158.946 65.7379 158.946 65.7358C158.946 65.7336 158.946 65.7315 158.946 65.7293C158.946 65.7272 158.946 65.725 158.946 65.7229C158.946 65.7207 158.946 65.7186 158.946 65.7164C158.946 65.7143 158.946 65.7121 158.946 65.71C158.946 65.7078 158.946 65.7057 158.946 65.7035C158.946 65.7014 158.946 65.6992 158.946 65.6971C158.946 65.6949 158.946 65.6928 158.946 65.6906C158.946 65.6885 158.946 65.6863 158.946 65.6842C158.946 65.682 158.946 65.6798 158.946 65.6777C158.946 65.6755 158.946 65.6734 158.946 65.6712C158.946 65.6691 158.946 65.6669 158.946 65.6648C158.946 65.6626 158.946 65.6604 158.946 65.6583C158.946 65.6561 158.946 65.654 158.946 65.6518C158.946 65.6496 158.946 65.6475 158.946 65.6453C158.946 65.6432 158.946 65.641 158.946 65.6389C158.946 65.6367 158.946 65.6345 158.946 65.6324C158.946 65.6302 158.946 65.6281 158.946 65.6259C158.946 65.6237 158.946 65.6216 158.946 65.6194C158.946 65.6172 158.946 65.6151 158.946 65.6129C158.946 65.6108 158.946 65.6086 158.946 65.6064C158.946 65.6043 158.946 65.6021 158.946 65.5999C158.946 65.5978 158.946 65.5956 158.946 65.5934C158.946 65.5913 158.946 65.5891 158.946 65.5869C158.946 65.5848 158.946 65.5826 158.946 65.5804C158.946 65.5783 158.946 65.5761 158.946 65.5739C158.946 65.5718 158.946 65.5696 158.946 65.5674C158.946 65.5653 158.946 65.5631 158.946 65.5609C158.946 65.5588 158.946 65.5566 158.946 65.5544C158.946 65.5523 158.946 65.5501 158.946 65.5479C158.946 65.5457 158.946 65.5436 158.946 65.5414C158.946 65.5392 158.946 65.5371 158.946 65.5349C158.946 65.5327 158.946 65.5305 158.946 65.5284C158.946 65.5262 158.946 65.524 158.946 65.5219C158.946 65.5197 158.946 65.5175 158.946 65.5153C158.946 65.5132 158.946 65.511 158.946 65.5088C158.946 65.5066 158.946 65.5045 158.946 65.5023C158.946 65.5001 158.946 65.4979 158.946 65.4957C158.946 65.4936 158.946 65.4914 158.946 65.4892C158.946 65.487 158.946 65.4849 158.946 65.4827C158.946 65.4805 158.946 65.4783 158.946 65.4761C158.946 65.474 158.946 65.4718 158.946 65.4696C158.946 65.4674 158.946 65.4652 158.946 65.4631C158.946 65.4609 158.946 65.4587 158.946 65.4565C158.946 65.4543 158.946 65.4522 158.946 65.45C158.946 65.4478 158.946 65.4456 158.946 65.4434C158.946 65.4412 158.946 65.4391 158.946 65.4369C158.946 65.4347 158.946 65.4325 158.946 65.4303C158.946 65.4281 158.946 65.426 158.946 65.4238C158.946 65.4216 158.946 65.4194 158.946 65.4172C158.946 65.415 158.946 65.4128 158.946 65.4107C158.946 65.4085 158.946 65.4063 158.946 65.4041C158.946 65.4019 158.946 65.3997 158.946 65.3975C158.946 65.3953 158.946 65.3932 158.946 65.391C158.946 65.3888 158.946 65.3866 158.946 65.3844C158.946 65.3822 158.946 65.38 158.946 65.3778C158.946 65.3756 158.946 65.3734 158.946 65.3713C158.946 65.3691 158.946 65.3669 158.946 65.3647C158.946 65.3625 158.946 65.3603 158.946 65.3581C158.946 65.3559 158.946 65.3537 158.946 65.3515C158.946 65.3493 158.946 65.3471 158.946 65.3449C158.946 65.3427 158.946 65.3405 158.946 65.3383C158.946 65.3362 158.946 65.334 158.946 65.3318C158.946 65.3296 158.946 65.3274 158.946 65.3252C158.946 65.323 158.946 65.3208 158.946 65.3186C158.946 65.3164 158.946 65.3142 158.946 65.312C158.946 65.3098 158.946 65.3076 158.946 65.3054C158.946 65.3032 158.946 65.301 158.946 65.2988C158.946 65.2966 158.946 65.2944 158.946 65.2922C158.946 65.29 158.946 65.2878 158.946 65.2856C158.946 65.2834 158.946 65.2812 158.946 65.279C158.946 65.2768 158.946 65.2746 158.946 65.2724C158.946 65.2702 158.946 65.268 158.946 65.2658C158.946 65.2636 158.946 65.2614 158.946 65.2591C158.946 65.2569 158.946 65.2547 158.946 65.2525C158.946 65.2503 158.946 65.2481 158.946 65.2459C158.946 65.2437 158.946 65.2415 158.946 65.2393C158.946 65.2371 158.946 65.2349 158.946 65.2327C158.946 65.2305 158.946 65.2283 158.946 65.226C158.946 65.2238 158.946 65.2216 158.946 65.2194C158.946 65.2172 158.946 65.215 158.946 65.2128C158.946 65.2106 158.946 65.2084 158.946 65.2062C158.946 65.2039 158.946 65.2017 158.946 65.1995C158.946 65.1973 158.946 65.1951 158.946 65.1929C158.946 65.1907 158.946 65.1885 158.946 65.1863C158.946 65.184 158.946 65.1818 158.946 65.1796C158.946 65.1774 158.946 65.1752 158.946 65.173C158.946 65.1708 158.946 65.1685 158.946 65.1663C158.946 65.1641 158.946 65.1619 158.946 65.1597C158.946 65.1575 158.946 65.1552 158.946 65.153C158.946 65.1508 158.946 65.1486 158.946 65.1464C158.946 65.1442 158.946 65.1419 158.946 65.1397C158.946 65.1375 158.946 65.1353 158.946 65.1331C158.946 65.1308 158.946 65.1286 158.946 65.1264C158.946 65.1242 158.946 65.122 158.946 65.1197C158.946 65.1175 158.946 65.1153 158.946 65.1131C158.946 65.1109 158.946 65.1086 158.946 65.1064C158.946 65.1042 158.946 65.102 158.946 65.0997C158.946 65.0975 158.946 65.0953 158.946 65.0931C158.946 65.0908 158.946 65.0886 158.946 65.0864C158.946 65.0842 158.946 65.0819 158.946 65.0797C158.946 65.0775 158.946 65.0753 158.946 65.073C158.946 65.0708 158.946 65.0686 158.946 65.0664C158.946 65.0641 158.946 65.0619 158.946 65.0597C158.946 65.0574 158.946 65.0552 158.946 65.053C158.946 65.0508 158.946 65.0485 158.946 65.0463C158.946 65.0441 158.946 65.0418 158.946 65.0396C158.946 65.0374 158.946 65.0352 158.946 65.0329C158.946 65.0307 158.946 65.0285 158.946 65.0262C158.946 65.024 158.946 65.0218 158.946 65.0195C158.946 65.0173 158.946 65.0151 158.946 65.0128C158.946 65.0106 158.946 65.0084 158.946 65.0061C158.946 65.0039 158.946 65.0017 158.946 64.9994C158.946 64.9972 158.946 64.995 158.946 64.9927C158.946 64.9905 158.946 64.9882 158.946 64.986C158.946 64.9838 158.946 64.9815 158.946 64.9793C158.946 64.9771 158.946 64.9748 158.946 64.9726C158.946 64.9703 158.946 64.9681 158.946 64.9659C158.946 64.9636 158.946 64.9614 158.946 64.9592C158.946 64.9569 158.946 64.9547 158.946 64.9524C158.946 64.9502 158.946 64.948 158.946 64.9457C158.946 64.9435 158.946 64.9412 158.946 64.939C158.946 64.9367 158.946 64.9345 158.946 64.9323C158.946 64.93 158.946 64.9278 158.946 64.9255C158.946 64.9233 158.946 64.921 158.946 64.9188C158.946 64.9166 158.946 64.9143 158.946 64.9121C158.946 64.9098 158.946 64.9076 158.946 64.9053C158.946 64.9031 158.946 64.9008 158.946 64.8986C158.946 64.8963 158.946 64.8941 158.946 64.8918C158.946 64.8896 158.946 64.8874 158.946 64.8851C158.946 64.8829 158.946 64.8806 158.946 64.8784C158.946 64.8761 158.946 64.8739 158.946 64.8716C158.946 64.8694 158.946 64.8671 158.946 64.8649C158.946 64.8626 158.946 64.8604 158.946 64.8581C158.946 64.8559 158.946 64.8536 158.946 64.8514C158.946 64.8491 158.946 64.8468 158.946 64.8446C158.946 64.8423 158.946 64.8401 158.946 64.8378C158.946 64.8356 158.946 64.8333 158.946 64.8311C158.946 64.8288 158.946 64.8266 158.946 64.8243C158.946 64.8221 158.946 64.8198 158.946 64.8175C158.946 64.8153 158.946 64.813 158.946 64.8108C158.946 64.8085 158.946 64.8063 158.946 64.804C158.946 64.8017 158.946 64.7995 158.946 64.7972C158.946 64.795 158.946 64.7927 158.946 64.7905C158.946 64.7882 158.946 64.7859 158.946 64.7837C158.946 64.7814 158.946 64.7792 158.946 64.7769C158.946 64.7746 158.946 64.7724 158.946 64.7701C158.946 64.7679 158.946 64.7656 158.946 64.7633C158.946 64.7611 158.946 64.7588 158.946 64.7565C158.946 64.7543 158.946 64.752 158.946 64.7497C158.946 64.7475 158.946 64.7452 158.946 64.743C158.946 64.7407 158.946 64.7384 158.946 64.7362C158.946 64.7339 158.946 64.7316 158.946 64.7294C158.946 64.7271 158.946 64.7248 158.946 64.7226C158.946 64.7203 158.946 64.718 158.946 64.7158C158.946 64.7135 158.946 64.7112 158.946 64.709C158.946 64.7067 158.946 64.7044 158.946 64.7022C158.946 64.6999 158.946 64.6976 158.946 64.6953C158.946 64.6931 158.946 64.6908 158.946 64.6885C158.946 64.6863 158.946 64.684 158.946 64.6817C158.946 64.6795 158.946 64.6772 158.946 64.6749C158.946 64.6726 158.946 64.6704 158.946 64.6681C158.946 64.6658 158.946 64.6635 158.946 64.6613C158.946 64.659 158.946 64.6567 158.946 64.6544C158.946 64.6522 158.946 64.6499 158.946 64.6476C158.946 64.6453 158.946 64.6431 158.946 64.6408C158.946 64.6385 158.946 64.6362 158.946 64.634C158.946 64.6317 158.946 64.6294 158.946 64.6271C158.946 64.6249 158.946 64.6226 158.946 64.6203C158.946 64.618 158.946 64.6157 158.946 64.6135C158.946 64.6112 158.946 64.6089 158.946 64.6066C158.946 64.6043 158.946 64.6021 158.946 64.5998C158.946 64.5975 158.946 64.5952 158.946 64.5929C158.946 64.5907 158.946 64.5884 158.946 64.5861C158.946 64.5838 158.946 64.5815 158.946 64.5792C158.946 64.577 158.946 64.5747 158.946 64.5724C158.946 64.5701 158.946 64.5678 158.946 64.5655C158.946 64.5633 158.946 64.561 158.946 64.5587C158.946 64.5564 158.946 64.5541 158.946 64.5518C158.946 64.5495 158.946 64.5473 158.946 64.545C158.946 64.5427 158.946 64.5404 158.946 64.5381C158.946 64.5358 158.946 64.5335 158.946 64.5312C158.946 64.529 158.946 64.5267 158.946 64.5244C158.946 64.5221 158.946 64.5198 158.946 64.5175C158.946 64.5152 158.946 64.5129 158.946 64.5106C158.946 64.5083 158.946 64.5061 158.946 64.5038C158.946 64.5015 158.946 64.4992 158.946 64.4969C158.946 64.4946 158.946 64.4923 158.946 64.49C158.946 64.4877 158.946 64.4854 158.946 64.4831C158.946 64.4808 158.946 64.4785 158.946 64.4762C158.946 64.474 158.946 64.4717 158.946 64.4694C158.946 64.4671 158.946 64.4648 158.946 64.4625C158.946 64.4602 158.946 64.4579 158.946 64.4556C158.946 64.4533 158.946 64.451 158.946 64.4487C158.946 64.4464 158.946 64.4441 158.946 64.4418C158.946 64.4395 158.946 64.4372 158.946 64.4349C158.946 64.4326 158.946 64.4303 158.946 64.428C158.946 64.4257 158.946 64.4234 158.946 64.4211C158.946 64.4188 158.946 64.4165 158.946 64.4142C158.946 64.4119 158.946 64.4096 158.946 64.4073C158.946 64.405 158.946 64.4027 158.946 64.4004C158.946 64.3981 158.946 64.3958 158.946 64.3935C158.946 64.3912 158.946 64.3889 158.946 64.3866C158.946 64.3843 158.946 64.3819 158.946 64.3796C158.946 64.3773 158.946 64.375 158.946 64.3727C158.946 64.3704 158.946 64.3681 158.946 64.3658C158.946 64.3635 158.946 64.3612 158.946 64.3589C158.946 64.3566 158.946 64.3543 158.946 64.352C158.946 64.3496 158.946 64.3473 158.946 64.345C158.946 64.3427 158.946 64.3404 158.946 64.3381C158.946 64.3358 158.946 64.3335 158.946 64.3312C158.946 64.3289 158.946 64.3265 158.946 64.3242C158.946 64.3219 158.946 64.3196 158.946 64.3173C158.946 64.315 158.946 64.3127 158.946 64.3104C158.946 64.308 158.946 64.3057 158.946 64.3034C158.946 64.3011 158.946 64.2988 158.946 64.2965C158.946 64.2942 158.946 64.2918 158.946 64.2895C158.946 64.2872 158.946 64.2849 158.946 64.2826C158.946 64.2803 158.946 64.2779 158.946 64.2756C158.946 64.2733 158.946 64.271 158.946 64.2687C158.946 64.2664 158.946 64.264 158.946 64.2617C158.946 64.2594 158.946 64.2571 158.946 64.2548C158.946 64.2524 158.946 64.2501 158.946 64.2478C158.946 64.2455 158.946 64.2432 158.946 64.2408C158.946 64.2385 158.946 64.2362 158.946 64.2339C158.946 64.2316 158.946 64.2292 158.946 64.2269C158.946 64.2246 158.946 64.2223 158.946 64.2199C158.946 64.2176 158.946 64.2153 158.946 64.213C158.946 64.2106 158.946 64.2083 158.946 64.206C158.946 64.2037 158.946 64.2013 158.946 64.199C158.946 64.1967 158.946 64.1944 158.946 64.192C158.946 64.1897 158.946 64.1874 158.946 64.1851C158.946 64.1827 158.946 64.1804 158.946 64.1781C158.946 64.1758 158.946 64.1734 158.946 64.1711C158.946 64.1688 158.946 64.1664 158.946 64.1641C158.946 64.1618 158.946 64.1594 158.946 64.1571C158.946 64.1548 158.946 64.1525 158.946 64.1501C158.946 64.1478 158.946 64.1455 158.946 64.1431C158.946 64.1408 158.946 64.1385 158.946 64.1361C158.946 64.1338 158.946 64.1315 158.946 64.1291C158.946 64.1268 158.946 64.1245 158.946 64.1221C158.946 64.1198 158.946 64.1175 158.946 64.1151C158.946 64.1128 158.946 64.1105 158.946 64.1081C158.946 64.1058 158.946 64.1035 158.946 64.1011C158.946 64.0988 158.946 64.0964 158.946 64.0941C158.946 64.0918 158.946 64.0894 158.946 64.0871C158.946 64.0848 158.946 64.0824 158.946 64.0801C158.946 64.0777 158.946 64.0754 158.946 64.0731C158.946 64.0707 158.946 64.0684 158.946 64.066C158.946 64.0637 158.946 64.0614 158.946 64.059C158.946 64.0567 158.946 64.0543 158.946 64.052C158.946 64.0496 158.946 64.0473 158.946 64.045C158.946 64.0426 158.946 64.0403 158.946 64.0379C158.946 64.0356 158.946 64.0332 158.946 64.0309C158.946 64.0286 158.946 64.0262 158.946 64.0239C158.946 64.0215 158.946 64.0192 158.946 64.0168C158.946 64.0145 158.946 64.0121 158.946 64.0098C158.946 64.0074 158.946 64.0051 158.946 64.0027C158.946 64.0004 158.946 63.9981 158.946 63.9957C158.946 63.9934 158.946 63.991 158.946 63.9887C158.946 63.9863 158.946 63.984 158.946 63.9816C158.946 63.9793 158.946 63.9769 158.946 63.9746C158.946 63.9722 158.946 63.9699 158.946 63.9675C158.946 63.9652 158.946 63.9628 158.946 63.9605C158.946 63.9581 158.946 63.9557 158.946 63.9534C158.946 63.951 158.946 63.9487 158.946 63.9463C158.946 63.944 158.946 63.9416 158.946 63.9393C158.946 63.9369 158.946 63.9346 158.946 63.9322C158.946 63.9299 158.946 63.9275 158.946 63.9251C158.946 63.9228 158.946 63.9204 158.946 63.9181C158.946 63.9157 158.946 63.9134 158.946 63.911C158.946 63.9086 158.946 63.9063 158.946 63.9039C158.946 63.9016 158.946 63.8992 158.946 63.8969C158.946 63.8945 158.946 63.8921 158.946 63.8898C158.946 63.8874 158.946 63.8851 158.946 63.8827C158.946 63.8803 158.946 63.878 158.946 63.8756C158.946 63.8732 158.946 63.8709 158.946 63.8685C158.946 63.8662 158.946 63.8638 158.946 63.8614C158.946 63.8591 158.946 63.8567 158.946 63.8543C158.946 63.852 158.946 63.8496 158.946 63.8473C158.946 63.8449 158.946 63.8425 158.946 63.8402C158.946 63.8378 158.946 63.8354 158.946 63.8331C158.946 63.8307 158.946 63.8283 158.946 63.826C158.946 63.8236 158.946 63.8212 158.946 63.8189C158.946 63.8165 158.946 63.8141 158.946 63.8118C158.946 63.8094 158.946 63.807 158.946 63.8047C158.946 63.8023 158.946 63.7999 158.946 63.7975C158.946 63.7952 158.946 63.7928 158.946 63.7904C158.946 63.7881 158.946 63.7857 158.946 63.7833C158.946 63.7809 158.946 63.7786 158.946 63.7762C158.946 63.7738 158.946 63.7715 158.946 63.7691C158.946 63.7667 158.946 63.7643 158.946 63.762C158.946 63.7596 158.946 63.7572 158.946 63.7548C158.946 63.7525 158.946 63.7501 158.946 63.7477C158.946 63.7453 158.946 63.743 158.946 63.7406C158.946 63.7382 158.946 63.7358 158.946 63.7335C158.946 63.7311 158.946 63.7287 158.946 63.7263C158.946 63.724 158.946 63.7216 158.946 63.7192C158.946 63.7168 158.946 63.7144 158.946 63.7121C158.946 63.7097 158.946 63.7073 158.946 63.7049C158.946 63.7025 158.946 63.7002 158.946 63.6978C158.946 63.6954 158.946 63.693 158.946 63.6906C158.946 63.6883 158.946 63.6859 158.946 63.6835C158.946 63.6811 158.946 63.6787 158.946 63.6763C158.946 63.674 158.946 63.6716 158.946 63.6692C158.946 63.6668 158.946 63.6644 158.946 63.662C158.946 63.6597 158.946 63.6573 158.946 63.6549C158.946 63.6525 158.946 63.6501 158.946 63.6477C158.946 63.6453 158.946 63.643 158.946 63.6406C158.946 63.6382 158.946 63.6358 158.946 63.6334C158.946 63.631 158.946 63.6286 158.946 63.6262C158.946 63.6238 158.946 63.6215 158.946 63.6191C158.946 63.6167 158.946 63.6143 158.946 63.6119C158.946 63.6095 158.946 63.6071 158.946 63.6047C158.946 63.6023 158.946 63.5999 158.946 63.5976C158.946 63.5952 158.946 63.5928 158.946 63.5904C158.946 63.588 158.946 63.5856 158.946 63.5832C158.946 63.5808 158.946 63.5784 158.946 63.576C158.946 63.5736 158.946 63.5712 158.946 63.5688C158.946 63.5664 158.946 63.564 158.946 63.5617C158.946 63.5593 158.946 63.5569 158.946 63.5545C158.946 63.5521 158.946 63.5497 158.946 63.5473C158.946 63.5449 158.946 63.5425 158.946 63.5401C158.946 63.5377 158.946 63.5353 158.946 63.5329C158.946 63.5305 158.946 63.5281 158.946 63.5257C158.946 63.5233 158.946 63.5209 158.946 63.5185C158.946 63.5161 158.946 63.5137 158.946 63.5113C158.946 63.5089 158.946 63.5065 158.946 63.5041C158.946 63.5017 158.946 63.4993 158.946 63.4969C158.946 63.4945 158.946 63.4921 158.946 63.4897C158.946 63.4873 158.946 63.4849 158.946 63.4825C158.946 63.4801 158.946 63.4777 158.946 63.4752C158.946 63.4728 158.946 63.4704 158.946 63.468C158.946 63.4656 158.946 63.4632 158.946 63.4608C158.946 63.4584 158.946 63.456 158.946 63.4536C158.946 63.4512 158.946 63.4488 158.946 63.4464C158.946 63.444 158.946 63.4416 158.946 63.4391C158.946 63.4367 158.946 63.4343 158.946 63.4319C158.946 63.4295 158.946 63.4271 158.946 63.4247C158.946 63.4223 158.946 63.4199 158.946 63.4175C158.946 63.415 158.946 63.4126 158.946 63.4102C158.946 63.4078 158.946 63.4054 158.946 63.403C158.946 63.4006 158.946 63.3982 158.946 63.3957C158.946 63.3933 158.946 63.3909 158.946 63.3885C158.946 63.3861 158.946 63.3837 158.946 63.3813C158.946 63.3788 158.946 63.3764 158.946 63.374C158.946 63.3716 158.946 63.3692 158.946 63.3668C158.946 63.3643 158.946 63.3619 158.946 63.3595C158.946 63.3571 158.946 63.3547 158.946 63.3523C158.946 63.3498 158.946 63.3474 158.946 63.345C158.946 63.3426 158.946 63.3402 158.946 63.3377C158.946 63.3353 158.946 63.3329 158.946 63.3305C158.946 63.3281 158.946 63.3256 158.946 63.3232C158.946 63.3208 158.946 63.3184 158.946 63.316C158.946 63.3135 158.946 63.3111 158.946 63.3087C158.946 63.3063 158.946 63.3039 158.946 63.3014C158.946 63.299 158.946 63.2966 158.946 63.2942C158.946 63.2917 158.946 63.2893 158.946 63.2869C158.946 63.2845 158.946 63.282 158.946 63.2796C158.946 63.2772 158.946 63.2748 158.946 63.2723C158.946 63.2699 158.946 63.2675 158.946 63.265C158.946 63.2626 158.946 63.2602 158.946 63.2578C158.946 63.2553 158.946 63.2529 158.946 63.2505C158.946 63.248 158.946 63.2456 158.946 63.2432C158.946 63.2408 158.946 63.2383 158.946 63.2359C158.946 63.2335 158.946 63.231 158.946 63.2286C158.946 63.2262 158.946 63.2237 158.946 63.2213C158.946 63.2189 158.946 63.2164 158.946 63.214C158.946 63.2116 158.946 63.2091 158.946 63.2067C158.946 63.2043 158.946 63.2018 158.946 63.1994C158.946 63.197 158.946 63.1945 158.946 63.1921C158.946 63.1897 158.946 63.1872 158.946 63.1848C158.946 63.1824 158.946 63.1799 158.946 63.1775C158.946 63.1751 158.946 63.1726 158.946 63.1702C158.946 63.1677 158.946 63.1653 158.946 63.1629C158.946 63.1604 158.946 63.158 158.946 63.1556C158.946 63.1531 158.946 63.1507 158.946 63.1482C158.946 63.1458 158.946 63.1434 158.946 63.1409C158.946 63.1385 158.946 63.136 158.946 63.1336C158.946 63.1312 158.946 63.1287 158.946 63.1263C158.946 63.1238 158.946 63.1214 158.946 63.1189C158.946 63.1165 158.946 63.1141 158.946 63.1116C158.946 63.1092 158.946 63.1067 158.946 63.1043C158.946 63.1018 158.946 63.0994 158.946 63.0969C158.946 63.0945 158.946 63.0921 158.946 63.0896C158.946 63.0872 158.946 63.0847 158.946 63.0823C158.946 63.0798 158.946 63.0774 158.946 63.0749C158.946 63.0725 158.946 63.07 158.946 63.0676C158.946 63.0651 158.946 63.0627 158.946 63.0602C158.946 63.0578 158.946 63.0553 158.946 63.0529C158.946 63.0504 158.946 63.048 158.946 63.0455C158.946 63.0431 158.946 63.0406 158.946 63.0382C158.946 63.0357 158.946 63.0333 158.946 63.0308C158.946 63.0284 158.946 63.0259 158.946 63.0235C158.946 63.021 158.946 63.0186 158.946 63.0161C158.946 63.0137 158.946 63.0112 158.946 63.0088C158.946 63.0063 158.946 63.0038 158.946 63.0014C158.946 62.9989 158.946 62.9965 158.946 62.994C158.946 62.9916 158.946 62.9891 158.946 62.9866C158.946 62.9842 158.946 62.9817 158.946 62.9793C158.946 62.9768 158.946 62.9744 158.946 62.9719C158.946 62.9694 158.946 62.967 158.946 62.9645C158.946 62.9621 158.946 62.9596 158.946 62.9571C158.946 62.9547 158.946 62.9522 158.946 62.9498C158.946 62.9473 158.946 62.9448 158.946 62.9424C158.946 62.9399 158.946 62.9375 158.946 62.935H156.946ZM156.946 66.412C156.946 68.1195 157.421 69.5839 158.646 70.4587L159.808 68.8313C159.325 68.4861 158.946 67.7951 158.946 66.412H156.946ZM158.664 70.4712C159.741 71.2061 161.139 71.6256 162.782 71.7985L162.992 69.8095C161.544 69.6571 160.502 69.3039 159.79 68.8188L158.664 70.4712ZM161.887 70.804V73H163.887V70.804H161.887ZM162.887 72H150.077V74H162.887V72ZM151.077 73V70.804H149.077V73H151.077ZM150.294 71.7802C151.413 71.5315 152.327 71.2737 153.01 71.0005L152.268 69.1435C151.731 69.3583 150.937 69.5885 149.86 69.8278L150.294 71.7802ZM153.04 70.9882C153.862 70.6286 154.527 70.0753 155.005 69.3318L153.323 68.2502C153.069 68.6454 152.718 68.9461 152.238 69.1558L153.04 70.9882ZM155.021 69.3055C155.484 68.5338 155.757 67.5699 155.889 66.4701L153.903 66.2319C153.791 67.1654 153.575 67.8282 153.306 68.2765L155.021 69.3055ZM155.889 66.4701C156.016 65.4064 156.099 63.9663 156.14 62.1647L154.14 62.1193C154.1 63.8963 154.019 65.2623 153.903 66.2319L155.889 66.4701ZM156.14 62.1629L156.75 32.9439L154.75 32.9021L154.14 62.1211L156.14 62.1629ZM155.868 31.93L152.269 31.503L152.033 33.489L155.632 33.916L155.868 31.93ZM153.151 32.496V30.3H151.151V32.496H153.151ZM152.151 31.3H162.338V29.3H152.151V31.3ZM161.408 30.6669L171.656 56.6529L173.516 55.9191L163.268 29.9331L161.408 30.6669ZM173.515 56.6566L183.885 30.6706L182.027 29.9294L171.657 55.9154L173.515 56.6566ZM182.956 31.3H193.143V29.3H182.956V31.3ZM192.143 30.3V32.496H194.143V30.3H192.143ZM193.029 31.5025L189.308 31.9295L189.536 33.9165L193.257 33.4895L193.029 31.5025ZM188.422 32.9539L189.581 70.4079L191.58 70.3461L190.421 32.8921L188.422 32.9539ZM190.465 71.3703L194.125 71.7973L194.357 69.8107L190.697 69.3837L190.465 71.3703ZM193.241 70.804V73H195.241V70.804H193.241ZM194.241 72H180.943V74H194.241V72ZM181.943 73V70.804H179.943V73H181.943ZM181.059 71.7973L184.719 71.3703L184.487 69.3837L180.827 69.8107L181.059 71.7973ZM185.603 70.3526L184.749 35.3386L182.749 35.3874L183.603 70.4014L185.603 70.3526ZM183.749 34.363H183.627V36.363H183.749V34.363ZM182.699 34.9913L170.804 64.6983L172.66 65.4417L184.555 35.7347L182.699 34.9913ZM171.732 64.07H170.268V66.07H171.732V64.07ZM171.197 64.7009L159.546 35.3599L157.688 36.0981L169.339 65.4391L171.197 64.7009ZM202.74 32.923H203.74V32.0329L202.855 31.9297L202.74 32.923ZM199.08 32.496H198.08V33.3861L198.964 33.4893L199.08 32.496ZM199.08 30.3V29.3H198.08V30.3H199.08ZM212.256 30.3H213.256V29.3H212.256V30.3ZM212.256 32.496L212.371 33.4893L213.256 33.3861V32.496H212.256ZM208.596 32.923L208.48 31.9297L207.596 32.0329V32.923H208.596ZM208.596 70.499H207.596V71.3882L208.479 71.4922L208.596 70.499ZM210.609 70.743L210.484 71.7353L210.515 71.7391L210.546 71.7411L210.609 70.743ZM217.99 70.194L217.741 69.2253L217.735 69.2269L217.99 70.194ZM222.199 68.303L221.625 67.4838L221.625 67.4838L222.199 68.303ZM225.371 65.009L226.203 65.5638L226.21 65.5523L225.371 65.009ZM227.75 60.007L227.904 59.019L227.084 58.8909L226.807 59.6732L227.75 60.007ZM229.702 60.312L230.678 60.5266L230.906 59.4881L229.856 59.324L229.702 60.312ZM226.713 73.915L226.396 74.8637L227.451 75.2152L227.689 74.1296L226.713 73.915ZM224.944 73.427L225.153 72.4492L225.119 72.4419L225.085 72.4371L224.944 73.427ZM223.236 73.183L223.377 72.193L223.368 72.1918L223.236 73.183ZM221.284 73L221.342 72.0017L221.313 72H221.284V73ZM199.08 73H198.08V74H199.08V73ZM199.08 70.804L198.964 69.8107L198.08 69.9139V70.804H199.08ZM202.74 70.377L202.855 71.3703L203.74 71.2671V70.377H202.74ZM202.855 31.9297L199.195 31.5027L198.964 33.4893L202.624 33.9163L202.855 31.9297ZM200.08 32.496V30.3H198.08V32.496H200.08ZM199.08 31.3H212.256V29.3H199.08V31.3ZM211.256 30.3V32.496H213.256V30.3H211.256ZM212.14 31.5027L208.48 31.9297L208.711 33.9163L212.371 33.4893L212.14 31.5027ZM207.596 32.923V70.499H209.596V32.923H207.596ZM208.479 71.4922C209.168 71.5732 209.836 71.6543 210.484 71.7353L210.733 69.7507C210.079 69.6691 209.406 69.5874 208.712 69.5058L208.479 71.4922ZM210.546 71.7411C211.218 71.783 211.889 71.804 212.561 71.804V69.804C211.931 69.804 211.301 69.7843 210.671 69.7449L210.546 71.7411ZM212.561 71.804C214.696 71.804 216.595 71.595 218.244 71.1611L217.735 69.2269C216.293 69.6064 214.573 69.804 212.561 69.804V71.804ZM218.238 71.1627C219.929 70.7291 221.444 70.0517 222.772 69.1222L221.625 67.4838C220.513 68.2623 219.222 68.8456 217.741 69.2253L218.238 71.1627ZM222.772 69.1222C224.102 68.1912 225.245 67.0006 226.203 65.5637L224.538 64.4543C223.707 65.7014 222.735 66.7068 221.625 67.4838L222.772 69.1222ZM226.21 65.5523C227.156 64.0898 227.981 62.3485 228.692 60.3408L226.807 59.6732C226.135 61.5695 225.374 63.1629 224.531 64.4657L226.21 65.5523ZM227.595 60.995L229.547 61.3L229.856 59.324L227.904 59.019L227.595 60.995ZM228.725 60.0974L225.736 73.7004L227.689 74.1296L230.678 60.5266L228.725 60.0974ZM227.029 72.9663C226.387 72.7525 225.762 72.5797 225.153 72.4492L224.734 74.4048C225.264 74.5183 225.818 74.6708 226.396 74.8637L227.029 72.9663ZM225.085 72.4371C224.516 72.3557 223.946 72.2744 223.377 72.1931L223.094 74.1729C223.663 74.2543 224.233 74.3356 224.802 74.4169L225.085 72.4371ZM223.368 72.1918C222.73 72.1068 222.055 72.0437 221.342 72.0017L221.225 73.9983C221.895 74.0377 222.521 74.0965 223.103 74.1742L223.368 72.1918ZM221.284 72C221.282 72 221.281 72 221.28 72C221.278 72 221.277 72 221.276 72C221.275 72 221.273 72 221.272 72C221.271 72 221.27 72 221.268 72C221.267 72 221.266 72 221.264 72C221.263 72 221.262 72 221.261 72C221.259 72 221.258 72 221.257 72C221.256 72 221.254 72 221.253 72C221.252 72 221.25 72 221.249 72C221.248 72 221.247 72 221.245 72C221.244 72 221.243 72 221.241 72C221.24 72 221.239 72 221.238 72C221.236 72 221.235 72 221.234 72C221.233 72 221.231 72 221.23 72C221.229 72 221.227 72 221.226 72C221.225 72 221.224 72 221.222 72C221.221 72 221.22 72 221.218 72C221.217 72 221.216 72 221.215 72C221.213 72 221.212 72 221.211 72C221.209 72 221.208 72 221.207 72C221.206 72 221.204 72 221.203 72C221.202 72 221.2 72 221.199 72C221.198 72 221.197 72 221.195 72C221.194 72 221.193 72 221.191 72C221.19 72 221.189 72 221.188 72C221.186 72 221.185 72 221.184 72C221.182 72 221.181 72 221.18 72C221.179 72 221.177 72 221.176 72C221.175 72 221.173 72 221.172 72C221.171 72 221.17 72 221.168 72C221.167 72 221.166 72 221.164 72C221.163 72 221.162 72 221.161 72C221.159 72 221.158 72 221.157 72C221.155 72 221.154 72 221.153 72C221.152 72 221.15 72 221.149 72C221.148 72 221.146 72 221.145 72C221.144 72 221.142 72 221.141 72C221.14 72 221.139 72 221.137 72C221.136 72 221.135 72 221.133 72C221.132 72 221.131 72 221.13 72C221.128 72 221.127 72 221.126 72C221.124 72 221.123 72 221.122 72C221.12 72 221.119 72 221.118 72C221.117 72 221.115 72 221.114 72C221.113 72 221.111 72 221.11 72C221.109 72 221.107 72 221.106 72C221.105 72 221.104 72 221.102 72C221.101 72 221.1 72 221.098 72C221.097 72 221.096 72 221.094 72C221.093 72 221.092 72 221.091 72C221.089 72 221.088 72 221.087 72C221.085 72 221.084 72 221.083 72C221.081 72 221.08 72 221.079 72C221.078 72 221.076 72 221.075 72C221.074 72 221.072 72 221.071 72C221.07 72 221.068 72 221.067 72C221.066 72 221.064 72 221.063 72C221.062 72 221.061 72 221.059 72C221.058 72 221.057 72 221.055 72C221.054 72 221.053 72 221.051 72C221.05 72 221.049 72 221.047 72C221.046 72 221.045 72 221.044 72C221.042 72 221.041 72 221.04 72C221.038 72 221.037 72 221.036 72C221.034 72 221.033 72 221.032 72C221.03 72 221.029 72 221.028 72C221.027 72 221.025 72 221.024 72C221.023 72 221.021 72 221.02 72C221.019 72 221.017 72 221.016 72C221.015 72 221.013 72 221.012 72C221.011 72 221.009 72 221.008 72C221.007 72 221.005 72 221.004 72C221.003 72 221.002 72 221 72C220.999 72 220.998 72 220.996 72C220.995 72 220.994 72 220.992 72C220.991 72 220.99 72 220.988 72C220.987 72 220.986 72 220.984 72C220.983 72 220.982 72 220.98 72C220.979 72 220.978 72 220.977 72C220.975 72 220.974 72 220.973 72C220.971 72 220.97 72 220.969 72C220.967 72 220.966 72 220.965 72C220.963 72 220.962 72 220.961 72C220.959 72 220.958 72 220.957 72C220.955 72 220.954 72 220.953 72C220.951 72 220.95 72 220.949 72C220.947 72 220.946 72 220.945 72C220.943 72 220.942 72 220.941 72C220.939 72 220.938 72 220.937 72C220.935 72 220.934 72 220.933 72C220.932 72 220.93 72 220.929 72C220.928 72 220.926 72 220.925 72C220.924 72 220.922 72 220.921 72C220.92 72 220.918 72 220.917 72C220.916 72 220.914 72 220.913 72C220.912 72 220.91 72 220.909 72C220.908 72 220.906 72 220.905 72C220.904 72 220.902 72 220.901 72C220.9 72 220.898 72 220.897 72C220.896 72 220.894 72 220.893 72C220.892 72 220.89 72 220.889 72C220.888 72 220.886 72 220.885 72C220.884 72 220.882 72 220.881 72C220.88 72 220.878 72 220.877 72C220.876 72 220.874 72 220.873 72C220.872 72 220.87 72 220.869 72C220.868 72 220.866 72 220.865 72C220.864 72 220.862 72 220.861 72C220.86 72 220.858 72 220.857 72C220.856 72 220.854 72 220.853 72C220.852 72 220.85 72 220.849 72C220.848 72 220.846 72 220.845 72C220.843 72 220.842 72 220.841 72C220.839 72 220.838 72 220.837 72C220.835 72 220.834 72 220.833 72C220.831 72 220.83 72 220.829 72C220.827 72 220.826 72 220.825 72C220.823 72 220.822 72 220.821 72C220.819 72 220.818 72 220.817 72C220.815 72 220.814 72 220.813 72C220.811 72 220.81 72 220.809 72C220.807 72 220.806 72 220.805 72C220.803 72 220.802 72 220.8 72C220.799 72 220.798 72 220.796 72C220.795 72 220.794 72 220.792 72C220.791 72 220.79 72 220.788 72C220.787 72 220.786 72 220.784 72C220.783 72 220.782 72 220.78 72C220.779 72 220.778 72 220.776 72C220.775 72 220.774 72 220.772 72C220.771 72 220.769 72 220.768 72C220.767 72 220.765 72 220.764 72C220.763 72 220.761 72 220.76 72C220.759 72 220.757 72 220.756 72C220.755 72 220.753 72 220.752 72C220.751 72 220.749 72 220.748 72C220.746 72 220.745 72 220.744 72C220.742 72 220.741 72 220.74 72C220.738 72 220.737 72 220.736 72C220.734 72 220.733 72 220.732 72C220.73 72 220.729 72 220.727 72C220.726 72 220.725 72 220.723 72C220.722 72 220.721 72 220.719 72C220.718 72 220.717 72 220.715 72C220.714 72 220.712 72 220.711 72C220.71 72 220.708 72 220.707 72C220.706 72 220.704 72 220.703 72C220.702 72 220.7 72 220.699 72C220.698 72 220.696 72 220.695 72C220.693 72 220.692 72 220.691 72C220.689 72 220.688 72 220.687 72C220.685 72 220.684 72 220.683 72C220.681 72 220.68 72 220.678 72C220.677 72 220.676 72 220.674 72C220.673 72 220.672 72 220.67 72C220.669 72 220.667 72 220.666 72C220.665 72 220.663 72 220.662 72C220.661 72 220.659 72 220.658 72C220.657 72 220.655 72 220.654 72C220.652 72 220.651 72 220.65 72C220.648 72 220.647 72 220.646 72C220.644 72 220.643 72 220.641 72C220.64 72 220.639 72 220.637 72C220.636 72 220.635 72 220.633 72C220.632 72 220.63 72 220.629 72C220.628 72 220.626 72 220.625 72C220.624 72 220.622 72 220.621 72C220.619 72 220.618 72 220.617 72C220.615 72 220.614 72 220.613 72C220.611 72 220.61 72 220.608 72C220.607 72 220.606 72 220.604 72C220.603 72 220.602 72 220.6 72C220.599 72 220.597 72 220.596 72C220.595 72 220.593 72 220.592 72C220.591 72 220.589 72 220.588 72C220.586 72 220.585 72 220.584 72C220.582 72 220.581 72 220.58 72C220.578 72 220.577 72 220.575 72C220.574 72 220.573 72 220.571 72C220.57 72 220.568 72 220.567 72C220.566 72 220.564 72 220.563 72C220.562 72 220.56 72 220.559 72C220.557 72 220.556 72 220.555 72C220.553 72 220.552 72 220.55 72C220.549 72 220.548 72 220.546 72C220.545 72 220.544 72 220.542 72C220.541 72 220.539 72 220.538 72C220.537 72 220.535 72 220.534 72C220.532 72 220.531 72 220.53 72C220.528 72 220.527 72 220.526 72C220.524 72 220.523 72 220.521 72C220.52 72 220.519 72 220.517 72C220.516 72 220.514 72 220.513 72C220.512 72 220.51 72 220.509 72C220.507 72 220.506 72 220.505 72C220.503 72 220.502 72 220.501 72C220.499 72 220.498 72 220.496 72C220.495 72 220.494 72 220.492 72C220.491 72 220.489 72 220.488 72C220.487 72 220.485 72 220.484 72C220.482 72 220.481 72 220.48 72C220.478 72 220.477 72 220.475 72C220.474 72 220.473 72 220.471 72C220.47 72 220.468 72 220.467 72C220.466 72 220.464 72 220.463 72C220.461 72 220.46 72 220.459 72C220.457 72 220.456 72 220.454 72C220.453 72 220.452 72 220.45 72C220.449 72 220.447 72 220.446 72C220.445 72 220.443 72 220.442 72C220.44 72 220.439 72 220.438 72C220.436 72 220.435 72 220.433 72C220.432 72 220.431 72 220.429 72C220.428 72 220.426 72 220.425 72C220.424 72 220.422 72 220.421 72C220.419 72 220.418 72 220.417 72C220.415 72 220.414 72 220.412 72C220.411 72 220.41 72 220.408 72C220.407 72 220.405 72 220.404 72C220.403 72 220.401 72 220.4 72C220.398 72 220.397 72 220.395 72C220.394 72 220.393 72 220.391 72C220.39 72 220.388 72 220.387 72C220.386 72 220.384 72 220.383 72C220.381 72 220.38 72 220.379 72C220.377 72 220.376 72 220.374 72C220.373 72 220.372 72 220.37 72C220.369 72 220.367 72 220.366 72C220.364 72 220.363 72 220.362 72C220.36 72 220.359 72 220.357 72C220.356 72 220.355 72 220.353 72C220.352 72 220.35 72 220.349 72C220.347 72 220.346 72 220.345 72C220.343 72 220.342 72 220.34 72C220.339 72 220.338 72 220.336 72C220.335 72 220.333 72 220.332 72C220.331 72 220.329 72 220.328 72C220.326 72 220.325 72 220.323 72C220.322 72 220.321 72 220.319 72C220.318 72 220.316 72 220.315 72C220.313 72 220.312 72 220.311 72C220.309 72 220.308 72 220.306 72C220.305 72 220.304 72 220.302 72C220.301 72 220.299 72 220.298 72C220.296 72 220.295 72 220.294 72C220.292 72 220.291 72 220.289 72C220.288 72 220.286 72 220.285 72C220.284 72 220.282 72 220.281 72C220.279 72 220.278 72 220.276 72C220.275 72 220.274 72 220.272 72C220.271 72 220.269 72 220.268 72C220.267 72 220.265 72 220.264 72C220.262 72 220.261 72 220.259 72C220.258 72 220.257 72 220.255 72C220.254 72 220.252 72 220.251 72C220.249 72 220.248 72 220.247 72C220.245 72 220.244 72 220.242 72C220.241 72 220.239 72 220.238 72C220.236 72 220.235 72 220.234 72C220.232 72 220.231 72 220.229 72C220.228 72 220.226 72 220.225 72C220.224 72 220.222 72 220.221 72C220.219 72 220.218 72 220.216 72C220.215 72 220.214 72 220.212 72C220.211 72 220.209 72 220.208 72C220.206 72 220.205 72 220.204 72C220.202 72 220.201 72 220.199 72C220.198 72 220.196 72 220.195 72C220.193 72 220.192 72 220.191 72C220.189 72 220.188 72 220.186 72C220.185 72 220.183 72 220.182 72C220.181 72 220.179 72 220.178 72C220.176 72 220.175 72 220.173 72C220.172 72 220.17 72 220.169 72C220.168 72 220.166 72 220.165 72C220.163 72 220.162 72 220.16 72C220.159 72 220.157 72 220.156 72C220.155 72 220.153 72 220.152 72C220.15 72 220.149 72 220.147 72C220.146 72 220.144 72 220.143 72C220.142 72 220.14 72 220.139 72C220.137 72 220.136 72 220.134 72C220.133 72 220.131 72 220.13 72C220.129 72 220.127 72 220.126 72C220.124 72 220.123 72 220.121 72C220.12 72 220.118 72 220.117 72C220.116 72 220.114 72 220.113 72C220.111 72 220.11 72 220.108 72C220.107 72 220.105 72 220.104 72C220.103 72 220.101 72 220.1 72C220.098 72 220.097 72 220.095 72C220.094 72 220.092 72 220.091 72C220.089 72 220.088 72 220.087 72C220.085 72 220.084 72 220.082 72C220.081 72 220.079 72 220.078 72C220.076 72 220.075 72 220.073 72C220.072 72 220.071 72 220.069 72C220.068 72 220.066 72 220.065 72C220.063 72 220.062 72 220.06 72C220.059 72 220.057 72 220.056 72C220.055 72 220.053 72 220.052 72C220.05 72 220.049 72 220.047 72C220.046 72 220.044 72 220.043 72C220.041 72 220.04 72 220.038 72C220.037 72 220.036 72 220.034 72C220.033 72 220.031 72 220.03 72C220.028 72 220.027 72 220.025 72C220.024 72 220.022 72 220.021 72C220.019 72 220.018 72 220.017 72C220.015 72 220.014 72 220.012 72C220.011 72 220.009 72 220.008 72C220.006 72 220.005 72 220.003 72C220.002 72 220 72 219.999 72C219.998 72 219.996 72 219.995 72C219.993 72 219.992 72 219.99 72C219.989 72 219.987 72 219.986 72C219.984 72 219.983 72 219.981 72C219.98 72 219.978 72 219.977 72C219.976 72 219.974 72 219.973 72C219.971 72 219.97 72 219.968 72C219.967 72 219.965 72 219.964 72C219.962 72 219.961 72 219.959 72C219.958 72 219.956 72 219.955 72C219.953 72 219.952 72 219.951 72C219.949 72 219.948 72 219.946 72C219.945 72 219.943 72 219.942 72C219.94 72 219.939 72 219.937 72C219.936 72 219.934 72 219.933 72C219.931 72 219.93 72 219.928 72C219.927 72 219.925 72 219.924 72C219.923 72 219.921 72 219.92 72C219.918 72 219.917 72 219.915 72C219.914 72 219.912 72 219.911 72C219.909 72 219.908 72 219.906 72C219.905 72 219.903 72 219.902 72C219.9 72 219.899 72 219.897 72C219.896 72 219.894 72 219.893 72C219.892 72 219.89 72 219.889 72C219.887 72 219.886 72 219.884 72C219.883 72 219.881 72 219.88 72C219.878 72 219.877 72 219.875 72C219.874 72 219.872 72 219.871 72C219.869 72 219.868 72 219.866 72C219.865 72 219.863 72 219.862 72C219.86 72 219.859 72 219.857 72C219.856 72 219.854 72 219.853 72C219.851 72 219.85 72 219.848 72C219.847 72 219.846 72 219.844 72C219.843 72 219.841 72 219.84 72C219.838 72 219.837 72 219.835 72C219.834 72 219.832 72 219.831 72C219.829 72 219.828 72 219.826 72C219.825 72 219.823 72 219.822 72C219.82 72 219.819 72 219.817 72C219.816 72 219.814 72 219.813 72C219.811 72 219.81 72 219.808 72C219.807 72 219.805 72 219.804 72C219.802 72 219.801 72 219.799 72C219.798 72 219.796 72 219.795 72C219.793 72 219.792 72 219.79 72C219.789 72 219.787 72 219.786 72C219.784 72 219.783 72 219.781 72C219.78 72 219.778 72 219.777 72C219.775 72 219.774 72 219.772 72C219.771 72 219.769 72 219.768 72C219.766 72 219.765 72 219.763 72C219.762 72 219.76 72 219.759 72C219.757 72 219.756 72 219.754 72C219.753 72 219.751 72 219.75 72C219.748 72 219.747 72 219.745 72C219.744 72 219.742 72 219.741 72C219.739 72 219.738 72 219.736 72C219.735 72 219.733 72 219.732 72C219.73 72 219.729 72 219.727 72C219.726 72 219.724 72 219.723 72C219.721 72 219.72 72 219.718 72C219.717 72 219.715 72 219.714 72C219.712 72 219.711 72 219.709 72C219.708 72 219.706 72 219.705 72C219.703 72 219.702 72 219.7 72C219.699 72 219.697 72 219.696 72C219.694 72 219.693 72 219.691 72C219.69 72 219.688 72 219.687 72C219.685 72 219.684 72 219.682 72C219.681 72 219.679 72 219.678 72C219.676 72 219.675 72 219.673 72C219.672 72 219.67 72 219.669 72C219.667 72 219.666 72 219.664 72C219.663 72 219.661 72 219.66 72C219.658 72 219.657 72 219.655 72C219.654 72 219.652 72 219.651 72C219.649 72 219.647 72 219.646 72C219.644 72 219.643 72 219.641 72C219.64 72 219.638 72 219.637 72C219.635 72 219.634 72 219.632 72C219.631 72 219.629 72 219.628 72C219.626 72 219.625 72 219.623 72C219.622 72 219.62 72 219.619 72C219.617 72 219.616 72 219.614 72C219.613 72 219.611 72 219.61 72C219.608 72 219.607 72 219.605 72C219.604 72 219.602 72 219.6 72C219.599 72 219.597 72 219.596 72C219.594 72 219.593 72 219.591 72C219.59 72 219.588 72 219.587 72C219.585 72 219.584 72 219.582 72C219.581 72 219.579 72 219.578 72C219.576 72 219.575 72 219.573 72C219.572 72 219.57 72 219.568 72C219.567 72 219.565 72 219.564 72C219.562 72 219.561 72 219.559 72C219.558 72 219.556 72 219.555 72C219.553 72 219.552 72 219.55 72C219.549 72 219.547 72 219.546 72C219.544 72 219.543 72 219.541 72C219.539 72 219.538 72 219.536 72C219.535 72 219.533 72 219.532 72C219.53 72 219.529 72 219.527 72C219.526 72 219.524 72 219.523 72C219.521 72 219.52 72 219.518 72C219.517 72 219.515 72 219.513 72C219.512 72 219.51 72 219.509 72C219.507 72 219.506 72 219.504 72C219.503 72 219.501 72 219.5 72C219.498 72 219.497 72 219.495 72C219.494 72 219.492 72 219.49 72C219.489 72 219.487 72 219.486 72C219.484 72 219.483 72 219.481 72C219.48 72 219.478 72 219.477 72C219.475 72 219.474 72 219.472 72C219.47 72 219.469 72 219.467 72C219.466 72 219.464 72 219.463 72C219.461 72 219.46 72 219.458 72C219.457 72 219.455 72 219.454 72C219.452 72 219.45 72 219.449 72C219.447 72 219.446 72 219.444 72C219.443 72 219.441 72 219.44 72C219.438 72 219.437 72 219.435 72C219.434 72 219.432 72 219.43 72C219.429 72 219.427 72 219.426 72C219.424 72 219.423 72 219.421 72C219.42 72 219.418 72 219.417 72C219.415 72 219.413 72 219.412 72C219.41 72 219.409 72 219.407 72C219.406 72 219.404 72 219.403 72C219.401 72 219.4 72 219.398 72C219.396 72 219.395 72 219.393 72C219.392 72 219.39 72 219.389 72C219.387 72 219.386 72 219.384 72C219.382 72 219.381 72 219.379 72C219.378 72 219.376 72 219.375 72C219.373 72 219.372 72 219.37 72C219.369 72 219.367 72 219.365 72C219.364 72 219.362 72 219.361 72C219.359 72 219.358 72 219.356 72C219.355 72 219.353 72 219.351 72C219.35 72 219.348 72 219.347 72C219.345 72 219.344 72 219.342 72C219.341 72 219.339 72 219.337 72C219.336 72 219.334 72 219.333 72C219.331 72 219.33 72 219.328 72C219.327 72 219.325 72 219.323 72C219.322 72 219.32 72 219.319 72C219.317 72 219.316 72 219.314 72C219.313 72 219.311 72 219.309 72C219.308 72 219.306 72 219.305 72C219.303 72 219.302 72 219.3 72C219.299 72 219.297 72 219.295 72C219.294 72 219.292 72 219.291 72C219.289 72 219.288 72 219.286 72C219.284 72 219.283 72 219.281 72C219.28 72 219.278 72 219.277 72C219.275 72 219.274 72 219.272 72C219.27 72 219.269 72 219.267 72C219.266 72 219.264 72 219.263 72C219.261 72 219.259 72 219.258 72C219.256 72 219.255 72 219.253 72C219.252 72 219.25 72 219.248 72C219.247 72 219.245 72 219.244 72C219.242 72 219.241 72 219.239 72C219.237 72 219.236 72 219.234 72C219.233 72 219.231 72 219.23 72C219.228 72 219.226 72 219.225 72C219.223 72 219.222 72 219.22 72C219.219 72 219.217 72 219.216 72C219.214 72 219.212 72 219.211 72C219.209 72 219.208 72 219.206 72C219.204 72 219.203 72 219.201 72C219.2 72 219.198 72 219.197 72C219.195 72 219.193 72 219.192 72C219.19 72 219.189 72 219.187 72C219.186 72 219.184 72 219.182 72C219.181 72 219.179 72 219.178 72C219.176 72 219.175 72 219.173 72C219.171 72 219.17 72 219.168 72C219.167 72 219.165 72 219.164 72C219.162 72 219.16 72 219.159 72C219.157 72 219.156 72 219.154 72C219.152 72 219.151 72 219.149 72C219.148 72 219.146 72 219.145 72C219.143 72 219.141 72 219.14 72C219.138 72 219.137 72 219.135 72C219.133 72 219.132 72 219.13 72C219.129 72 219.127 72 219.126 72C219.124 72 219.122 72 219.121 72C219.119 72 219.118 72 219.116 72C219.114 72 219.113 72 219.111 72C219.11 72 219.108 72 219.107 72C219.105 72 219.103 72 219.102 72C219.1 72 219.099 72 219.097 72C219.095 72 219.094 72 219.092 72C219.091 72 219.089 72 219.088 72V74C219.089 74 219.091 74 219.092 74C219.094 74 219.095 74 219.097 74C219.099 74 219.1 74 219.102 74C219.103 74 219.105 74 219.107 74C219.108 74 219.11 74 219.111 74C219.113 74 219.114 74 219.116 74C219.118 74 219.119 74 219.121 74C219.122 74 219.124 74 219.126 74C219.127 74 219.129 74 219.13 74C219.132 74 219.133 74 219.135 74C219.137 74 219.138 74 219.14 74C219.141 74 219.143 74 219.145 74C219.146 74 219.148 74 219.149 74C219.151 74 219.152 74 219.154 74C219.156 74 219.157 74 219.159 74C219.16 74 219.162 74 219.164 74C219.165 74 219.167 74 219.168 74C219.17 74 219.171 74 219.173 74C219.175 74 219.176 74 219.178 74C219.179 74 219.181 74 219.182 74C219.184 74 219.186 74 219.187 74C219.189 74 219.19 74 219.192 74C219.193 74 219.195 74 219.197 74C219.198 74 219.2 74 219.201 74C219.203 74 219.204 74 219.206 74C219.208 74 219.209 74 219.211 74C219.212 74 219.214 74 219.216 74C219.217 74 219.219 74 219.22 74C219.222 74 219.223 74 219.225 74C219.226 74 219.228 74 219.23 74C219.231 74 219.233 74 219.234 74C219.236 74 219.237 74 219.239 74C219.241 74 219.242 74 219.244 74C219.245 74 219.247 74 219.248 74C219.25 74 219.252 74 219.253 74C219.255 74 219.256 74 219.258 74C219.259 74 219.261 74 219.263 74C219.264 74 219.266 74 219.267 74C219.269 74 219.27 74 219.272 74C219.274 74 219.275 74 219.277 74C219.278 74 219.28 74 219.281 74C219.283 74 219.284 74 219.286 74C219.288 74 219.289 74 219.291 74C219.292 74 219.294 74 219.295 74C219.297 74 219.299 74 219.3 74C219.302 74 219.303 74 219.305 74C219.306 74 219.308 74 219.309 74C219.311 74 219.313 74 219.314 74C219.316 74 219.317 74 219.319 74C219.32 74 219.322 74 219.323 74C219.325 74 219.327 74 219.328 74C219.33 74 219.331 74 219.333 74C219.334 74 219.336 74 219.337 74C219.339 74 219.341 74 219.342 74C219.344 74 219.345 74 219.347 74C219.348 74 219.35 74 219.351 74C219.353 74 219.355 74 219.356 74C219.358 74 219.359 74 219.361 74C219.362 74 219.364 74 219.365 74C219.367 74 219.369 74 219.37 74C219.372 74 219.373 74 219.375 74C219.376 74 219.378 74 219.379 74C219.381 74 219.382 74 219.384 74C219.386 74 219.387 74 219.389 74C219.39 74 219.392 74 219.393 74C219.395 74 219.396 74 219.398 74C219.4 74 219.401 74 219.403 74C219.404 74 219.406 74 219.407 74C219.409 74 219.41 74 219.412 74C219.413 74 219.415 74 219.417 74C219.418 74 219.42 74 219.421 74C219.423 74 219.424 74 219.426 74C219.427 74 219.429 74 219.43 74C219.432 74 219.434 74 219.435 74C219.437 74 219.438 74 219.44 74C219.441 74 219.443 74 219.444 74C219.446 74 219.447 74 219.449 74C219.45 74 219.452 74 219.454 74C219.455 74 219.457 74 219.458 74C219.46 74 219.461 74 219.463 74C219.464 74 219.466 74 219.467 74C219.469 74 219.47 74 219.472 74C219.474 74 219.475 74 219.477 74C219.478 74 219.48 74 219.481 74C219.483 74 219.484 74 219.486 74C219.487 74 219.489 74 219.49 74C219.492 74 219.494 74 219.495 74C219.497 74 219.498 74 219.5 74C219.501 74 219.503 74 219.504 74C219.506 74 219.507 74 219.509 74C219.51 74 219.512 74 219.513 74C219.515 74 219.517 74 219.518 74C219.52 74 219.521 74 219.523 74C219.524 74 219.526 74 219.527 74C219.529 74 219.53 74 219.532 74C219.533 74 219.535 74 219.536 74C219.538 74 219.539 74 219.541 74C219.543 74 219.544 74 219.546 74C219.547 74 219.549 74 219.55 74C219.552 74 219.553 74 219.555 74C219.556 74 219.558 74 219.559 74C219.561 74 219.562 74 219.564 74C219.565 74 219.567 74 219.568 74C219.57 74 219.572 74 219.573 74C219.575 74 219.576 74 219.578 74C219.579 74 219.581 74 219.582 74C219.584 74 219.585 74 219.587 74C219.588 74 219.59 74 219.591 74C219.593 74 219.594 74 219.596 74C219.597 74 219.599 74 219.6 74C219.602 74 219.604 74 219.605 74C219.607 74 219.608 74 219.61 74C219.611 74 219.613 74 219.614 74C219.616 74 219.617 74 219.619 74C219.62 74 219.622 74 219.623 74C219.625 74 219.626 74 219.628 74C219.629 74 219.631 74 219.632 74C219.634 74 219.635 74 219.637 74C219.638 74 219.64 74 219.641 74C219.643 74 219.644 74 219.646 74C219.647 74 219.649 74 219.651 74C219.652 74 219.654 74 219.655 74C219.657 74 219.658 74 219.66 74C219.661 74 219.663 74 219.664 74C219.666 74 219.667 74 219.669 74C219.67 74 219.672 74 219.673 74C219.675 74 219.676 74 219.678 74C219.679 74 219.681 74 219.682 74C219.684 74 219.685 74 219.687 74C219.688 74 219.69 74 219.691 74C219.693 74 219.694 74 219.696 74C219.697 74 219.699 74 219.7 74C219.702 74 219.703 74 219.705 74C219.706 74 219.708 74 219.709 74C219.711 74 219.712 74 219.714 74C219.715 74 219.717 74 219.718 74C219.72 74 219.721 74 219.723 74C219.724 74 219.726 74 219.727 74C219.729 74 219.73 74 219.732 74C219.733 74 219.735 74 219.736 74C219.738 74 219.739 74 219.741 74C219.742 74 219.744 74 219.745 74C219.747 74 219.748 74 219.75 74C219.751 74 219.753 74 219.754 74C219.756 74 219.757 74 219.759 74C219.76 74 219.762 74 219.763 74C219.765 74 219.766 74 219.768 74C219.769 74 219.771 74 219.772 74C219.774 74 219.775 74 219.777 74C219.778 74 219.78 74 219.781 74C219.783 74 219.784 74 219.786 74C219.787 74 219.789 74 219.79 74C219.792 74 219.793 74 219.795 74C219.796 74 219.798 74 219.799 74C219.801 74 219.802 74 219.804 74C219.805 74 219.807 74 219.808 74C219.81 74 219.811 74 219.813 74C219.814 74 219.816 74 219.817 74C219.819 74 219.82 74 219.822 74C219.823 74 219.825 74 219.826 74C219.828 74 219.829 74 219.831 74C219.832 74 219.834 74 219.835 74C219.837 74 219.838 74 219.84 74C219.841 74 219.843 74 219.844 74C219.846 74 219.847 74 219.848 74C219.85 74 219.851 74 219.853 74C219.854 74 219.856 74 219.857 74C219.859 74 219.86 74 219.862 74C219.863 74 219.865 74 219.866 74C219.868 74 219.869 74 219.871 74C219.872 74 219.874 74 219.875 74C219.877 74 219.878 74 219.88 74C219.881 74 219.883 74 219.884 74C219.886 74 219.887 74 219.889 74C219.89 74 219.892 74 219.893 74C219.894 74 219.896 74 219.897 74C219.899 74 219.9 74 219.902 74C219.903 74 219.905 74 219.906 74C219.908 74 219.909 74 219.911 74C219.912 74 219.914 74 219.915 74C219.917 74 219.918 74 219.92 74C219.921 74 219.923 74 219.924 74C219.925 74 219.927 74 219.928 74C219.93 74 219.931 74 219.933 74C219.934 74 219.936 74 219.937 74C219.939 74 219.94 74 219.942 74C219.943 74 219.945 74 219.946 74C219.948 74 219.949 74 219.951 74C219.952 74 219.953 74 219.955 74C219.956 74 219.958 74 219.959 74C219.961 74 219.962 74 219.964 74C219.965 74 219.967 74 219.968 74C219.97 74 219.971 74 219.973 74C219.974 74 219.976 74 219.977 74C219.978 74 219.98 74 219.981 74C219.983 74 219.984 74 219.986 74C219.987 74 219.989 74 219.99 74C219.992 74 219.993 74 219.995 74C219.996 74 219.998 74 219.999 74C220 74 220.002 74 220.003 74C220.005 74 220.006 74 220.008 74C220.009 74 220.011 74 220.012 74C220.014 74 220.015 74 220.017 74C220.018 74 220.019 74 220.021 74C220.022 74 220.024 74 220.025 74C220.027 74 220.028 74 220.03 74C220.031 74 220.033 74 220.034 74C220.036 74 220.037 74 220.038 74C220.04 74 220.041 74 220.043 74C220.044 74 220.046 74 220.047 74C220.049 74 220.05 74 220.052 74C220.053 74 220.055 74 220.056 74C220.057 74 220.059 74 220.06 74C220.062 74 220.063 74 220.065 74C220.066 74 220.068 74 220.069 74C220.071 74 220.072 74 220.073 74C220.075 74 220.076 74 220.078 74C220.079 74 220.081 74 220.082 74C220.084 74 220.085 74 220.087 74C220.088 74 220.089 74 220.091 74C220.092 74 220.094 74 220.095 74C220.097 74 220.098 74 220.1 74C220.101 74 220.103 74 220.104 74C220.105 74 220.107 74 220.108 74C220.11 74 220.111 74 220.113 74C220.114 74 220.116 74 220.117 74C220.118 74 220.12 74 220.121 74C220.123 74 220.124 74 220.126 74C220.127 74 220.129 74 220.13 74C220.131 74 220.133 74 220.134 74C220.136 74 220.137 74 220.139 74C220.14 74 220.142 74 220.143 74C220.144 74 220.146 74 220.147 74C220.149 74 220.15 74 220.152 74C220.153 74 220.155 74 220.156 74C220.157 74 220.159 74 220.16 74C220.162 74 220.163 74 220.165 74C220.166 74 220.168 74 220.169 74C220.17 74 220.172 74 220.173 74C220.175 74 220.176 74 220.178 74C220.179 74 220.181 74 220.182 74C220.183 74 220.185 74 220.186 74C220.188 74 220.189 74 220.191 74C220.192 74 220.193 74 220.195 74C220.196 74 220.198 74 220.199 74C220.201 74 220.202 74 220.204 74C220.205 74 220.206 74 220.208 74C220.209 74 220.211 74 220.212 74C220.214 74 220.215 74 220.216 74C220.218 74 220.219 74 220.221 74C220.222 74 220.224 74 220.225 74C220.226 74 220.228 74 220.229 74C220.231 74 220.232 74 220.234 74C220.235 74 220.236 74 220.238 74C220.239 74 220.241 74 220.242 74C220.244 74 220.245 74 220.247 74C220.248 74 220.249 74 220.251 74C220.252 74 220.254 74 220.255 74C220.257 74 220.258 74 220.259 74C220.261 74 220.262 74 220.264 74C220.265 74 220.267 74 220.268 74C220.269 74 220.271 74 220.272 74C220.274 74 220.275 74 220.276 74C220.278 74 220.279 74 220.281 74C220.282 74 220.284 74 220.285 74C220.286 74 220.288 74 220.289 74C220.291 74 220.292 74 220.294 74C220.295 74 220.296 74 220.298 74C220.299 74 220.301 74 220.302 74C220.304 74 220.305 74 220.306 74C220.308 74 220.309 74 220.311 74C220.312 74 220.313 74 220.315 74C220.316 74 220.318 74 220.319 74C220.321 74 220.322 74 220.323 74C220.325 74 220.326 74 220.328 74C220.329 74 220.331 74 220.332 74C220.333 74 220.335 74 220.336 74C220.338 74 220.339 74 220.34 74C220.342 74 220.343 74 220.345 74C220.346 74 220.347 74 220.349 74C220.35 74 220.352 74 220.353 74C220.355 74 220.356 74 220.357 74C220.359 74 220.36 74 220.362 74C220.363 74 220.364 74 220.366 74C220.367 74 220.369 74 220.37 74C220.372 74 220.373 74 220.374 74C220.376 74 220.377 74 220.379 74C220.38 74 220.381 74 220.383 74C220.384 74 220.386 74 220.387 74C220.388 74 220.39 74 220.391 74C220.393 74 220.394 74 220.395 74C220.397 74 220.398 74 220.4 74C220.401 74 220.403 74 220.404 74C220.405 74 220.407 74 220.408 74C220.41 74 220.411 74 220.412 74C220.414 74 220.415 74 220.417 74C220.418 74 220.419 74 220.421 74C220.422 74 220.424 74 220.425 74C220.426 74 220.428 74 220.429 74C220.431 74 220.432 74 220.433 74C220.435 74 220.436 74 220.438 74C220.439 74 220.44 74 220.442 74C220.443 74 220.445 74 220.446 74C220.447 74 220.449 74 220.45 74C220.452 74 220.453 74 220.454 74C220.456 74 220.457 74 220.459 74C220.46 74 220.461 74 220.463 74C220.464 74 220.466 74 220.467 74C220.468 74 220.47 74 220.471 74C220.473 74 220.474 74 220.475 74C220.477 74 220.478 74 220.48 74C220.481 74 220.482 74 220.484 74C220.485 74 220.487 74 220.488 74C220.489 74 220.491 74 220.492 74C220.494 74 220.495 74 220.496 74C220.498 74 220.499 74 220.501 74C220.502 74 220.503 74 220.505 74C220.506 74 220.507 74 220.509 74C220.51 74 220.512 74 220.513 74C220.514 74 220.516 74 220.517 74C220.519 74 220.52 74 220.521 74C220.523 74 220.524 74 220.526 74C220.527 74 220.528 74 220.53 74C220.531 74 220.532 74 220.534 74C220.535 74 220.537 74 220.538 74C220.539 74 220.541 74 220.542 74C220.544 74 220.545 74 220.546 74C220.548 74 220.549 74 220.55 74C220.552 74 220.553 74 220.555 74C220.556 74 220.557 74 220.559 74C220.56 74 220.562 74 220.563 74C220.564 74 220.566 74 220.567 74C220.568 74 220.57 74 220.571 74C220.573 74 220.574 74 220.575 74C220.577 74 220.578 74 220.58 74C220.581 74 220.582 74 220.584 74C220.585 74 220.586 74 220.588 74C220.589 74 220.591 74 220.592 74C220.593 74 220.595 74 220.596 74C220.597 74 220.599 74 220.6 74C220.602 74 220.603 74 220.604 74C220.606 74 220.607 74 220.608 74C220.61 74 220.611 74 220.613 74C220.614 74 220.615 74 220.617 74C220.618 74 220.619 74 220.621 74C220.622 74 220.624 74 220.625 74C220.626 74 220.628 74 220.629 74C220.63 74 220.632 74 220.633 74C220.635 74 220.636 74 220.637 74C220.639 74 220.64 74 220.641 74C220.643 74 220.644 74 220.646 74C220.647 74 220.648 74 220.65 74C220.651 74 220.652 74 220.654 74C220.655 74 220.657 74 220.658 74C220.659 74 220.661 74 220.662 74C220.663 74 220.665 74 220.666 74C220.667 74 220.669 74 220.67 74C220.672 74 220.673 74 220.674 74C220.676 74 220.677 74 220.678 74C220.68 74 220.681 74 220.683 74C220.684 74 220.685 74 220.687 74C220.688 74 220.689 74 220.691 74C220.692 74 220.693 74 220.695 74C220.696 74 220.698 74 220.699 74C220.7 74 220.702 74 220.703 74C220.704 74 220.706 74 220.707 74C220.708 74 220.71 74 220.711 74C220.712 74 220.714 74 220.715 74C220.717 74 220.718 74 220.719 74C220.721 74 220.722 74 220.723 74C220.725 74 220.726 74 220.727 74C220.729 74 220.73 74 220.732 74C220.733 74 220.734 74 220.736 74C220.737 74 220.738 74 220.74 74C220.741 74 220.742 74 220.744 74C220.745 74 220.746 74 220.748 74C220.749 74 220.751 74 220.752 74C220.753 74 220.755 74 220.756 74C220.757 74 220.759 74 220.76 74C220.761 74 220.763 74 220.764 74C220.765 74 220.767 74 220.768 74C220.769 74 220.771 74 220.772 74C220.774 74 220.775 74 220.776 74C220.778 74 220.779 74 220.78 74C220.782 74 220.783 74 220.784 74C220.786 74 220.787 74 220.788 74C220.79 74 220.791 74 220.792 74C220.794 74 220.795 74 220.796 74C220.798 74 220.799 74 220.8 74C220.802 74 220.803 74 220.805 74C220.806 74 220.807 74 220.809 74C220.81 74 220.811 74 220.813 74C220.814 74 220.815 74 220.817 74C220.818 74 220.819 74 220.821 74C220.822 74 220.823 74 220.825 74C220.826 74 220.827 74 220.829 74C220.83 74 220.831 74 220.833 74C220.834 74 220.835 74 220.837 74C220.838 74 220.839 74 220.841 74C220.842 74 220.843 74 220.845 74C220.846 74 220.848 74 220.849 74C220.85 74 220.852 74 220.853 74C220.854 74 220.856 74 220.857 74C220.858 74 220.86 74 220.861 74C220.862 74 220.864 74 220.865 74C220.866 74 220.868 74 220.869 74C220.87 74 220.872 74 220.873 74C220.874 74 220.876 74 220.877 74C220.878 74 220.88 74 220.881 74C220.882 74 220.884 74 220.885 74C220.886 74 220.888 74 220.889 74C220.89 74 220.892 74 220.893 74C220.894 74 220.896 74 220.897 74C220.898 74 220.9 74 220.901 74C220.902 74 220.904 74 220.905 74C220.906 74 220.908 74 220.909 74C220.91 74 220.912 74 220.913 74C220.914 74 220.916 74 220.917 74C220.918 74 220.92 74 220.921 74C220.922 74 220.924 74 220.925 74C220.926 74 220.928 74 220.929 74C220.93 74 220.932 74 220.933 74C220.934 74 220.935 74 220.937 74C220.938 74 220.939 74 220.941 74C220.942 74 220.943 74 220.945 74C220.946 74 220.947 74 220.949 74C220.95 74 220.951 74 220.953 74C220.954 74 220.955 74 220.957 74C220.958 74 220.959 74 220.961 74C220.962 74 220.963 74 220.965 74C220.966 74 220.967 74 220.969 74C220.97 74 220.971 74 220.973 74C220.974 74 220.975 74 220.977 74C220.978 74 220.979 74 220.98 74C220.982 74 220.983 74 220.984 74C220.986 74 220.987 74 220.988 74C220.99 74 220.991 74 220.992 74C220.994 74 220.995 74 220.996 74C220.998 74 220.999 74 221 74C221.002 74 221.003 74 221.004 74C221.005 74 221.007 74 221.008 74C221.009 74 221.011 74 221.012 74C221.013 74 221.015 74 221.016 74C221.017 74 221.019 74 221.02 74C221.021 74 221.023 74 221.024 74C221.025 74 221.027 74 221.028 74C221.029 74 221.03 74 221.032 74C221.033 74 221.034 74 221.036 74C221.037 74 221.038 74 221.04 74C221.041 74 221.042 74 221.044 74C221.045 74 221.046 74 221.047 74C221.049 74 221.05 74 221.051 74C221.053 74 221.054 74 221.055 74C221.057 74 221.058 74 221.059 74C221.061 74 221.062 74 221.063 74C221.064 74 221.066 74 221.067 74C221.068 74 221.07 74 221.071 74C221.072 74 221.074 74 221.075 74C221.076 74 221.078 74 221.079 74C221.08 74 221.081 74 221.083 74C221.084 74 221.085 74 221.087 74C221.088 74 221.089 74 221.091 74C221.092 74 221.093 74 221.094 74C221.096 74 221.097 74 221.098 74C221.1 74 221.101 74 221.102 74C221.104 74 221.105 74 221.106 74C221.107 74 221.109 74 221.11 74C221.111 74 221.113 74 221.114 74C221.115 74 221.117 74 221.118 74C221.119 74 221.12 74 221.122 74C221.123 74 221.124 74 221.126 74C221.127 74 221.128 74 221.13 74C221.131 74 221.132 74 221.133 74C221.135 74 221.136 74 221.137 74C221.139 74 221.14 74 221.141 74C221.142 74 221.144 74 221.145 74C221.146 74 221.148 74 221.149 74C221.15 74 221.152 74 221.153 74C221.154 74 221.155 74 221.157 74C221.158 74 221.159 74 221.161 74C221.162 74 221.163 74 221.164 74C221.166 74 221.167 74 221.168 74C221.17 74 221.171 74 221.172 74C221.173 74 221.175 74 221.176 74C221.177 74 221.179 74 221.18 74C221.181 74 221.182 74 221.184 74C221.185 74 221.186 74 221.188 74C221.189 74 221.19 74 221.191 74C221.193 74 221.194 74 221.195 74C221.197 74 221.198 74 221.199 74C221.2 74 221.202 74 221.203 74C221.204 74 221.206 74 221.207 74C221.208 74 221.209 74 221.211 74C221.212 74 221.213 74 221.215 74C221.216 74 221.217 74 221.218 74C221.22 74 221.221 74 221.222 74C221.224 74 221.225 74 221.226 74C221.227 74 221.229 74 221.23 74C221.231 74 221.233 74 221.234 74C221.235 74 221.236 74 221.238 74C221.239 74 221.24 74 221.241 74C221.243 74 221.244 74 221.245 74C221.247 74 221.248 74 221.249 74C221.25 74 221.252 74 221.253 74C221.254 74 221.256 74 221.257 74C221.258 74 221.259 74 221.261 74C221.262 74 221.263 74 221.264 74C221.266 74 221.267 74 221.268 74C221.27 74 221.271 74 221.272 74C221.273 74 221.275 74 221.276 74C221.277 74 221.278 74 221.28 74C221.281 74 221.282 74 221.284 74V72ZM219.088 72H199.08V74H219.088V72ZM200.08 73V70.804H198.08V73H200.08ZM199.195 71.7973L202.855 71.3703L202.624 69.3837L198.964 69.8107L199.195 71.7973ZM203.74 70.377V32.923H201.74V70.377H203.74Z" fill="#F7D9D3"/>
</svg>
