<svg width="302" height="102" viewBox="0 0 302 102" fill="none" xmlns="http://www.w3.org/2000/svg">
<rect x="0.5" y="0.5" width="301" height="101" rx="50.5" fill="#F0EDE5" stroke="black"/>
<path d="M109.184 50.1598V33.2078H114.124V69.6078H109.184V50.6798H89.372V69.6078H84.432V33.2078H89.372V50.1598H109.184ZM118.289 33.2078H148.605V33.7278H135.917V69.6078H130.977V33.7278H118.289V33.2078ZM171.921 63.1078L185.077 33.2078H190.381V69.6078H185.441V33.8838L169.685 70.1278H169.633L153.253 33.7798V69.6078H152.733V33.2078H158.401L171.921 63.1078ZM202.208 33.2078V69.0878H219.42V69.6078H197.268V33.2078H202.208Z" fill="black"/>
<path d="M109.184 50.1598V51.1598H110.184V50.1598H109.184ZM109.184 33.2078V32.2078H108.184V33.2078H109.184ZM114.124 33.2078H115.124V32.2078H114.124V33.2078ZM114.124 69.6078V70.6078H115.124V69.6078H114.124ZM109.184 69.6078H108.184V70.6078H109.184V69.6078ZM109.184 50.6798H110.184V49.6798H109.184V50.6798ZM89.372 50.6798V49.6798H88.372V50.6798H89.372ZM89.372 69.6078V70.6078H90.372V69.6078H89.372ZM84.432 69.6078H83.432V70.6078H84.432V69.6078ZM84.432 33.2078V32.2078H83.432V33.2078H84.432ZM89.372 33.2078H90.372V32.2078H89.372V33.2078ZM89.372 50.1598H88.372V51.1598H89.372V50.1598ZM110.184 50.1598V33.2078H108.184V50.1598H110.184ZM109.184 34.2078H114.124V32.2078H109.184V34.2078ZM113.124 33.2078V69.6078H115.124V33.2078H113.124ZM114.124 68.6078H109.184V70.6078H114.124V68.6078ZM110.184 69.6078V50.6798H108.184V69.6078H110.184ZM109.184 49.6798H89.372V51.6798H109.184V49.6798ZM88.372 50.6798V69.6078H90.372V50.6798H88.372ZM89.372 68.6078H84.432V70.6078H89.372V68.6078ZM85.432 69.6078V33.2078H83.432V69.6078H85.432ZM84.432 34.2078H89.372V32.2078H84.432V34.2078ZM88.372 33.2078V50.1598H90.372V33.2078H88.372ZM89.372 51.1598H109.184V49.1598H89.372V51.1598ZM118.289 33.2078V32.2078H117.289V33.2078H118.289ZM148.605 33.2078H149.605V32.2078H148.605V33.2078ZM148.605 33.7278V34.7278H149.605V33.7278H148.605ZM135.917 33.7278V32.7278H134.917V33.7278H135.917ZM135.917 69.6078V70.6078H136.917V69.6078H135.917ZM130.977 69.6078H129.977V70.6078H130.977V69.6078ZM130.977 33.7278H131.977V32.7278H130.977V33.7278ZM118.289 33.7278H117.289V34.7278H118.289V33.7278ZM118.289 34.2078H148.605V32.2078H118.289V34.2078ZM147.605 33.2078V33.7278H149.605V33.2078H147.605ZM148.605 32.7278H135.917V34.7278H148.605V32.7278ZM134.917 33.7278V69.6078H136.917V33.7278H134.917ZM135.917 68.6078H130.977V70.6078H135.917V68.6078ZM131.977 69.6078V33.7278H129.977V69.6078H131.977ZM130.977 32.7278H118.289V34.7278H130.977V32.7278ZM119.289 33.7278V33.2078H117.289V33.7278H119.289ZM171.921 63.1078L171.01 63.5199L171.933 65.5625L172.836 63.5106L171.921 63.1078ZM185.077 33.2078V32.2078H184.424L184.161 32.8051L185.077 33.2078ZM190.381 33.2078H191.381V32.2078H190.381V33.2078ZM190.381 69.6078V70.6078H191.381V69.6078H190.381ZM185.441 69.6078H184.441V70.6078H185.441V69.6078ZM185.441 33.8838H186.441L184.524 33.4852L185.441 33.8838ZM169.685 70.1278V71.1278H170.34L170.602 70.5265L169.685 70.1278ZM169.633 70.1278L168.721 70.5387L168.987 71.1278H169.633V70.1278ZM153.253 33.7798L154.164 33.369L152.253 33.7798H153.253ZM153.253 69.6078V70.6078H154.253V69.6078H153.253ZM152.733 69.6078H151.733V70.6078H152.733V69.6078ZM152.733 33.2078V32.2078H151.733V33.2078H152.733ZM158.401 33.2078L159.312 32.7958L159.046 32.2078H158.401V33.2078ZM172.836 63.5106L185.992 33.6106L184.161 32.8051L171.005 62.7051L172.836 63.5106ZM185.077 34.2078H190.381V32.2078H185.077V34.2078ZM189.381 33.2078V69.6078H191.381V33.2078H189.381ZM190.381 68.6078H185.441V70.6078H190.381V68.6078ZM186.441 69.6078V33.8838H184.441V69.6078H186.441ZM184.524 33.4852L168.768 69.7292L170.602 70.5265L186.358 34.2825L184.524 33.4852ZM169.685 69.1278H169.633V71.1278H169.685V69.1278ZM170.544 69.717L154.164 33.369L152.341 34.1907L168.721 70.5387L170.544 69.717ZM152.253 33.7798V69.6078H154.253V33.7798H152.253ZM153.253 68.6078H152.733V70.6078H153.253V68.6078ZM153.733 69.6078V33.2078H151.733V69.6078H153.733ZM152.733 34.2078H158.401V32.2078H152.733V34.2078ZM157.49 33.6199L171.01 63.5199L172.832 62.6958L159.312 32.7958L157.49 33.6199ZM202.208 33.2078H203.208V32.2078H202.208V33.2078ZM202.208 69.0878H201.208V70.0878H202.208V69.0878ZM219.42 69.0878H220.42V68.0878H219.42V69.0878ZM219.42 69.6078V70.6078H220.42V69.6078H219.42ZM197.268 69.6078H196.268V70.6078H197.268V69.6078ZM197.268 33.2078V32.2078H196.268V33.2078H197.268ZM201.208 33.2078V69.0878H203.208V33.2078H201.208ZM202.208 70.0878H219.42V68.0878H202.208V70.0878ZM218.42 69.0878V69.6078H220.42V69.0878H218.42ZM219.42 68.6078H197.268V70.6078H219.42V68.6078ZM198.268 69.6078V33.2078H196.268V69.6078H198.268ZM197.268 34.2078H202.208V32.2078H197.268V34.2078Z" fill="black"/>
</svg>
