<svg width="302" height="102" viewBox="0 0 302 102" fill="none" xmlns="http://www.w3.org/2000/svg">
<rect x="0.5" y="0.5" width="301" height="101" rx="50.5" fill="#F0EDE5" stroke="black"/>
<path d="M43.804 67.468C37.408 67.468 32.78 63.36 32.78 57.016H33.3C33.3 62.476 36.888 66.116 41.776 66.116C46.508 66.116 49.836 62.788 49.836 57.068V30.6H54.828V56.34C54.828 63.412 50.044 67.468 43.804 67.468ZM71.3217 40.48C78.2898 40.48 81.9818 44.432 81.9818 51.608V67.52H81.4618L77.3538 57.12C75.8458 64.504 70.5418 67.52 65.7058 67.52C61.1818 67.52 59.0498 64.92 59.0498 61.8C59.0498 56.184 65.6538 53.012 77.3018 52.284V50.256C77.3018 44.588 75.2218 41.312 69.9178 41.312C64.5618 41.312 60.7138 45.056 60.7138 51.764H60.1938C60.1938 44.536 64.3538 40.48 71.3217 40.48ZM68.5658 65.388C72.7778 65.388 77.2498 61.28 77.3018 52.648C68.7218 53.428 63.7298 56.08 63.7298 60.916C63.7298 63.724 65.3938 65.388 68.5658 65.388ZM98.3605 62.06L107.617 41H108.241L96.5405 67.52H96.4885L83.5405 41H88.4285L98.3605 62.06ZM120.884 40.48C127.852 40.48 131.544 44.432 131.544 51.608V67.52H131.024L126.916 57.12C125.408 64.504 120.104 67.52 115.268 67.52C110.744 67.52 108.612 64.92 108.612 61.8C108.612 56.184 115.216 53.012 126.864 52.284V50.256C126.864 44.588 124.784 41.312 119.48 41.312C114.124 41.312 110.276 45.056 110.276 51.764H109.756C109.756 44.536 113.916 40.48 120.884 40.48ZM118.128 65.388C122.34 65.388 126.812 61.28 126.864 52.648C118.284 53.428 113.292 56.08 113.292 60.916C113.292 63.724 114.956 65.388 118.128 65.388ZM149.407 67.52C141.295 67.52 135.887 63.1 135.887 56.496H136.407C136.407 62.736 141.555 66.948 149.251 66.948C154.763 66.948 158.559 64.244 158.559 59.772C158.559 48.748 136.355 54.156 136.355 40.48C136.355 34.292 141.139 30.08 148.263 30.08C155.283 30.08 160.067 34.084 160.067 40.064H159.547C159.547 34.396 155.075 30.652 148.523 30.652C143.011 30.652 139.527 33.46 139.527 37.672C139.527 48.54 161.731 43.444 161.731 57.068C161.731 63.36 156.635 67.52 149.407 67.52ZM189.014 56.6H189.482C189.482 63.152 184.698 67.52 178.354 67.52C170.346 67.52 164.626 62.164 164.626 53.896C164.626 45.68 170.658 40.48 177.99 40.48C183.918 40.48 188.806 43.964 189.326 51.244H188.858C188.338 44.744 184.23 41.468 179.602 41.468C173.934 41.468 169.566 46.304 169.566 53.948C169.566 61.332 173.726 66.22 179.966 66.22C185.062 66.22 189.014 62.372 189.014 56.6ZM198.641 41V49.424C199.785 44.276 202.905 40.48 208.989 40.48V41C201.449 41 198.641 47.188 198.641 54.468V67H193.961V41H198.641ZM214.226 30.444C215.994 30.444 217.19 31.744 217.19 33.304C217.19 34.864 215.994 36.164 214.226 36.164C212.51 36.164 211.314 34.864 211.314 33.304C211.314 31.744 212.51 30.444 214.226 30.444ZM216.618 67H211.938V41H216.618V67ZM238.096 40.48C244.648 40.48 249.38 45.576 249.38 53.896C249.38 62.372 244.596 67.52 237.992 67.52C232.636 67.52 228.736 64.244 227.384 58.576V75.32H222.704V41H227.384V49.32C228.736 43.756 232.688 40.48 238.096 40.48ZM236.12 66.22C240.852 66.22 244.44 61.28 244.44 53.896C244.44 46.616 240.852 41.78 236.172 41.78C231.232 41.78 227.384 46.616 227.384 53.896C227.384 61.28 231.18 66.22 236.12 66.22ZM269.662 57.796H270.182C270.182 64.504 266.75 67.468 262.642 67.468C258.378 67.468 254.79 65.024 254.79 58.94V41.52H249.954V41H254.79L259.002 34.24H259.522V41H269.662V41.52H259.522V60.24C259.522 64.14 261.03 66.116 264.15 66.116C267.062 66.116 269.61 63.724 269.662 57.796Z" fill="black"/>
<path d="M32.78 57.016V56.016H31.78V57.016H32.78ZM33.3 57.016H34.3V56.016H33.3V57.016ZM49.836 30.6V29.6H48.836V30.6H49.836ZM54.828 30.6H55.828V29.6H54.828V30.6ZM43.804 66.468C40.8199 66.468 38.3194 65.5119 36.5746 63.8888C34.8371 62.2725 33.78 59.9323 33.78 57.016H31.78C31.78 60.4437 33.0369 63.3295 35.2124 65.3532C37.3806 67.3701 40.3921 68.468 43.804 68.468V66.468ZM32.78 58.016H33.3V56.016H32.78V58.016ZM32.3 57.016C32.3 59.9681 33.2732 62.4998 34.9789 64.3011C36.6871 66.105 39.0743 67.116 41.776 67.116V65.116C39.5897 65.116 37.7389 64.307 36.4311 62.9259C35.1208 61.5422 34.3 59.5239 34.3 57.016H32.3ZM41.776 67.116C44.386 67.116 46.6807 66.1917 48.3164 64.4141C49.9457 62.6434 50.836 60.1201 50.836 57.068H48.836C48.836 59.7359 48.0623 61.7366 46.8446 63.0599C45.6333 64.3763 43.898 65.116 41.776 65.116V67.116ZM50.836 57.068V30.6H48.836V57.068H50.836ZM49.836 31.6H54.828V29.6H49.836V31.6ZM53.828 30.6V56.34H55.828V30.6H53.828ZM53.828 56.34C53.828 59.6406 52.7179 62.1494 50.9633 63.8348C49.2017 65.5268 46.7076 66.468 43.804 66.468V68.468C47.1404 68.468 50.1583 67.3812 52.3487 65.2772C54.5461 63.1666 55.828 60.1114 55.828 56.34H53.828ZM81.9818 67.52V68.52H82.9818V67.52H81.9818ZM81.4618 67.52L80.5317 67.8874L80.7816 68.52H81.4618V67.52ZM77.3538 57.12L78.2838 56.7526L77.0474 53.6224L76.374 56.9199L77.3538 57.12ZM77.3018 52.284L77.3641 53.2821L78.3018 53.2235V52.284H77.3018ZM60.7138 51.764V52.764H61.7138V51.764H60.7138ZM60.1938 51.764H59.1938V52.764H60.1938V51.764ZM77.3018 52.648L78.3017 52.654L78.3084 51.5524L77.2112 51.6521L77.3018 52.648ZM71.3217 41.48C74.6185 41.48 76.9875 42.4107 78.5404 44.0424C80.101 45.6822 80.9818 48.1812 80.9818 51.608H82.9818C82.9818 47.8588 82.0165 44.7938 79.9891 42.6636C77.954 40.5253 74.993 39.48 71.3217 39.48V41.48ZM80.9818 51.608V67.52H82.9818V51.608H80.9818ZM81.9818 66.52H81.4618V68.52H81.9818V66.52ZM82.3918 67.1526L78.2838 56.7526L76.4237 57.4874L80.5317 67.8874L82.3918 67.1526ZM76.374 56.9199C74.9662 63.813 70.093 66.52 65.7058 66.52V68.52C70.9905 68.52 76.7253 65.195 78.3335 57.3201L76.374 56.9199ZM65.7058 66.52C63.6353 66.52 62.2396 65.9283 61.3688 65.1038C60.4992 64.2806 60.0498 63.1287 60.0498 61.8H58.0498C58.0498 63.5913 58.6663 65.2994 59.9937 66.5562C61.3199 67.8117 63.2522 68.52 65.7058 68.52V66.52ZM60.0498 61.8C60.0498 59.4855 61.3704 57.5759 64.2624 56.0997C67.19 54.6052 71.5931 53.6427 77.3641 53.2821L77.2394 51.2859C71.3624 51.6533 66.6395 52.6407 63.3531 54.3183C60.0311 56.0141 58.0498 58.4985 58.0498 61.8H60.0498ZM78.3018 52.284V50.256H76.3018V52.284H78.3018ZM78.3018 50.256C78.3018 47.3313 77.7709 44.8301 76.3894 43.0462C74.9675 41.2103 72.7882 40.312 69.9178 40.312V42.312C72.3513 42.312 73.864 43.0517 74.8081 44.2708C75.7926 45.5419 76.3018 47.5127 76.3018 50.256H78.3018ZM69.9178 40.312C66.9978 40.312 64.4162 41.3389 62.5711 43.3457C60.7323 45.3456 59.7138 48.221 59.7138 51.764H61.7138C61.7138 48.599 62.6192 46.2484 64.0434 44.6993C65.4613 43.1571 67.4817 42.312 69.9178 42.312V40.312ZM60.7138 50.764H60.1938V52.764H60.7138V50.764ZM61.1938 51.764C61.1938 48.3401 62.1756 45.8006 63.8531 44.1174C65.5304 42.4344 68.0303 41.48 71.3217 41.48V39.48C67.6452 39.48 64.5811 40.5536 62.4364 42.7056C60.2919 44.8574 59.1938 47.9599 59.1938 51.764H61.1938ZM68.5658 66.388C73.5449 66.388 78.2479 61.5899 78.3017 52.654L76.3018 52.642C76.2516 60.9701 72.0106 64.388 68.5658 64.388V66.388ZM77.2112 51.6521C72.8627 52.0474 69.2981 52.9244 66.7912 54.3991C64.2339 55.9034 62.7298 58.0706 62.7298 60.916H64.7298C64.7298 58.9254 65.7216 57.3486 67.8053 56.1229C69.9394 54.8676 73.1608 54.0286 77.3923 53.6439L77.2112 51.6521ZM62.7298 60.916C62.7298 62.5185 63.2095 63.9294 64.2718 64.9322C65.3258 65.9271 66.8134 66.388 68.5658 66.388V64.388C67.1461 64.388 66.2157 64.0169 65.6447 63.4778C65.082 62.9466 64.7298 62.1215 64.7298 60.916H62.7298ZM98.3605 62.06L97.4561 62.4865L98.3926 64.4724L99.276 62.4624L98.3605 62.06ZM107.617 41V40H106.964L106.701 40.5976L107.617 41ZM108.241 41L109.155 41.4036L109.775 40H108.241V41ZM96.5405 67.52V68.52H97.1923L97.4554 67.9236L96.5405 67.52ZM96.4885 67.52L95.5899 67.9587L95.8639 68.52H96.4885V67.52ZM83.5405 41V40H81.9395L82.6419 41.4387L83.5405 41ZM88.4285 41L89.333 40.5735L89.0626 40H88.4285V41ZM99.276 62.4624L108.532 41.4024L106.701 40.5976L97.4451 61.6576L99.276 62.4624ZM107.617 42H108.241V40H107.617V42ZM107.326 40.5964L95.6256 67.1164L97.4554 67.9236L109.155 41.4036L107.326 40.5964ZM96.5405 66.52H96.4885V68.52H96.5405V66.52ZM97.3871 67.0813L84.4391 40.5613L82.6419 41.4387L95.5899 67.9587L97.3871 67.0813ZM83.5405 42H88.4285V40H83.5405V42ZM87.5241 41.4265L97.4561 62.4865L99.265 61.6334L89.333 40.5735L87.5241 41.4265ZM131.544 67.52V68.52H132.544V67.52H131.544ZM131.024 67.52L130.094 67.8874L130.344 68.52H131.024V67.52ZM126.916 57.12L127.846 56.7526L126.61 53.6224L125.936 56.9199L126.916 57.12ZM126.864 52.284L126.927 53.2821L127.864 53.2235V52.284H126.864ZM110.276 51.764V52.764H111.276V51.764H110.276ZM109.756 51.764H108.756V52.764H109.756V51.764ZM126.864 52.648L127.864 52.654L127.871 51.5524L126.774 51.6521L126.864 52.648ZM120.884 41.48C124.181 41.48 126.55 42.4107 128.103 44.0424C129.664 45.6822 130.544 48.1812 130.544 51.608H132.544C132.544 47.8588 131.579 44.7938 129.552 42.6636C127.517 40.5253 124.556 39.48 120.884 39.48V41.48ZM130.544 51.608V67.52H132.544V51.608H130.544ZM131.544 66.52H131.024V68.52H131.544V66.52ZM131.954 67.1526L127.846 56.7526L125.986 57.4874L130.094 67.8874L131.954 67.1526ZM125.936 56.9199C124.529 63.813 119.655 66.52 115.268 66.52V68.52C120.553 68.52 126.288 65.195 127.896 57.3201L125.936 56.9199ZM115.268 66.52C113.198 66.52 111.802 65.9283 110.931 65.1038C110.062 64.2806 109.612 63.1287 109.612 61.8H107.612C107.612 63.5913 108.229 65.2994 109.556 66.5562C110.882 67.8117 112.815 68.52 115.268 68.52V66.52ZM109.612 61.8C109.612 59.4855 110.933 57.5759 113.825 56.0997C116.752 54.6052 121.156 53.6427 126.927 53.2821L126.802 51.2859C120.925 51.6533 116.202 52.6407 112.916 54.3183C109.594 56.0141 107.612 58.4985 107.612 61.8H109.612ZM127.864 52.284V50.256H125.864V52.284H127.864ZM127.864 50.256C127.864 47.3313 127.333 44.8301 125.952 43.0462C124.53 41.2103 122.351 40.312 119.48 40.312V42.312C121.914 42.312 123.426 43.0517 124.371 44.2708C125.355 45.5419 125.864 47.5127 125.864 50.256H127.864ZM119.48 40.312C116.56 40.312 113.979 41.3389 112.134 43.3457C110.295 45.3456 109.276 48.221 109.276 51.764H111.276C111.276 48.599 112.182 46.2484 113.606 44.6993C115.024 43.1571 117.044 42.312 119.48 42.312V40.312ZM110.276 50.764H109.756V52.764H110.276V50.764ZM110.756 51.764C110.756 48.3401 111.738 45.8006 113.416 44.1174C115.093 42.4344 117.593 41.48 120.884 41.48V39.48C117.208 39.48 114.144 40.5536 111.999 42.7056C109.854 44.8574 108.756 47.9599 108.756 51.764H110.756ZM118.128 66.388C123.107 66.388 127.81 61.5899 127.864 52.654L125.864 52.642C125.814 60.9701 121.573 64.388 118.128 64.388V66.388ZM126.774 51.6521C122.425 52.0474 118.861 52.9244 116.354 54.3991C113.796 55.9034 112.292 58.0706 112.292 60.916H114.292C114.292 58.9254 115.284 57.3486 117.368 56.1229C119.502 54.8676 122.723 54.0286 126.955 53.6439L126.774 51.6521ZM112.292 60.916C112.292 62.5185 112.772 63.9294 113.834 64.9322C114.888 65.9271 116.376 66.388 118.128 66.388V64.388C116.709 64.388 115.778 64.0169 115.207 63.4778C114.644 62.9466 114.292 62.1215 114.292 60.916H112.292ZM135.887 56.496V55.496H134.887V56.496H135.887ZM136.407 56.496H137.407V55.496H136.407V56.496ZM160.067 40.064V41.064H161.067V40.064H160.067ZM159.547 40.064H158.547V41.064H159.547V40.064ZM149.407 66.52C145.525 66.52 142.385 65.4625 140.237 63.7097C138.106 61.9713 136.887 59.501 136.887 56.496H134.887C134.887 60.095 136.371 63.1367 138.972 65.2593C141.556 67.3675 145.177 68.52 149.407 68.52V66.52ZM135.887 57.496H136.407V55.496H135.887V57.496ZM135.407 56.496C135.407 59.9151 136.828 62.8133 139.311 64.8372C141.777 66.847 145.228 67.948 149.251 67.948V65.948C145.578 65.948 142.606 64.943 140.574 63.2868C138.56 61.6447 137.407 59.3169 137.407 56.496H135.407ZM149.251 67.948C152.157 67.948 154.716 67.2364 156.574 65.8355C158.46 64.4133 159.559 62.3248 159.559 59.772H157.559C157.559 61.6912 156.759 63.1907 155.37 64.2385C153.952 65.3076 151.856 65.948 149.251 65.948V67.948ZM159.559 59.772C159.559 58.2146 159.163 56.9014 158.443 55.7938C157.73 54.6971 156.733 53.8546 155.606 53.174C153.394 51.8381 150.466 51.0137 147.755 50.1661C144.962 49.2929 142.353 48.3853 140.431 46.9187C138.579 45.5058 137.355 43.5654 137.355 40.48H135.355C135.355 44.2326 136.906 46.7447 139.217 48.5087C141.459 50.219 144.4 51.2126 147.158 52.0749C149.998 52.9628 152.622 53.7081 154.572 54.8861C155.527 55.4625 156.265 56.113 156.766 56.884C157.26 57.6441 157.559 58.5734 157.559 59.772H159.559ZM137.355 40.48C137.355 37.6606 138.436 35.3397 140.296 33.7119C142.166 32.0744 144.894 31.08 148.263 31.08V29.08C144.507 29.08 141.281 30.1916 138.978 32.2071C136.665 34.2323 135.355 37.1114 135.355 40.48H137.355ZM148.263 31.08C151.588 31.08 154.295 32.0278 156.153 33.594C157.995 35.1479 159.067 37.3615 159.067 40.064H161.067C161.067 36.7865 159.746 34.0081 157.442 32.065C155.152 30.1342 151.957 29.08 148.263 29.08V31.08ZM160.067 39.064H159.547V41.064H160.067V39.064ZM160.547 40.064C160.547 36.9468 159.307 34.3113 157.139 32.4702C154.985 30.6415 151.983 29.652 148.523 29.652V31.652C151.614 31.652 154.124 32.5345 155.844 33.9948C157.55 35.4427 158.547 37.5132 158.547 40.064H160.547ZM148.523 29.652C145.607 29.652 143.12 30.3941 141.339 31.7969C139.535 33.2171 138.527 35.263 138.527 37.672H140.527C140.527 35.869 141.26 34.4049 142.576 33.3681C143.915 32.3139 145.926 31.652 148.523 31.652V29.652ZM138.527 37.672C138.527 39.2129 138.924 40.5146 139.644 41.6147C140.357 42.7033 141.352 43.5438 142.477 44.2265C144.686 45.5674 147.611 46.4153 150.322 47.2884C153.113 48.1872 155.726 49.1231 157.65 50.6095C159.506 52.0434 160.731 53.9961 160.731 57.068H162.731C162.731 53.3279 161.179 50.8086 158.873 49.0267C156.634 47.2972 153.695 46.2733 150.935 45.3846C148.095 44.4702 145.469 43.7029 143.515 42.5168C142.558 41.9362 141.819 41.2853 141.317 40.5192C140.823 39.7645 140.527 38.8481 140.527 37.672H138.527ZM160.731 57.068C160.731 59.9221 159.585 62.2532 157.637 63.8873C155.673 65.534 152.835 66.52 149.407 66.52V68.52C153.207 68.52 156.53 67.426 158.922 65.4197C161.329 63.4008 162.731 60.5059 162.731 57.068H160.731ZM189.014 56.6V55.6H188.014V56.6H189.014ZM189.482 56.6H190.482V55.6H189.482V56.6ZM189.326 51.244V52.244H190.4L190.324 51.1728L189.326 51.244ZM188.858 51.244L187.862 51.3237L187.935 52.244H188.858V51.244ZM189.014 57.6H189.482V55.6H189.014V57.6ZM188.482 56.6C188.482 59.622 187.385 62.0857 185.605 63.7959C183.82 65.5105 181.295 66.52 178.354 66.52V68.52C181.758 68.52 184.797 67.3455 186.99 65.2381C189.188 63.1263 190.482 60.13 190.482 56.6H188.482ZM178.354 66.52C174.576 66.52 171.406 65.2599 169.186 63.0928C166.969 60.9289 165.626 57.7912 165.626 53.896H163.626C163.626 58.2688 165.144 61.9431 167.789 64.5242C170.43 67.1021 174.124 68.52 178.354 68.52V66.52ZM165.626 53.896C165.626 46.2706 171.172 41.48 177.99 41.48V39.48C170.145 39.48 163.626 45.0894 163.626 53.896H165.626ZM177.99 41.48C180.762 41.48 183.215 42.2929 185.027 43.8834C186.828 45.4653 188.085 47.8961 188.329 51.3152L190.324 51.1728C190.048 47.3119 188.601 44.3607 186.346 42.3806C184.101 40.4091 181.147 39.48 177.99 39.48V41.48ZM189.326 50.244H188.858V52.244H189.326V50.244ZM189.855 51.1643C189.579 47.7155 188.341 45.0309 186.47 43.2031C184.598 41.3756 182.157 40.468 179.602 40.468V42.468C181.675 42.468 183.602 43.1984 185.072 44.6339C186.542 46.0691 187.617 48.2725 187.862 51.3237L189.855 51.1643ZM179.602 40.468C176.464 40.468 173.676 41.8145 171.69 44.202C169.713 46.5793 168.566 49.9396 168.566 53.948H170.566C170.566 50.3124 171.604 47.4327 173.228 45.481C174.843 43.5395 177.072 42.468 179.602 42.468V40.468ZM168.566 53.948C168.566 57.8219 169.658 61.1363 171.664 63.5C173.682 65.8785 176.565 67.22 179.966 67.22V65.22C177.127 65.22 174.811 64.1175 173.189 62.206C171.554 60.2797 170.566 57.4581 170.566 53.948H168.566ZM179.966 67.22C185.648 67.22 190.014 62.8907 190.014 56.6H188.014C188.014 61.8533 184.477 65.22 179.966 65.22V67.22ZM198.641 41H199.641V40H198.641V41ZM198.641 49.424H197.641L199.617 49.6409L198.641 49.424ZM208.989 40.48H209.989V39.48H208.989V40.48ZM208.989 41V42H209.989V41H208.989ZM198.641 67V68H199.641V67H198.641ZM193.961 67H192.961V68H193.961V67ZM193.961 41V40H192.961V41H193.961ZM197.641 41V49.424H199.641V41H197.641ZM199.617 49.6409C200.161 47.1946 201.155 45.1625 202.65 43.748C204.127 42.351 206.172 41.48 208.989 41.48V39.48C205.722 39.48 203.166 40.507 201.276 42.295C199.404 44.0655 198.265 46.5054 197.665 49.2071L199.617 49.6409ZM207.989 40.48V41H209.989V40.48H207.989ZM208.989 40C204.897 40 201.993 41.7039 200.157 44.4478C198.359 47.1335 197.641 50.7245 197.641 54.468H199.641C199.641 50.9315 200.327 47.7885 201.819 45.5602C203.271 43.3901 205.541 42 208.989 42V40ZM197.641 54.468V67H199.641V54.468H197.641ZM198.641 66H193.961V68H198.641V66ZM194.961 67V41H192.961V67H194.961ZM193.961 42H198.641V40H193.961V42ZM216.618 67V68H217.618V67H216.618ZM211.938 67H210.938V68H211.938V67ZM211.938 41V40H210.938V41H211.938ZM216.618 41H217.618V40H216.618V41ZM214.226 31.444C215.442 31.444 216.19 32.2963 216.19 33.304H218.19C218.19 31.1917 216.546 29.444 214.226 29.444V31.444ZM216.19 33.304C216.19 34.3117 215.442 35.164 214.226 35.164V37.164C216.546 37.164 218.19 35.4163 218.19 33.304H216.19ZM214.226 35.164C213.074 35.164 212.314 34.3236 212.314 33.304H210.314C210.314 35.4044 211.946 37.164 214.226 37.164V35.164ZM212.314 33.304C212.314 32.2844 213.074 31.444 214.226 31.444V29.444C211.946 29.444 210.314 31.2036 210.314 33.304H212.314ZM216.618 66H211.938V68H216.618V66ZM212.938 67V41H210.938V67H212.938ZM211.938 42H216.618V40H211.938V42ZM215.618 41V67H217.618V41H215.618ZM227.384 58.576L228.356 58.344L226.384 58.576H227.384ZM227.384 75.32V76.32H228.384V75.32H227.384ZM222.704 75.32H221.704V76.32H222.704V75.32ZM222.704 41V40H221.704V41H222.704ZM227.384 41H228.384V40H227.384V41ZM227.384 49.32H226.384L228.355 49.5561L227.384 49.32ZM238.096 41.48C241.096 41.48 243.636 42.6387 245.438 44.7223C247.251 46.8171 248.38 49.9216 248.38 53.896H250.38C250.38 49.5504 249.142 45.9469 246.951 43.4137C244.749 40.8693 241.647 39.48 238.096 39.48V41.48ZM248.38 53.896C248.38 57.9501 247.237 61.107 245.404 63.2338C243.582 65.349 241.017 66.52 237.992 66.52V68.52C241.57 68.52 244.699 67.117 246.92 64.5392C249.13 61.973 250.38 58.3179 250.38 53.896H248.38ZM237.992 66.52C235.526 66.52 233.447 65.7701 231.83 64.4087C230.209 63.0429 228.992 61.009 228.356 58.344L226.411 58.808C227.127 61.811 228.536 64.2491 230.542 65.9383C232.552 67.6319 235.101 68.52 237.992 68.52V66.52ZM226.384 58.576V75.32H228.384V58.576H226.384ZM227.384 74.32H222.704V76.32H227.384V74.32ZM223.704 75.32V41H221.704V75.32H223.704ZM222.704 42H227.384V40H222.704V42ZM226.384 41V49.32H228.384V41H226.384ZM228.355 49.5561C228.989 46.9488 230.215 44.9401 231.855 43.5844C233.492 42.2319 235.601 41.48 238.096 41.48V39.48C235.182 39.48 232.611 40.3661 230.582 42.0426C228.556 43.7159 227.13 46.1272 226.412 49.0839L228.355 49.5561ZM236.12 67.22C238.872 67.22 241.238 65.7717 242.877 63.3948C244.507 61.0317 245.44 57.739 245.44 53.896H243.44C243.44 57.437 242.578 60.3063 241.231 62.2592C239.893 64.1983 238.099 65.22 236.12 65.22V67.22ZM245.44 53.896C245.44 50.1022 244.506 46.8595 242.88 44.5349C241.245 42.1969 238.893 40.78 236.172 40.78V42.78C238.13 42.78 239.912 43.7811 241.241 45.6811C242.579 47.5945 243.44 50.4098 243.44 53.896H245.44ZM236.172 40.78C230.427 40.78 226.384 46.3556 226.384 53.896H228.384C228.384 46.8764 232.036 42.78 236.172 42.78V40.78ZM226.384 53.896C226.384 57.7502 227.373 61.05 229.09 63.4144C230.815 65.7918 233.283 67.22 236.12 67.22V65.22C234.016 65.22 232.116 64.1782 230.708 62.2396C229.292 60.288 228.384 57.4258 228.384 53.896H226.384ZM269.662 57.796V56.796H268.671L268.662 57.7872L269.662 57.796ZM270.182 57.796H271.182V56.796H270.182V57.796ZM254.79 41.52H255.79V40.52H254.79V41.52ZM249.954 41.52H248.954V42.52H249.954V41.52ZM249.954 41V40H248.954V41H249.954ZM254.79 41V42H255.345L255.639 41.5288L254.79 41ZM259.002 34.24V33.24H258.447L258.154 33.7112L259.002 34.24ZM259.522 34.24H260.522V33.24H259.522V34.24ZM259.522 41H258.522V42H259.522V41ZM269.662 41H270.662V40H269.662V41ZM269.662 41.52V42.52H270.662V41.52H269.662ZM259.522 41.52V40.52H258.522V41.52H259.522ZM269.662 58.796H270.182V56.796H269.662V58.796ZM269.182 57.796C269.182 60.9873 268.367 63.1457 267.198 64.4919C266.04 65.8251 264.445 66.468 262.642 66.468V68.468C264.947 68.468 267.123 67.6289 268.708 65.8031C270.282 63.9903 271.182 61.3127 271.182 57.796H269.182ZM262.642 66.468C260.694 66.468 259.006 65.9111 257.81 64.7638C256.623 63.6258 255.79 61.7821 255.79 58.94H253.79C253.79 62.1819 254.752 64.6022 256.425 66.2072C258.089 67.8029 260.327 68.468 262.642 68.468V66.468ZM255.79 58.94V41.52H253.79V58.94H255.79ZM254.79 40.52H249.954V42.52H254.79V40.52ZM250.954 41.52V41H248.954V41.52H250.954ZM249.954 42H254.79V40H249.954V42ZM255.639 41.5288L259.851 34.7688L258.154 33.7112L253.942 40.4712L255.639 41.5288ZM259.002 35.24H259.522V33.24H259.002V35.24ZM258.522 34.24V41H260.522V34.24H258.522ZM259.522 42H269.662V40H259.522V42ZM268.662 41V41.52H270.662V41H268.662ZM269.662 40.52H259.522V42.52H269.662V40.52ZM258.522 41.52V60.24H260.522V41.52H258.522ZM258.522 60.24C258.522 62.2906 258.914 64.022 259.878 65.2562C260.88 66.5382 262.364 67.116 264.15 67.116V65.116C262.816 65.116 261.987 64.7058 261.454 64.0248C260.885 63.296 260.522 62.0894 260.522 60.24H258.522ZM264.15 67.116C265.907 67.116 267.574 66.3807 268.778 64.7802C269.959 63.2111 270.635 60.8943 270.662 57.8048L268.662 57.7872C268.637 60.6257 268.014 62.4689 267.18 63.5778C266.369 64.6553 265.305 65.116 264.15 65.116V67.116Z" fill="black"/>
</svg>
