<svg width="302" height="102" viewBox="0 0 302 102" fill="none" xmlns="http://www.w3.org/2000/svg">
<rect x="0.5" y="0.5" width="301" height="101" rx="50.5" fill="#F0EDE5" stroke="black"/>
<path d="M92.62 62.5L105.776 32.6H111.08V69H106.14V33.276L90.384 69.52H90.332L73.952 33.172V69H73.432V32.6H79.1L92.62 62.5ZM129.615 65.256L139.131 43H139.755L124.987 77.32H124.363L127.431 70.352L114.535 43H119.423L129.615 65.256ZM155.008 69.52C146.896 69.52 141.488 65.1 141.488 58.496H142.008C142.008 64.736 147.156 68.948 154.852 68.948C160.364 68.948 164.16 66.244 164.16 61.772C164.16 50.748 141.956 56.156 141.956 42.48C141.956 36.292 146.74 32.08 153.864 32.08C160.884 32.08 165.668 36.084 165.668 42.064H165.148C165.148 36.396 160.676 32.652 154.124 32.652C148.612 32.652 145.128 35.46 145.128 39.672C145.128 50.54 167.332 45.444 167.332 59.068C167.332 65.36 162.236 69.52 155.008 69.52ZM214.116 74.512L214.48 74.928C209.54 79.036 205.224 79.4 202.052 79.4C192.692 79.4 183.8 74.46 174.336 62.292C171.892 59.224 170.436 55.272 170.436 50.8C170.436 39.828 179.328 32.08 189.052 32.08C198.776 32.08 207.668 39.828 207.668 50.8C207.668 61.772 198.776 69.52 189.052 69.52C185.1 69.52 181.408 68.272 178.288 66.088C186.452 75.032 194.044 78.88 202 78.88C205.12 78.88 209.332 78.568 214.116 74.512ZM189.052 32.6C181.044 32.6 175.896 39.412 175.896 50.8C175.896 62.188 181.044 69 189.052 69C197.06 69 202.208 62.188 202.208 50.8C202.208 39.412 197.06 32.6 189.052 32.6ZM217.817 32.6V68.48H235.029V69H212.877V32.6H217.817Z" fill="black"/>
<path d="M92.62 62.5L91.7088 62.912L92.6325 64.9547L93.5353 62.9027L92.62 62.5ZM105.776 32.6V31.6H105.123L104.861 32.1973L105.776 32.6ZM111.08 32.6H112.08V31.6H111.08V32.6ZM111.08 69V70H112.08V69H111.08ZM106.14 69H105.14V70H106.14V69ZM106.14 33.276H107.14L105.223 32.8773L106.14 33.276ZM90.384 69.52V70.52H91.0397L91.3011 69.9187L90.384 69.52ZM90.332 69.52L89.4203 69.9309L89.6858 70.52H90.332V69.52ZM73.952 33.172L74.8637 32.7611L72.952 33.172H73.952ZM73.952 69V70H74.952V69H73.952ZM73.432 69H72.432V70H73.432V69ZM73.432 32.6V31.6H72.432V32.6H73.432ZM79.1 32.6L80.0112 32.188L79.7453 31.6H79.1V32.6ZM93.5353 62.9027L106.691 33.0027L104.861 32.1973L91.7047 62.0973L93.5353 62.9027ZM105.776 33.6H111.08V31.6H105.776V33.6ZM110.08 32.6V69H112.08V32.6H110.08ZM111.08 68H106.14V70H111.08V68ZM107.14 69V33.276H105.14V69H107.14ZM105.223 32.8773L89.4669 69.1213L91.3011 69.9187L107.057 33.6747L105.223 32.8773ZM90.384 68.52H90.332V70.52H90.384V68.52ZM91.2437 69.1091L74.8637 32.7611L73.0403 33.5829L89.4203 69.9309L91.2437 69.1091ZM72.952 33.172V69H74.952V33.172H72.952ZM73.952 68H73.432V70H73.952V68ZM74.432 69V32.6H72.432V69H74.432ZM73.432 33.6H79.1V31.6H73.432V33.6ZM78.1888 33.012L91.7088 62.912L93.5312 62.088L80.0112 32.188L78.1888 33.012ZM129.615 65.256L128.706 65.6724L129.647 67.7263L130.535 65.6491L129.615 65.256ZM139.131 43V42H138.471L138.212 42.6069L139.131 43ZM139.755 43L140.674 43.3953L141.274 42H139.755V43ZM124.987 77.32V78.32H125.646L125.906 77.7153L124.987 77.32ZM124.363 77.32L123.448 76.917L122.83 78.32H124.363V77.32ZM127.431 70.352L128.346 70.755L128.53 70.3378L128.336 69.9255L127.431 70.352ZM114.535 43V42H112.958L113.631 43.4265L114.535 43ZM119.423 43L120.332 42.5836L120.065 42H119.423V43ZM130.535 65.6491L140.051 43.3931L138.212 42.6069L128.696 64.8629L130.535 65.6491ZM139.131 44H139.755V42H139.131V44ZM138.837 42.6047L124.069 76.9247L125.906 77.7153L140.674 43.3953L138.837 42.6047ZM124.987 76.32H124.363V78.32H124.987V76.32ZM125.278 77.723L128.346 70.755L126.516 69.949L123.448 76.917L125.278 77.723ZM128.336 69.9255L115.44 42.5735L113.631 43.4265L126.527 70.7785L128.336 69.9255ZM114.535 44H119.423V42H114.535V44ZM118.514 43.4164L128.706 65.6724L130.524 64.8396L120.332 42.5836L118.514 43.4164ZM141.488 58.496V57.496H140.488V58.496H141.488ZM142.008 58.496H143.008V57.496H142.008V58.496ZM165.668 42.064V43.064H166.668V42.064H165.668ZM165.148 42.064H164.148V43.064H165.148V42.064ZM155.008 68.52C151.126 68.52 147.987 67.4625 145.838 65.7097C143.708 63.9713 142.488 61.501 142.488 58.496H140.488C140.488 62.095 141.973 65.1367 144.574 67.2593C147.158 69.3675 150.778 70.52 155.008 70.52V68.52ZM141.488 59.496H142.008V57.496H141.488V59.496ZM141.008 58.496C141.008 61.9151 142.429 64.8133 144.912 66.8372C147.378 68.847 150.829 69.948 154.852 69.948V67.948C151.179 67.948 148.208 66.943 146.176 65.2868C144.161 63.6447 143.008 61.3169 143.008 58.496H141.008ZM154.852 69.948C157.759 69.948 160.317 69.2364 162.175 67.8355C164.061 66.4133 165.16 64.3248 165.16 61.772H163.16C163.16 63.6912 162.361 65.1907 160.971 66.2385C159.553 67.3076 157.458 67.948 154.852 67.948V69.948ZM165.16 61.772C165.16 60.2146 164.765 58.9014 164.045 57.7938C163.332 56.6971 162.335 55.8546 161.208 55.174C158.995 53.8381 156.068 53.0137 153.357 52.1661C150.564 51.2929 147.954 50.3853 146.032 48.9187C144.181 47.5058 142.956 45.5654 142.956 42.48H140.956C140.956 46.2326 142.507 48.7447 144.819 50.5087C147.06 52.219 150.002 53.2126 152.76 54.0749C155.6 54.9628 158.223 55.7081 160.174 56.8861C161.128 57.4625 161.867 58.113 162.368 58.884C162.862 59.6441 163.16 60.5734 163.16 61.772H165.16ZM142.956 42.48C142.956 39.6606 144.038 37.3397 145.897 35.7119C147.768 34.0744 150.496 33.08 153.864 33.08V31.08C150.109 31.08 146.882 32.1916 144.58 34.2071C142.267 36.2323 140.956 39.1114 140.956 42.48H142.956ZM153.864 33.08C157.19 33.08 159.897 34.0278 161.754 35.594C163.597 37.1479 164.668 39.3615 164.668 42.064H166.668C166.668 38.7865 165.348 36.0081 163.043 34.065C160.754 32.1342 157.559 31.08 153.864 31.08V33.08ZM165.668 41.064H165.148V43.064H165.668V41.064ZM166.148 42.064C166.148 38.9468 164.909 36.3113 162.74 34.4702C160.586 32.6415 157.585 31.652 154.124 31.652V33.652C157.215 33.652 159.726 34.5345 161.446 35.9948C163.151 37.4427 164.148 39.5132 164.148 42.064H166.148ZM154.124 31.652C151.209 31.652 148.722 32.3941 146.941 33.7969C145.137 35.2171 144.128 37.263 144.128 39.672H146.128C146.128 37.869 146.861 36.4049 148.178 35.3681C149.517 34.3139 151.528 33.652 154.124 33.652V31.652ZM144.128 39.672C144.128 41.2129 144.525 42.5146 145.246 43.6147C145.958 44.7033 146.954 45.5438 148.079 46.2265C150.288 47.5674 153.212 48.4153 155.924 49.2884C158.715 50.1872 161.327 51.1231 163.252 52.6095C165.108 54.0434 166.332 55.9961 166.332 59.068H168.332C168.332 55.3279 166.781 52.8086 164.474 51.0267C162.235 49.2972 159.296 48.2733 156.537 47.3846C153.697 46.4702 151.071 45.7029 149.116 44.5168C148.16 43.9362 147.421 43.2853 146.919 42.5192C146.425 41.7645 146.128 40.8481 146.128 39.672H144.128ZM166.332 59.068C166.332 61.9221 165.186 64.2532 163.238 65.8873C161.275 67.534 158.436 68.52 155.008 68.52V70.52C158.808 70.52 162.131 69.426 164.523 67.4197C166.93 65.4008 168.332 62.5059 168.332 59.068H166.332ZM214.116 74.512L214.869 73.8535L214.22 73.1126L213.469 73.7492L214.116 74.512ZM214.48 74.928L215.119 75.6969L215.908 75.0412L215.233 74.2695L214.48 74.928ZM174.336 62.292L175.125 61.678L175.118 61.6689L174.336 62.292ZM178.288 66.088L178.861 65.2688L177.549 66.7622L178.288 66.088ZM213.363 75.1705L213.727 75.5865L215.233 74.2695L214.869 73.8535L213.363 75.1705ZM213.841 74.1591C209.145 78.0637 205.092 78.4 202.052 78.4V80.4C205.356 80.4 209.935 80.0083 215.119 75.6969L213.841 74.1591ZM202.052 78.4C193.118 78.4 184.486 73.7136 175.125 61.6781L173.547 62.9059C183.114 75.2064 192.266 80.4 202.052 80.4V78.4ZM175.118 61.6689C172.817 58.7807 171.436 55.0492 171.436 50.8H169.436C169.436 55.4948 170.967 59.6673 173.554 62.9151L175.118 61.6689ZM171.436 50.8C171.436 40.4163 179.844 33.08 189.052 33.08V31.08C178.812 31.08 169.436 39.2397 169.436 50.8H171.436ZM189.052 33.08C198.26 33.08 206.668 40.4163 206.668 50.8H208.668C208.668 39.2397 199.292 31.08 189.052 31.08V33.08ZM206.668 50.8C206.668 61.1837 198.26 68.52 189.052 68.52V70.52C199.292 70.52 208.668 62.3603 208.668 50.8H206.668ZM189.052 68.52C185.316 68.52 181.822 67.3414 178.861 65.2688L177.715 66.9072C180.994 69.2026 184.884 70.52 189.052 70.52V68.52ZM177.549 66.7622C185.825 75.8286 193.665 79.88 202 79.88V77.88C194.423 77.88 187.079 74.2354 179.027 65.4138L177.549 66.7622ZM202 79.88C205.244 79.88 209.727 79.5439 214.763 75.2748L213.469 73.7492C208.937 77.5921 204.996 77.88 202 77.88V79.88ZM189.052 31.6C184.729 31.6 181.14 33.4553 178.664 36.8389C176.212 40.19 174.896 44.9706 174.896 50.8H176.896C176.896 45.2414 178.154 40.922 180.278 38.0201C182.378 35.1507 185.367 33.6 189.052 33.6V31.6ZM174.896 50.8C174.896 56.6294 176.212 61.41 178.664 64.7611C181.14 68.1447 184.729 70 189.052 70V68C185.367 68 182.378 66.4493 180.278 63.5799C178.154 60.678 176.896 56.3586 176.896 50.8H174.896ZM189.052 70C193.375 70 196.964 68.1447 199.44 64.7611C201.892 61.41 203.208 56.6294 203.208 50.8H201.208C201.208 56.3586 199.95 60.678 197.826 63.5799C195.726 66.4493 192.737 68 189.052 68V70ZM203.208 50.8C203.208 44.9706 201.892 40.19 199.44 36.8389C196.964 33.4553 193.375 31.6 189.052 31.6V33.6C192.737 33.6 195.726 35.1507 197.826 38.0201C199.95 40.922 201.208 45.2414 201.208 50.8H203.208ZM217.817 32.6H218.817V31.6H217.817V32.6ZM217.817 68.48H216.817V69.48H217.817V68.48ZM235.029 68.48H236.029V67.48H235.029V68.48ZM235.029 69V70H236.029V69H235.029ZM212.877 69H211.877V70H212.877V69ZM212.877 32.6V31.6H211.877V32.6H212.877ZM216.817 32.6V68.48H218.817V32.6H216.817ZM217.817 69.48H235.029V67.48H217.817V69.48ZM234.029 68.48V69H236.029V68.48H234.029ZM235.029 68H212.877V70H235.029V68ZM213.877 69V32.6H211.877V69H213.877ZM212.877 33.6H217.817V31.6H212.877V33.6Z" fill="black"/>
</svg>
