<svg width="100" height="100" viewBox="0 0 100 100" fill="none" xmlns="http://www.w3.org/2000/svg">
<g clip-path="url(#clip0_22_35)">
<path d="M92.11 77.07C86.67 76.93 82.45 77.48 78.92 79C77.92 79.41 76.26 79.41 76.13 80.73C76.67 81.28 76.74 82.18 77.22 82.93C78.1432 84.5306 79.3376 85.9586 80.75 87.15C82.18 88.25 83.61 89.36 85.1 90.32C87.76 92 90.75 93 93.33 94.6C94.83 95.6 96.33 96.81 97.82 97.85C98.57 98.4 99.05 99.3 100 99.64V99.44C99.52 98.81 99.39 97.92 98.91 97.23C98.23 96.54 97.55 95.91 96.91 95.23C94.9271 92.5471 92.5424 90.1861 89.84 88.23C87.66 86.71 82.9 84.64 82.02 82.09L81.84 82C83.4334 81.7712 85.003 81.3997 86.53 80.89C88.85 80.27 90.95 80.41 93.33 79.79C94.42 79.51 95.51 79.17 96.6 78.79V78.17C95.38 76.93 94.49 75.27 93.2 74.1C89.6923 70.984 85.9477 68.1454 82 65.61C79.89 64.23 77.17 63.33 74.92 62.15C74.11 61.74 72.75 61.53 72.27 60.84C71.1576 59.172 70.2225 57.3923 69.48 55.53C67.48 51.73 65.61 47.53 63.9 43.53C62.68 40.84 61.9 38.15 60.44 35.66C53.41 23.91 45.79 16.8 34.1 9.82001C31.58 8.37001 28.59 7.75001 25.39 7.00001C23.69 6.93001 21.99 6.80001 20.29 6.73001C19.2 6.24002 18.11 4.93001 17.16 4.31001C13.28 1.81001 3.28998 -3.56999 0.42998 3.54001C-1.41002 8.00002 3.14998 12.45 4.70998 14.73C6.03309 16.3356 7.19533 18.0673 8.17998 19.9C8.65998 21.08 8.78998 22.32 9.26998 23.56C10.2656 26.7108 11.4477 29.7996 12.81 32.81C13.5406 34.2963 14.3795 35.7268 15.32 37.09C15.87 37.85 16.82 38.2 17.02 39.44C16.07 40.82 16.02 42.89 15.46 44.62C13.01 52.42 13.96 62.09 17.46 67.82C18.55 69.54 21.13 73.34 24.6 71.89C27.66 70.65 26.98 66.71 27.87 63.26C28.07 62.43 27.94 61.88 28.34 61.33V61.46C29.34 63.4 30.25 65.26 31.13 67.19C33.5485 70.7409 36.5351 73.8694 39.97 76.45C41.61 77.69 42.9 79.83 44.97 80.59V80.38H44.83C44.3598 79.8439 43.8141 79.379 43.21 79C41.9194 77.7186 40.7354 76.334 39.67 74.86C36.7926 70.886 34.2473 66.6818 32.06 62.29C31 60.15 30 57.8 29.13 55.66C28.72 54.84 28.72 53.59 28.04 53.18C27.04 54.7 25.53 56.01 24.78 57.87C23.49 60.87 23.35 64.5 22.87 68.3C22.6 68.37 22.74 68.3 22.6 68.44C20.43 67.88 19.68 65.61 18.86 63.67C16.86 58.77 16.48 50.9 18.25 45.24C18.72 43.79 20.77 39.24 19.95 37.85C19.54 36.54 18.18 35.78 17.43 34.75C16.4947 33.3491 15.6817 31.8703 15 30.33C13.37 26.46 12.56 22.18 10.79 18.33C9.79971 16.4616 8.65577 14.6788 7.36998 13C6.06998 11.14 4.64998 9.82001 3.62998 7.61001C3.28998 6.85001 2.80998 5.61001 3.34998 4.78001C3.39229 4.54082 3.514 4.32288 3.69545 4.16139C3.8769 3.9999 4.10749 3.90429 4.34998 3.89001C5.22998 3.13001 7.74998 4.09001 8.62998 4.51002C10.9832 5.42016 13.2271 6.59078 15.32 8.00001C16.32 8.69001 17.32 10 18.52 10.35H20C22.18 10.83 24.62 10.48 26.66 11.11C30.1142 12.2773 33.407 13.8767 36.46 15.87C45.4693 21.7251 52.7723 29.856 57.63 39.44C58.44 41.03 58.78 42.44 59.53 44.13C61 47.52 62.73 51 64.16 54.28C65.59 57.56 67 60.84 69 63.54C70 64.98 74.1 65.74 75.93 66.54C77.5297 67.1035 79.0986 67.7511 80.63 68.48C82.94 69.93 85.25 71.58 87.43 73.17C88.52 74 91.92 75.73 92.12 77.11L92.11 77.07Z" fill="#009563"/>
<path d="M22.74 17.07C21.7984 17.0602 20.8599 17.178 19.95 17.42V17.56H20.08C20.7333 18.5576 21.4621 19.5037 22.26 20.39C22.81 21.49 23.26 22.6 23.83 23.7L23.9599 23.56C24.4665 23.1493 24.8625 22.6187 25.1122 22.0163C25.3619 21.4138 25.4574 20.7586 25.3899 20.11C25.0903 19.6421 24.8166 19.158 24.57 18.66C24.17 17.97 23.28 17.66 22.74 17.07Z" fill="#009563"/>
</g>
<defs>
<clipPath id="clip0_22_35">
<rect width="100" height="99.64" fill="white"/>
</clipPath>
</defs>
</svg>
