<svg width="91" height="100" viewBox="0 0 91 100" fill="none" xmlns="http://www.w3.org/2000/svg">
<g clip-path="url(#clip0_22_82)">
<path d="M41.28 1.06868C42.5311 0.367962 43.941 0 45.375 0C46.809 0 48.2189 0.367962 49.47 1.06868C61.93 8.10868 74.3933 15.1487 86.86 22.1887C88.031 22.8577 89.0064 23.8219 89.6889 24.9851C90.3714 26.1483 90.7372 27.4701 90.75 28.8187V71.1887C90.7321 72.5952 90.3341 73.9707 89.5983 75.1696C88.8624 76.3684 87.8161 77.346 86.57 77.9987L49.31 98.9987C48.0302 99.7076 46.583 100.059 45.1207 100.015C43.6583 99.9706 42.2348 99.5333 41 98.7487C37.28 96.5887 33.5533 94.4353 29.82 92.2887C29.0031 91.9181 28.2687 91.3876 27.66 90.7287C28.14 90.0887 28.99 90.0087 29.66 89.7287C31.189 89.2007 32.6654 88.5311 34.07 87.7287C34.2455 87.6203 34.4502 87.5689 34.6561 87.5814C34.862 87.594 35.0589 87.6698 35.22 87.7987C38.4 89.6187 41.56 91.4987 44.76 93.3087C45.44 93.6987 46.13 93.1787 46.71 92.8587C58.9033 85.9387 71.1133 79.0387 83.34 72.1587C83.5525 72.0524 83.7286 71.8854 83.8461 71.6789C83.9636 71.4724 84.0172 71.2356 84 70.9987C84 56.9987 84 42.9987 84 28.9987C84.0223 28.7276 83.959 28.4564 83.8191 28.2232C83.6792 27.99 83.4697 27.8066 83.22 27.6987L46.1 6.79868C45.8864 6.64818 45.6313 6.5678 45.37 6.56868C45.109 6.56973 44.8545 6.64993 44.64 6.79868C32.2733 13.772 19.9 20.7487 7.52 27.7287C7.2727 27.8321 7.06374 28.0099 6.92216 28.2375C6.78058 28.4651 6.71342 28.7312 6.73 28.9987C6.73 42.9987 6.73 56.9787 6.73 70.9387C6.70904 71.1786 6.76134 71.4192 6.88 71.6287C7.00464 71.8406 7.18899 72.011 7.41 72.1187L17.32 77.7187C18.2378 78.2831 19.2639 78.6487 20.3319 78.7916C21.3999 78.9346 22.486 78.8518 23.52 78.5487C24.4174 78.2092 25.19 77.6044 25.7349 76.8147C26.2798 76.0251 26.5711 75.0881 26.57 74.1287C26.57 60.2287 26.57 46.3287 26.57 32.4387C26.5579 32.289 26.5798 32.1384 26.6338 31.9983C26.6879 31.8582 26.7729 31.732 26.8824 31.6292C26.9919 31.5264 27.1232 31.4496 27.2665 31.4045C27.4097 31.3594 27.5613 31.3472 27.71 31.3687C29.3 31.3687 30.88 31.3687 32.47 31.3687C32.6214 31.3806 32.7686 31.4237 32.9025 31.4953C33.0364 31.5669 33.1541 31.6655 33.248 31.7848C33.3419 31.9041 33.4101 32.0415 33.4484 32.1885C33.4866 32.3355 33.4939 32.4887 33.47 32.6387C33.47 46.6387 33.47 60.6387 33.47 74.5887C33.47 78.3187 31.94 82.3687 28.47 84.1887C24.29 86.4287 19 85.9987 14.84 83.8587C11.21 82.0487 7.74 79.8587 4.18 77.9587C2.93639 77.3134 1.89095 76.3431 1.15491 75.151C0.41886 73.9589 0.0197371 72.5896 0 71.1887L0 28.8187C0.00586107 27.4434 0.379946 26.0948 1.08337 24.9131C1.7868 23.7313 2.7939 22.7595 4 22.0987L41.28 1.06868Z" fill="#009563"/>
<path d="M52.11 30.4187C57.53 30.0687 63.33 30.2087 68.21 32.8787C71.98 34.8787 74.07 39.2187 74.14 43.4087C74.0696 43.6748 73.9052 43.9065 73.6773 44.0609C73.4494 44.2153 73.1733 44.282 72.9 44.2487C71.33 44.2487 69.76 44.2487 68.19 44.2487C67.8873 44.2289 67.6028 44.0971 67.392 43.8789C67.1812 43.6608 67.0593 43.3719 67.05 43.0687C66.8771 42.0344 66.4795 41.0507 65.8851 40.1868C65.2908 39.3229 64.5141 38.5998 63.61 38.0687C60.72 36.6187 57.35 36.6887 54.19 36.7187C51.89 36.8387 49.4 37.0387 47.45 38.3987C46.7318 38.9426 46.2045 39.7003 45.944 40.5627C45.6835 41.4252 45.7031 42.3481 46 43.1987C46.5 44.3987 47.89 44.7887 49 45.1487C55.53 46.8487 62.45 46.6787 68.85 48.9287C71.5 49.8487 74.1 51.6287 75 54.3987C75.6408 56.2758 75.7934 58.285 75.4435 60.2374C75.0936 62.1897 74.2528 64.0209 73 65.5587C70.7433 67.9036 67.8097 69.4841 64.61 70.0787C60.4615 70.9225 56.2055 71.1048 52 70.6187C48 70.1687 43.91 69.1287 40.86 66.4287C39.5894 65.2637 38.5925 63.832 37.9407 62.2361C37.2889 60.6403 36.9984 58.92 37.09 57.1987C37.1251 56.9235 37.2657 56.6728 37.4821 56.4993C37.6985 56.3258 37.9738 56.2431 38.25 56.2687C39.83 56.2687 41.41 56.2687 43 56.2687C43.1461 56.2647 43.2916 56.2899 43.4279 56.3427C43.5641 56.3956 43.6885 56.4751 43.7937 56.5766C43.8989 56.678 43.9829 56.7995 44.0406 56.9338C44.0983 57.0681 44.1287 57.2125 44.13 57.3587C44.2065 58.3392 44.4839 59.2936 44.9449 60.1623C45.406 61.0311 46.0408 61.7957 46.81 62.4087C50.02 64.4887 54.06 64.3487 57.74 64.4087C60.79 64.2787 64.22 64.2387 66.74 62.2187C67.3536 61.6135 67.8003 60.8599 68.0369 60.0312C68.2734 59.2024 68.2917 58.3266 68.09 57.4887C67.7 56.0887 66.24 55.4387 64.99 55.0187C58.54 53.0187 51.55 53.7187 45.16 51.4087C42.57 50.4987 40.07 48.7587 39.07 46.0987C38.3362 44.1994 38.1505 42.1323 38.5342 40.1327C38.9178 38.1331 39.8554 36.2814 41.24 34.7887C44.09 31.9187 48.24 30.7887 52.12 30.4187H52.11Z" fill="#009563"/>
</g>
<defs>
<clipPath id="clip0_22_82">
<rect width="90.75" height="100" fill="white"/>
</clipPath>
</defs>
</svg>
