<svg width="302" height="102" viewBox="0 0 302 102" fill="none" xmlns="http://www.w3.org/2000/svg">
<rect x="0.5" y="0.5" width="301" height="101" rx="50.5" fill="#F0EDE5" stroke="black"/>
<path d="M99.344 61.512V32.6H99.864V69.52H99.344L70.952 33.224V69H70.432V32.6H76.62L99.344 61.512ZM117.928 42.48C124.844 42.48 131.292 47.836 131.292 55.896C131.292 64.06 124.844 69.52 117.928 69.52C111.012 69.52 104.564 64.06 104.564 55.896C104.564 47.836 111.012 42.48 117.928 42.48ZM117.928 69C122.972 69 126.352 64.268 126.352 55.896C126.352 47.628 122.972 43 117.928 43C112.884 43 109.504 47.628 109.504 55.896C109.504 64.268 112.884 69 117.928 69ZM156.471 51.112V32.6H161.151V69.26H160.631L156.523 60.576C155.171 66.244 151.271 69.52 145.915 69.52C139.311 69.52 134.527 64.372 134.527 55.896C134.527 47.576 139.259 42.48 145.811 42.48C151.167 42.48 155.067 45.652 156.471 51.112ZM147.787 68.22C152.727 68.22 156.523 63.28 156.523 55.896C156.523 48.616 152.675 43.78 147.735 43.78C143.055 43.78 139.467 48.616 139.467 55.896C139.467 63.28 143.055 68.22 147.787 68.22ZM190.351 56.104H170.747V56.208C170.747 64.476 174.179 68.532 180.315 68.532C185.671 68.532 188.999 65.256 189.623 59.796H190.091C189.415 66.036 185.307 69.52 178.963 69.52C170.903 69.52 165.807 64.164 165.807 56.104C165.807 47.888 171.111 42.48 178.651 42.48C185.879 42.48 190.559 47.524 190.351 56.104ZM178.599 43C174.075 43 170.903 47.732 170.747 55.584H185.827C185.775 47.576 183.175 43 178.599 43ZM196.254 69.416C194.382 69.416 193.186 68.064 193.186 66.348C193.186 64.632 194.382 63.28 196.254 63.28C198.178 63.28 199.374 64.632 199.374 66.348C199.374 68.064 198.178 69.416 196.254 69.416ZM206.671 32.444C208.439 32.444 209.635 33.744 209.635 35.304C209.635 36.864 208.439 38.164 206.671 38.164C204.955 38.164 203.759 36.864 203.759 35.304C203.759 33.744 204.955 32.444 206.671 32.444ZM204.799 79.4H204.383V43H209.063V55.792C209.063 64.268 206.411 74.876 204.799 79.4ZM223.735 69.52C217.703 69.52 213.439 65.776 213.439 59.796H213.959C213.959 65.412 217.911 69 223.839 69C228.155 69 231.015 67.024 231.015 63.956C231.015 55.896 213.855 60.784 213.855 50.176C213.855 45.6 217.651 42.48 223.111 42.48C228.675 42.48 232.263 45.808 232.263 51.32H231.795C231.795 46.12 228.363 43 223.111 43C219.003 43 216.039 44.976 216.039 47.94C216.039 55.844 233.251 51.476 233.251 61.564C233.251 66.192 229.507 69.52 223.735 69.52Z" fill="black"/>
<path d="M99.344 61.512L98.5578 62.1299L100.344 64.4026V61.512H99.344ZM99.344 32.6V31.6H98.344V32.6H99.344ZM99.864 32.6H100.864V31.6H99.864V32.6ZM99.864 69.52V70.52H100.864V69.52H99.864ZM99.344 69.52L98.5564 70.1361L98.8566 70.52H99.344V69.52ZM70.952 33.224L71.7396 32.6079L69.952 30.3226V33.224H70.952ZM70.952 69V70H71.952V69H70.952ZM70.432 69H69.432V70H70.432V69ZM70.432 32.6V31.6H69.432V32.6H70.432ZM76.62 32.6L77.4062 31.9821L77.1059 31.6H76.62V32.6ZM100.344 61.512V32.6H98.344V61.512H100.344ZM99.344 33.6H99.864V31.6H99.344V33.6ZM98.864 32.6V69.52H100.864V32.6H98.864ZM99.864 68.52H99.344V70.52H99.864V68.52ZM100.132 68.9039L71.7396 32.6079L70.1644 33.8401L98.5564 70.1361L100.132 68.9039ZM69.952 33.224V69H71.952V33.224H69.952ZM70.952 68H70.432V70H70.952V68ZM71.432 69V32.6H69.432V69H71.432ZM70.432 33.6H76.62V31.6H70.432V33.6ZM75.8338 33.2179L98.5578 62.1299L100.13 60.8941L77.4062 31.9821L75.8338 33.2179ZM117.928 43.48C124.343 43.48 130.292 48.4384 130.292 55.896H132.292C132.292 47.2336 125.345 41.48 117.928 41.48V43.48ZM130.292 55.896C130.292 63.4728 124.327 68.52 117.928 68.52V70.52C125.361 70.52 132.292 64.6472 132.292 55.896H130.292ZM117.928 68.52C111.529 68.52 105.564 63.4728 105.564 55.896H103.564C103.564 64.6472 110.495 70.52 117.928 70.52V68.52ZM105.564 55.896C105.564 48.4384 111.513 43.48 117.928 43.48V41.48C110.511 41.48 103.564 47.2336 103.564 55.896H105.564ZM117.928 70C120.811 70 123.219 68.6266 124.865 66.1394C126.486 63.6902 127.352 60.1982 127.352 55.896H125.352C125.352 59.9658 124.528 63.0258 123.197 65.0356C121.893 67.0074 120.089 68 117.928 68V70ZM127.352 55.896C127.352 51.6439 126.485 48.2008 124.861 45.7888C123.21 43.3387 120.802 42 117.928 42V44C120.098 44 121.901 44.9753 123.202 46.9062C124.528 48.8752 125.352 51.8801 125.352 55.896H127.352ZM117.928 42C115.054 42 112.645 43.3387 110.995 45.7888C109.37 48.2008 108.504 51.6439 108.504 55.896H110.504C110.504 51.8801 111.327 48.8752 112.654 46.9062C113.954 44.9753 115.758 44 117.928 44V42ZM108.504 55.896C108.504 60.1982 109.37 63.6902 110.99 66.1394C112.637 68.6266 115.045 70 117.928 70V68C115.767 68 113.963 67.0074 112.658 65.0356C111.328 63.0258 110.504 59.9658 110.504 55.896H108.504ZM156.471 51.112L155.503 51.361L157.471 51.112H156.471ZM156.471 32.6V31.6H155.471V32.6H156.471ZM161.151 32.6H162.151V31.6H161.151V32.6ZM161.151 69.26V70.26H162.151V69.26H161.151ZM160.631 69.26L159.727 69.6876L159.998 70.26H160.631V69.26ZM156.523 60.576L157.427 60.1484L156.211 57.5766L155.551 60.344L156.523 60.576ZM157.471 51.112V32.6H155.471V51.112H157.471ZM156.471 33.6H161.151V31.6H156.471V33.6ZM160.151 32.6V69.26H162.151V32.6H160.151ZM161.151 68.26H160.631V70.26H161.151V68.26ZM161.535 68.8324L157.427 60.1484L155.619 61.0036L159.727 69.6876L161.535 68.8324ZM155.551 60.344C154.915 63.009 153.698 65.0429 152.077 66.4087C150.46 67.7701 148.381 68.52 145.915 68.52V70.52C148.806 70.52 151.354 69.6319 153.365 67.9383C155.371 66.2491 156.78 63.811 157.496 60.808L155.551 60.344ZM145.915 68.52C142.89 68.52 140.325 67.349 138.502 65.2338C136.67 63.107 135.527 59.9501 135.527 55.896H133.527C133.527 60.3179 134.776 63.973 136.987 66.5392C139.208 69.117 142.337 70.52 145.915 70.52V68.52ZM135.527 55.896C135.527 51.9216 136.656 48.8171 138.469 46.7223C140.271 44.6387 142.811 43.48 145.811 43.48V41.48C142.26 41.48 139.157 42.8693 136.956 45.4137C134.764 47.9469 133.527 51.5504 133.527 55.896H135.527ZM145.811 43.48C148.285 43.48 150.37 44.2089 151.994 45.5253C153.621 46.8445 154.845 48.8035 155.503 51.361L157.44 50.863C156.693 47.9605 155.266 45.6035 153.253 43.9717C151.237 42.3371 148.694 41.48 145.811 41.48V43.48ZM147.787 69.22C150.624 69.22 153.091 67.7918 154.817 65.4144C156.533 63.05 157.523 59.7502 157.523 55.896H155.523C155.523 59.4258 154.615 62.288 153.199 64.2396C151.791 66.1782 149.891 67.22 147.787 67.22V69.22ZM157.523 55.896C157.523 48.3556 153.48 42.78 147.735 42.78V44.78C151.871 44.78 155.523 48.8764 155.523 55.896H157.523ZM147.735 42.78C145.014 42.78 142.662 44.1969 141.027 46.5349C139.401 48.8595 138.467 52.1022 138.467 55.896H140.467C140.467 52.4098 141.328 49.5945 142.666 47.6811C143.995 45.7811 145.777 44.78 147.735 44.78V42.78ZM138.467 55.896C138.467 59.739 139.4 63.0317 141.03 65.3948C142.669 67.7717 145.034 69.22 147.787 69.22V67.22C145.808 67.22 144.013 66.1983 142.676 64.2592C141.329 62.3063 140.467 59.437 140.467 55.896H138.467ZM190.351 56.104V57.104H191.327L191.351 56.1282L190.351 56.104ZM170.747 56.104V55.104H169.747V56.104H170.747ZM189.623 59.796V58.796H188.731L188.63 59.6825L189.623 59.796ZM190.091 59.796L191.085 59.9037L191.205 58.796H190.091V59.796ZM170.747 55.584L169.748 55.5641L169.727 56.584H170.747V55.584ZM185.827 55.584V56.584H186.834L186.827 55.5775L185.827 55.584ZM190.351 55.104H170.747V57.104H190.351V55.104ZM169.747 56.104V56.208H171.747V56.104H169.747ZM169.747 56.208C169.747 60.4572 170.626 63.7973 172.447 66.0922C174.3 68.4272 177.01 69.532 180.315 69.532V67.532C177.485 67.532 175.41 66.6088 174.014 64.8488C172.585 63.0487 171.747 60.2268 171.747 56.208H169.747ZM180.315 69.532C183.205 69.532 185.637 68.643 187.433 66.9363C189.221 65.2365 190.285 62.8138 190.617 59.9095L188.63 59.6825C188.338 62.2382 187.426 64.1835 186.055 65.4867C184.691 66.783 182.782 67.532 180.315 67.532V69.532ZM189.623 60.796H190.091V58.796H189.623V60.796ZM189.097 59.6883C188.781 62.6075 187.676 64.7872 185.998 66.2424C184.315 67.7014 181.953 68.52 178.963 68.52V70.52C182.318 70.52 185.182 69.5966 187.308 67.7536C189.438 65.9068 190.726 63.2245 191.085 59.9037L189.097 59.6883ZM178.963 68.52C175.161 68.52 172.146 67.2621 170.08 65.1374C168.011 63.0094 166.807 59.9216 166.807 56.104H164.807C164.807 60.3464 166.152 63.9666 168.646 66.5316C171.143 69.0999 174.705 70.52 178.963 70.52V68.52ZM166.807 56.104C166.807 52.2138 168.06 49.0675 170.126 46.9011C172.188 44.7378 175.129 43.48 178.651 43.48V41.48C174.633 41.48 171.152 42.9262 168.678 45.5209C166.207 48.1125 164.807 51.7782 164.807 56.104H166.807ZM178.651 43.48C182.022 43.48 184.708 44.6482 186.538 46.734C188.379 48.8319 189.451 51.9704 189.352 56.0798L191.351 56.1282C191.459 51.6576 190.296 47.9841 188.041 45.415C185.777 42.8338 182.509 41.48 178.651 41.48V43.48ZM178.599 42C175.934 42 173.718 43.4138 172.192 45.8105C170.683 48.1796 169.828 51.5245 169.748 55.5641L171.747 55.6039C171.823 51.7915 172.631 48.8444 173.879 46.8845C175.109 44.9522 176.741 44 178.599 44V42ZM170.747 56.584H185.827V54.584H170.747V56.584ZM186.827 55.5775C186.801 51.4914 186.127 48.1488 184.778 45.792C183.397 43.3806 181.295 42 178.599 42V44C180.48 44 181.966 44.9074 183.042 46.786C184.149 48.7192 184.802 51.6686 184.827 55.5905L186.827 55.5775ZM196.254 68.416C195.57 68.416 195.069 68.1746 194.737 67.8312C194.401 67.4823 194.186 66.9719 194.186 66.348H192.186C192.186 67.4401 192.569 68.4637 193.298 69.2198C194.033 69.9814 195.066 70.416 196.254 70.416V68.416ZM194.186 66.348C194.186 65.7241 194.401 65.2137 194.737 64.8648C195.069 64.5214 195.57 64.28 196.254 64.28V62.28C195.066 62.28 194.033 62.7146 193.298 63.4762C192.569 64.2323 192.186 65.2559 192.186 66.348H194.186ZM196.254 64.28C196.972 64.28 197.485 64.5266 197.82 64.8691C198.159 65.2166 198.374 65.7245 198.374 66.348H200.374C200.374 65.2555 199.99 64.2294 199.251 63.4719C198.506 62.7094 197.46 62.28 196.254 62.28V64.28ZM198.374 66.348C198.374 66.9715 198.159 67.4794 197.82 67.8269C197.485 68.1694 196.972 68.416 196.254 68.416V70.416C197.46 70.416 198.506 69.9866 199.251 69.2241C199.99 68.4666 200.374 67.4405 200.374 66.348H198.374ZM204.799 79.4V80.4H205.504L205.741 79.7357L204.799 79.4ZM204.383 79.4H203.383V80.4H204.383V79.4ZM204.383 43V42H203.383V43H204.383ZM209.063 43H210.063V42H209.063V43ZM206.671 33.444C207.887 33.444 208.635 34.2963 208.635 35.304H210.635C210.635 33.1917 208.991 31.444 206.671 31.444V33.444ZM208.635 35.304C208.635 36.3117 207.887 37.164 206.671 37.164V39.164C208.991 39.164 210.635 37.4163 210.635 35.304H208.635ZM206.671 37.164C205.519 37.164 204.759 36.3236 204.759 35.304H202.759C202.759 37.4044 204.391 39.164 206.671 39.164V37.164ZM204.759 35.304C204.759 34.2844 205.519 33.444 206.671 33.444V31.444C204.391 31.444 202.759 33.2036 202.759 35.304H204.759ZM204.799 78.4H204.383V80.4H204.799V78.4ZM205.383 79.4V43H203.383V79.4H205.383ZM204.383 44H209.063V42H204.383V44ZM208.063 43V55.792H210.063V43H208.063ZM208.063 55.792C208.063 64.1185 205.445 74.6091 203.857 79.0643L205.741 79.7357C207.378 75.1429 210.063 64.4175 210.063 55.792H208.063ZM213.439 59.796V58.796H212.439V59.796H213.439ZM213.959 59.796H214.959V58.796H213.959V59.796ZM232.263 51.32V52.32H233.263V51.32H232.263ZM231.795 51.32H230.795V52.32H231.795V51.32ZM223.735 68.52C220.924 68.52 218.608 67.6499 217.004 66.1664C215.409 64.6908 214.439 62.5359 214.439 59.796H212.439C212.439 63.0361 213.601 65.7432 215.646 67.6346C217.682 69.5181 220.513 70.52 223.735 70.52V68.52ZM213.439 60.796H213.959V58.796H213.439V60.796ZM212.959 59.796C212.959 62.8499 214.04 65.4287 215.997 67.2382C217.945 69.0401 220.675 70 223.839 70V68C221.075 68 218.864 67.1659 217.355 65.7698C215.854 64.3813 214.959 62.3581 214.959 59.796H212.959ZM223.839 70C226.135 70 228.148 69.4763 229.619 68.4479C231.118 67.3992 232.015 65.8432 232.015 63.956H230.015C230.015 65.1368 229.482 66.1028 228.472 66.8091C227.433 67.5357 225.859 68 223.839 68V70ZM232.015 63.956C232.015 62.7573 231.691 61.7456 231.092 60.9045C230.503 60.0776 229.689 59.4744 228.797 59.0081C227.058 58.0989 224.757 57.59 222.686 57.0535C220.527 56.4941 218.558 55.8952 217.121 54.8597C215.762 53.8805 214.855 52.4937 214.855 50.176H212.855C212.855 53.1623 214.093 55.1425 215.951 56.4822C217.732 57.7656 220.053 58.4374 222.184 58.9895C224.403 59.5645 226.392 60.0078 227.87 60.7805C228.587 61.1552 229.114 61.5753 229.463 62.0652C229.802 62.541 230.015 63.1397 230.015 63.956H232.015ZM214.855 50.176C214.855 48.1873 215.67 46.545 217.073 45.382C218.491 44.2069 220.565 43.48 223.111 43.48V41.48C220.196 41.48 217.642 42.3131 215.797 43.842C213.938 45.383 212.855 47.5887 212.855 50.176H214.855ZM223.111 43.48C225.695 43.48 227.715 44.25 229.083 45.5562C230.445 46.8568 231.263 48.7877 231.263 51.32H233.263C233.263 48.3403 232.287 45.8512 230.464 44.1098C228.647 42.374 226.091 41.48 223.111 41.48V43.48ZM232.263 50.32H231.795V52.32H232.263V50.32ZM232.795 51.32C232.795 48.492 231.855 46.1319 230.109 44.4829C228.37 42.8407 225.933 42 223.111 42V44C225.541 44 227.446 44.7193 228.736 45.9371C230.018 47.1481 230.795 48.948 230.795 51.32H232.795ZM223.111 42C220.91 42 218.929 42.5278 217.467 43.5351C215.984 44.5572 215.039 46.081 215.039 47.94H217.039C217.039 46.835 217.576 45.8888 218.602 45.1819C219.649 44.4602 221.204 44 223.111 44V42ZM215.039 47.94C215.039 49.1243 215.366 50.1269 215.966 50.9635C216.555 51.7851 217.367 52.3924 218.258 52.8672C220 53.7952 222.301 54.3383 224.385 54.8987C226.554 55.4818 228.538 56.0922 229.987 57.1094C231.36 58.0729 232.251 59.3982 232.251 61.564H234.251C234.251 58.6858 232.991 56.7741 231.136 55.4724C229.358 54.2243 227.039 53.5412 224.905 52.9673C222.686 52.3707 220.684 51.8933 219.198 51.102C218.476 50.7173 217.944 50.2902 217.591 49.7984C217.25 49.3216 217.039 48.7317 217.039 47.94H215.039ZM232.251 61.564C232.251 63.5895 231.44 65.2985 230.009 66.5159C228.567 67.7433 226.433 68.52 223.735 68.52V70.52C226.809 70.52 229.433 69.6327 231.305 68.0391C233.19 66.4355 234.251 64.1665 234.251 61.564H232.251Z" fill="black"/>
</svg>
