<svg width="302" height="102" viewBox="0 0 302 102" fill="none" xmlns="http://www.w3.org/2000/svg">
<rect x="0.5" y="0.5" width="301" height="101" rx="50.5" fill="#F0EDE5" stroke="black"/>
<path d="M108.712 54.544L116.304 69H110.948L101.9 51.892C101.432 51.944 100.912 51.944 100.392 51.944H93.372V69H88.432V32.6H100.392C109.544 32.6 114.744 36.656 114.744 42.272C114.744 47.42 110.376 51.268 102.524 51.84L104.032 54.544H108.712ZM93.372 51.424H99.04C106.112 51.424 109.544 47.576 109.544 42.272C109.544 36.968 106.112 33.12 99.04 33.12H93.372V51.424ZM141.828 56.104H122.224V56.208C122.224 64.476 125.656 68.532 131.792 68.532C137.148 68.532 140.476 65.256 141.1 59.796H141.568C140.892 66.036 136.784 69.52 130.44 69.52C122.38 69.52 117.284 64.164 117.284 56.104C117.284 47.888 122.588 42.48 130.128 42.48C137.356 42.48 142.036 47.524 141.828 56.104ZM130.076 43C125.552 43 122.38 47.732 122.224 55.584H137.304C137.252 47.576 134.652 43 130.076 43ZM157.228 42.48C164.196 42.48 167.888 46.432 167.888 53.608V69.52H167.368L163.26 59.12C161.752 66.504 156.448 69.52 151.612 69.52C147.088 69.52 144.956 66.92 144.956 63.8C144.956 58.184 151.56 55.012 163.208 54.284V52.256C163.208 46.588 161.128 43.312 155.824 43.312C150.468 43.312 146.62 47.056 146.62 53.764H146.1C146.1 46.536 150.26 42.48 157.228 42.48ZM154.472 67.388C158.684 67.388 163.156 63.28 163.208 54.648C154.628 55.428 149.636 58.08 149.636 62.916C149.636 65.724 151.3 67.388 154.472 67.388ZM196.616 58.6H197.084C197.084 65.152 192.3 69.52 185.956 69.52C177.948 69.52 172.228 64.164 172.228 55.896C172.228 47.68 178.26 42.48 185.592 42.48C191.52 42.48 196.408 45.964 196.928 53.244H196.46C195.94 46.744 191.832 43.468 187.204 43.468C181.536 43.468 177.168 48.304 177.168 55.948C177.168 63.332 181.328 68.22 187.568 68.22C192.664 68.22 196.616 64.372 196.616 58.6ZM217.444 59.796H217.964C217.964 66.504 214.532 69.468 210.424 69.468C206.16 69.468 202.572 67.024 202.572 60.94V43.52H197.736V43H202.572L206.784 36.24H207.304V43H217.444V43.52H207.304V62.24C207.304 66.14 208.812 68.116 211.932 68.116C214.844 68.116 217.392 65.724 217.444 59.796Z" fill="black"/>
<path d="M108.712 54.544L109.597 54.079L109.316 53.544H108.712V54.544ZM116.304 69V70H117.959L117.189 68.535L116.304 69ZM110.948 69L110.064 69.4675L110.346 70H110.948V69ZM101.9 51.892L102.784 51.4245L102.466 50.823L101.79 50.8981L101.9 51.892ZM93.372 51.944V50.944H92.372V51.944H93.372ZM93.372 69V70H94.372V69H93.372ZM88.432 69H87.432V70H88.432V69ZM88.432 32.6V31.6H87.432V32.6H88.432ZM102.524 51.84L102.451 50.8426L100.886 50.9566L101.651 52.3271L102.524 51.84ZM104.032 54.544L103.159 55.0311L103.445 55.544H104.032V54.544ZM93.372 51.424H92.372V52.424H93.372V51.424ZM93.372 33.12V32.12H92.372V33.12H93.372ZM107.827 55.009L115.419 69.465L117.189 68.535L109.597 54.079L107.827 55.009ZM116.304 68H110.948V70H116.304V68ZM111.832 68.5325L102.784 51.4245L101.016 52.3595L110.064 69.4675L111.832 68.5325ZM101.79 50.8981C101.387 50.9428 100.925 50.944 100.392 50.944V52.944C100.899 52.944 101.477 52.9452 102.01 52.8859L101.79 50.8981ZM100.392 50.944H93.372V52.944H100.392V50.944ZM92.372 51.944V69H94.372V51.944H92.372ZM93.372 68H88.432V70H93.372V68ZM89.432 69V32.6H87.432V69H89.432ZM88.432 33.6H100.392V31.6H88.432V33.6ZM100.392 33.6C104.835 33.6 108.201 34.5864 110.425 36.1484C112.621 37.6903 113.744 39.812 113.744 42.272H115.744C115.744 39.116 114.267 36.4017 111.575 34.5116C108.911 32.6416 105.101 31.6 100.392 31.6V33.6ZM113.744 42.272C113.744 44.533 112.797 46.5003 110.95 47.9945C109.08 49.5068 106.24 50.5666 102.451 50.8426L102.597 52.8374C106.66 52.5414 109.93 51.3912 112.207 49.5495C114.507 47.6897 115.744 45.159 115.744 42.272H113.744ZM101.651 52.3271L103.159 55.0311L104.905 54.0569L103.397 51.3529L101.651 52.3271ZM104.032 55.544H108.712V53.544H104.032V55.544ZM93.372 52.424H99.04V50.424H93.372V52.424ZM99.04 52.424C102.753 52.424 105.65 51.4119 107.626 49.5682C109.609 47.7184 110.544 45.1441 110.544 42.272H108.544C108.544 44.7039 107.763 46.7056 106.262 48.1058C104.754 49.5121 102.399 50.424 99.04 50.424V52.424ZM110.544 42.272C110.544 39.3999 109.609 36.8256 107.626 34.9758C105.65 33.1321 102.753 32.12 99.04 32.12V34.12C102.399 34.12 104.754 35.0319 106.262 36.4382C107.763 37.8384 108.544 39.8401 108.544 42.272H110.544ZM99.04 32.12H93.372V34.12H99.04V32.12ZM92.372 33.12V51.424H94.372V33.12H92.372ZM141.828 56.104V57.104H142.804L142.828 56.1282L141.828 56.104ZM122.224 56.104V55.104H121.224V56.104H122.224ZM141.1 59.796V58.796H140.208L140.106 59.6825L141.1 59.796ZM141.568 59.796L142.562 59.9037L142.682 58.796H141.568V59.796ZM122.224 55.584L121.224 55.5641L121.204 56.584H122.224V55.584ZM137.304 55.584V56.584H138.31L138.304 55.5775L137.304 55.584ZM141.828 55.104H122.224V57.104H141.828V55.104ZM121.224 56.104V56.208H123.224V56.104H121.224ZM121.224 56.208C121.224 60.4572 122.102 63.7973 123.924 66.0922C125.777 68.4272 128.487 69.532 131.792 69.532V67.532C128.961 67.532 126.887 66.6088 125.49 64.8488C124.061 63.0487 123.224 60.2268 123.224 56.208H121.224ZM131.792 69.532C134.682 69.532 137.114 68.643 138.909 66.9363C140.697 65.2365 141.761 62.8138 142.093 59.9095L140.106 59.6825C139.814 62.2382 138.902 64.1835 137.531 65.4867C136.168 66.783 134.258 67.532 131.792 67.532V69.532ZM141.1 60.796H141.568V58.796H141.1V60.796ZM140.574 59.6883C140.257 62.6075 139.153 64.7872 137.474 66.2424C135.791 67.7014 133.43 68.52 130.44 68.52V70.52C133.794 70.52 136.658 69.5966 138.784 67.7536C140.915 65.9068 142.202 63.2245 142.562 59.9037L140.574 59.6883ZM130.44 68.52C126.638 68.52 123.622 67.2621 121.556 65.1374C119.487 63.0094 118.284 59.9216 118.284 56.104H116.284C116.284 60.3464 117.629 63.9666 120.122 66.5316C122.62 69.0999 126.182 70.52 130.44 70.52V68.52ZM118.284 56.104C118.284 52.2138 119.536 49.0675 121.602 46.9011C123.665 44.7378 126.606 43.48 130.128 43.48V41.48C126.11 41.48 122.629 42.9262 120.155 45.5209C117.683 48.1125 116.284 51.7782 116.284 56.104H118.284ZM130.128 43.48C133.498 43.48 136.184 44.6482 138.015 46.734C139.855 48.8319 140.928 51.9704 140.828 56.0798L142.828 56.1282C142.936 51.6576 141.772 47.9841 139.518 45.415C137.253 42.8338 133.985 41.48 130.128 41.48V43.48ZM130.076 42C127.41 42 125.194 43.4138 123.668 45.8105C122.16 48.1796 121.304 51.5245 121.224 55.5641L123.224 55.6039C123.299 51.7915 124.108 48.8444 125.355 46.8845C126.586 44.9522 128.217 44 130.076 44V42ZM122.224 56.584H137.304V54.584H122.224V56.584ZM138.304 55.5775C138.277 51.4914 137.604 48.1488 136.254 45.792C134.873 43.3806 132.771 42 130.076 42V44C131.957 44 133.443 44.9074 134.519 46.786C135.626 48.7192 136.278 51.6686 136.304 55.5905L138.304 55.5775ZM167.888 69.52V70.52H168.888V69.52H167.888ZM167.368 69.52L166.438 69.8874L166.688 70.52H167.368V69.52ZM163.26 59.12L164.19 58.7526L162.954 55.6224L162.28 58.9199L163.26 59.12ZM163.208 54.284L163.27 55.2821L164.208 55.2235V54.284H163.208ZM146.62 53.764V54.764H147.62V53.764H146.62ZM146.1 53.764H145.1V54.764H146.1V53.764ZM163.208 54.648L164.208 54.654L164.215 53.5524L163.117 53.6521L163.208 54.648ZM157.228 43.48C160.525 43.48 162.894 44.4107 164.447 46.0424C166.007 47.6822 166.888 50.1812 166.888 53.608H168.888C168.888 49.8588 167.923 46.7938 165.895 44.6636C163.86 42.5253 160.899 41.48 157.228 41.48V43.48ZM166.888 53.608V69.52H168.888V53.608H166.888ZM167.888 68.52H167.368V70.52H167.888V68.52ZM168.298 69.1526L164.19 58.7526L162.33 59.4874L166.438 69.8874L168.298 69.1526ZM162.28 58.9199C160.872 65.813 155.999 68.52 151.612 68.52V70.52C156.897 70.52 162.632 67.195 164.24 59.3201L162.28 58.9199ZM151.612 68.52C149.542 68.52 148.146 67.9283 147.275 67.1038C146.405 66.2806 145.956 65.1287 145.956 63.8H143.956C143.956 65.5913 144.573 67.2994 145.9 68.5562C147.226 69.8117 149.158 70.52 151.612 70.52V68.52ZM145.956 63.8C145.956 61.4855 147.277 59.5759 150.169 58.0997C153.096 56.6052 157.499 55.6427 163.27 55.2821L163.146 53.2859C157.269 53.6533 152.546 54.6407 149.259 56.3183C145.937 58.0141 143.956 60.4985 143.956 63.8H145.956ZM164.208 54.284V52.256H162.208V54.284H164.208ZM164.208 52.256C164.208 49.3313 163.677 46.8301 162.296 45.0462C160.874 43.2103 158.694 42.312 155.824 42.312V44.312C158.258 44.312 159.77 45.0517 160.714 46.2708C161.699 47.5419 162.208 49.5127 162.208 52.256H164.208ZM155.824 42.312C152.904 42.312 150.322 43.3389 148.477 45.3457C146.639 47.3456 145.62 50.221 145.62 53.764H147.62C147.62 50.599 148.525 48.2484 149.95 46.6993C151.368 45.1571 153.388 44.312 155.824 44.312V42.312ZM146.62 52.764H146.1V54.764H146.62V52.764ZM147.1 53.764C147.1 50.3401 148.082 47.8006 149.759 46.1174C151.437 44.4344 153.937 43.48 157.228 43.48V41.48C153.551 41.48 150.487 42.5536 148.343 44.7056C146.198 46.8574 145.1 49.9599 145.1 53.764H147.1ZM154.472 68.388C159.451 68.388 164.154 63.5899 164.208 54.654L162.208 54.642C162.158 62.9701 157.917 66.388 154.472 66.388V68.388ZM163.117 53.6521C158.769 54.0474 155.204 54.9244 152.697 56.3991C150.14 57.9034 148.636 60.0706 148.636 62.916H150.636C150.636 60.9254 151.628 59.3486 153.712 58.1229C155.846 56.8676 159.067 56.0286 163.299 55.6439L163.117 53.6521ZM148.636 62.916C148.636 64.5185 149.116 65.9294 150.178 66.9322C151.232 67.9271 152.72 68.388 154.472 68.388V66.388C153.052 66.388 152.122 66.0169 151.551 65.4778C150.988 64.9466 150.636 64.1215 150.636 62.916H148.636ZM196.616 58.6V57.6H195.616V58.6H196.616ZM197.084 58.6H198.084V57.6H197.084V58.6ZM196.928 53.244V54.244H198.002L197.925 53.1728L196.928 53.244ZM196.46 53.244L195.463 53.3237L195.537 54.244H196.46V53.244ZM196.616 59.6H197.084V57.6H196.616V59.6ZM196.084 58.6C196.084 61.622 194.986 64.0857 193.206 65.7959C191.422 67.5105 188.896 68.52 185.956 68.52V70.52C189.36 70.52 192.398 69.3455 194.592 67.2381C196.79 65.1263 198.084 62.13 198.084 58.6H196.084ZM185.956 68.52C182.178 68.52 179.008 67.2599 176.787 65.0928C174.57 62.9289 173.228 59.7912 173.228 55.896H171.228C171.228 60.2688 172.746 63.9431 175.391 66.5242C178.032 69.1021 181.726 70.52 185.956 70.52V68.52ZM173.228 55.896C173.228 48.2706 178.773 43.48 185.592 43.48V41.48C177.747 41.48 171.228 47.0894 171.228 55.896H173.228ZM185.592 43.48C188.363 43.48 190.817 44.2929 192.628 45.8834C194.429 47.4653 195.686 49.8961 195.931 53.3152L197.925 53.1728C197.65 49.3119 196.203 46.3607 193.948 44.3806C191.703 42.4091 188.749 41.48 185.592 41.48V43.48ZM196.928 52.244H196.46V54.244H196.928V52.244ZM197.457 53.1643C197.181 49.7155 195.943 47.0309 194.071 45.2031C192.2 43.3756 189.759 42.468 187.204 42.468V44.468C189.277 44.468 191.204 45.1984 192.674 46.6339C194.143 48.0691 195.219 50.2725 195.463 53.3237L197.457 53.1643ZM187.204 42.468C184.066 42.468 181.278 43.8145 179.292 46.202C177.314 48.5793 176.168 51.9396 176.168 55.948H178.168C178.168 52.3124 179.206 49.4327 180.829 47.481C182.444 45.5395 184.674 44.468 187.204 44.468V42.468ZM176.168 55.948C176.168 59.8219 177.26 63.1363 179.265 65.5C181.284 67.8785 184.167 69.22 187.568 69.22V67.22C184.729 67.22 182.412 66.1175 180.79 64.206C179.156 62.2797 178.168 59.4581 178.168 55.948H176.168ZM187.568 69.22C193.249 69.22 197.616 64.8907 197.616 58.6H195.616C195.616 63.8533 192.079 67.22 187.568 67.22V69.22ZM217.444 59.796V58.796H216.452L216.444 59.7872L217.444 59.796ZM217.964 59.796H218.964V58.796H217.964V59.796ZM202.572 43.52H203.572V42.52H202.572V43.52ZM197.736 43.52H196.736V44.52H197.736V43.52ZM197.736 43V42H196.736V43H197.736ZM202.572 43V44H203.127L203.42 43.5288L202.572 43ZM206.784 36.24V35.24H206.228L205.935 35.7112L206.784 36.24ZM207.304 36.24H208.304V35.24H207.304V36.24ZM207.304 43H206.304V44H207.304V43ZM217.444 43H218.444V42H217.444V43ZM217.444 43.52V44.52H218.444V43.52H217.444ZM207.304 43.52V42.52H206.304V43.52H207.304ZM217.444 60.796H217.964V58.796H217.444V60.796ZM216.964 59.796C216.964 62.9873 216.148 65.1457 214.979 66.4919C213.821 67.8251 212.226 68.468 210.424 68.468V70.468C212.729 70.468 214.904 69.6289 216.489 67.8031C218.063 65.9903 218.964 63.3127 218.964 59.796H216.964ZM210.424 68.468C208.475 68.468 206.787 67.9111 205.591 66.7638C204.404 65.6258 203.572 63.7821 203.572 60.94H201.572C201.572 64.1819 202.533 66.6022 204.206 68.2072C205.87 69.8029 208.108 70.468 210.424 70.468V68.468ZM203.572 60.94V43.52H201.572V60.94H203.572ZM202.572 42.52H197.736V44.52H202.572V42.52ZM198.736 43.52V43H196.736V43.52H198.736ZM197.736 44H202.572V42H197.736V44ZM203.42 43.5288L207.632 36.7688L205.935 35.7112L201.723 42.4712L203.42 43.5288ZM206.784 37.24H207.304V35.24H206.784V37.24ZM206.304 36.24V43H208.304V36.24H206.304ZM207.304 44H217.444V42H207.304V44ZM216.444 43V43.52H218.444V43H216.444ZM217.444 42.52H207.304V44.52H217.444V42.52ZM206.304 43.52V62.24H208.304V43.52H206.304ZM206.304 62.24C206.304 64.2906 206.695 66.022 207.66 67.2562C208.661 68.5382 210.146 69.116 211.932 69.116V67.116C210.598 67.116 209.768 66.7058 209.236 66.0248C208.666 65.296 208.304 64.0894 208.304 62.24H206.304ZM211.932 69.116C213.689 69.116 215.355 68.3807 216.559 66.7802C217.74 65.2111 218.416 62.8943 218.444 59.8048L216.444 59.7872C216.419 62.6257 215.795 64.4689 214.961 65.5778C214.15 66.6553 213.087 67.116 211.932 67.116V69.116Z" fill="black"/>
</svg>
