<svg width="302" height="102" viewBox="0 0 302 102" fill="none" xmlns="http://www.w3.org/2000/svg">
<rect x="0.5" y="0.5" width="301" height="101" rx="50.5" fill="#5266AB" stroke="#F7D9D3"/>
<path d="M87.039 32.923L83.379 32.496V30.3H98.629C101.964 30.3 104.648 30.6863 106.681 31.459C108.714 32.2317 110.28 33.1873 111.378 34.326C112.476 35.4647 113.208 36.6847 113.574 37.986C113.94 39.2467 114.123 40.3853 114.123 41.402C114.123 43.0287 113.899 44.4113 113.452 45.55C113.045 46.6887 112.435 47.6647 111.622 48.478C110.849 49.2913 109.914 49.9827 108.816 50.552C107.759 51.0807 106.6 51.528 105.339 51.894L114.184 70.377L117.234 70.804V73H109.182L99.605 52.748H96.189C95.579 52.748 95.0097 52.7277 94.481 52.687C93.9523 52.6057 93.4237 52.5243 92.895 52.443V70.377L96.555 70.804V73H83.379V70.804L87.039 70.377V32.923ZM93.017 50.247C93.627 50.369 94.298 50.4503 95.03 50.491C95.762 50.5317 96.5347 50.552 97.348 50.552C98.324 50.552 99.4423 50.43 100.703 50.186C101.964 49.942 103.143 49.4947 104.241 48.844C105.38 48.1933 106.335 47.319 107.108 46.221C107.881 45.123 108.267 43.72 108.267 42.012C108.267 38.596 107.372 36.156 105.583 34.692C103.834 33.228 101.374 32.496 98.202 32.496C96.9413 32.496 95.9043 32.5163 95.091 32.557C94.3183 32.5977 93.627 32.679 93.017 32.801V50.247ZM125.855 59.641C125.896 60.6983 126.099 61.837 126.465 63.057C126.831 64.2363 127.36 65.3343 128.051 66.351C128.742 67.327 129.596 68.1607 130.613 68.852C131.67 69.5027 132.911 69.828 134.334 69.828C136.042 69.828 137.465 69.3807 138.604 68.486C139.743 67.5913 140.78 66.412 141.715 64.948L143.24 65.985C142.752 67.083 142.162 68.12 141.471 69.096C140.78 70.0313 139.987 70.865 139.092 71.597C138.197 72.2883 137.201 72.8373 136.103 73.244C135.005 73.6913 133.805 73.915 132.504 73.915C130.511 73.915 128.763 73.5083 127.258 72.695C125.794 71.8817 124.554 70.804 123.537 69.462C122.561 68.12 121.829 66.595 121.341 64.887C120.853 63.179 120.609 61.4303 120.609 59.641C120.609 57.1197 120.914 54.8423 121.524 52.809C122.134 50.735 122.947 48.9863 123.964 47.563C125.021 46.099 126.221 44.9807 127.563 44.208C128.946 43.3947 130.389 42.988 131.894 42.988C133.602 42.988 135.066 43.3133 136.286 43.964C137.547 44.6147 138.604 45.489 139.458 46.587C140.312 47.685 140.983 48.9457 141.471 50.369C142 51.7517 142.366 53.1953 142.569 54.7L125.855 59.641ZM133.724 54.578C134.7 54.2933 135.473 53.9273 136.042 53.48C136.652 52.992 136.957 52.0567 136.957 50.674C136.957 50.1047 136.876 49.4947 136.713 48.844C136.55 48.1933 136.286 47.6037 135.92 47.075C135.554 46.5057 135.066 46.0583 134.456 45.733C133.887 45.367 133.155 45.184 132.26 45.184C130.959 45.184 129.881 45.4687 129.027 46.038C128.173 46.5667 127.482 47.258 126.953 48.112C126.424 48.9253 126.058 49.8403 125.855 50.857C125.652 51.8737 125.55 52.8293 125.55 53.724C125.55 54.6593 125.55 55.3303 125.55 55.737C125.55 56.1437 125.57 56.5097 125.611 56.835L133.724 54.578ZM167.787 68.669C167.787 69.3603 167.929 69.828 168.214 70.072C168.539 70.2753 168.885 70.377 169.251 70.377C169.698 70.377 170.084 70.255 170.41 70.011C170.735 69.7263 170.999 69.4823 171.203 69.279L172.484 70.499C171.792 71.475 170.979 72.2883 170.044 72.939C169.149 73.5897 168.051 73.915 166.75 73.915C165.692 73.915 164.818 73.5083 164.127 72.695C163.476 71.8817 163.11 70.9463 163.029 69.889C161.971 71.0277 160.67 71.9833 159.125 72.756C157.579 73.5287 156.034 73.915 154.489 73.915C153.431 73.915 152.435 73.732 151.5 73.366C150.605 73.0407 149.792 72.5527 149.06 71.902C148.368 71.2513 147.819 70.4787 147.413 69.584C147.006 68.6893 146.803 67.7133 146.803 66.656C146.803 64.704 147.331 63.0163 148.389 61.593C149.487 60.129 150.829 58.8683 152.415 57.811C154.041 56.7537 155.79 55.8997 157.661 55.249C159.572 54.5577 161.321 54.029 162.907 53.663C162.907 51.9957 162.683 50.613 162.236 49.515C161.788 48.417 161.26 47.563 160.65 46.953C160.04 46.3023 159.389 45.855 158.698 45.611C158.006 45.3263 157.417 45.184 156.929 45.184C156.359 45.184 155.953 45.4077 155.709 45.855C155.465 46.2617 155.2 46.7293 154.916 47.258C154.672 47.746 154.306 48.2137 153.818 48.661C153.37 49.0677 152.638 49.271 151.622 49.271C150.849 49.271 150.219 49.027 149.731 48.539C149.243 48.0103 148.999 47.319 148.999 46.465C148.999 45.1637 149.405 44.269 150.219 43.781C151.032 43.2523 152.455 42.988 154.489 42.988C155.424 42.988 156.644 43.1507 158.149 43.476C159.653 43.7607 161.117 44.2893 162.541 45.062C163.964 45.8347 165.184 46.9123 166.201 48.295C167.258 49.6777 167.787 51.4263 167.787 53.541V68.669ZM162.846 55.92C161.829 56.1233 160.69 56.4487 159.43 56.896C158.21 57.3027 157.051 57.8923 155.953 58.665C154.855 59.397 153.94 60.312 153.208 61.41C152.476 62.508 152.11 63.8093 152.11 65.314C152.11 66.8593 152.537 68.0997 153.391 69.035C154.285 69.9297 155.505 70.377 157.051 70.377C158.271 70.377 159.369 70.072 160.345 69.462C161.321 68.8113 162.154 68.0387 162.846 67.144V55.92ZM198.546 66.229C197.895 67.2863 197.183 68.2827 196.411 69.218C195.679 70.1533 194.845 70.9667 193.91 71.658C193.015 72.3493 191.998 72.8983 190.86 73.305C189.762 73.7117 188.521 73.915 187.139 73.915C185.227 73.915 183.499 73.5287 181.954 72.756C180.449 71.9833 179.168 70.9667 178.111 69.706C177.053 68.4047 176.24 66.9203 175.671 65.253C175.142 63.5857 174.878 61.8777 174.878 60.129C174.878 57.933 175.183 55.8183 175.793 53.785C176.403 51.711 177.277 49.881 178.416 48.295C179.595 46.6683 181.039 45.3873 182.747 44.452C184.495 43.476 186.508 42.988 188.786 42.988C189.884 42.988 190.921 43.0897 191.897 43.293C192.873 43.4963 193.706 43.8013 194.398 44.208C195.13 44.6147 195.699 45.1433 196.106 45.794C196.553 46.404 196.777 47.136 196.777 47.99C196.777 48.966 196.472 49.7183 195.862 50.247C195.292 50.7757 194.54 51.04 193.605 51.04C192.547 51.04 191.815 50.735 191.409 50.125C191.002 49.515 190.656 48.844 190.372 48.112C190.25 47.746 190.128 47.4003 190.006 47.075C189.884 46.709 189.721 46.404 189.518 46.16C189.314 45.8753 189.05 45.6517 188.725 45.489C188.399 45.2857 187.952 45.184 187.383 45.184C186.325 45.184 185.329 45.489 184.394 46.099C183.499 46.709 182.706 47.5223 182.015 48.539C181.364 49.515 180.835 50.6537 180.429 51.955C180.022 53.2563 179.819 54.5983 179.819 55.981C179.819 57.8517 180.002 59.6207 180.368 61.288C180.774 62.9553 181.364 64.4193 182.137 65.68C182.909 66.9407 183.865 67.9573 185.004 68.73C186.183 69.462 187.566 69.828 189.152 69.828C191.022 69.828 192.527 69.401 193.666 68.547C194.804 67.6523 195.862 66.4933 196.838 65.07L198.546 66.229ZM217.843 43.903V46.587H209.852V65.68C209.852 67.388 210.157 68.608 210.767 69.34C211.377 70.0313 212.455 70.377 214 70.377C214.732 70.377 215.505 70.1533 216.318 69.706C217.132 69.218 217.945 68.669 218.758 68.059L219.673 69.95C218.331 71.17 217.01 72.146 215.708 72.878C214.448 73.5693 212.882 73.915 211.011 73.915C206.945 73.915 204.911 71.0073 204.911 65.192V46.587H201.129V43.903H205.033V35.912L209.974 31.886V43.903H217.843Z" fill="#F7D9D3"/>
<path d="M87.039 32.923H88.039V32.0329L87.1549 31.9297L87.039 32.923ZM83.379 32.496H82.379V33.3861L83.2631 33.4893L83.379 32.496ZM83.379 30.3V29.3H82.379V30.3H83.379ZM106.681 31.459L107.036 30.5242L107.036 30.5242L106.681 31.459ZM111.378 34.326L110.658 35.0201L110.658 35.0201L111.378 34.326ZM113.574 37.986L112.611 38.2568L112.614 38.2648L113.574 37.986ZM113.452 45.55L112.521 45.1843L112.516 45.1989L112.51 45.2137L113.452 45.55ZM111.622 48.478L110.915 47.7709L110.906 47.78L110.897 47.7892L111.622 48.478ZM108.816 50.552L109.263 51.4464L109.27 51.4431L109.276 51.4398L108.816 50.552ZM105.339 51.894L105.06 50.9337L103.928 51.2623L104.437 52.3257L105.339 51.894ZM114.184 70.377L113.282 70.8087L113.514 71.2929L114.045 71.3673L114.184 70.377ZM117.234 70.804H118.234V69.9342L117.373 69.8137L117.234 70.804ZM117.234 73V74H118.234V73H117.234ZM109.182 73L108.278 73.4275L108.549 74H109.182V73ZM99.605 52.748L100.509 52.3205L100.238 51.748H99.605V52.748ZM94.481 52.687L94.3289 53.6754L94.3665 53.6811L94.4043 53.6841L94.481 52.687ZM92.895 52.443L93.0471 51.4546L91.895 51.2774V52.443H92.895ZM92.895 70.377H91.895V71.2671L92.7791 71.3703L92.895 70.377ZM96.555 70.804H97.555V69.9139L96.6709 69.8107L96.555 70.804ZM96.555 73V74H97.555V73H96.555ZM83.379 73H82.379V74H83.379V73ZM83.379 70.804L83.2631 69.8107L82.379 69.9139V70.804H83.379ZM87.039 70.377L87.1549 71.3703L88.039 71.2671V70.377H87.039ZM93.017 50.247H92.017V51.0668L92.8209 51.2276L93.017 50.247ZM95.03 50.491L94.9745 51.4895L94.9745 51.4895L95.03 50.491ZM100.703 50.186L100.893 51.1678L100.893 51.1678L100.703 50.186ZM104.241 48.844L103.745 47.9758L103.738 47.9797L103.731 47.9837L104.241 48.844ZM107.108 46.221L107.926 46.7965L107.926 46.7965L107.108 46.221ZM105.583 34.692L104.941 35.4588L104.95 35.466L105.583 34.692ZM95.091 32.557L95.0411 31.5582L95.0384 31.5584L95.091 32.557ZM93.017 32.801L92.8209 31.8204L92.017 31.9812V32.801H93.017ZM87.1549 31.9297L83.4949 31.5027L83.2631 33.4893L86.9231 33.9163L87.1549 31.9297ZM84.379 32.496V30.3H82.379V32.496H84.379ZM83.379 31.3H98.629V29.3H83.379V31.3ZM98.629 31.3C101.9 31.3 104.45 31.6809 106.326 32.3938L107.036 30.5242C104.846 29.6918 102.027 29.3 98.629 29.3V31.3ZM106.326 32.3938C108.27 33.1326 109.693 34.0196 110.658 35.0201L112.098 33.6319C110.867 32.3551 109.159 31.3307 107.036 30.5242L106.326 32.3938ZM110.658 35.0201C111.661 36.0602 112.297 37.1395 112.611 38.2567L114.537 37.7153C114.119 36.2298 113.291 34.8692 112.098 33.6319L110.658 35.0201ZM112.614 38.2648C112.961 39.4597 113.123 40.5025 113.123 41.402H115.123C115.123 40.2682 114.919 39.0336 114.534 37.7072L112.614 38.2648ZM113.123 41.402C113.123 42.9424 112.91 44.1936 112.521 45.1843L114.383 45.9157C114.888 44.6291 115.123 43.1149 115.123 41.402H113.123ZM112.51 45.2137C112.151 46.2202 111.618 47.0676 110.915 47.7709L112.329 49.1851C113.252 48.2617 113.94 47.1571 114.394 45.8863L112.51 45.2137ZM110.897 47.7892C110.208 48.5142 109.365 49.1409 108.356 49.6642L109.276 51.4398C110.463 50.8245 111.49 50.0685 112.347 49.1667L110.897 47.7892ZM108.369 49.6576C107.371 50.1565 106.269 50.5827 105.06 50.9337L105.618 52.8543C106.93 52.4733 108.146 52.0049 109.263 51.4464L108.369 49.6576ZM104.437 52.3257L113.282 70.8087L115.086 69.9453L106.241 51.4623L104.437 52.3257ZM114.045 71.3673L117.095 71.7943L117.373 69.8137L114.323 69.3867L114.045 71.3673ZM116.234 70.804V73H118.234V70.804H116.234ZM117.234 72H109.182V74H117.234V72ZM110.086 72.5725L100.509 52.3205L98.701 53.1755L108.278 73.4275L110.086 72.5725ZM99.605 51.748H96.189V53.748H99.605V51.748ZM96.189 51.748C95.6009 51.748 95.0574 51.7284 94.5577 51.6899L94.4043 53.6841C94.9619 53.7269 95.5571 53.748 96.189 53.748V51.748ZM94.6331 51.6986C94.1044 51.6173 93.5757 51.536 93.0471 51.4546L92.7429 53.4314C93.2716 53.5127 93.8003 53.594 94.3289 53.6754L94.6331 51.6986ZM91.895 52.443V70.377H93.895V52.443H91.895ZM92.7791 71.3703L96.4391 71.7973L96.6709 69.8107L93.0109 69.3837L92.7791 71.3703ZM95.555 70.804V73H97.555V70.804H95.555ZM96.555 72H83.379V74H96.555V72ZM84.379 73V70.804H82.379V73H84.379ZM83.4949 71.7973L87.1549 71.3703L86.9231 69.3837L83.2631 69.8107L83.4949 71.7973ZM88.039 70.377V32.923H86.039V70.377H88.039ZM92.8209 51.2276C93.4846 51.3603 94.2034 51.4466 94.9745 51.4895L95.0855 49.4925C94.3926 49.454 93.7694 49.3777 93.2131 49.2664L92.8209 51.2276ZM94.9745 51.4895C95.7269 51.5313 96.5181 51.552 97.348 51.552V49.552C96.5512 49.552 95.7971 49.5321 95.0855 49.4925L94.9745 51.4895ZM97.348 51.552C98.4041 51.552 99.5881 51.4203 100.893 51.1678L100.513 49.2042C99.2966 49.4397 98.2439 49.552 97.348 49.552V51.552ZM100.893 51.1678C102.266 50.9021 103.553 50.4139 104.751 49.7043L103.731 47.9837C102.733 48.5754 101.662 48.9819 100.513 49.2042L100.893 51.1678ZM104.737 49.7122C106.006 48.987 107.071 48.0116 107.926 46.7965L106.29 45.6455C105.6 46.6264 104.753 47.3997 103.745 47.9758L104.737 49.7122ZM107.926 46.7965C108.846 45.4893 109.267 43.8699 109.267 42.012H107.267C107.267 43.5701 106.916 44.7567 106.29 45.6455L107.926 46.7965ZM109.267 42.012C109.267 38.4432 108.332 35.6488 106.216 33.918L104.95 35.466C106.413 36.6632 107.267 38.7488 107.267 42.012H109.267ZM106.225 33.9252C104.237 32.261 101.518 31.496 98.202 31.496V33.496C101.23 33.496 103.432 34.195 104.941 35.4588L106.225 33.9252ZM98.202 31.496C96.9326 31.496 95.8774 31.5164 95.0411 31.5582L95.1409 33.5557C95.9312 33.5162 96.95 33.496 98.202 33.496V31.496ZM95.0384 31.5584C94.2286 31.601 93.488 31.687 92.8209 31.8204L93.2131 33.7816C93.766 33.671 94.408 33.5943 95.1436 33.5556L95.0384 31.5584ZM92.017 32.801V50.247H94.017V32.801H92.017ZM125.855 59.641L125.572 58.682L124.826 58.9025L124.856 59.6794L125.855 59.641ZM126.465 63.057L125.507 63.3444L125.51 63.3534L126.465 63.057ZM128.051 66.351L127.224 66.9133L127.229 66.9212L127.235 66.929L128.051 66.351ZM130.613 68.852L130.051 69.6789L130.07 69.6917L130.089 69.7037L130.613 68.852ZM138.604 68.486L137.986 67.6997L137.986 67.6997L138.604 68.486ZM141.715 64.948L142.277 64.1211L141.426 63.5424L140.872 64.4096L141.715 64.948ZM143.24 65.985L144.154 66.3911L144.493 65.6278L143.802 65.1581L143.24 65.985ZM141.471 69.096L142.275 69.6904L142.281 69.6823L142.287 69.674L141.471 69.096ZM139.092 71.597L139.703 72.3883L139.714 72.3798L139.725 72.371L139.092 71.597ZM136.103 73.244L135.756 72.3063L135.741 72.3118L135.726 72.3179L136.103 73.244ZM127.258 72.695L126.772 73.5692L126.782 73.5747L127.258 72.695ZM123.537 69.462L122.728 70.0502L122.734 70.0581L122.74 70.0659L123.537 69.462ZM121.341 64.887L120.379 65.1617L120.379 65.1617L121.341 64.887ZM121.524 52.809L122.482 53.0964L122.483 53.0912L121.524 52.809ZM123.964 47.563L123.153 46.9775L123.15 46.9818L123.964 47.563ZM127.563 44.208L128.062 45.0747L128.07 45.0699L127.563 44.208ZM136.286 43.964L135.815 44.8464L135.827 44.8526L136.286 43.964ZM139.458 46.587L138.669 47.2009L138.669 47.2009L139.458 46.587ZM141.471 50.369L140.525 50.6933L140.531 50.7098L140.537 50.7261L141.471 50.369ZM142.569 54.7L142.853 55.659L143.675 55.4159L143.56 54.5661L142.569 54.7ZM133.724 54.578L133.992 55.5415L134.004 55.538L133.724 54.578ZM136.042 53.48L136.66 54.2663L136.667 54.2609L136.042 53.48ZM135.92 47.075L135.079 47.6158L135.088 47.6301L135.098 47.6442L135.92 47.075ZM134.456 45.733L133.915 46.5742L133.95 46.5962L133.985 46.6154L134.456 45.733ZM129.027 46.038L129.553 46.8883L129.568 46.8794L129.582 46.87L129.027 46.038ZM126.953 48.112L127.791 48.657L127.797 48.6477L127.803 48.6384L126.953 48.112ZM125.855 50.857L126.836 51.0531L126.836 51.0531L125.855 50.857ZM125.611 56.835L124.619 56.959L124.762 58.109L125.879 57.7984L125.611 56.835ZM124.856 59.6794C124.9 60.8362 125.122 62.0593 125.507 63.3443L127.423 62.7697C127.076 61.6147 126.891 60.5604 126.854 59.6026L124.856 59.6794ZM125.51 63.3534C125.905 64.6268 126.477 65.8145 127.224 66.9133L128.878 65.7887C128.242 64.8542 127.757 63.8459 127.42 62.7606L125.51 63.3534ZM127.235 66.929C127.997 68.0052 128.938 68.9223 130.051 69.6789L131.175 68.0251C130.255 67.399 129.487 66.6488 128.867 65.773L127.235 66.929ZM130.089 69.7037C131.326 70.4649 132.753 70.828 134.334 70.828V68.828C133.068 68.828 132.015 68.5405 131.137 68.0003L130.089 69.7037ZM134.334 70.828C136.224 70.828 137.877 70.3292 139.222 69.2723L137.986 67.6997C137.054 68.4321 135.86 68.828 134.334 68.828V70.828ZM139.222 69.2723C140.465 68.2959 141.574 67.0267 142.558 65.4864L140.872 64.4096C139.986 65.7973 139.021 66.8867 137.986 67.6997L139.222 69.2723ZM141.153 65.7749L142.678 66.8119L143.802 65.1581L142.277 64.1211L141.153 65.7749ZM142.326 65.5789C141.865 66.6168 141.308 67.5962 140.655 68.518L142.287 69.674C143.017 68.6438 143.639 67.5492 144.154 66.3911L142.326 65.5789ZM140.667 68.5016C140.025 69.3706 139.289 70.1439 138.459 70.823L139.725 72.371C140.685 71.5861 141.535 70.692 142.275 69.6904L140.667 68.5016ZM138.481 70.8057C137.669 71.433 136.762 71.9335 135.756 72.3063L136.45 74.1817C137.64 73.7412 138.726 73.1437 139.703 72.3883L138.481 70.8057ZM135.726 72.3179C134.759 72.7119 133.689 72.915 132.504 72.915V74.915C133.922 74.915 135.251 74.6708 136.48 74.1701L135.726 72.3179ZM132.504 72.915C130.65 72.915 129.07 72.5375 127.734 71.8153L126.782 73.5747C128.456 74.4791 130.373 74.915 132.504 74.915V72.915ZM127.744 71.8208C126.402 71.0754 125.267 70.09 124.334 68.8581L122.74 70.0659C123.84 71.518 125.186 72.688 126.772 73.5692L127.744 71.8208ZM124.346 68.8738C123.443 67.633 122.761 66.2156 122.303 64.6123L120.379 65.1617C120.897 66.9744 121.679 68.607 122.728 70.0502L124.346 68.8738ZM122.303 64.6123C121.84 62.9943 121.609 61.3381 121.609 59.641H119.609C119.609 61.5226 119.866 63.3637 120.379 65.1617L122.303 64.6123ZM121.609 59.641C121.609 57.1993 121.904 55.0209 122.482 53.0963L120.566 52.5217C119.924 54.6638 119.609 57.04 119.609 59.641H121.609ZM122.483 53.0912C123.069 51.1 123.839 49.4582 124.778 48.1442L123.15 46.9818C122.055 48.5145 121.199 50.37 120.565 52.5268L122.483 53.0912ZM124.775 48.1485C125.763 46.7803 126.861 45.7659 128.062 45.0746L127.064 43.3414C125.581 44.1954 124.28 45.4177 123.153 46.9775L124.775 48.1485ZM128.07 45.0699C129.31 44.3408 130.579 43.988 131.894 43.988V41.988C130.199 41.988 128.582 42.4485 127.056 43.3461L128.07 45.0699ZM131.894 43.988C133.476 43.988 134.77 44.289 135.815 44.8464L136.757 43.0816C135.362 42.3376 133.728 41.988 131.894 41.988V43.988ZM135.827 44.8526C136.962 45.4381 137.905 46.2197 138.669 47.2009L140.247 45.9731C139.303 44.7583 138.132 43.7912 136.745 43.0754L135.827 44.8526ZM138.669 47.2009C139.449 48.2049 140.07 49.366 140.525 50.6933L142.417 50.0447C141.896 48.5254 141.175 47.1651 140.247 45.9731L138.669 47.2009ZM140.537 50.7261C141.037 52.035 141.385 53.4036 141.578 54.8339L143.56 54.5661C143.347 52.987 142.962 51.4683 142.405 50.0119L140.537 50.7261ZM142.286 53.741L125.572 58.682L126.139 60.6L142.853 55.659L142.286 53.741ZM134.004 55.538C135.057 55.231 135.958 54.8176 136.66 54.2663L135.424 52.6937C134.987 53.0371 134.343 53.3557 133.444 53.618L134.004 55.538ZM136.667 54.2609C137.646 53.4777 137.957 52.1374 137.957 50.674H135.957C135.957 51.9759 135.658 52.5063 135.417 52.6991L136.667 54.2609ZM137.957 50.674C137.957 50.0099 137.862 49.3178 137.683 48.6015L135.743 49.0865C135.889 49.6715 135.957 50.1994 135.957 50.674H137.957ZM137.683 48.6015C137.493 47.839 137.18 47.1378 136.742 46.5058L135.098 47.6442C135.392 48.0696 135.608 48.5477 135.743 49.0865L137.683 48.6015ZM136.761 46.5342C136.301 45.8181 135.684 45.2545 134.927 44.8506L133.985 46.6154C134.448 46.8621 134.807 47.1932 135.079 47.6158L136.761 46.5342ZM134.997 44.8918C134.222 44.3937 133.286 44.184 132.26 44.184V46.184C133.023 46.184 133.551 46.3403 133.915 46.5742L134.997 44.8918ZM132.26 44.184C130.814 44.184 129.53 44.5011 128.472 45.2059L129.582 46.87C130.232 46.4362 131.103 46.184 132.26 46.184V44.184ZM128.501 45.1877C127.515 45.7979 126.713 46.6001 126.103 47.5856L127.803 48.6384C128.25 47.9159 128.831 47.3355 129.553 46.8883L128.501 45.1877ZM126.115 47.567C125.512 48.4937 125.101 49.5286 124.874 50.6609L126.836 51.0531C127.016 50.1521 127.336 49.3569 127.791 48.657L126.115 47.567ZM124.874 50.6609C124.66 51.7322 124.55 52.7541 124.55 53.724H126.55C126.55 52.9046 126.643 52.0151 126.836 51.0531L124.874 50.6609ZM124.55 53.724C124.55 53.7258 124.55 53.7277 124.55 53.7295C124.55 53.7313 124.55 53.7331 124.55 53.7349C124.55 53.7368 124.55 53.7386 124.55 53.7404C124.55 53.7422 124.55 53.7441 124.55 53.7459C124.55 53.7477 124.55 53.7495 124.55 53.7513C124.55 53.7531 124.55 53.755 124.55 53.7568C124.55 53.7586 124.55 53.7604 124.55 53.7622C124.55 53.764 124.55 53.7658 124.55 53.7676C124.55 53.7695 124.55 53.7713 124.55 53.7731C124.55 53.7749 124.55 53.7767 124.55 53.7785C124.55 53.7803 124.55 53.7821 124.55 53.7839C124.55 53.7857 124.55 53.7875 124.55 53.7893C124.55 53.7911 124.55 53.7929 124.55 53.7947C124.55 53.7965 124.55 53.7983 124.55 53.8001C124.55 53.8019 124.55 53.8037 124.55 53.8055C124.55 53.8073 124.55 53.8091 124.55 53.8109C124.55 53.8127 124.55 53.8145 124.55 53.8163C124.55 53.8181 124.55 53.8199 124.55 53.8217C124.55 53.8235 124.55 53.8252 124.55 53.827C124.55 53.8288 124.55 53.8306 124.55 53.8324C124.55 53.8342 124.55 53.836 124.55 53.8378C124.55 53.8395 124.55 53.8413 124.55 53.8431C124.55 53.8449 124.55 53.8467 124.55 53.8484C124.55 53.8502 124.55 53.852 124.55 53.8538C124.55 53.8556 124.55 53.8573 124.55 53.8591C124.55 53.8609 124.55 53.8627 124.55 53.8644C124.55 53.8662 124.55 53.868 124.55 53.8698C124.55 53.8715 124.55 53.8733 124.55 53.8751C124.55 53.8769 124.55 53.8786 124.55 53.8804C124.55 53.8822 124.55 53.8839 124.55 53.8857C124.55 53.8875 124.55 53.8892 124.55 53.891C124.55 53.8928 124.55 53.8945 124.55 53.8963C124.55 53.898 124.55 53.8998 124.55 53.9016C124.55 53.9033 124.55 53.9051 124.55 53.9068C124.55 53.9086 124.55 53.9104 124.55 53.9121C124.55 53.9139 124.55 53.9156 124.55 53.9174C124.55 53.9191 124.55 53.9209 124.55 53.9226C124.55 53.9244 124.55 53.9261 124.55 53.9279C124.55 53.9296 124.55 53.9314 124.55 53.9331C124.55 53.9349 124.55 53.9366 124.55 53.9384C124.55 53.9401 124.55 53.9419 124.55 53.9436C124.55 53.9454 124.55 53.9471 124.55 53.9488C124.55 53.9506 124.55 53.9523 124.55 53.9541C124.55 53.9558 124.55 53.9575 124.55 53.9593C124.55 53.961 124.55 53.9628 124.55 53.9645C124.55 53.9662 124.55 53.968 124.55 53.9697C124.55 53.9714 124.55 53.9732 124.55 53.9749C124.55 53.9766 124.55 53.9784 124.55 53.9801C124.55 53.9818 124.55 53.9836 124.55 53.9853C124.55 53.987 124.55 53.9887 124.55 53.9905C124.55 53.9922 124.55 53.9939 124.55 53.9956C124.55 53.9974 124.55 53.9991 124.55 54.0008C124.55 54.0025 124.55 54.0042 124.55 54.006C124.55 54.0077 124.55 54.0094 124.55 54.0111C124.55 54.0128 124.55 54.0146 124.55 54.0163C124.55 54.018 124.55 54.0197 124.55 54.0214C124.55 54.0231 124.55 54.0248 124.55 54.0266C124.55 54.0283 124.55 54.03 124.55 54.0317C124.55 54.0334 124.55 54.0351 124.55 54.0368C124.55 54.0385 124.55 54.0402 124.55 54.0419C124.55 54.0436 124.55 54.0453 124.55 54.0471C124.55 54.0488 124.55 54.0505 124.55 54.0522C124.55 54.0539 124.55 54.0556 124.55 54.0573C124.55 54.059 124.55 54.0607 124.55 54.0624C124.55 54.0641 124.55 54.0658 124.55 54.0674C124.55 54.0691 124.55 54.0708 124.55 54.0725C124.55 54.0742 124.55 54.0759 124.55 54.0776C124.55 54.0793 124.55 54.081 124.55 54.0827C124.55 54.0844 124.55 54.0861 124.55 54.0877C124.55 54.0894 124.55 54.0911 124.55 54.0928C124.55 54.0945 124.55 54.0962 124.55 54.0979C124.55 54.0995 124.55 54.1012 124.55 54.1029C124.55 54.1046 124.55 54.1063 124.55 54.108C124.55 54.1096 124.55 54.1113 124.55 54.113C124.55 54.1147 124.55 54.1163 124.55 54.118C124.55 54.1197 124.55 54.1214 124.55 54.123C124.55 54.1247 124.55 54.1264 124.55 54.1281C124.55 54.1297 124.55 54.1314 124.55 54.1331C124.55 54.1347 124.55 54.1364 124.55 54.1381C124.55 54.1397 124.55 54.1414 124.55 54.1431C124.55 54.1447 124.55 54.1464 124.55 54.1481C124.55 54.1497 124.55 54.1514 124.55 54.1531C124.55 54.1547 124.55 54.1564 124.55 54.158C124.55 54.1597 124.55 54.1614 124.55 54.163C124.55 54.1647 124.55 54.1663 124.55 54.168C124.55 54.1696 124.55 54.1713 124.55 54.1729C124.55 54.1746 124.55 54.1763 124.55 54.1779C124.55 54.1796 124.55 54.1812 124.55 54.1829C124.55 54.1845 124.55 54.1862 124.55 54.1878C124.55 54.1894 124.55 54.1911 124.55 54.1927C124.55 54.1944 124.55 54.196 124.55 54.1977C124.55 54.1993 124.55 54.201 124.55 54.2026C124.55 54.2042 124.55 54.2059 124.55 54.2075C124.55 54.2092 124.55 54.2108 124.55 54.2124C124.55 54.2141 124.55 54.2157 124.55 54.2173C124.55 54.219 124.55 54.2206 124.55 54.2222C124.55 54.2239 124.55 54.2255 124.55 54.2271C124.55 54.2288 124.55 54.2304 124.55 54.232C124.55 54.2337 124.55 54.2353 124.55 54.2369C124.55 54.2385 124.55 54.2402 124.55 54.2418C124.55 54.2434 124.55 54.245 124.55 54.2467C124.55 54.2483 124.55 54.2499 124.55 54.2515C124.55 54.2532 124.55 54.2548 124.55 54.2564C124.55 54.258 124.55 54.2596 124.55 54.2612C124.55 54.2629 124.55 54.2645 124.55 54.2661C124.55 54.2677 124.55 54.2693 124.55 54.2709C124.55 54.2726 124.55 54.2742 124.55 54.2758C124.55 54.2774 124.55 54.279 124.55 54.2806C124.55 54.2822 124.55 54.2838 124.55 54.2854C124.55 54.287 124.55 54.2886 124.55 54.2902C124.55 54.2919 124.55 54.2935 124.55 54.2951C124.55 54.2967 124.55 54.2983 124.55 54.2999C124.55 54.3015 124.55 54.3031 124.55 54.3047C124.55 54.3063 124.55 54.3079 124.55 54.3095C124.55 54.3111 124.55 54.3127 124.55 54.3142C124.55 54.3158 124.55 54.3174 124.55 54.319C124.55 54.3206 124.55 54.3222 124.55 54.3238C124.55 54.3254 124.55 54.327 124.55 54.3286C124.55 54.3302 124.55 54.3318 124.55 54.3333C124.55 54.3349 124.55 54.3365 124.55 54.3381C124.55 54.3397 124.55 54.3413 124.55 54.3428C124.55 54.3444 124.55 54.346 124.55 54.3476C124.55 54.3492 124.55 54.3508 124.55 54.3523C124.55 54.3539 124.55 54.3555 124.55 54.3571C124.55 54.3586 124.55 54.3602 124.55 54.3618C124.55 54.3634 124.55 54.3649 124.55 54.3665C124.55 54.3681 124.55 54.3697 124.55 54.3712C124.55 54.3728 124.55 54.3744 124.55 54.3759C124.55 54.3775 124.55 54.3791 124.55 54.3806C124.55 54.3822 124.55 54.3838 124.55 54.3853C124.55 54.3869 124.55 54.3885 124.55 54.39C124.55 54.3916 124.55 54.3932 124.55 54.3947C124.55 54.3963 124.55 54.3978 124.55 54.3994C124.55 54.4009 124.55 54.4025 124.55 54.4041C124.55 54.4056 124.55 54.4072 124.55 54.4087C124.55 54.4103 124.55 54.4118 124.55 54.4134C124.55 54.4149 124.55 54.4165 124.55 54.418C124.55 54.4196 124.55 54.4211 124.55 54.4227C124.55 54.4242 124.55 54.4258 124.55 54.4273C124.55 54.4289 124.55 54.4304 124.55 54.432C124.55 54.4335 124.55 54.4351 124.55 54.4366C124.55 54.4381 124.55 54.4397 124.55 54.4412C124.55 54.4428 124.55 54.4443 124.55 54.4458C124.55 54.4474 124.55 54.4489 124.55 54.4505C124.55 54.452 124.55 54.4535 124.55 54.4551C124.55 54.4566 124.55 54.4581 124.55 54.4597C124.55 54.4612 124.55 54.4627 124.55 54.4643C124.55 54.4658 124.55 54.4673 124.55 54.4688C124.55 54.4704 124.55 54.4719 124.55 54.4734C124.55 54.475 124.55 54.4765 124.55 54.478C124.55 54.4795 124.55 54.4811 124.55 54.4826C124.55 54.4841 124.55 54.4856 124.55 54.4871C124.55 54.4887 124.55 54.4902 124.55 54.4917C124.55 54.4932 124.55 54.4947 124.55 54.4962C124.55 54.4978 124.55 54.4993 124.55 54.5008C124.55 54.5023 124.55 54.5038 124.55 54.5053C124.55 54.5068 124.55 54.5084 124.55 54.5099C124.55 54.5114 124.55 54.5129 124.55 54.5144C124.55 54.5159 124.55 54.5174 124.55 54.5189C124.55 54.5204 124.55 54.5219 124.55 54.5234C124.55 54.5249 124.55 54.5264 124.55 54.5279C124.55 54.5294 124.55 54.5309 124.55 54.5324C124.55 54.5339 124.55 54.5354 124.55 54.5369C124.55 54.5384 124.55 54.5399 124.55 54.5414C124.55 54.5429 124.55 54.5444 124.55 54.5459C124.55 54.5474 124.55 54.5489 124.55 54.5504C124.55 54.5519 124.55 54.5534 124.55 54.5549C124.55 54.5564 124.55 54.5579 124.55 54.5593C124.55 54.5608 124.55 54.5623 124.55 54.5638C124.55 54.5653 124.55 54.5668 124.55 54.5683C124.55 54.5697 124.55 54.5712 124.55 54.5727C124.55 54.5742 124.55 54.5757 124.55 54.5771C124.55 54.5786 124.55 54.5801 124.55 54.5816C124.55 54.5831 124.55 54.5845 124.55 54.586C124.55 54.5875 124.55 54.589 124.55 54.5904C124.55 54.5919 124.55 54.5934 124.55 54.5949C124.55 54.5963 124.55 54.5978 124.55 54.5993C124.55 54.6007 124.55 54.6022 124.55 54.6037C124.55 54.6051 124.55 54.6066 124.55 54.6081C124.55 54.6095 124.55 54.611 124.55 54.6125C124.55 54.6139 124.55 54.6154 124.55 54.6169C124.55 54.6183 124.55 54.6198 124.55 54.6212C124.55 54.6227 124.55 54.6242 124.55 54.6256C124.55 54.6271 124.55 54.6285 124.55 54.63C124.55 54.6314 124.55 54.6329 124.55 54.6344C124.55 54.6358 124.55 54.6373 124.55 54.6387C124.55 54.6402 124.55 54.6416 124.55 54.6431C124.55 54.6445 124.55 54.646 124.55 54.6474C124.55 54.6489 124.55 54.6503 124.55 54.6517C124.55 54.6532 124.55 54.6546 124.55 54.6561C124.55 54.6575 124.55 54.659 124.55 54.6604C124.55 54.6619 124.55 54.6633 124.55 54.6647C124.55 54.6662 124.55 54.6676 124.55 54.669C124.55 54.6705 124.55 54.6719 124.55 54.6734C124.55 54.6748 124.55 54.6762 124.55 54.6777C124.55 54.6791 124.55 54.6805 124.55 54.682C124.55 54.6834 124.55 54.6848 124.55 54.6863C124.55 54.6877 124.55 54.6891 124.55 54.6905C124.55 54.692 124.55 54.6934 124.55 54.6948C124.55 54.6962 124.55 54.6977 124.55 54.6991C124.55 54.7005 124.55 54.7019 124.55 54.7034C124.55 54.7048 124.55 54.7062 124.55 54.7076C124.55 54.709 124.55 54.7105 124.55 54.7119C124.55 54.7133 124.55 54.7147 124.55 54.7161C124.55 54.7175 124.55 54.719 124.55 54.7204C124.55 54.7218 124.55 54.7232 124.55 54.7246C124.55 54.726 124.55 54.7274 124.55 54.7288C124.55 54.7302 124.55 54.7317 124.55 54.7331C124.55 54.7345 124.55 54.7359 124.55 54.7373C124.55 54.7387 124.55 54.7401 124.55 54.7415C124.55 54.7429 124.55 54.7443 124.55 54.7457C124.55 54.7471 124.55 54.7485 124.55 54.7499C124.55 54.7513 124.55 54.7527 124.55 54.7541C124.55 54.7555 124.55 54.7569 124.55 54.7583C124.55 54.7597 124.55 54.7611 124.55 54.7625C124.55 54.7639 124.55 54.7653 124.55 54.7666C124.55 54.768 124.55 54.7694 124.55 54.7708C124.55 54.7722 124.55 54.7736 124.55 54.775C124.55 54.7764 124.55 54.7778 124.55 54.7791C124.55 54.7805 124.55 54.7819 124.55 54.7833C124.55 54.7847 124.55 54.7861 124.55 54.7874C124.55 54.7888 124.55 54.7902 124.55 54.7916C124.55 54.793 124.55 54.7943 124.55 54.7957C124.55 54.7971 124.55 54.7985 124.55 54.7998C124.55 54.8012 124.55 54.8026 124.55 54.804C124.55 54.8053 124.55 54.8067 124.55 54.8081C124.55 54.8094 124.55 54.8108 124.55 54.8122C124.55 54.8136 124.55 54.8149 124.55 54.8163C124.55 54.8177 124.55 54.819 124.55 54.8204C124.55 54.8218 124.55 54.8231 124.55 54.8245C124.55 54.8258 124.55 54.8272 124.55 54.8286C124.55 54.8299 124.55 54.8313 124.55 54.8326C124.55 54.834 124.55 54.8354 124.55 54.8367C124.55 54.8381 124.55 54.8394 124.55 54.8408C124.55 54.8421 124.55 54.8435 124.55 54.8449C124.55 54.8462 124.55 54.8476 124.55 54.8489C124.55 54.8503 124.55 54.8516 124.55 54.853C124.55 54.8543 124.55 54.8557 124.55 54.857C124.55 54.8583 124.55 54.8597 124.55 54.861C124.55 54.8624 124.55 54.8637 124.55 54.8651C124.55 54.8664 124.55 54.8678 124.55 54.8691C124.55 54.8704 124.55 54.8718 124.55 54.8731C124.55 54.8745 124.55 54.8758 124.55 54.8771C124.55 54.8785 124.55 54.8798 124.55 54.8811C124.55 54.8825 124.55 54.8838 124.55 54.8851C124.55 54.8865 124.55 54.8878 124.55 54.8891C124.55 54.8905 124.55 54.8918 124.55 54.8931C124.55 54.8944 124.55 54.8958 124.55 54.8971C124.55 54.8984 124.55 54.8998 124.55 54.9011C124.55 54.9024 124.55 54.9037 124.55 54.9051C124.55 54.9064 124.55 54.9077 124.55 54.909C124.55 54.9103 124.55 54.9117 124.55 54.913C124.55 54.9143 124.55 54.9156 124.55 54.9169C124.55 54.9182 124.55 54.9196 124.55 54.9209C124.55 54.9222 124.55 54.9235 124.55 54.9248C124.55 54.9261 124.55 54.9274 124.55 54.9287C124.55 54.9301 124.55 54.9314 124.55 54.9327C124.55 54.934 124.55 54.9353 124.55 54.9366C124.55 54.9379 124.55 54.9392 124.55 54.9405C124.55 54.9418 124.55 54.9431 124.55 54.9444C124.55 54.9457 124.55 54.947 124.55 54.9483C124.55 54.9496 124.55 54.9509 124.55 54.9522C124.55 54.9535 124.55 54.9548 124.55 54.9561C124.55 54.9574 124.55 54.9587 124.55 54.96C124.55 54.9613 124.55 54.9626 124.55 54.9639C124.55 54.9652 124.55 54.9665 124.55 54.9678C124.55 54.9691 124.55 54.9703 124.55 54.9716C124.55 54.9729 124.55 54.9742 124.55 54.9755C124.55 54.9768 124.55 54.9781 124.55 54.9793C124.55 54.9806 124.55 54.9819 124.55 54.9832C124.55 54.9845 124.55 54.9858 124.55 54.987C124.55 54.9883 124.55 54.9896 124.55 54.9909C124.55 54.9922 124.55 54.9934 124.55 54.9947C124.55 54.996 124.55 54.9973 124.55 54.9985C124.55 54.9998 124.55 55.0011 124.55 55.0024C124.55 55.0036 124.55 55.0049 124.55 55.0062C124.55 55.0074 124.55 55.0087 124.55 55.01C124.55 55.0112 124.55 55.0125 124.55 55.0138C124.55 55.015 124.55 55.0163 124.55 55.0176C124.55 55.0188 124.55 55.0201 124.55 55.0214C124.55 55.0226 124.55 55.0239 124.55 55.0251C124.55 55.0264 124.55 55.0277 124.55 55.0289C124.55 55.0302 124.55 55.0314 124.55 55.0327C124.55 55.034 124.55 55.0352 124.55 55.0365C124.55 55.0377 124.55 55.039 124.55 55.0402C124.55 55.0415 124.55 55.0427 124.55 55.044C124.55 55.0452 124.55 55.0465 124.55 55.0477C124.55 55.049 124.55 55.0502 124.55 55.0515C124.55 55.0527 124.55 55.054 124.55 55.0552C124.55 55.0564 124.55 55.0577 124.55 55.0589C124.55 55.0602 124.55 55.0614 124.55 55.0627C124.55 55.0639 124.55 55.0651 124.55 55.0664C124.55 55.0676 124.55 55.0688 124.55 55.0701C124.55 55.0713 124.55 55.0725 124.55 55.0738C124.55 55.075 124.55 55.0762 124.55 55.0775C124.55 55.0787 124.55 55.0799 124.55 55.0812C124.55 55.0824 124.55 55.0836 124.55 55.0849C124.55 55.0861 124.55 55.0873 124.55 55.0885C124.55 55.0898 124.55 55.091 124.55 55.0922C124.55 55.0934 124.55 55.0947 124.55 55.0959C124.55 55.0971 124.55 55.0983 124.55 55.0995C124.55 55.1008 124.55 55.102 124.55 55.1032C124.55 55.1044 124.55 55.1056 124.55 55.1069C124.55 55.1081 124.55 55.1093 124.55 55.1105C124.55 55.1117 124.55 55.1129 124.55 55.1141C124.55 55.1153 124.55 55.1166 124.55 55.1178C124.55 55.119 124.55 55.1202 124.55 55.1214C124.55 55.1226 124.55 55.1238 124.55 55.125C124.55 55.1262 124.55 55.1274 124.55 55.1286C124.55 55.1298 124.55 55.131 124.55 55.1322C124.55 55.1334 124.55 55.1346 124.55 55.1358C124.55 55.137 124.55 55.1382 124.55 55.1394C124.55 55.1406 124.55 55.1418 124.55 55.143C124.55 55.1442 124.55 55.1454 124.55 55.1466C124.55 55.1478 124.55 55.149 124.55 55.1502C124.55 55.1514 124.55 55.1526 124.55 55.1538C124.55 55.1549 124.55 55.1561 124.55 55.1573C124.55 55.1585 124.55 55.1597 124.55 55.1609C124.55 55.1621 124.55 55.1633 124.55 55.1644C124.55 55.1656 124.55 55.1668 124.55 55.168C124.55 55.1692 124.55 55.1703 124.55 55.1715C124.55 55.1727 124.55 55.1739 124.55 55.1751C124.55 55.1762 124.55 55.1774 124.55 55.1786C124.55 55.1798 124.55 55.1809 124.55 55.1821C124.55 55.1833 124.55 55.1845 124.55 55.1856C124.55 55.1868 124.55 55.188 124.55 55.1891C124.55 55.1903 124.55 55.1915 124.55 55.1926C124.55 55.1938 124.55 55.195 124.55 55.1961C124.55 55.1973 124.55 55.1985 124.55 55.1996C124.55 55.2008 124.55 55.202 124.55 55.2031C124.55 55.2043 124.55 55.2054 124.55 55.2066C124.55 55.2078 124.55 55.2089 124.55 55.2101C124.55 55.2112 124.55 55.2124 124.55 55.2135C124.55 55.2147 124.55 55.2159 124.55 55.217C124.55 55.2182 124.55 55.2193 124.55 55.2205C124.55 55.2216 124.55 55.2228 124.55 55.2239C124.55 55.2251 124.55 55.2262 124.55 55.2274C124.55 55.2285 124.55 55.2297 124.55 55.2308C124.55 55.2319 124.55 55.2331 124.55 55.2342C124.55 55.2354 124.55 55.2365 124.55 55.2377C124.55 55.2388 124.55 55.2399 124.55 55.2411C124.55 55.2422 124.55 55.2434 124.55 55.2445C124.55 55.2456 124.55 55.2468 124.55 55.2479C124.55 55.249 124.55 55.2502 124.55 55.2513C124.55 55.2524 124.55 55.2536 124.55 55.2547C124.55 55.2558 124.55 55.257 124.55 55.2581C124.55 55.2592 124.55 55.2604 124.55 55.2615C124.55 55.2626 124.55 55.2637 124.55 55.2649C124.55 55.266 124.55 55.2671 124.55 55.2682C124.55 55.2694 124.55 55.2705 124.55 55.2716C124.55 55.2727 124.55 55.2738 124.55 55.275C124.55 55.2761 124.55 55.2772 124.55 55.2783C124.55 55.2794 124.55 55.2805 124.55 55.2817C124.55 55.2828 124.55 55.2839 124.55 55.285C124.55 55.2861 124.55 55.2872 124.55 55.2883C124.55 55.2894 124.55 55.2906 124.55 55.2917C124.55 55.2928 124.55 55.2939 124.55 55.295C124.55 55.2961 124.55 55.2972 124.55 55.2983C124.55 55.2994 124.55 55.3005 124.55 55.3016C124.55 55.3027 124.55 55.3038 124.55 55.3049C124.55 55.306 124.55 55.3071 124.55 55.3082C124.55 55.3093 124.55 55.3104 124.55 55.3115C124.55 55.3126 124.55 55.3137 124.55 55.3148C124.55 55.3159 124.55 55.317 124.55 55.3181C124.55 55.3192 124.55 55.3203 124.55 55.3214C124.55 55.3224 124.55 55.3235 124.55 55.3246C124.55 55.3257 124.55 55.3268 124.55 55.3279C124.55 55.329 124.55 55.3301 124.55 55.3311C124.55 55.3322 124.55 55.3333 124.55 55.3344C124.55 55.3355 124.55 55.3366 124.55 55.3376C124.55 55.3387 124.55 55.3398 124.55 55.3409C124.55 55.342 124.55 55.343 124.55 55.3441C124.55 55.3452 124.55 55.3463 124.55 55.3473C124.55 55.3484 124.55 55.3495 124.55 55.3506C124.55 55.3516 124.55 55.3527 124.55 55.3538C124.55 55.3548 124.55 55.3559 124.55 55.357C124.55 55.3581 124.55 55.3591 124.55 55.3602C124.55 55.3613 124.55 55.3623 124.55 55.3634C124.55 55.3644 124.55 55.3655 124.55 55.3666C124.55 55.3676 124.55 55.3687 124.55 55.3698C124.55 55.3708 124.55 55.3719 124.55 55.3729C124.55 55.374 124.55 55.3751 124.55 55.3761C124.55 55.3772 124.55 55.3782 124.55 55.3793C124.55 55.3803 124.55 55.3814 124.55 55.3824C124.55 55.3835 124.55 55.3845 124.55 55.3856C124.55 55.3866 124.55 55.3877 124.55 55.3887C124.55 55.3898 124.55 55.3908 124.55 55.3919C124.55 55.3929 124.55 55.394 124.55 55.395C124.55 55.3961 124.55 55.3971 124.55 55.3981C124.55 55.3992 124.55 55.4002 124.55 55.4013C124.55 55.4023 124.55 55.4034 124.55 55.4044C124.55 55.4054 124.55 55.4065 124.55 55.4075C124.55 55.4085 124.55 55.4096 124.55 55.4106C124.55 55.4116 124.55 55.4127 124.55 55.4137C124.55 55.4147 124.55 55.4158 124.55 55.4168C124.55 55.4178 124.55 55.4189 124.55 55.4199C124.55 55.4209 124.55 55.4219 124.55 55.423C124.55 55.424 124.55 55.425 124.55 55.426C124.55 55.4271 124.55 55.4281 124.55 55.4291C124.55 55.4301 124.55 55.4312 124.55 55.4322C124.55 55.4332 124.55 55.4342 124.55 55.4352C124.55 55.4363 124.55 55.4373 124.55 55.4383C124.55 55.4393 124.55 55.4403 124.55 55.4413C124.55 55.4423 124.55 55.4434 124.55 55.4444C124.55 55.4454 124.55 55.4464 124.55 55.4474C124.55 55.4484 124.55 55.4494 124.55 55.4504C124.55 55.4514 124.55 55.4524 124.55 55.4535C124.55 55.4545 124.55 55.4555 124.55 55.4565C124.55 55.4575 124.55 55.4585 124.55 55.4595C124.55 55.4605 124.55 55.4615 124.55 55.4625C124.55 55.4635 124.55 55.4645 124.55 55.4655C124.55 55.4665 124.55 55.4675 124.55 55.4685C124.55 55.4695 124.55 55.4705 124.55 55.4715C124.55 55.4724 124.55 55.4734 124.55 55.4744C124.55 55.4754 124.55 55.4764 124.55 55.4774C124.55 55.4784 124.55 55.4794 124.55 55.4804C124.55 55.4814 124.55 55.4823 124.55 55.4833C124.55 55.4843 124.55 55.4853 124.55 55.4863C124.55 55.4873 124.55 55.4883 124.55 55.4892C124.55 55.4902 124.55 55.4912 124.55 55.4922C124.55 55.4932 124.55 55.4941 124.55 55.4951C124.55 55.4961 124.55 55.4971 124.55 55.498C124.55 55.499 124.55 55.5 124.55 55.501C124.55 55.5019 124.55 55.5029 124.55 55.5039C124.55 55.5049 124.55 55.5058 124.55 55.5068C124.55 55.5078 124.55 55.5087 124.55 55.5097C124.55 55.5107 124.55 55.5116 124.55 55.5126C124.55 55.5136 124.55 55.5145 124.55 55.5155C124.55 55.5165 124.55 55.5174 124.55 55.5184C124.55 55.5193 124.55 55.5203 124.55 55.5213C124.55 55.5222 124.55 55.5232 124.55 55.5241C124.55 55.5251 124.55 55.5261 124.55 55.527C124.55 55.528 124.55 55.5289 124.55 55.5299C124.55 55.5308 124.55 55.5318 124.55 55.5327C124.55 55.5337 124.55 55.5346 124.55 55.5356C124.55 55.5365 124.55 55.5375 124.55 55.5384C124.55 55.5394 124.55 55.5403 124.55 55.5413C124.55 55.5422 124.55 55.5432 124.55 55.5441C124.55 55.545 124.55 55.546 124.55 55.5469C124.55 55.5479 124.55 55.5488 124.55 55.5498C124.55 55.5507 124.55 55.5516 124.55 55.5526C124.55 55.5535 124.55 55.5544 124.55 55.5554C124.55 55.5563 124.55 55.5572 124.55 55.5582C124.55 55.5591 124.55 55.56 124.55 55.561C124.55 55.5619 124.55 55.5628 124.55 55.5638C124.55 55.5647 124.55 55.5656 124.55 55.5666C124.55 55.5675 124.55 55.5684 124.55 55.5693C124.55 55.5703 124.55 55.5712 124.55 55.5721C124.55 55.573 124.55 55.574 124.55 55.5749C124.55 55.5758 124.55 55.5767 124.55 55.5776C124.55 55.5786 124.55 55.5795 124.55 55.5804C124.55 55.5813 124.55 55.5822 124.55 55.5831C124.55 55.5841 124.55 55.585 124.55 55.5859C124.55 55.5868 124.55 55.5877 124.55 55.5886C124.55 55.5895 124.55 55.5904 124.55 55.5914C124.55 55.5923 124.55 55.5932 124.55 55.5941C124.55 55.595 124.55 55.5959 124.55 55.5968C124.55 55.5977 124.55 55.5986 124.55 55.5995C124.55 55.6004 124.55 55.6013 124.55 55.6022C124.55 55.6031 124.55 55.604 124.55 55.6049C124.55 55.6058 124.55 55.6067 124.55 55.6076C124.55 55.6085 124.55 55.6094 124.55 55.6103C124.55 55.6112 124.55 55.6121 124.55 55.613C124.55 55.6139 124.55 55.6148 124.55 55.6157C124.55 55.6165 124.55 55.6174 124.55 55.6183C124.55 55.6192 124.55 55.6201 124.55 55.621C124.55 55.6219 124.55 55.6228 124.55 55.6236C124.55 55.6245 124.55 55.6254 124.55 55.6263C124.55 55.6272 124.55 55.6281 124.55 55.6289C124.55 55.6298 124.55 55.6307 124.55 55.6316C124.55 55.6325 124.55 55.6333 124.55 55.6342C124.55 55.6351 124.55 55.636 124.55 55.6368C124.55 55.6377 124.55 55.6386 124.55 55.6395C124.55 55.6403 124.55 55.6412 124.55 55.6421C124.55 55.643 124.55 55.6438 124.55 55.6447C124.55 55.6456 124.55 55.6464 124.55 55.6473C124.55 55.6482 124.55 55.649 124.55 55.6499C124.55 55.6508 124.55 55.6516 124.55 55.6525C124.55 55.6533 124.55 55.6542 124.55 55.6551C124.55 55.6559 124.55 55.6568 124.55 55.6577C124.55 55.6585 124.55 55.6594 124.55 55.6602C124.55 55.6611 124.55 55.6619 124.55 55.6628C124.55 55.6636 124.55 55.6645 124.55 55.6654C124.55 55.6662 124.55 55.6671 124.55 55.6679C124.55 55.6688 124.55 55.6696 124.55 55.6705C124.55 55.6713 124.55 55.6722 124.55 55.673C124.55 55.6738 124.55 55.6747 124.55 55.6755C124.55 55.6764 124.55 55.6772 124.55 55.6781C124.55 55.6789 124.55 55.6798 124.55 55.6806C124.55 55.6814 124.55 55.6823 124.55 55.6831C124.55 55.684 124.55 55.6848 124.55 55.6856C124.55 55.6865 124.55 55.6873 124.55 55.6881C124.55 55.689 124.55 55.6898 124.55 55.6906C124.55 55.6915 124.55 55.6923 124.55 55.6931C124.55 55.694 124.55 55.6948 124.55 55.6956C124.55 55.6964 124.55 55.6973 124.55 55.6981C124.55 55.6989 124.55 55.6998 124.55 55.7006C124.55 55.7014 124.55 55.7022 124.55 55.703C124.55 55.7039 124.55 55.7047 124.55 55.7055C124.55 55.7063 124.55 55.7072 124.55 55.708C124.55 55.7088 124.55 55.7096 124.55 55.7104C124.55 55.7112 124.55 55.7121 124.55 55.7129C124.55 55.7137 124.55 55.7145 124.55 55.7153C124.55 55.7161 124.55 55.7169 124.55 55.7177C124.55 55.7186 124.55 55.7194 124.55 55.7202C124.55 55.721 124.55 55.7218 124.55 55.7226C124.55 55.7234 124.55 55.7242 124.55 55.725C124.55 55.7258 124.55 55.7266 124.55 55.7274C124.55 55.7282 124.55 55.729 124.55 55.7298C124.55 55.7306 124.55 55.7314 124.55 55.7322C124.55 55.733 124.55 55.7338 124.55 55.7346C124.55 55.7354 124.55 55.7362 124.55 55.737H126.55C126.55 55.7362 126.55 55.7354 126.55 55.7346C126.55 55.7338 126.55 55.733 126.55 55.7322C126.55 55.7314 126.55 55.7306 126.55 55.7298C126.55 55.729 126.55 55.7282 126.55 55.7274C126.55 55.7266 126.55 55.7258 126.55 55.725C126.55 55.7242 126.55 55.7234 126.55 55.7226C126.55 55.7218 126.55 55.721 126.55 55.7202C126.55 55.7194 126.55 55.7186 126.55 55.7177C126.55 55.7169 126.55 55.7161 126.55 55.7153C126.55 55.7145 126.55 55.7137 126.55 55.7129C126.55 55.7121 126.55 55.7112 126.55 55.7104C126.55 55.7096 126.55 55.7088 126.55 55.708C126.55 55.7072 126.55 55.7063 126.55 55.7055C126.55 55.7047 126.55 55.7039 126.55 55.703C126.55 55.7022 126.55 55.7014 126.55 55.7006C126.55 55.6998 126.55 55.6989 126.55 55.6981C126.55 55.6973 126.55 55.6964 126.55 55.6956C126.55 55.6948 126.55 55.694 126.55 55.6931C126.55 55.6923 126.55 55.6915 126.55 55.6906C126.55 55.6898 126.55 55.689 126.55 55.6881C126.55 55.6873 126.55 55.6865 126.55 55.6856C126.55 55.6848 126.55 55.684 126.55 55.6831C126.55 55.6823 126.55 55.6814 126.55 55.6806C126.55 55.6798 126.55 55.6789 126.55 55.6781C126.55 55.6772 126.55 55.6764 126.55 55.6755C126.55 55.6747 126.55 55.6738 126.55 55.673C126.55 55.6722 126.55 55.6713 126.55 55.6705C126.55 55.6696 126.55 55.6688 126.55 55.6679C126.55 55.6671 126.55 55.6662 126.55 55.6654C126.55 55.6645 126.55 55.6636 126.55 55.6628C126.55 55.6619 126.55 55.6611 126.55 55.6602C126.55 55.6594 126.55 55.6585 126.55 55.6577C126.55 55.6568 126.55 55.6559 126.55 55.6551C126.55 55.6542 126.55 55.6533 126.55 55.6525C126.55 55.6516 126.55 55.6508 126.55 55.6499C126.55 55.649 126.55 55.6482 126.55 55.6473C126.55 55.6464 126.55 55.6456 126.55 55.6447C126.55 55.6438 126.55 55.643 126.55 55.6421C126.55 55.6412 126.55 55.6403 126.55 55.6395C126.55 55.6386 126.55 55.6377 126.55 55.6368C126.55 55.636 126.55 55.6351 126.55 55.6342C126.55 55.6333 126.55 55.6325 126.55 55.6316C126.55 55.6307 126.55 55.6298 126.55 55.6289C126.55 55.6281 126.55 55.6272 126.55 55.6263C126.55 55.6254 126.55 55.6245 126.55 55.6236C126.55 55.6228 126.55 55.6219 126.55 55.621C126.55 55.6201 126.55 55.6192 126.55 55.6183C126.55 55.6174 126.55 55.6165 126.55 55.6157C126.55 55.6148 126.55 55.6139 126.55 55.613C126.55 55.6121 126.55 55.6112 126.55 55.6103C126.55 55.6094 126.55 55.6085 126.55 55.6076C126.55 55.6067 126.55 55.6058 126.55 55.6049C126.55 55.604 126.55 55.6031 126.55 55.6022C126.55 55.6013 126.55 55.6004 126.55 55.5995C126.55 55.5986 126.55 55.5977 126.55 55.5968C126.55 55.5959 126.55 55.595 126.55 55.5941C126.55 55.5932 126.55 55.5923 126.55 55.5914C126.55 55.5904 126.55 55.5895 126.55 55.5886C126.55 55.5877 126.55 55.5868 126.55 55.5859C126.55 55.585 126.55 55.5841 126.55 55.5831C126.55 55.5822 126.55 55.5813 126.55 55.5804C126.55 55.5795 126.55 55.5786 126.55 55.5776C126.55 55.5767 126.55 55.5758 126.55 55.5749C126.55 55.574 126.55 55.573 126.55 55.5721C126.55 55.5712 126.55 55.5703 126.55 55.5693C126.55 55.5684 126.55 55.5675 126.55 55.5666C126.55 55.5656 126.55 55.5647 126.55 55.5638C126.55 55.5628 126.55 55.5619 126.55 55.561C126.55 55.56 126.55 55.5591 126.55 55.5582C126.55 55.5572 126.55 55.5563 126.55 55.5554C126.55 55.5544 126.55 55.5535 126.55 55.5526C126.55 55.5516 126.55 55.5507 126.55 55.5498C126.55 55.5488 126.55 55.5479 126.55 55.5469C126.55 55.546 126.55 55.545 126.55 55.5441C126.55 55.5432 126.55 55.5422 126.55 55.5413C126.55 55.5403 126.55 55.5394 126.55 55.5384C126.55 55.5375 126.55 55.5365 126.55 55.5356C126.55 55.5346 126.55 55.5337 126.55 55.5327C126.55 55.5318 126.55 55.5308 126.55 55.5299C126.55 55.5289 126.55 55.528 126.55 55.527C126.55 55.5261 126.55 55.5251 126.55 55.5241C126.55 55.5232 126.55 55.5222 126.55 55.5213C126.55 55.5203 126.55 55.5193 126.55 55.5184C126.55 55.5174 126.55 55.5165 126.55 55.5155C126.55 55.5145 126.55 55.5136 126.55 55.5126C126.55 55.5116 126.55 55.5107 126.55 55.5097C126.55 55.5087 126.55 55.5078 126.55 55.5068C126.55 55.5058 126.55 55.5049 126.55 55.5039C126.55 55.5029 126.55 55.5019 126.55 55.501C126.55 55.5 126.55 55.499 126.55 55.498C126.55 55.4971 126.55 55.4961 126.55 55.4951C126.55 55.4941 126.55 55.4932 126.55 55.4922C126.55 55.4912 126.55 55.4902 126.55 55.4892C126.55 55.4883 126.55 55.4873 126.55 55.4863C126.55 55.4853 126.55 55.4843 126.55 55.4833C126.55 55.4823 126.55 55.4814 126.55 55.4804C126.55 55.4794 126.55 55.4784 126.55 55.4774C126.55 55.4764 126.55 55.4754 126.55 55.4744C126.55 55.4734 126.55 55.4724 126.55 55.4715C126.55 55.4705 126.55 55.4695 126.55 55.4685C126.55 55.4675 126.55 55.4665 126.55 55.4655C126.55 55.4645 126.55 55.4635 126.55 55.4625C126.55 55.4615 126.55 55.4605 126.55 55.4595C126.55 55.4585 126.55 55.4575 126.55 55.4565C126.55 55.4555 126.55 55.4545 126.55 55.4535C126.55 55.4524 126.55 55.4514 126.55 55.4504C126.55 55.4494 126.55 55.4484 126.55 55.4474C126.55 55.4464 126.55 55.4454 126.55 55.4444C126.55 55.4434 126.55 55.4423 126.55 55.4413C126.55 55.4403 126.55 55.4393 126.55 55.4383C126.55 55.4373 126.55 55.4363 126.55 55.4352C126.55 55.4342 126.55 55.4332 126.55 55.4322C126.55 55.4312 126.55 55.4301 126.55 55.4291C126.55 55.4281 126.55 55.4271 126.55 55.426C126.55 55.425 126.55 55.424 126.55 55.423C126.55 55.4219 126.55 55.4209 126.55 55.4199C126.55 55.4189 126.55 55.4178 126.55 55.4168C126.55 55.4158 126.55 55.4147 126.55 55.4137C126.55 55.4127 126.55 55.4116 126.55 55.4106C126.55 55.4096 126.55 55.4085 126.55 55.4075C126.55 55.4065 126.55 55.4054 126.55 55.4044C126.55 55.4034 126.55 55.4023 126.55 55.4013C126.55 55.4002 126.55 55.3992 126.55 55.3981C126.55 55.3971 126.55 55.3961 126.55 55.395C126.55 55.394 126.55 55.3929 126.55 55.3919C126.55 55.3908 126.55 55.3898 126.55 55.3887C126.55 55.3877 126.55 55.3866 126.55 55.3856C126.55 55.3845 126.55 55.3835 126.55 55.3824C126.55 55.3814 126.55 55.3803 126.55 55.3793C126.55 55.3782 126.55 55.3772 126.55 55.3761C126.55 55.3751 126.55 55.374 126.55 55.3729C126.55 55.3719 126.55 55.3708 126.55 55.3698C126.55 55.3687 126.55 55.3676 126.55 55.3666C126.55 55.3655 126.55 55.3644 126.55 55.3634C126.55 55.3623 126.55 55.3613 126.55 55.3602C126.55 55.3591 126.55 55.3581 126.55 55.357C126.55 55.3559 126.55 55.3548 126.55 55.3538C126.55 55.3527 126.55 55.3516 126.55 55.3506C126.55 55.3495 126.55 55.3484 126.55 55.3473C126.55 55.3463 126.55 55.3452 126.55 55.3441C126.55 55.343 126.55 55.342 126.55 55.3409C126.55 55.3398 126.55 55.3387 126.55 55.3376C126.55 55.3366 126.55 55.3355 126.55 55.3344C126.55 55.3333 126.55 55.3322 126.55 55.3311C126.55 55.3301 126.55 55.329 126.55 55.3279C126.55 55.3268 126.55 55.3257 126.55 55.3246C126.55 55.3235 126.55 55.3224 126.55 55.3214C126.55 55.3203 126.55 55.3192 126.55 55.3181C126.55 55.317 126.55 55.3159 126.55 55.3148C126.55 55.3137 126.55 55.3126 126.55 55.3115C126.55 55.3104 126.55 55.3093 126.55 55.3082C126.55 55.3071 126.55 55.306 126.55 55.3049C126.55 55.3038 126.55 55.3027 126.55 55.3016C126.55 55.3005 126.55 55.2994 126.55 55.2983C126.55 55.2972 126.55 55.2961 126.55 55.295C126.55 55.2939 126.55 55.2928 126.55 55.2917C126.55 55.2906 126.55 55.2894 126.55 55.2883C126.55 55.2872 126.55 55.2861 126.55 55.285C126.55 55.2839 126.55 55.2828 126.55 55.2817C126.55 55.2805 126.55 55.2794 126.55 55.2783C126.55 55.2772 126.55 55.2761 126.55 55.275C126.55 55.2738 126.55 55.2727 126.55 55.2716C126.55 55.2705 126.55 55.2694 126.55 55.2682C126.55 55.2671 126.55 55.266 126.55 55.2649C126.55 55.2637 126.55 55.2626 126.55 55.2615C126.55 55.2604 126.55 55.2592 126.55 55.2581C126.55 55.257 126.55 55.2558 126.55 55.2547C126.55 55.2536 126.55 55.2524 126.55 55.2513C126.55 55.2502 126.55 55.249 126.55 55.2479C126.55 55.2468 126.55 55.2456 126.55 55.2445C126.55 55.2434 126.55 55.2422 126.55 55.2411C126.55 55.2399 126.55 55.2388 126.55 55.2377C126.55 55.2365 126.55 55.2354 126.55 55.2342C126.55 55.2331 126.55 55.2319 126.55 55.2308C126.55 55.2297 126.55 55.2285 126.55 55.2274C126.55 55.2262 126.55 55.2251 126.55 55.2239C126.55 55.2228 126.55 55.2216 126.55 55.2205C126.55 55.2193 126.55 55.2182 126.55 55.217C126.55 55.2159 126.55 55.2147 126.55 55.2135C126.55 55.2124 126.55 55.2112 126.55 55.2101C126.55 55.2089 126.55 55.2078 126.55 55.2066C126.55 55.2054 126.55 55.2043 126.55 55.2031C126.55 55.202 126.55 55.2008 126.55 55.1996C126.55 55.1985 126.55 55.1973 126.55 55.1961C126.55 55.195 126.55 55.1938 126.55 55.1926C126.55 55.1915 126.55 55.1903 126.55 55.1891C126.55 55.188 126.55 55.1868 126.55 55.1856C126.55 55.1845 126.55 55.1833 126.55 55.1821C126.55 55.1809 126.55 55.1798 126.55 55.1786C126.55 55.1774 126.55 55.1762 126.55 55.1751C126.55 55.1739 126.55 55.1727 126.55 55.1715C126.55 55.1703 126.55 55.1692 126.55 55.168C126.55 55.1668 126.55 55.1656 126.55 55.1644C126.55 55.1633 126.55 55.1621 126.55 55.1609C126.55 55.1597 126.55 55.1585 126.55 55.1573C126.55 55.1561 126.55 55.1549 126.55 55.1538C126.55 55.1526 126.55 55.1514 126.55 55.1502C126.55 55.149 126.55 55.1478 126.55 55.1466C126.55 55.1454 126.55 55.1442 126.55 55.143C126.55 55.1418 126.55 55.1406 126.55 55.1394C126.55 55.1382 126.55 55.137 126.55 55.1358C126.55 55.1346 126.55 55.1334 126.55 55.1322C126.55 55.131 126.55 55.1298 126.55 55.1286C126.55 55.1274 126.55 55.1262 126.55 55.125C126.55 55.1238 126.55 55.1226 126.55 55.1214C126.55 55.1202 126.55 55.119 126.55 55.1178C126.55 55.1166 126.55 55.1153 126.55 55.1141C126.55 55.1129 126.55 55.1117 126.55 55.1105C126.55 55.1093 126.55 55.1081 126.55 55.1069C126.55 55.1056 126.55 55.1044 126.55 55.1032C126.55 55.102 126.55 55.1008 126.55 55.0995C126.55 55.0983 126.55 55.0971 126.55 55.0959C126.55 55.0947 126.55 55.0934 126.55 55.0922C126.55 55.091 126.55 55.0898 126.55 55.0885C126.55 55.0873 126.55 55.0861 126.55 55.0849C126.55 55.0836 126.55 55.0824 126.55 55.0812C126.55 55.0799 126.55 55.0787 126.55 55.0775C126.55 55.0762 126.55 55.075 126.55 55.0738C126.55 55.0725 126.55 55.0713 126.55 55.0701C126.55 55.0688 126.55 55.0676 126.55 55.0664C126.55 55.0651 126.55 55.0639 126.55 55.0627C126.55 55.0614 126.55 55.0602 126.55 55.0589C126.55 55.0577 126.55 55.0564 126.55 55.0552C126.55 55.054 126.55 55.0527 126.55 55.0515C126.55 55.0502 126.55 55.049 126.55 55.0477C126.55 55.0465 126.55 55.0452 126.55 55.044C126.55 55.0427 126.55 55.0415 126.55 55.0402C126.55 55.039 126.55 55.0377 126.55 55.0365C126.55 55.0352 126.55 55.034 126.55 55.0327C126.55 55.0314 126.55 55.0302 126.55 55.0289C126.55 55.0277 126.55 55.0264 126.55 55.0251C126.55 55.0239 126.55 55.0226 126.55 55.0214C126.55 55.0201 126.55 55.0188 126.55 55.0176C126.55 55.0163 126.55 55.015 126.55 55.0138C126.55 55.0125 126.55 55.0112 126.55 55.01C126.55 55.0087 126.55 55.0074 126.55 55.0062C126.55 55.0049 126.55 55.0036 126.55 55.0024C126.55 55.0011 126.55 54.9998 126.55 54.9985C126.55 54.9973 126.55 54.996 126.55 54.9947C126.55 54.9934 126.55 54.9922 126.55 54.9909C126.55 54.9896 126.55 54.9883 126.55 54.987C126.55 54.9858 126.55 54.9845 126.55 54.9832C126.55 54.9819 126.55 54.9806 126.55 54.9793C126.55 54.9781 126.55 54.9768 126.55 54.9755C126.55 54.9742 126.55 54.9729 126.55 54.9716C126.55 54.9703 126.55 54.9691 126.55 54.9678C126.55 54.9665 126.55 54.9652 126.55 54.9639C126.55 54.9626 126.55 54.9613 126.55 54.96C126.55 54.9587 126.55 54.9574 126.55 54.9561C126.55 54.9548 126.55 54.9535 126.55 54.9522C126.55 54.9509 126.55 54.9496 126.55 54.9483C126.55 54.947 126.55 54.9457 126.55 54.9444C126.55 54.9431 126.55 54.9418 126.55 54.9405C126.55 54.9392 126.55 54.9379 126.55 54.9366C126.55 54.9353 126.55 54.934 126.55 54.9327C126.55 54.9314 126.55 54.9301 126.55 54.9287C126.55 54.9274 126.55 54.9261 126.55 54.9248C126.55 54.9235 126.55 54.9222 126.55 54.9209C126.55 54.9196 126.55 54.9182 126.55 54.9169C126.55 54.9156 126.55 54.9143 126.55 54.913C126.55 54.9117 126.55 54.9103 126.55 54.909C126.55 54.9077 126.55 54.9064 126.55 54.9051C126.55 54.9037 126.55 54.9024 126.55 54.9011C126.55 54.8998 126.55 54.8984 126.55 54.8971C126.55 54.8958 126.55 54.8944 126.55 54.8931C126.55 54.8918 126.55 54.8905 126.55 54.8891C126.55 54.8878 126.55 54.8865 126.55 54.8851C126.55 54.8838 126.55 54.8825 126.55 54.8811C126.55 54.8798 126.55 54.8785 126.55 54.8771C126.55 54.8758 126.55 54.8745 126.55 54.8731C126.55 54.8718 126.55 54.8704 126.55 54.8691C126.55 54.8678 126.55 54.8664 126.55 54.8651C126.55 54.8637 126.55 54.8624 126.55 54.861C126.55 54.8597 126.55 54.8583 126.55 54.857C126.55 54.8557 126.55 54.8543 126.55 54.853C126.55 54.8516 126.55 54.8503 126.55 54.8489C126.55 54.8476 126.55 54.8462 126.55 54.8449C126.55 54.8435 126.55 54.8421 126.55 54.8408C126.55 54.8394 126.55 54.8381 126.55 54.8367C126.55 54.8354 126.55 54.834 126.55 54.8326C126.55 54.8313 126.55 54.8299 126.55 54.8286C126.55 54.8272 126.55 54.8258 126.55 54.8245C126.55 54.8231 126.55 54.8218 126.55 54.8204C126.55 54.819 126.55 54.8177 126.55 54.8163C126.55 54.8149 126.55 54.8136 126.55 54.8122C126.55 54.8108 126.55 54.8094 126.55 54.8081C126.55 54.8067 126.55 54.8053 126.55 54.804C126.55 54.8026 126.55 54.8012 126.55 54.7998C126.55 54.7985 126.55 54.7971 126.55 54.7957C126.55 54.7943 126.55 54.793 126.55 54.7916C126.55 54.7902 126.55 54.7888 126.55 54.7874C126.55 54.7861 126.55 54.7847 126.55 54.7833C126.55 54.7819 126.55 54.7805 126.55 54.7791C126.55 54.7778 126.55 54.7764 126.55 54.775C126.55 54.7736 126.55 54.7722 126.55 54.7708C126.55 54.7694 126.55 54.768 126.55 54.7666C126.55 54.7653 126.55 54.7639 126.55 54.7625C126.55 54.7611 126.55 54.7597 126.55 54.7583C126.55 54.7569 126.55 54.7555 126.55 54.7541C126.55 54.7527 126.55 54.7513 126.55 54.7499C126.55 54.7485 126.55 54.7471 126.55 54.7457C126.55 54.7443 126.55 54.7429 126.55 54.7415C126.55 54.7401 126.55 54.7387 126.55 54.7373C126.55 54.7359 126.55 54.7345 126.55 54.7331C126.55 54.7317 126.55 54.7302 126.55 54.7288C126.55 54.7274 126.55 54.726 126.55 54.7246C126.55 54.7232 126.55 54.7218 126.55 54.7204C126.55 54.719 126.55 54.7175 126.55 54.7161C126.55 54.7147 126.55 54.7133 126.55 54.7119C126.55 54.7105 126.55 54.709 126.55 54.7076C126.55 54.7062 126.55 54.7048 126.55 54.7034C126.55 54.7019 126.55 54.7005 126.55 54.6991C126.55 54.6977 126.55 54.6962 126.55 54.6948C126.55 54.6934 126.55 54.692 126.55 54.6905C126.55 54.6891 126.55 54.6877 126.55 54.6863C126.55 54.6848 126.55 54.6834 126.55 54.682C126.55 54.6805 126.55 54.6791 126.55 54.6777C126.55 54.6762 126.55 54.6748 126.55 54.6734C126.55 54.6719 126.55 54.6705 126.55 54.669C126.55 54.6676 126.55 54.6662 126.55 54.6647C126.55 54.6633 126.55 54.6619 126.55 54.6604C126.55 54.659 126.55 54.6575 126.55 54.6561C126.55 54.6546 126.55 54.6532 126.55 54.6517C126.55 54.6503 126.55 54.6489 126.55 54.6474C126.55 54.646 126.55 54.6445 126.55 54.6431C126.55 54.6416 126.55 54.6402 126.55 54.6387C126.55 54.6373 126.55 54.6358 126.55 54.6344C126.55 54.6329 126.55 54.6314 126.55 54.63C126.55 54.6285 126.55 54.6271 126.55 54.6256C126.55 54.6242 126.55 54.6227 126.55 54.6212C126.55 54.6198 126.55 54.6183 126.55 54.6169C126.55 54.6154 126.55 54.6139 126.55 54.6125C126.55 54.611 126.55 54.6095 126.55 54.6081C126.55 54.6066 126.55 54.6051 126.55 54.6037C126.55 54.6022 126.55 54.6007 126.55 54.5993C126.55 54.5978 126.55 54.5963 126.55 54.5949C126.55 54.5934 126.55 54.5919 126.55 54.5904C126.55 54.589 126.55 54.5875 126.55 54.586C126.55 54.5845 126.55 54.5831 126.55 54.5816C126.55 54.5801 126.55 54.5786 126.55 54.5771C126.55 54.5757 126.55 54.5742 126.55 54.5727C126.55 54.5712 126.55 54.5697 126.55 54.5683C126.55 54.5668 126.55 54.5653 126.55 54.5638C126.55 54.5623 126.55 54.5608 126.55 54.5593C126.55 54.5579 126.55 54.5564 126.55 54.5549C126.55 54.5534 126.55 54.5519 126.55 54.5504C126.55 54.5489 126.55 54.5474 126.55 54.5459C126.55 54.5444 126.55 54.5429 126.55 54.5414C126.55 54.5399 126.55 54.5384 126.55 54.5369C126.55 54.5354 126.55 54.5339 126.55 54.5324C126.55 54.5309 126.55 54.5294 126.55 54.5279C126.55 54.5264 126.55 54.5249 126.55 54.5234C126.55 54.5219 126.55 54.5204 126.55 54.5189C126.55 54.5174 126.55 54.5159 126.55 54.5144C126.55 54.5129 126.55 54.5114 126.55 54.5099C126.55 54.5084 126.55 54.5068 126.55 54.5053C126.55 54.5038 126.55 54.5023 126.55 54.5008C126.55 54.4993 126.55 54.4978 126.55 54.4962C126.55 54.4947 126.55 54.4932 126.55 54.4917C126.55 54.4902 126.55 54.4887 126.55 54.4871C126.55 54.4856 126.55 54.4841 126.55 54.4826C126.55 54.4811 126.55 54.4795 126.55 54.478C126.55 54.4765 126.55 54.475 126.55 54.4734C126.55 54.4719 126.55 54.4704 126.55 54.4688C126.55 54.4673 126.55 54.4658 126.55 54.4643C126.55 54.4627 126.55 54.4612 126.55 54.4597C126.55 54.4581 126.55 54.4566 126.55 54.4551C126.55 54.4535 126.55 54.452 126.55 54.4505C126.55 54.4489 126.55 54.4474 126.55 54.4458C126.55 54.4443 126.55 54.4428 126.55 54.4412C126.55 54.4397 126.55 54.4381 126.55 54.4366C126.55 54.4351 126.55 54.4335 126.55 54.432C126.55 54.4304 126.55 54.4289 126.55 54.4273C126.55 54.4258 126.55 54.4242 126.55 54.4227C126.55 54.4211 126.55 54.4196 126.55 54.418C126.55 54.4165 126.55 54.4149 126.55 54.4134C126.55 54.4118 126.55 54.4103 126.55 54.4087C126.55 54.4072 126.55 54.4056 126.55 54.4041C126.55 54.4025 126.55 54.4009 126.55 54.3994C126.55 54.3978 126.55 54.3963 126.55 54.3947C126.55 54.3932 126.55 54.3916 126.55 54.39C126.55 54.3885 126.55 54.3869 126.55 54.3853C126.55 54.3838 126.55 54.3822 126.55 54.3806C126.55 54.3791 126.55 54.3775 126.55 54.3759C126.55 54.3744 126.55 54.3728 126.55 54.3712C126.55 54.3697 126.55 54.3681 126.55 54.3665C126.55 54.3649 126.55 54.3634 126.55 54.3618C126.55 54.3602 126.55 54.3586 126.55 54.3571C126.55 54.3555 126.55 54.3539 126.55 54.3523C126.55 54.3508 126.55 54.3492 126.55 54.3476C126.55 54.346 126.55 54.3444 126.55 54.3428C126.55 54.3413 126.55 54.3397 126.55 54.3381C126.55 54.3365 126.55 54.3349 126.55 54.3333C126.55 54.3318 126.55 54.3302 126.55 54.3286C126.55 54.327 126.55 54.3254 126.55 54.3238C126.55 54.3222 126.55 54.3206 126.55 54.319C126.55 54.3174 126.55 54.3158 126.55 54.3142C126.55 54.3127 126.55 54.3111 126.55 54.3095C126.55 54.3079 126.55 54.3063 126.55 54.3047C126.55 54.3031 126.55 54.3015 126.55 54.2999C126.55 54.2983 126.55 54.2967 126.55 54.2951C126.55 54.2935 126.55 54.2919 126.55 54.2902C126.55 54.2886 126.55 54.287 126.55 54.2854C126.55 54.2838 126.55 54.2822 126.55 54.2806C126.55 54.279 126.55 54.2774 126.55 54.2758C126.55 54.2742 126.55 54.2726 126.55 54.2709C126.55 54.2693 126.55 54.2677 126.55 54.2661C126.55 54.2645 126.55 54.2629 126.55 54.2612C126.55 54.2596 126.55 54.258 126.55 54.2564C126.55 54.2548 126.55 54.2532 126.55 54.2515C126.55 54.2499 126.55 54.2483 126.55 54.2467C126.55 54.245 126.55 54.2434 126.55 54.2418C126.55 54.2402 126.55 54.2385 126.55 54.2369C126.55 54.2353 126.55 54.2337 126.55 54.232C126.55 54.2304 126.55 54.2288 126.55 54.2271C126.55 54.2255 126.55 54.2239 126.55 54.2222C126.55 54.2206 126.55 54.219 126.55 54.2173C126.55 54.2157 126.55 54.2141 126.55 54.2124C126.55 54.2108 126.55 54.2092 126.55 54.2075C126.55 54.2059 126.55 54.2042 126.55 54.2026C126.55 54.201 126.55 54.1993 126.55 54.1977C126.55 54.196 126.55 54.1944 126.55 54.1927C126.55 54.1911 126.55 54.1894 126.55 54.1878C126.55 54.1862 126.55 54.1845 126.55 54.1829C126.55 54.1812 126.55 54.1796 126.55 54.1779C126.55 54.1763 126.55 54.1746 126.55 54.1729C126.55 54.1713 126.55 54.1696 126.55 54.168C126.55 54.1663 126.55 54.1647 126.55 54.163C126.55 54.1614 126.55 54.1597 126.55 54.158C126.55 54.1564 126.55 54.1547 126.55 54.1531C126.55 54.1514 126.55 54.1497 126.55 54.1481C126.55 54.1464 126.55 54.1447 126.55 54.1431C126.55 54.1414 126.55 54.1397 126.55 54.1381C126.55 54.1364 126.55 54.1347 126.55 54.1331C126.55 54.1314 126.55 54.1297 126.55 54.1281C126.55 54.1264 126.55 54.1247 126.55 54.123C126.55 54.1214 126.55 54.1197 126.55 54.118C126.55 54.1163 126.55 54.1147 126.55 54.113C126.55 54.1113 126.55 54.1096 126.55 54.108C126.55 54.1063 126.55 54.1046 126.55 54.1029C126.55 54.1012 126.55 54.0995 126.55 54.0979C126.55 54.0962 126.55 54.0945 126.55 54.0928C126.55 54.0911 126.55 54.0894 126.55 54.0877C126.55 54.0861 126.55 54.0844 126.55 54.0827C126.55 54.081 126.55 54.0793 126.55 54.0776C126.55 54.0759 126.55 54.0742 126.55 54.0725C126.55 54.0708 126.55 54.0691 126.55 54.0674C126.55 54.0658 126.55 54.0641 126.55 54.0624C126.55 54.0607 126.55 54.059 126.55 54.0573C126.55 54.0556 126.55 54.0539 126.55 54.0522C126.55 54.0505 126.55 54.0488 126.55 54.0471C126.55 54.0453 126.55 54.0436 126.55 54.0419C126.55 54.0402 126.55 54.0385 126.55 54.0368C126.55 54.0351 126.55 54.0334 126.55 54.0317C126.55 54.03 126.55 54.0283 126.55 54.0266C126.55 54.0248 126.55 54.0231 126.55 54.0214C126.55 54.0197 126.55 54.018 126.55 54.0163C126.55 54.0146 126.55 54.0128 126.55 54.0111C126.55 54.0094 126.55 54.0077 126.55 54.006C126.55 54.0042 126.55 54.0025 126.55 54.0008C126.55 53.9991 126.55 53.9974 126.55 53.9956C126.55 53.9939 126.55 53.9922 126.55 53.9905C126.55 53.9887 126.55 53.987 126.55 53.9853C126.55 53.9836 126.55 53.9818 126.55 53.9801C126.55 53.9784 126.55 53.9766 126.55 53.9749C126.55 53.9732 126.55 53.9714 126.55 53.9697C126.55 53.968 126.55 53.9662 126.55 53.9645C126.55 53.9628 126.55 53.961 126.55 53.9593C126.55 53.9575 126.55 53.9558 126.55 53.9541C126.55 53.9523 126.55 53.9506 126.55 53.9488C126.55 53.9471 126.55 53.9454 126.55 53.9436C126.55 53.9419 126.55 53.9401 126.55 53.9384C126.55 53.9366 126.55 53.9349 126.55 53.9331C126.55 53.9314 126.55 53.9296 126.55 53.9279C126.55 53.9261 126.55 53.9244 126.55 53.9226C126.55 53.9209 126.55 53.9191 126.55 53.9174C126.55 53.9156 126.55 53.9139 126.55 53.9121C126.55 53.9104 126.55 53.9086 126.55 53.9068C126.55 53.9051 126.55 53.9033 126.55 53.9016C126.55 53.8998 126.55 53.898 126.55 53.8963C126.55 53.8945 126.55 53.8928 126.55 53.891C126.55 53.8892 126.55 53.8875 126.55 53.8857C126.55 53.8839 126.55 53.8822 126.55 53.8804C126.55 53.8786 126.55 53.8769 126.55 53.8751C126.55 53.8733 126.55 53.8715 126.55 53.8698C126.55 53.868 126.55 53.8662 126.55 53.8644C126.55 53.8627 126.55 53.8609 126.55 53.8591C126.55 53.8573 126.55 53.8556 126.55 53.8538C126.55 53.852 126.55 53.8502 126.55 53.8484C126.55 53.8467 126.55 53.8449 126.55 53.8431C126.55 53.8413 126.55 53.8395 126.55 53.8378C126.55 53.836 126.55 53.8342 126.55 53.8324C126.55 53.8306 126.55 53.8288 126.55 53.827C126.55 53.8252 126.55 53.8235 126.55 53.8217C126.55 53.8199 126.55 53.8181 126.55 53.8163C126.55 53.8145 126.55 53.8127 126.55 53.8109C126.55 53.8091 126.55 53.8073 126.55 53.8055C126.55 53.8037 126.55 53.8019 126.55 53.8001C126.55 53.7983 126.55 53.7965 126.55 53.7947C126.55 53.7929 126.55 53.7911 126.55 53.7893C126.55 53.7875 126.55 53.7857 126.55 53.7839C126.55 53.7821 126.55 53.7803 126.55 53.7785C126.55 53.7767 126.55 53.7749 126.55 53.7731C126.55 53.7713 126.55 53.7695 126.55 53.7676C126.55 53.7658 126.55 53.764 126.55 53.7622C126.55 53.7604 126.55 53.7586 126.55 53.7568C126.55 53.755 126.55 53.7531 126.55 53.7513C126.55 53.7495 126.55 53.7477 126.55 53.7459C126.55 53.7441 126.55 53.7422 126.55 53.7404C126.55 53.7386 126.55 53.7368 126.55 53.7349C126.55 53.7331 126.55 53.7313 126.55 53.7295C126.55 53.7277 126.55 53.7258 126.55 53.724H124.55ZM124.55 55.737C124.55 56.1757 124.572 56.5842 124.619 56.959L126.603 56.711C126.569 56.4352 126.55 56.1116 126.55 55.737H124.55ZM125.879 57.7984L133.992 55.5414L133.456 53.6146L125.343 55.8716L125.879 57.7984ZM168.214 70.072L167.563 70.8313L167.62 70.8802L167.684 70.92L168.214 70.072ZM170.41 70.011L171.01 70.811L171.04 70.7884L171.068 70.7636L170.41 70.011ZM171.203 69.279L171.892 68.5549L171.186 67.8818L170.496 68.5719L171.203 69.279ZM172.484 70.499L173.3 71.077L173.8 70.3713L173.173 69.7749L172.484 70.499ZM170.044 72.939L169.473 72.1181L169.464 72.1241L169.456 72.1303L170.044 72.939ZM164.127 72.695L163.346 73.3197L163.355 73.3313L163.365 73.3426L164.127 72.695ZM163.029 69.889L164.026 69.8123L163.851 67.5343L162.296 69.2085L163.029 69.889ZM159.125 72.756L159.572 73.6504L159.572 73.6504L159.125 72.756ZM151.5 73.366L151.864 72.4348L151.853 72.4303L151.842 72.4262L151.5 73.366ZM149.06 71.902L148.374 72.6302L148.385 72.64L148.395 72.6494L149.06 71.902ZM148.389 61.593L147.589 60.993L147.586 60.9967L148.389 61.593ZM152.415 57.811L151.87 56.9725L151.86 56.9789L152.415 57.811ZM157.661 55.249L157.989 56.1936L158.001 56.1894L157.661 55.249ZM162.907 53.663L163.132 54.6374L163.907 54.4585V53.663H162.907ZM160.65 46.953L159.92 47.6369L159.931 47.6487L159.943 47.6601L160.65 46.953ZM158.698 45.611L158.317 46.5357L158.341 46.5454L158.365 46.554L158.698 45.611ZM155.709 45.855L156.566 46.3695L156.577 46.3519L156.587 46.3339L155.709 45.855ZM154.916 47.258L154.035 46.7839L154.028 46.7972L154.021 46.8108L154.916 47.258ZM153.818 48.661L154.49 49.4009L154.494 49.3982L153.818 48.661ZM149.731 48.539L148.996 49.2173L149.01 49.232L149.024 49.2461L149.731 48.539ZM150.219 43.781L150.733 44.6385L150.749 44.6292L150.764 44.6194L150.219 43.781ZM158.149 43.476L157.937 44.4534L157.95 44.4562L157.963 44.4586L158.149 43.476ZM162.541 45.062L163.018 44.1831L163.018 44.1831L162.541 45.062ZM166.201 48.295L165.395 48.8874L165.401 48.895L165.406 48.9024L166.201 48.295ZM162.846 55.92H163.846V54.7002L162.65 54.9394L162.846 55.92ZM159.43 56.896L159.746 57.8447L159.755 57.8416L159.764 57.8384L159.43 56.896ZM155.953 58.665L156.507 59.497L156.518 59.4901L156.528 59.4828L155.953 58.665ZM153.208 61.41L154.04 61.9647L154.04 61.9647L153.208 61.41ZM153.391 69.035L152.652 69.7093L152.668 69.726L152.684 69.7421L153.391 69.035ZM160.345 69.462L160.875 70.31L160.887 70.3022L160.899 70.2941L160.345 69.462ZM162.846 67.144L163.637 67.7554L163.846 67.4853V67.144H162.846ZM166.787 68.669C166.787 69.4245 166.928 70.2872 167.563 70.8313L168.865 69.3127C168.904 69.3469 168.883 69.3533 168.85 69.2471C168.817 69.1377 168.787 68.9534 168.787 68.669H166.787ZM167.684 70.92C168.16 71.2176 168.688 71.377 169.251 71.377V69.377C169.081 69.377 168.918 69.333 168.744 69.224L167.684 70.92ZM169.251 71.377C169.892 71.377 170.494 71.1979 171.01 70.811L169.81 69.211C169.675 69.3121 169.505 69.377 169.251 69.377V71.377ZM171.068 70.7636C171.403 70.4708 171.685 70.2108 171.91 69.9861L170.496 68.5719C170.314 68.7539 170.067 68.9819 169.751 69.2584L171.068 70.7636ZM170.513 70.0031L171.794 71.2231L173.173 69.7749L171.892 68.5549L170.513 70.0031ZM171.668 69.921C171.04 70.8072 170.308 71.5368 169.473 72.1181L170.615 73.7599C171.65 73.0398 172.545 72.1428 173.3 71.077L171.668 69.921ZM169.456 72.1303C168.761 72.6358 167.878 72.915 166.75 72.915V74.915C168.224 74.915 169.538 74.5435 170.632 73.7477L169.456 72.1303ZM166.75 72.915C165.989 72.915 165.392 72.6396 164.889 72.0474L163.365 73.3426C164.244 74.377 165.396 74.915 166.75 74.915V72.915ZM164.908 72.0703C164.385 71.4168 164.092 70.6733 164.026 69.8123L162.032 69.9657C162.128 71.2194 162.567 72.3465 163.346 73.3197L164.908 72.0703ZM162.296 69.2085C161.329 70.2501 160.128 71.1366 158.678 71.8616L159.572 73.6504C161.213 72.8301 162.614 71.8053 163.762 70.5695L162.296 69.2085ZM158.678 71.8616C157.255 72.5731 155.861 72.915 154.489 72.915V74.915C156.207 74.915 157.904 74.4842 159.572 73.6504L158.678 71.8616ZM154.489 72.915C153.549 72.915 152.677 72.753 151.864 72.4348L151.135 74.2972C152.193 74.711 153.313 74.915 154.489 74.915V72.915ZM151.842 72.4262C151.069 72.1453 150.365 71.7238 149.724 71.1546L148.395 72.6494C149.219 73.3815 150.141 73.936 151.158 74.3058L151.842 72.4262ZM149.745 71.1738C149.152 70.6154 148.678 69.9507 148.323 69.1702L146.502 69.9978C146.961 71.0067 147.585 71.8872 148.374 72.6302L149.745 71.1738ZM148.323 69.1702C147.98 68.4151 147.803 67.5816 147.803 66.656H145.803C145.803 67.8451 146.032 68.9635 146.502 69.9978L148.323 69.1702ZM147.803 66.656C147.803 64.896 148.275 63.4227 149.192 62.1893L147.586 60.9967C146.388 62.6099 145.803 64.512 145.803 66.656H147.803ZM149.189 62.193C150.216 60.8234 151.474 59.6401 152.969 58.643L151.86 56.9789C150.184 58.0965 148.758 59.4346 147.589 60.993L149.189 62.193ZM152.96 58.6494C154.517 57.637 156.193 56.8182 157.989 56.1935L157.332 54.3045C155.387 54.9811 153.565 55.8704 151.87 56.9726L152.96 58.6494ZM158.001 56.1894C159.883 55.5085 161.593 54.9925 163.132 54.6374L162.682 52.6886C161.049 53.0655 159.261 53.6068 157.321 54.3086L158.001 56.1894ZM163.907 53.663C163.907 51.915 163.674 50.3936 163.162 49.1377L161.31 49.8923C161.693 50.8324 161.907 52.0763 161.907 53.663H163.907ZM163.162 49.1377C162.682 47.9595 162.089 46.9783 161.357 46.2459L159.943 47.6601C160.43 48.1477 160.895 48.8745 161.31 49.8923L163.162 49.1377ZM161.379 46.2691C160.683 45.5265 159.902 44.9757 159.031 44.668L158.365 46.554C158.876 46.7343 159.396 47.0781 159.92 47.6369L161.379 46.2691ZM159.079 44.6863C158.324 44.3757 157.598 44.184 156.929 44.184V46.184C157.236 46.184 157.689 46.277 158.317 46.5357L159.079 44.6863ZM156.929 44.184C156.046 44.184 155.274 44.564 154.831 45.3761L156.587 46.3339C156.627 46.2607 156.659 46.2389 156.679 46.228C156.704 46.2138 156.775 46.184 156.929 46.184V44.184ZM154.851 45.3405C154.598 45.7634 154.326 46.245 154.035 46.7839L155.796 47.7321C156.075 47.2137 156.332 46.7599 156.566 46.3695L154.851 45.3405ZM154.021 46.8108C153.842 47.1691 153.559 47.5419 153.142 47.9238L154.494 49.3982C155.053 48.8854 155.501 48.3229 155.81 47.7052L154.021 46.8108ZM153.145 47.9211C152.972 48.0783 152.547 48.271 151.622 48.271V50.271C152.73 50.271 153.769 50.0571 154.49 49.4009L153.145 47.9211ZM151.622 48.271C151.08 48.271 150.715 48.1092 150.438 47.8319L149.024 49.2461C149.722 49.9448 150.619 50.271 151.622 50.271V48.271ZM150.466 47.8607C150.179 47.5504 149.999 47.1175 149.999 46.465H147.999C147.999 47.5205 148.306 48.4702 148.996 49.2173L150.466 47.8607ZM149.999 46.465C149.999 45.3688 150.328 44.8815 150.733 44.6385L149.704 42.9235C148.483 43.6565 147.999 44.9585 147.999 46.465H149.999ZM150.764 44.6194C151.315 44.2614 152.478 43.988 154.489 43.988V41.988C152.433 41.988 150.75 42.2433 149.674 42.9426L150.764 44.6194ZM154.489 43.988C155.322 43.988 156.464 44.1348 157.937 44.4534L158.36 42.4986C156.824 42.1665 155.526 41.988 154.489 41.988V43.988ZM157.963 44.4586C159.36 44.7229 160.726 45.2148 162.064 45.9409L163.018 44.1831C161.509 43.3639 159.947 42.7984 158.335 42.4934L157.963 44.4586ZM162.064 45.9409C163.35 46.6392 164.46 47.616 165.395 48.8874L167.006 47.7026C165.908 46.2087 164.578 45.0301 163.018 44.1831L162.064 45.9409ZM165.406 48.9024C166.304 50.0758 166.787 51.5974 166.787 53.541H168.787C168.787 51.2552 168.213 49.2796 166.995 47.6875L165.406 48.9024ZM166.787 53.541V68.669H168.787V53.541H166.787ZM162.65 54.9394C161.575 55.1544 160.389 55.4946 159.095 55.9536L159.764 57.8384C160.992 57.4028 162.083 57.0923 163.042 56.9006L162.65 54.9394ZM159.114 55.9473C157.797 56.3861 156.551 57.021 155.377 57.8472L156.528 59.4828C157.55 58.7637 158.622 58.2192 159.746 57.8447L159.114 55.9473ZM155.398 57.8329C154.19 58.6382 153.181 59.6474 152.376 60.8553L154.04 61.9647C154.699 60.9766 155.519 60.1558 156.507 59.497L155.398 57.8329ZM152.376 60.8553C151.519 62.1398 151.11 63.6404 151.11 65.314H153.11C153.11 63.9782 153.432 62.8762 154.04 61.9647L152.376 60.8553ZM151.11 65.314C151.11 67.0512 151.595 68.5511 152.652 69.7093L154.129 68.3607C153.479 67.6482 153.11 66.6675 153.11 65.314H151.11ZM152.684 69.7421C153.806 70.8643 155.303 71.377 157.051 71.377V69.377C155.708 69.377 154.765 68.995 154.098 68.3279L152.684 69.7421ZM157.051 71.377C158.446 71.377 159.73 71.0254 160.875 70.31L159.815 68.614C159.007 69.1186 158.095 69.377 157.051 69.377V71.377ZM160.899 70.2941C161.962 69.5855 162.877 68.7392 163.637 67.7554L162.055 66.5326C161.432 67.3381 160.679 68.0372 159.79 68.6299L160.899 70.2941ZM163.846 67.144V55.92H161.846V67.144H163.846ZM198.546 66.229L199.397 66.7531L199.898 65.9386L199.107 65.4015L198.546 66.229ZM196.411 69.218L195.64 68.5811L195.631 68.5913L195.623 68.6017L196.411 69.218ZM193.91 71.658L193.315 70.8538L193.307 70.8602L193.298 70.8667L193.91 71.658ZM190.86 73.305L190.523 72.3632L190.512 72.3673L190.86 73.305ZM181.954 72.756L181.497 73.6456L181.506 73.6504L181.954 72.756ZM178.111 69.706L177.334 70.3366L177.339 70.3426L177.344 70.3486L178.111 69.706ZM175.671 65.253L174.717 65.5552L174.721 65.5657L174.724 65.5761L175.671 65.253ZM175.793 53.785L176.75 54.0724L176.752 54.0672L175.793 53.785ZM178.416 48.295L177.606 47.708L177.603 47.7118L178.416 48.295ZM182.747 44.452L183.227 45.3291L183.234 45.3252L182.747 44.452ZM191.897 43.293L191.693 44.272L191.693 44.272L191.897 43.293ZM194.398 44.208L193.891 45.0699L193.901 45.0762L193.912 45.0822L194.398 44.208ZM196.106 45.794L195.258 46.324L195.277 46.3555L195.299 46.3854L196.106 45.794ZM195.862 50.247L195.207 49.4913L195.194 49.5025L195.181 49.5142L195.862 50.247ZM191.409 50.125L192.241 49.5703L192.241 49.5703L191.409 50.125ZM190.372 48.112L189.423 48.4282L189.431 48.4515L189.44 48.4744L190.372 48.112ZM190.006 47.075L189.057 47.3912L189.063 47.4088L189.069 47.4261L190.006 47.075ZM189.518 46.16L188.704 46.7412L188.725 46.7716L188.749 46.8002L189.518 46.16ZM188.725 45.489L188.195 46.337L188.235 46.3622L188.277 46.3834L188.725 45.489ZM184.394 46.099L183.847 45.2614L183.839 45.267L183.83 45.2728L184.394 46.099ZM182.015 48.539L181.188 47.9767L181.183 47.9843L182.015 48.539ZM180.429 51.955L179.474 51.6567L179.474 51.6567L180.429 51.955ZM180.368 61.288L179.391 61.5024L179.393 61.5137L179.396 61.525L180.368 61.288ZM182.137 65.68L181.284 66.2026L181.284 66.2026L182.137 65.68ZM185.004 68.73L184.442 69.5575L184.459 69.5689L184.476 69.5796L185.004 68.73ZM193.666 68.547L194.266 69.347L194.275 69.3403L194.283 69.3333L193.666 68.547ZM196.838 65.07L197.399 64.2425L196.576 63.6838L196.013 64.5045L196.838 65.07ZM197.694 65.7049C197.067 66.7237 196.382 67.6823 195.64 68.5811L197.182 69.8549C197.984 68.883 198.723 67.8489 199.397 66.7531L197.694 65.7049ZM195.623 68.6017C194.945 69.4675 194.176 70.2172 193.315 70.8538L194.504 72.4622C195.513 71.7161 196.412 70.8392 197.198 69.8343L195.623 68.6017ZM193.298 70.8667C192.492 71.4894 191.57 71.9895 190.523 72.3633L191.196 74.2467C192.427 73.8072 193.538 73.2092 194.521 72.4493L193.298 70.8667ZM190.512 72.3673C189.544 72.726 188.424 72.915 187.139 72.915V74.915C188.619 74.915 189.98 74.6973 191.207 74.2427L190.512 72.3673ZM187.139 72.915C185.366 72.915 183.793 72.5577 182.401 71.8616L181.506 73.6504C183.205 74.4996 185.089 74.915 187.139 74.915V72.915ZM182.41 71.8664C181.021 71.1529 179.846 70.2191 178.877 69.0634L177.344 70.3486C178.49 71.7143 179.877 72.8138 181.497 73.6456L182.41 71.8664ZM178.887 69.0754C177.908 67.8703 177.15 66.4912 176.617 64.9299L174.724 65.5761C175.33 67.3495 176.199 68.939 177.334 70.3366L178.887 69.0754ZM176.624 64.9508C176.126 63.3811 175.878 61.7751 175.878 60.129H173.878C173.878 61.9802 174.158 63.7902 174.717 65.5552L176.624 64.9508ZM175.878 60.129C175.878 58.0269 176.169 56.0093 176.75 54.0723L174.835 53.4977C174.196 55.6274 173.878 57.8391 173.878 60.129H175.878ZM176.752 54.0672C177.334 52.0896 178.161 50.3636 179.228 48.8782L177.603 47.7118C176.392 49.3984 175.472 51.3324 174.833 53.5028L176.752 54.0672ZM179.225 48.882C180.32 47.3713 181.653 46.191 183.227 45.3291L182.266 43.5749C180.424 44.5837 178.869 45.9654 177.606 47.708L179.225 48.882ZM183.234 45.3252C184.814 44.4432 186.655 43.988 188.786 43.988V41.988C186.361 41.988 184.176 42.5088 182.259 43.5788L183.234 45.3252ZM188.786 43.988C189.822 43.988 190.79 44.0839 191.693 44.272L192.101 42.314C191.051 42.0954 189.945 41.988 188.786 41.988V43.988ZM191.693 44.272C192.587 44.4583 193.313 44.7301 193.891 45.0699L194.905 43.3461C194.1 42.8726 193.158 42.5344 192.101 42.314L191.693 44.272ZM193.912 45.0822C194.51 45.4143 194.949 45.8297 195.258 46.324L196.954 45.264C196.449 44.4569 195.749 43.815 194.883 43.3338L193.912 45.0822ZM195.299 46.3854C195.605 46.8021 195.777 47.32 195.777 47.99H197.777C197.777 46.952 197.501 46.0059 196.912 45.2026L195.299 46.3854ZM195.777 47.99C195.777 48.7423 195.552 49.1921 195.207 49.4913L196.517 51.0027C197.391 50.2446 197.777 49.1897 197.777 47.99H195.777ZM195.181 49.5142C194.833 49.8374 194.342 50.04 193.605 50.04V52.04C194.738 52.04 195.751 51.714 196.542 50.9798L195.181 49.5142ZM193.605 50.04C192.723 50.04 192.388 49.7917 192.241 49.5703L190.577 50.6797C191.242 51.6783 192.372 52.04 193.605 52.04V50.04ZM192.241 49.5703C191.877 49.0247 191.564 48.4188 191.304 47.7496L189.44 48.4744C189.749 49.2692 190.127 50.0053 190.577 50.6797L192.241 49.5703ZM191.32 47.7958C191.195 47.4193 191.069 47.0619 190.942 46.7239L189.069 47.4261C189.186 47.7387 189.304 48.0727 189.423 48.4282L191.32 47.7958ZM190.954 46.7588C190.801 46.2992 190.584 45.8777 190.286 45.5198L188.749 46.8002C188.858 46.9303 188.966 47.1188 189.057 47.3912L190.954 46.7588ZM190.331 45.5788C190.029 45.156 189.637 44.8272 189.172 44.5946L188.277 46.3834C188.463 46.4762 188.599 46.5947 188.704 46.7412L190.331 45.5788ZM189.255 44.641C188.711 44.3013 188.054 44.184 187.383 44.184V46.184C187.849 46.184 188.087 46.27 188.195 46.337L189.255 44.641ZM187.383 44.184C186.12 44.184 184.936 44.5517 183.847 45.2614L184.94 46.9366C185.722 46.4263 186.53 46.184 187.383 46.184V44.184ZM183.83 45.2728C182.819 45.9623 181.94 46.8702 181.188 47.9767L182.841 49.1013C183.472 48.1744 184.179 47.4557 184.957 46.9252L183.83 45.2728ZM181.183 47.9843C180.471 49.0511 179.905 50.2789 179.474 51.6567L181.383 52.2533C181.766 51.0284 182.257 49.9789 182.847 49.0937L181.183 47.9843ZM179.474 51.6567C179.037 53.056 178.819 54.4986 178.819 55.981H180.819C180.819 54.698 181.007 53.4567 181.383 52.2533L179.474 51.6567ZM178.819 55.981C178.819 57.917 179.008 59.7583 179.391 61.5024L181.344 61.0736C180.995 59.483 180.819 57.7864 180.819 55.981H178.819ZM179.396 61.525C179.823 63.2772 180.449 64.8405 181.284 66.2026L182.989 65.1574C182.279 63.9981 181.725 62.6334 181.339 61.051L179.396 61.525ZM181.284 66.2026C182.125 67.5752 183.177 68.6992 184.442 69.5575L185.565 67.9025C184.553 67.2155 183.693 66.3061 182.989 65.1574L181.284 66.2026ZM184.476 69.5796C185.835 70.4233 187.406 70.828 189.152 70.828V68.828C187.725 68.828 186.53 68.5007 185.531 67.8804L184.476 69.5796ZM189.152 70.828C191.171 70.828 192.906 70.3664 194.266 69.347L193.066 67.747C192.147 68.4356 190.874 68.828 189.152 68.828V70.828ZM194.283 69.3333C195.515 68.3653 196.64 67.127 197.662 65.6355L196.013 64.5045C195.084 65.8597 194.093 66.9394 193.048 67.7607L194.283 69.3333ZM196.276 65.8975L197.984 67.0565L199.107 65.4015L197.399 64.2425L196.276 65.8975ZM217.843 43.903H218.843V42.903H217.843V43.903ZM217.843 46.587V47.587H218.843V46.587H217.843ZM209.852 46.587V45.587H208.852V46.587H209.852ZM210.767 69.34L209.999 69.9802L210.008 69.991L210.018 70.0016L210.767 69.34ZM216.318 69.706L216.8 70.5822L216.817 70.5732L216.833 70.5635L216.318 69.706ZM218.758 68.059L219.659 67.6234L219.13 66.5305L218.158 67.259L218.758 68.059ZM219.673 69.95L220.346 70.6899L220.899 70.1872L220.574 69.5144L219.673 69.95ZM215.708 72.878L216.189 73.7549L216.199 73.7496L215.708 72.878ZM204.911 46.587H205.911V45.587H204.911V46.587ZM201.129 46.587H200.129V47.587H201.129V46.587ZM201.129 43.903V42.903H200.129V43.903H201.129ZM205.033 43.903V44.903H206.033V43.903H205.033ZM205.033 35.912L204.402 35.1368L204.033 35.4369V35.912H205.033ZM209.974 31.886H210.974V29.7813L209.343 31.1108L209.974 31.886ZM209.974 43.903H208.974V44.903H209.974V43.903ZM216.843 43.903V46.587H218.843V43.903H216.843ZM217.843 45.587H209.852V47.587H217.843V45.587ZM208.852 46.587V65.68H210.852V46.587H208.852ZM208.852 65.68C208.852 67.4565 209.16 68.9729 209.999 69.9802L211.536 68.6998C211.155 68.2431 210.852 67.3195 210.852 65.68H208.852ZM210.018 70.0016C210.913 71.0167 212.355 71.377 214 71.377V69.377C212.556 69.377 211.842 69.046 211.517 68.6784L210.018 70.0016ZM214 71.377C214.94 71.377 215.878 71.0894 216.8 70.5822L215.837 68.8298C215.132 69.2172 214.525 69.377 214 69.377V71.377ZM216.833 70.5635C217.678 70.0566 218.52 69.4882 219.358 68.859L218.158 67.259C217.371 67.8498 216.586 68.3794 215.804 68.8485L216.833 70.5635ZM217.858 68.4946L218.773 70.3856L220.574 69.5144L219.659 67.6234L217.858 68.4946ZM219.001 69.2101C217.703 70.3898 216.442 71.3182 215.218 72.0064L216.199 73.7496C217.578 72.9738 218.96 71.9502 220.346 70.6899L219.001 69.2101ZM215.228 72.0012C214.152 72.591 212.763 72.915 211.011 72.915V74.915C213.001 74.915 214.743 74.5477 216.189 73.7548L215.228 72.0012ZM211.011 72.915C209.25 72.915 208.056 72.3053 207.256 71.1612C206.41 69.9519 205.911 68.0138 205.911 65.192H203.911C203.911 68.1855 204.429 70.6089 205.617 72.3073C206.85 74.0709 208.707 74.915 211.011 74.915V72.915ZM205.911 65.192V46.587H203.911V65.192H205.911ZM204.911 45.587H201.129V47.587H204.911V45.587ZM202.129 46.587V43.903H200.129V46.587H202.129ZM201.129 44.903H205.033V42.903H201.129V44.903ZM206.033 43.903V35.912H204.033V43.903H206.033ZM205.665 36.6872L210.606 32.6612L209.343 31.1108L204.402 35.1368L205.665 36.6872ZM208.974 31.886V43.903H210.974V31.886H208.974ZM209.974 44.903H217.843V42.903H209.974V44.903Z" fill="#F7D9D3"/>
</svg>
