<svg width="100" height="89" viewBox="0 0 100 89" fill="none" xmlns="http://www.w3.org/2000/svg">
<g clip-path="url(#clip0_22_13)">
<path d="M49.81 53.28C51.5549 53.282 53.2611 52.7664 54.7129 51.7984C56.1646 50.8305 57.2967 49.4537 57.9657 47.8422C58.6348 46.2307 58.8109 44.457 58.4718 42.7454C58.1326 41.0339 57.2933 39.4613 56.0602 38.2268C54.8271 36.9923 53.2556 36.1513 51.5444 35.8102C49.8332 35.4691 48.0593 35.6431 46.4471 36.3104C44.8348 36.9777 43.4567 38.1082 42.4871 39.5588C41.5175 41.0095 41 42.7151 41 44.46C40.9987 45.6178 41.2256 46.7645 41.6678 47.8345C42.1099 48.9045 42.7586 49.8769 43.5769 50.6961C44.3951 51.5152 45.3667 52.165 46.4363 52.6084C47.5058 53.0518 48.6522 53.28 49.81 53.28Z" fill="#009563"/>
<path d="M49.81 62.52C75.93 62.52 97.11 54.44 97.11 44.46C97.11 34.48 75.93 26.4 49.81 26.4C23.69 26.4 2.5 34.49 2.5 44.46C2.5 54.43 23.68 62.52 49.81 62.52Z" stroke="#009563" stroke-width="5"/>
<path d="M34.16 53.49C47.23 76.12 64.82 90.42 73.46 85.43C82.1 80.44 78.51 58.06 65.46 35.43C52.41 12.8 34.79 -1.50002 26.15 3.48998C17.51 8.47998 21.1 30.87 34.16 53.49Z" stroke="#009563" stroke-width="5"/>
<path d="M34.16 35.43C21.1 58.06 17.51 80.43 26.16 85.43C34.81 90.43 52.4 76.12 65.46 53.49C78.52 30.86 82.11 8.48999 73.46 3.48999C64.81 -1.51001 47.23 12.8 34.16 35.43Z" stroke="#009563" stroke-width="5"/>
</g>
<defs>
<clipPath id="clip0_22_13">
<rect width="99.61" height="88.92" fill="white"/>
</clipPath>
</defs>
</svg>
