<svg width="100" height="75" viewBox="0 0 100 75" fill="none" xmlns="http://www.w3.org/2000/svg">
<g clip-path="url(#clip0_22_21)">
<path d="M86.1101 43.11C82.9702 43.1158 79.8724 43.8339 77.0501 45.21C76.1799 43.7415 75.5074 42.1646 75.0501 40.52C74.779 39.2046 74.7182 37.8545 74.8701 36.52C75.1546 35.0968 75.5321 33.6938 76.0001 32.32C76.0001 32.13 75.7801 31.32 73.7701 31.26C71.7601 31.2 70.0201 31.64 69.7701 32.17C69.4226 33.1499 69.142 34.1522 68.9301 35.17C68.5801 36.99 64.9301 43.51 62.8101 46.93C62.1847 45.8592 61.7166 44.7041 61.4201 43.5C61.1543 42.2008 61.0935 40.868 61.2401 39.55C61.547 38.1097 61.9444 36.6902 62.4301 35.3C62.4301 35.11 62.2101 34.25 60.2001 34.24C58.1901 34.23 56.4601 34.62 56.2601 35.15C56.0601 35.68 55.8401 36.92 55.4201 38.15C55.0001 39.38 50.2001 50.2 48.9201 53C48.2601 54.44 47.7001 55.59 47.2901 56.38C47.2745 56.4333 47.2509 56.4838 47.2201 56.53L46.6701 57.53C46.4001 58.02 46.1101 58.48 45.9601 58.48C45.6923 57.4606 45.6923 56.3894 45.9601 55.37C46.6901 51.59 48.4201 45.71 48.4001 45.51C48.3801 45.31 48.7301 44.37 47.2701 43.84C46.9321 43.6811 46.5535 43.6295 46.1853 43.6921C45.817 43.7547 45.4767 43.9284 45.2101 44.19C45.0801 44.19 44.9901 44.5 44.9901 44.5C44.9901 44.5 46.6201 38 42.0001 38C39.1101 38 35.1301 41.16 33.1601 44L26.4301 47.67C25.3601 48.27 24.2401 48.88 23.2001 49.44C23.1301 49.37 23.0601 49.28 22.9801 49.21C17.3901 43.2 7.06012 39 7.49012 31C7.66012 28 8.66012 20.37 27.3501 11.06C42.7301 3.48001 55.0001 5.58001 57.0801 10.23C60.0801 16.88 50.5301 29.23 34.6401 31.02C28.5701 31.7 25.3901 29.36 24.6401 28.48C23.8901 27.6 23.6401 27.48 23.3601 27.7C22.8501 27.97 23.1801 28.79 23.3601 29.27C23.8401 30.51 25.7901 32.7 29.1001 33.78C32.0201 34.73 39.1001 35.26 47.7301 31.93C57.3001 28.21 64.8301 17.85 62.6201 9.17001C60.4101 0.490007 45.8001 -2.52999 32.0001 2.38001C23.7501 5.30001 14.8401 9.90001 8.43012 15.9C0.810118 23 -0.399883 29.21 0.100117 31.8C1.87012 41 14.5601 47 19.6401 51.44L18.9501 51.82C16.4101 53.08 6.73012 58.14 4.32012 63.5C1.58012 69.56 4.75012 73.91 6.85012 74.5C13.3801 76.31 20.0801 73.06 23.6801 67.69C27.2801 62.32 26.8401 55.34 25.1701 52.14C25.1606 52.0876 25.1363 52.0391 25.1001 52L27.1001 50.84C28.4001 50.07 29.6801 49.36 30.7701 48.77C30.0307 50.9153 29.5965 53.1539 29.4801 55.42C29.2001 58.85 30.6101 63.31 32.4801 65.06C32.8111 65.3454 33.1954 65.5621 33.6109 65.6978C34.0263 65.8334 34.4645 65.8851 34.9001 65.85C37.0501 65.85 38.0201 64.06 39.1001 61.94C40.4101 59.35 41.6001 56.33 41.6001 56.33C41.6001 56.33 40.0801 64.5 44.1001 64.5C45.5601 64.5 47.0401 62.6 47.7001 61.63L47.8101 61.45L48.0401 61.06C48.6301 60.06 49.9401 57.72 51.9001 53.86C54.4201 48.86 56.9001 42.68 56.9001 42.68C57.1484 44.0332 57.4824 45.3692 57.9001 46.68C58.4937 48.284 59.1918 49.8474 59.9901 51.36C59.4001 52.18 59.0401 52.63 59.0401 52.63C58.5601 53.25 58.0401 53.93 57.4801 54.63C55.4801 57 53.1201 59.72 52.7901 60.51C52.5731 60.8563 52.4978 61.2728 52.5797 61.6731C52.6617 62.0734 52.8946 62.4268 53.2301 62.66C53.9783 63.0551 54.8339 63.1989 55.6701 63.07C56.936 62.9968 58.1804 62.7094 59.3501 62.22C60.4798 61.8261 61.5447 61.2666 62.5101 60.56C63.5018 59.8653 64.2984 58.9277 64.8237 57.8368C65.349 56.7459 65.5854 55.5384 65.5101 54.33C65.3925 52.8065 65.003 51.3163 64.3601 49.93C64.5401 49.68 64.7001 49.42 64.8901 49.17C66.9171 46.1336 68.7475 42.9704 70.3701 39.7C70.6184 41.0532 70.9524 42.3892 71.3701 43.7C71.8551 45.079 72.4503 46.4166 73.1501 47.7C70.8122 49.5001 68.9739 51.8686 67.8101 54.58C66.6601 57.91 67.5601 59.41 69.2601 59.75C70.1794 59.8146 71.0988 59.6279 71.9201 59.21C73.1314 58.8116 74.2721 58.2243 75.3001 57.47C77.3001 56.03 79.1401 54.02 79.0301 51.3C78.9426 50.0437 78.6592 48.8088 78.1901 47.64C81.2727 46.4359 84.6152 46.0534 87.8901 46.53C96.5801 47.53 98.3001 52.98 97.9701 55.26C97.8154 56.0708 97.489 56.8392 97.013 57.5135C96.537 58.1879 95.9223 58.7527 95.2101 59.17C94.6101 59.55 94.4101 59.68 94.4601 59.95C94.5101 60.22 94.8301 60.34 95.3401 60.27C96.6228 59.8485 97.7509 59.0547 98.5808 57.9897C99.4107 56.9247 99.9048 55.6368 100 54.29C100.26 48.92 95.1501 43.06 86.1101 43.11ZM19.0001 65.72C16.1101 68.87 12.0901 70.05 10.3601 69.05C8.63012 68.05 9.23012 63.33 12.7701 60.05C14.8803 58.1568 17.1636 56.466 19.5901 55L21.3801 53.92L21.5801 53.81L22.0101 53.54C22.6305 55.655 22.6788 57.8968 22.15 60.0365C21.6212 62.1763 20.5343 64.1375 19.0001 65.72ZM40.0001 51.44C39.0001 53.89 36.9001 60.15 35.6201 59.81C34.5201 59.51 33.8501 54.76 35.4001 50.07C36.192 47.8112 37.3472 45.6967 38.8201 43.81C40.3901 42.05 42.1201 41.47 42.5401 42.18C43.1101 43.11 40.6601 49.91 40.0001 51.44ZM57.3401 59.73C56.9201 59.95 56.5101 60.1 56.3401 59.99C56.1701 59.88 56.5201 59.62 56.5201 59.62C56.5201 59.62 58.7001 57.29 59.5201 56.23C60.0101 55.6 60.5901 54.87 61.2201 54.05V54.29C61.2901 57.08 58.5801 59 57.3801 59.73H57.3401ZM70.7101 56.73C70.4001 56.51 70.4501 55.73 71.4901 53.5C72.2198 52.0301 73.2405 50.7237 74.4901 49.66C74.6784 50.2003 74.7763 50.7679 74.7801 51.34C74.7839 52.5481 74.392 53.7242 73.6642 54.6885C72.9364 55.6529 71.9129 56.3523 70.7501 56.68L70.7101 56.73Z" fill="#009563"/>
</g>
<defs>
<clipPath id="clip0_22_21">
<rect width="100" height="74.99" fill="white"/>
</clipPath>
</defs>
</svg>
