<svg width="299" height="100" viewBox="0 0 299 100" fill="none" xmlns="http://www.w3.org/2000/svg">
<path d="M20.5 27.25C20.5 30.0997 21.5 32.9771 21.5 35.8056C21.5 37.287 21.5 38.7685 21.5 40.25" stroke="black" stroke-width="2" stroke-linecap="round"/>
<path d="M21 27.543C23.595 27.543 26.1076 26.7639 28.7356 27.0722C31.5674 27.4044 31.9638 31.7776 31.9993 33.9683C32.0787 38.8777 25.6879 40.7743 21.9999 42" stroke="black" stroke-width="2" stroke-linecap="round"/>
<path d="M21 27.543C23.595 27.543 26.1076 26.7639 28.7356 27.0722C31.5674 27.4044 31.9638 31.7776 31.9993 33.9683C32.0787 38.8777 25.6879 40.7743 21.9999 42" stroke="black" stroke-width="2" stroke-linecap="round"/>
<path d="M42 29.5C36.8473 29.5 35.3763 40.3296 40.1528 41.6111C44.6613 42.8207 48.5197 38.1582 49.0973 34C49.4965 31.1257 45.6279 29.75 43.25 29.75" stroke="black" stroke-width="2" stroke-linecap="round"/>
<path d="M54.5 40.75C54.5 39 54.5 37.25 54.5 35.5C54.5 34.4397 54.0566 32.2479 54.5556 31.25C55.5845 29.192 60.6029 36.3433 61.1944 36.9444C61.8077 37.5676 64.1908 40.3464 64.75 38.8333C65.8848 35.7626 65.257 31.493 67.75 29" stroke="black" stroke-width="2" stroke-linecap="round"/>
<path d="M75.25 25.75C75.25 27.9491 75.0252 31.3624 72.75 32.5" stroke="black" stroke-width="2" stroke-linecap="round"/>
<path d="M84 30V40.75" stroke="black" stroke-width="2" stroke-linecap="round"/>
<path d="M78.75 32.75C81.3068 30.5419 84.8131 28.8212 87.8333 27.3611C89.2938 26.6551 91.176 26.1327 92.5 25.25" stroke="black" stroke-width="2" stroke-linecap="round"/>
<path d="M31.25 59.75C31.25 63.523 33 67.3411 33 71.125C33 71.4058 33.0204 72.9502 33 71.8889C32.9518 69.3813 31.9123 66.9987 31.4445 64.5556C31.132 62.9236 30.2293 60.2546 32.5 59.75C33.9862 59.4197 39.75 58.1176 39.75 60.5C39.75 62.1667 38.0899 63.3974 36.6945 64C36.0063 64.2972 33.9702 64.2262 34.5556 64.6944C35.2464 65.2471 37.3407 64.7853 38.25 65.1389C39.1883 65.5038 40.3652 65.7582 40.8611 66.75C42.0365 69.1008 41.5717 70.9893 39.3056 72.5C38.5028 73.0352 38.034 73.5 37 73.5C36.4115 73.5 34.7714 73.2072 34.5 73.75" stroke="black" stroke-width="2" stroke-linecap="round"/>
<path d="M48.25 58C46.0756 58 45.0558 57.6835 45 60.1945C44.9347 63.1319 45.3785 65.8674 45.8056 68.75C45.961 69.7989 45.9673 73.703 47.6111 73.75C50.4371 73.8308 53.6577 72.5616 56 71" stroke="black" stroke-width="2" stroke-linecap="round"/>
<path d="M46.5 67C47.5226 66.0796 49.2167 65.6778 50.5 65.25" stroke="black" stroke-width="2" stroke-linecap="round"/>
<path d="M69.5 58C68.4553 58 64.841 57.8627 64.75 59.5C64.6122 61.9807 66.8052 62.2049 68.7361 63C70.4127 63.6904 71.7486 64.1643 71.4861 66.2639C71.306 67.7047 69.1045 68.6297 68 69.1945C67.1177 69.6457 66.0278 70.5 65 70.5" stroke="black" stroke-width="2" stroke-linecap="round"/>
<path d="M74.75 59C74.75 63.0523 75.4272 67.2407 76 71.25" stroke="black" stroke-width="2" stroke-linecap="round"/>
<path d="M78.5 59C78.5 62.2015 79.75 65.3153 79.75 68.5" stroke="black" stroke-width="2" stroke-linecap="round"/>
<path d="M74.5 66C76.0027 66 77.3479 65 78.75 65" stroke="black" stroke-width="2" stroke-linecap="round"/>
<path d="M82.5 58.5C84.2729 58.6612 85.3772 61 87.25 61" stroke="black" stroke-width="2" stroke-linecap="round"/>
<path d="M91.25 56C89.8905 57.5195 89.0129 59.7829 88 61.5556C86.901 63.4789 85.6943 65.4011 84.8889 67.4722C84.3718 68.8018 83.75 70.3299 83.75 71.75" stroke="black" stroke-width="2" stroke-linecap="round"/>
<path d="M18.75 69.75C18.75 73.037 18.7439 75.9874 20.1944 79C20.956 80.5816 21.3683 81.7157 22.875 82.7639C24.3218 83.7703 25.9252 84.283 27.5 85.0556C33.0093 87.7582 39.1936 88 45.25 88" stroke="black" stroke-width="2" stroke-linecap="round"/>
<path d="M44.25 80.75C46.5089 83.0089 48.9242 85.1194 51.1944 87.3056C51.6261 87.7212 52.4 88.1875 52.75 88.625C53.2902 89.3003 51.7781 89.4859 51.25 89.75C49.5951 90.5774 47.0786 91.6714 45.75 93C45.0583 93.6917 44.34 94.83 43.5 95.25" stroke="black" stroke-width="2" stroke-linecap="round"/>
<path d="M174.5 25.5C174.5 27.6991 174.275 31.1124 172 32.25" stroke="black" stroke-width="2" stroke-linecap="round"/>
<path d="M177.75 58.75C177.75 61.9515 179 65.0653 179 68.25" stroke="black" stroke-width="2" stroke-linecap="round"/>
<path d="M123.25 29C123.25 33 123.25 37 123.25 41C123.25 42.1152 123.151 43.2039 123.5 44.25" stroke="black" stroke-width="2" stroke-linecap="round"/>
<path d="M123.5 29.25C125.727 29.25 128.703 29.2873 130.056 31.5C130.976 33.0055 133.429 35.0927 133.5 36.9444C133.549 38.2256 133.459 38.7822 132.75 39.8056C132.039 40.8329 130.984 42.0444 129.944 42.75C128.715 43.584 127.386 44.2934 126.25 45.25C125.355 46.004 123.978 46.0983 123 46.75" stroke="black" stroke-width="2" stroke-linecap="round"/>
<path d="M143.25 31C140.139 31 139.082 33.8864 138.125 36.375C137.432 38.1756 138.139 40.4558 139.25 41.875C140.531 43.5114 142.442 43.75 144.375 43.75C147.732 43.75 147.139 38.5665 146.806 36.4167C146.636 35.327 146.001 34.1959 145.444 33.25C144.9 32.3246 143.668 32.3061 142.75 32" stroke="black" stroke-width="2" stroke-linecap="round"/>
<path d="M153.75 42.25C153.75 38.1866 153.525 34.0586 153.75 30C153.788 29.3227 156.364 32.5806 156.625 32.8611C158.232 34.5868 160.108 35.9498 161.361 38C161.974 39.0025 162.518 40.0697 163.306 40.9444C164.088 41.8141 163.738 38.7808 163.764 38.3611C163.975 34.8758 165.173 31.7316 166.25 28.5" stroke="black" stroke-width="2" stroke-linecap="round"/>
<path d="M178.25 33.25C181.977 33.1169 185.892 31.1079 188.889 29.0556C190.074 28.2438 192.182 26.25 193.75 26.25" stroke="black" stroke-width="2" stroke-linecap="round"/>
<path d="M186 31.25C186 35.3783 186.5 39.6819 186.5 43.75" stroke="black" stroke-width="2" stroke-linecap="round"/>
<path d="M129.75 60C129.75 64.5167 130 69.0228 130 73.5" stroke="black" stroke-width="2" stroke-linecap="round"/>
<path d="M129.75 61.25C132.473 61.25 140.837 60.8541 135.694 65.25C134.391 66.3642 133.312 67.25 131.639 67.25C129.449 67.25 136.047 67.2649 138.194 67.6944C139.623 67.9801 139.642 68.4734 140.139 69.75C140.951 71.8383 139.873 72.3691 138 73.3056C136.059 74.2759 133.99 74.6148 132 75.3889C131.119 75.7315 128.141 75.9674 127.75 76.75" stroke="black" stroke-width="2" stroke-linecap="round"/>
<path d="M147.5 59.25C146.166 59.25 142.75 59.2575 142.75 61.375C142.75 62.5597 143.102 63.4892 143.75 64.5C144.66 65.9185 144.909 67.4135 145.5 68.9444C145.704 69.4722 147.038 72.7437 147.639 72.3611C149.243 71.3402 152.084 69.75 154 69.75" stroke="black" stroke-width="2" stroke-linecap="round"/>
<path d="M146 66C146.718 65.9601 147.306 65.5 148 65.5" stroke="black" stroke-width="2" stroke-linecap="round"/>
<path d="M168.5 58C166.049 58 163.967 58.1009 162.625 60.4861C161.123 63.156 163.96 63.9293 166.125 64.25C168.368 64.5823 169.797 65.8405 169.194 68.25C168.6 70.6276 164.837 71.8044 162.75 72.5" stroke="black" stroke-width="2" stroke-linecap="round"/>
<path d="M172 59C172 61.3157 172.265 63.6292 172.764 65.875C173.025 67.0487 173.75 67.9958 173.75 69.25" stroke="black" stroke-width="2" stroke-linecap="round"/>
<path d="M173.75 65.75C174.783 65.75 175.898 65.0682 176.75 64.5" stroke="black" stroke-width="2" stroke-linecap="round"/>
<path d="M181.75 58.75C182.425 58.9 183.428 60.6595 183.944 61.1944C184.383 61.6486 184.656 62.2341 185 62.75" stroke="black" stroke-width="2" stroke-linecap="round"/>
<path d="M183.25 71.5C183.25 68.4506 184.405 65.8724 185.056 62.9444C185.552 60.7124 186.631 58.3693 188.25 56.75" stroke="black" stroke-width="2" stroke-linecap="round"/>
<path d="M223.25 28.75C227.373 28.75 230.75 31.7799 230.75 36C230.75 36.94 230.654 37.5574 230 38.25C229.48 38.8006 228.428 40.0771 227.736 40.25C226.202 40.6335 224.284 41.6302 222.875 42.3889C221.943 42.8909 220.761 43.1629 219.75 43.5" stroke="black" stroke-width="2" stroke-linecap="round"/>
<path d="M221.25 26.75C221.25 28.755 221.433 30.7976 220.944 32.75C220.487 34.5794 220 36.6205 220 38.5C220 40.6382 218.75 42.76 218.75 44.75" stroke="black" stroke-width="2" stroke-linecap="round"/>
<path d="M244.25 30C242.843 30 241.572 29.796 240.375 30.625C239.273 31.3876 238.469 33.0441 238.264 34.375C237.927 36.5622 237.302 39.8587 240.125 40.4861C241.783 40.8545 243.404 39.2364 244.75 38.4444C245.646 37.9173 245.624 36.7432 246.25 36C247.961 33.9687 246.308 31.186 244.25 30.5" stroke="black" stroke-width="2" stroke-linecap="round"/>
<path d="M250 40.25C250 36.0823 251.5 32.4357 252.236 28.3889C252.385 27.5707 252.547 26.005 253.139 27.5278C254.074 29.9323 255.676 32.1648 256.986 34.375C258.25 36.5083 259.212 38.8118 260.444 40.9444C260.802 41.564 261.21 42.223 261.5 42.875C261.857 43.6774 261.75 41.87 261.75 41.6944C261.75 37.5556 262.119 33.434 262.25 29.3056C262.289 28.0771 262.629 27.1117 263 26" stroke="black" stroke-width="2" stroke-linecap="round"/>
<path d="M268.25 32C269.394 30.856 270.114 29.5576 270.444 27.9444C270.64 26.9873 270.569 25.861 271 25" stroke="black" stroke-width="2" stroke-linecap="round"/>
<path d="M279 32.25V44" stroke="black" stroke-width="2" stroke-linecap="round"/>
<path d="M270.75 35.5C271.799 35.5 272.635 34.771 273.5 34.25C275.314 33.1574 277.219 32.1571 279.139 31.2639C281.456 30.1859 283.489 28.6304 285.75 27.5" stroke="black" stroke-width="2" stroke-linecap="round"/>
<path d="M249 59.5C248.212 59.5 245.877 59.1227 245.25 59.75C244.601 60.3989 245.235 62.1204 245.375 62.875C245.62 64.1997 245.602 65.6424 245.736 66.9861C245.879 68.4197 245.484 70.0232 246.014 71.3472C246.074 71.4983 251.833 69.4724 252.5 69.25" stroke="black" stroke-width="2" stroke-linecap="round"/>
<path d="M246 66.5C246.709 66.5 247.386 66.0569 248 65.75" stroke="black" stroke-width="2" stroke-linecap="round"/>
<path d="M231 60.25C231 62.9302 231.268 65.5678 231.806 68.1944C232.002 69.1534 232.25 70.2855 232.25 71.25" stroke="black" stroke-width="2" stroke-linecap="round"/>
<path d="M231.25 60.5C233.013 60.5 235.632 59.9964 237.25 60.8056C238.771 61.566 239.023 63.6804 237.5 64.6111C236.583 65.1713 235.263 65.4618 234.194 65.5C232.703 65.5532 235.286 65.5 235.625 65.5C236.777 65.5 240.393 64.8869 241.194 66.25C244.322 71.5668 233.996 70.5083 232.5 73.5" stroke="black" stroke-width="2" stroke-linecap="round"/>
<path d="M269.25 58.5C267.253 58.5 264.102 57.8528 262.75 59.8056C261.217 62.0201 264.708 62.6038 266.25 63.375C267.262 63.8812 269.368 66.0942 268.875 67.375C268.191 69.154 265.359 70.5 263.5 70.5" stroke="black" stroke-width="2" stroke-linecap="round"/>
<path d="M273.5 70.75C273.5 66.7715 273.75 62.6408 273.75 58.75" stroke="black" stroke-width="2" stroke-linecap="round"/>
<path d="M279.5 58.25C279.5 61.0338 279.75 63.8909 279.75 66.625C279.75 67.8263 280.25 68.9787 280.25 70.25" stroke="black" stroke-width="2" stroke-linecap="round"/>
<path d="M273 66.5C274.16 66.384 276.003 64.9149 277 64.25" stroke="black" stroke-width="2" stroke-linecap="round"/>
<path d="M283.25 58.75C284.447 58.883 285.618 60.729 286.611 61.3611C287.381 61.8509 287.999 62.4992 288.75 63" stroke="black" stroke-width="2" stroke-linecap="round"/>
<path d="M285.75 72.25C285.75 68.6571 286.676 65.4858 288.25 62.25C289.189 60.3203 291.009 59.4913 292.5 58" stroke="black" stroke-width="2" stroke-linecap="round"/>
<path d="M220.75 74.25C220.75 77.9101 222.678 80.0669 225.25 82.5C228.242 85.3306 232.56 85.236 236.194 86.5C238.578 87.329 241.791 87.25 244.306 87.25C245.787 87.25 247.269 87.25 248.75 87.25" stroke="black" stroke-width="2" stroke-linecap="round"/>
<path d="M247.5 81C248.061 81.5051 254.839 86.8317 254.611 87.125C253.156 88.9959 250.737 89.9454 249 91.5C248.299 92.1272 247.065 92.5565 246.75 93.5" stroke="black" stroke-width="2" stroke-linecap="round"/>
<path d="M119.5 75.25C119.5 78.3662 119.451 81.4564 121.25 84.0556C122.816 86.3177 127.551 87.7623 130.125 87.9861C136.536 88.5436 142.827 90 149.25 90" stroke="black" stroke-width="2" stroke-linecap="round"/>
<path d="M149.5 85.5C150.182 86.1066 157.515 90.6165 157.444 90.6944C156.903 91.2957 154.892 91.4457 154.139 91.625C152.934 91.9119 151.852 92.574 150.75 93.125C149.852 93.574 148.665 94.1115 147.944 94.8056C147.439 95.2927 146.835 95.9575 146.25 96.25" stroke="black" stroke-width="2" stroke-linecap="round"/>
</svg>
