<svg width="302" height="102" viewBox="0 0 302 102" fill="none" xmlns="http://www.w3.org/2000/svg">
<rect x="0.5" y="0.5" width="301" height="101" rx="50.5" fill="#009563" stroke="#009563"/>
<path d="M20.486 62.155L23.142 61.574C23.972 63.4 24.9403 65.2813 26.047 67.218C27.209 69.0993 28.537 70.8423 30.031 72.447C31.5803 74.0517 33.2957 75.3797 35.177 76.431C37.1137 77.427 39.2993 77.925 41.734 77.925C42.9513 77.925 44.224 77.7037 45.552 77.261C46.88 76.8183 48.0697 76.1543 49.121 75.269C50.2277 74.3837 51.113 73.3323 51.777 72.115C52.4963 70.8423 52.856 69.376 52.856 67.716C52.856 64.894 52.109 62.6253 50.615 60.91C49.1763 59.1393 47.3503 57.6453 45.137 56.428C42.9237 55.2107 40.5443 54.104 37.999 53.108C35.4537 52.112 33.0743 50.9223 30.861 49.539C28.6477 48.1557 26.794 46.4403 25.3 44.393C23.8613 42.3457 23.142 39.662 23.142 36.342C23.142 34.1287 23.5017 32.0537 24.221 30.117C24.9957 28.1803 26.0747 26.5203 27.458 25.137C28.8413 23.7537 30.4737 22.6747 32.355 21.9C34.2363 21.07 36.3113 20.655 38.58 20.655C39.6867 20.655 40.6827 20.7933 41.568 21.07C42.5087 21.3467 43.3663 21.6233 44.141 21.9C44.9157 22.1767 45.6073 22.4533 46.216 22.73C46.88 23.0067 47.4333 23.145 47.876 23.145C48.8167 23.145 49.702 22.9513 50.532 22.564C51.4173 22.1767 52.275 21.7617 53.105 21.319L56.425 38.168L53.52 38.583C52.8007 36.8677 51.9707 35.1523 51.03 33.437C50.1447 31.6663 49.0657 30.0893 47.793 28.706C46.5203 27.2673 45.054 26.133 43.394 25.303C41.734 24.4177 39.7973 23.975 37.584 23.975C35.1493 23.975 33.102 24.7497 31.442 26.299C29.782 27.793 28.952 29.951 28.952 32.773C28.952 35.6503 29.699 37.919 31.193 39.579C32.687 41.1837 34.5407 42.567 36.754 43.729C39.0227 44.8357 41.4573 45.8593 44.058 46.8C46.6587 47.6853 49.0657 48.8473 51.279 50.286C53.5477 51.6693 55.429 53.4677 56.923 55.681C58.417 57.8943 59.164 60.827 59.164 64.479C59.164 66.5263 58.7767 68.5737 58.002 70.621C57.2273 72.613 56.0653 74.4113 54.516 76.016C53.022 77.5653 51.1407 78.838 48.872 79.834C46.6587 80.7747 44.058 81.245 41.07 81.245C39.7973 81.245 38.6907 81.079 37.75 80.747C36.8093 80.4703 35.924 80.166 35.094 79.834C34.264 79.4467 33.4063 79.1147 32.521 78.838C31.6357 78.506 30.6673 78.34 29.616 78.34C28.3433 78.34 27.2367 78.5613 26.296 79.004C25.3553 79.3913 24.47 79.8063 23.64 80.249L20.486 62.155ZM113.252 76.431L117.734 77.012V80H98.7271V77.012L104.371 76.431L90.1781 47.63L79.9691 59.997V76.431L84.9491 77.012V80H67.0211V77.012L72.0011 76.431V25.469L67.0211 24.888V21.9H84.9491V24.888L79.9691 25.469V54.602H80.3011L96.4031 34.018C97.4545 32.7453 98.3951 31.5833 99.2251 30.532C100.055 29.4253 100.47 28.4293 100.47 27.544C100.47 26.9907 100.221 26.548 99.7231 26.216C99.2805 25.884 98.7271 25.635 98.0631 25.469C97.4545 25.2477 96.8458 25.1093 96.2371 25.054C95.6285 24.9433 95.1858 24.888 94.9091 24.888V21.9H114.912V24.888C114.303 24.9433 113.584 25.0263 112.754 25.137C111.924 25.2477 111.066 25.4413 110.181 25.718C109.351 25.9947 108.521 26.382 107.691 26.88C106.916 27.3227 106.225 27.9037 105.616 28.623L95.3241 41.073L113.252 76.431ZM122.049 80V77.012L128.274 76.431V25.469L122.049 24.888V21.9H142.467V24.888L136.242 25.469V76.431L142.467 77.012V80H122.049ZM154.752 25.469L149.772 24.888V21.9H167.7V24.888L162.72 25.469V76.597C163.661 76.7077 164.574 76.8183 165.459 76.929C166.344 76.9843 167.23 77.012 168.115 77.012C170.937 77.012 173.399 76.7353 175.502 76.182C177.66 75.6287 179.569 74.771 181.229 73.609C182.889 72.447 184.328 70.953 185.545 69.127C186.762 67.2457 187.841 64.977 188.782 62.321L191.438 62.736L187.371 81.245C186.541 80.9683 185.739 80.747 184.964 80.581C184.189 80.4703 183.415 80.3597 182.64 80.249C181.81 80.1383 180.925 80.0553 179.984 80C179.099 80 178.103 80 176.996 80H149.772V77.012L154.752 76.431V25.469ZM200.872 25.469L195.892 24.888V21.9H213.82V24.888L208.84 25.469V76.597C209.781 76.7077 210.694 76.8183 211.579 76.929C212.465 76.9843 213.35 77.012 214.235 77.012C217.057 77.012 219.52 76.7353 221.622 76.182C223.78 75.6287 225.689 74.771 227.349 73.609C229.009 72.447 230.448 70.953 231.665 69.127C232.883 67.2457 233.962 64.977 234.902 62.321L237.558 62.736L233.491 81.245C232.661 80.9683 231.859 80.747 231.084 80.581C230.31 80.4703 229.535 80.3597 228.76 80.249C227.93 80.1383 227.045 80.0553 226.104 80C225.219 80 224.223 80 223.116 80H195.892V77.012L200.872 76.431V25.469ZM241.846 62.155L244.502 61.574C245.332 63.4 246.301 65.2813 247.407 67.218C248.569 69.0993 249.897 70.8423 251.391 72.447C252.941 74.0517 254.656 75.3797 256.537 76.431C258.474 77.427 260.66 77.925 263.094 77.925C264.312 77.925 265.584 77.7037 266.912 77.261C268.24 76.8183 269.43 76.1543 270.481 75.269C271.588 74.3837 272.473 73.3323 273.137 72.115C273.857 70.8423 274.216 69.376 274.216 67.716C274.216 64.894 273.469 62.6253 271.975 60.91C270.537 59.1393 268.711 57.6453 266.497 56.428C264.284 55.2107 261.905 54.104 259.359 53.108C256.814 52.112 254.435 50.9223 252.221 49.539C250.008 48.1557 248.154 46.4403 246.66 44.393C245.222 42.3457 244.502 39.662 244.502 36.342C244.502 34.1287 244.862 32.0537 245.581 30.117C246.356 28.1803 247.435 26.5203 248.818 25.137C250.202 23.7537 251.834 22.6747 253.715 21.9C255.597 21.07 257.672 20.655 259.94 20.655C261.047 20.655 262.043 20.7933 262.928 21.07C263.869 21.3467 264.727 21.6233 265.501 21.9C266.276 22.1767 266.968 22.4533 267.576 22.73C268.24 23.0067 268.794 23.145 269.236 23.145C270.177 23.145 271.062 22.9513 271.892 22.564C272.778 22.1767 273.635 21.7617 274.465 21.319L277.785 38.168L274.88 38.583C274.161 36.8677 273.331 35.1523 272.39 33.437C271.505 31.6663 270.426 30.0893 269.153 28.706C267.881 27.2673 266.414 26.133 264.754 25.303C263.094 24.4177 261.158 23.975 258.944 23.975C256.51 23.975 254.462 24.7497 252.802 26.299C251.142 27.793 250.312 29.951 250.312 32.773C250.312 35.6503 251.059 37.919 252.553 39.579C254.047 41.1837 255.901 42.567 258.114 43.729C260.383 44.8357 262.818 45.8593 265.418 46.8C268.019 47.6853 270.426 48.8473 272.639 50.286C274.908 51.6693 276.789 53.4677 278.283 55.681C279.777 57.8943 280.524 60.827 280.524 64.479C280.524 66.5263 280.137 68.5737 279.362 70.621C278.588 72.613 277.426 74.4113 275.876 76.016C274.382 77.5653 272.501 78.838 270.232 79.834C268.019 80.7747 265.418 81.245 262.43 81.245C261.158 81.245 260.051 81.079 259.11 80.747C258.17 80.4703 257.284 80.166 256.454 79.834C255.624 79.4467 254.767 79.1147 253.881 78.838C252.996 78.506 252.028 78.34 250.976 78.34C249.704 78.34 248.597 78.5613 247.656 79.004C246.716 79.3913 245.83 79.8063 245 80.249L241.846 62.155Z" fill="#F7D9D3"/>
</svg>
