<svg width="302" height="109" viewBox="0 0 302 109" fill="none" xmlns="http://www.w3.org/2000/svg">
<rect x="0.5" y="4.5" width="301" height="101" rx="50.5" fill="black" stroke="black"/>
<path d="M44.572 86.91C30.376 86.91 20.912 79.175 20.912 67.618H21.822C21.822 78.538 30.831 85.909 44.299 85.909C53.945 85.909 60.588 81.177 60.588 73.351C60.588 54.059 21.731 63.523 21.731 39.59C21.731 28.761 30.103 21.39 42.57 21.39C54.855 21.39 63.227 28.397 63.227 38.862H62.317C62.317 28.943 54.491 22.391 43.025 22.391C33.379 22.391 27.282 27.305 27.282 34.676C27.282 53.695 66.139 44.777 66.139 68.619C66.139 79.63 57.221 86.91 44.572 86.91ZM127.718 86H116.525L88.9516 53.877H83.1276V86H74.4826V22.3H83.1276V52.967H89.2246L120.074 22.3H121.53L95.9586 47.507L127.718 86ZM140.269 86H131.624V22.3H140.269V86ZM160.886 22.3V85.09H191.007V86H152.241V22.3H160.886ZM206.831 22.3V85.09H236.952V86H198.186V22.3H206.831ZM259.897 86.91C245.701 86.91 236.237 79.175 236.237 67.618H237.147C237.147 78.538 246.156 85.909 259.624 85.909C269.27 85.909 275.913 81.177 275.913 73.351C275.913 54.059 237.056 63.523 237.056 39.59C237.056 28.761 245.428 21.39 257.895 21.39C270.18 21.39 278.552 28.397 278.552 38.862H277.642C277.642 28.943 269.816 22.391 258.35 22.391C248.704 22.391 242.607 27.305 242.607 34.676C242.607 53.695 281.464 44.777 281.464 68.619C281.464 79.63 272.546 86.91 259.897 86.91Z" fill="#F0EDE5"/>
</svg>
